<svg width="166" height="57" viewBox="0 0 166 57" fill="none" xmlns="http://www.w3.org/2000/svg">
<path d="M165.714 23.1195C165.714 30.0722 162.476 36.3031 157.396 40.4505C157.135 40.6637 156.867 40.8745 156.596 41.0731C153.943 43.0596 150.837 44.4938 147.46 45.2157V49.9518H137.467V41.124C137.467 40.8841 137.492 40.6467 137.524 40.4093C137.765 37.9383 139.896 36.0027 142.495 36.0027C143.733 36.0027 144.932 35.8355 146.07 35.5206L153.575 38.2702L154.211 38.5028L153.943 37.7736L151.889 32.175C154.256 29.8445 155.718 26.6443 155.718 23.1171C155.718 22.8772 155.71 22.6398 155.696 22.4C155.638 21.3534 155.449 20.3408 155.146 19.3742V19.3718C154.92 18.6353 154.624 17.9279 154.268 17.2545C154.171 17.0679 154.072 16.8862 153.965 16.707C153.893 16.5834 153.821 16.4647 153.746 16.346C152.851 14.9433 151.687 13.7175 150.327 12.7412C148.132 11.1617 145.421 10.2314 142.492 10.2314C140.356 10.2314 138.315 10.7135 136.43 11.6583C136.271 11.7359 136.114 11.8061 135.953 11.8691C133.601 12.7727 130.883 11.8061 129.694 9.57735C129.47 9.15825 129.319 8.72218 129.232 8.28128C128.809 6.20998 129.816 4.02968 131.84 3.01462C135.115 1.37212 138.802 0.5 142.497 0.5C154.778 0.5 164.858 9.83414 165.664 21.6005V21.603C165.699 22.1044 165.714 22.6107 165.714 23.1195Z" fill="#604DE9"/>
<path d="M147.491 51.6065V52.7064C147.491 52.8735 147.351 53.0092 147.18 53.0092H138.079C137.908 53.0092 137.768 52.8735 137.768 52.7064V51.6065C137.768 51.4394 137.908 51.3037 138.079 51.3037H147.182C147.351 51.3037 147.491 51.4394 147.491 51.6065Z" fill="#E54322"/>
<path d="M146.787 54.0727V54.9375C146.787 55.1022 146.65 55.2331 146.484 55.2331H144.567V55.8435C144.567 56.2045 144.266 56.5001 143.895 56.5001H141.369C140.994 56.5001 140.695 56.2045 140.695 55.8435V55.2331H138.778C138.611 55.2331 138.475 55.0998 138.475 54.9375V54.0727C138.475 53.9079 138.611 53.7771 138.778 53.7771H146.486C146.653 53.7771 146.787 53.9079 146.787 54.0727Z" fill="#E54322"/>
<path d="M138.35 23.5556C138.35 24.6337 137.455 25.5082 136.349 25.5082C135.245 25.5082 134.347 24.6337 134.347 23.5556C134.347 22.48 135.245 21.6055 136.349 21.6055C137.455 21.6055 138.35 22.48 138.35 23.5556Z" fill="#E54322"/>
<path d="M143.94 23.5556C143.94 24.6337 143.045 25.5082 141.938 25.5082C140.834 25.5082 139.937 24.6337 139.937 23.5556C139.937 22.48 140.834 21.6055 141.938 21.6055C143.047 21.6055 143.94 22.48 143.94 23.5556Z" fill="#E54322"/>
<path d="M149.532 23.5556C149.532 24.6337 148.634 25.5082 147.53 25.5082C146.424 25.5082 145.529 24.6337 145.529 23.5556C145.529 22.48 146.424 21.6055 147.53 21.6055C148.634 21.6055 149.532 22.48 149.532 23.5556Z" fill="#E54322"/>
<path d="M165.714 23.1195C165.714 30.0722 162.477 36.3031 157.397 40.4505C159.906 29.297 155.686 20.4401 155.152 19.3766C155.194 19.505 155.229 19.6383 155.269 19.7667C154.301 16.7821 152.705 14.7568 150.333 12.7436C148.137 11.1641 145.427 10.2339 142.498 10.2339C140.362 10.2339 138.321 10.716 136.436 11.6608C136.277 11.7383 136.12 11.8085 135.958 11.8715C133.606 12.7751 130.888 11.8085 129.7 9.57977C129.476 9.16067 129.324 8.72461 129.237 8.2837C128.815 6.21241 129.822 4.0321 131.846 3.01704C135.115 1.37212 138.803 0.5 142.498 0.5C154.779 0.5 164.859 9.83414 165.665 21.6005V21.603C165.699 22.1044 165.714 22.6107 165.714 23.1195Z" fill="#CC3C1E"/>
<path d="M165.665 21.6005C151.957 -3.13385 130.923 7.74589 129.237 8.28612C128.815 6.21483 129.822 4.03452 131.846 3.01947C135.115 1.37212 138.803 0.5 142.498 0.5C154.779 0.5 164.859 9.83414 165.665 21.6005Z" fill="#E54322"/>
<path d="M165.664 21.6006C163.879 18.5167 161.778 15.5975 159.249 13.0683L158.777 12.5935C158.618 12.436 158.444 12.2955 158.277 12.1453L157.275 11.2538C156.561 10.7111 155.883 10.1273 155.119 9.65249C154.388 9.13164 153.598 8.70527 152.817 8.26194L151.603 7.67568C151.198 7.48187 150.773 7.33409 150.358 7.15967C148.682 6.51042 146.924 6.05498 145.136 5.8103C143.348 5.56078 141.531 5.52928 139.728 5.65768C136.11 5.90963 132.587 6.92226 129.235 8.28616C130.893 7.56424 132.584 6.89561 134.337 6.40625C136.088 5.9072 137.888 5.58258 139.705 5.41542C143.341 5.08596 147.068 5.55836 150.474 6.86896C150.895 7.04581 151.325 7.19843 151.735 7.39708L152.961 7.99788C153.749 8.44847 154.547 8.88696 155.283 9.4175C156.052 9.90444 156.735 10.498 157.452 11.0479L158.456 11.9563C158.62 12.1114 158.794 12.2567 158.951 12.4166L159.418 12.9036C159.729 13.2306 160.045 13.5504 160.351 13.8799L161.219 14.9095L161.651 15.423C161.793 15.5975 161.92 15.7816 162.057 15.9584L162.857 17.0365C163.133 17.3902 163.355 17.7802 163.603 18.1508L164.332 19.2749C164.792 20.0477 165.224 20.8278 165.664 21.6006Z" fill="#CC3C1E"/>
<path d="M157.397 40.4506C157.22 40.596 157.041 40.7365 156.862 40.8745C156.701 41.0005 156.536 41.1241 156.367 41.2452C156.052 41.4753 155.728 41.6982 155.4 41.9114C155.311 41.9744 155.216 42.035 155.122 42.0907C154.925 42.2166 154.724 42.3402 154.522 42.4589C154.361 42.5558 154.197 42.6503 154.033 42.7423C153.841 42.8489 153.645 42.9555 153.451 43.0573C153.334 43.1178 153.219 43.176 153.1 43.2365C153.053 43.2608 153.001 43.2874 152.951 43.3116C152.847 43.3625 152.742 43.4134 152.638 43.4594C152.474 43.5418 152.304 43.6169 152.14 43.692C151.934 43.784 151.728 43.8737 151.516 43.956C151.387 44.0118 151.258 44.0626 151.128 44.1111C151.016 44.162 150.9 44.2056 150.783 44.2468C150.35 44.4091 149.907 44.5593 149.462 44.6974C149.281 44.7531 149.097 44.8064 148.91 44.8621C148.751 44.9057 148.59 44.9469 148.431 44.9881C148.276 45.0292 148.12 45.0656 147.966 45.1043C147.796 45.1455 147.63 45.1819 147.461 45.2182V49.9543H137.468V41.1265C137.468 40.8867 137.492 40.6492 137.525 40.4118C137.766 37.9408 139.897 36.0052 142.495 36.0052C143.734 36.0052 144.932 35.838 146.071 35.5231L153.575 38.2727L154.212 38.5053L153.943 37.7761L151.889 32.1775C154.256 29.847 155.718 26.6468 155.718 23.1196C155.718 21.9592 155.559 20.8375 155.263 19.7667C155.224 19.6383 155.189 19.5051 155.147 19.3767C155.686 20.4402 159.906 29.2971 157.397 40.4506Z" fill="#E54322"/>
<g opacity="0.5">
<path d="M157.397 40.4506L157.608 39.1206L157.718 38.4568C157.75 38.2339 157.765 38.0111 157.79 37.7882L157.934 36.4534C157.964 36.0076 157.979 35.5594 158.004 35.1137L158.036 34.4426L158.033 33.7716C158.031 33.3234 158.043 32.8777 158.026 32.4319L157.954 31.0922C157.931 30.6465 157.867 30.2031 157.827 29.7574C157.643 27.9792 157.325 26.2132 156.877 24.4786C156.763 24.045 156.658 23.6089 156.522 23.1826L156.328 22.5382L156.114 21.901C155.825 21.0507 155.512 20.2076 155.139 19.3864L155.166 19.3767L155.268 19.7716L155.139 19.3864L155.166 19.3767C156.012 20.9756 156.629 22.6859 157.128 24.4181C157.616 26.1575 157.949 27.9356 158.148 29.7283C158.339 31.521 158.374 33.3307 158.247 35.1282C158.155 36.9258 157.81 38.7039 157.397 40.4506Z" fill="#7F38F3"/>
</g>
<path d="M165.665 21.6054V21.6005C164.859 9.83414 154.779 0.5 142.498 0.5C138.803 0.5 135.116 1.37212 131.846 3.01947C129.822 4.03452 128.815 6.21483 129.238 8.28612C129.325 8.72703 129.476 9.16309 129.7 9.5822C130.889 11.811 133.606 12.7776 135.959 11.8739C136.12 11.811 136.279 11.7407 136.436 11.6632C138.321 10.716 140.362 10.2363 142.498 10.2363C145.425 10.2363 148.137 11.1666 150.333 12.7461C151.693 13.7199 152.857 14.9482 153.752 16.3508C153.827 16.4695 153.901 16.5907 153.971 16.7118C154.078 16.8911 154.177 17.0728 154.274 17.2593C154.63 17.9328 154.926 18.6402 155.152 19.3766V19.379C155.455 20.3457 155.642 21.3583 155.701 22.4048C155.716 22.6447 155.724 22.8821 155.724 23.1219C155.724 26.6467 154.262 29.8494 151.895 32.1799L153.948 37.7784L154.217 38.5076L153.58 38.2751L146.076 35.5254C144.937 35.8404 143.739 36.0075 142.501 36.0075C139.902 36.0075 137.771 37.9407 137.53 40.4142C137.498 40.6492 137.473 40.889 137.473 41.1288V49.9567H147.466V45.2206C150.843 44.501 153.948 43.0669 156.601 41.078C156.873 40.8793 157.141 40.6685 157.402 40.4554C162.482 36.3079 165.719 30.0771 165.719 23.1243C165.714 22.6108 165.7 22.1044 165.665 21.6054ZM157.191 40.2083C156.902 40.4433 156.646 40.6419 156.4 40.8236C153.722 42.8295 150.691 44.2031 147.394 44.9056L147.138 44.9589V49.6345H137.791V41.1216C137.791 40.8817 137.821 40.6492 137.848 40.4384C138.077 38.0861 140.076 36.3152 142.496 36.3152C143.706 36.3152 144.903 36.1577 146.056 35.8501L154.754 39.0357L152.265 32.255C154.704 29.784 156.045 26.5474 156.045 23.1195C156.045 22.8579 156.037 22.6156 156.022 22.3879C155.965 21.3462 155.781 20.319 155.473 19.3306L155.46 19.2846C155.234 18.5481 154.931 17.8189 154.56 17.1188C154.461 16.9274 154.356 16.7385 154.249 16.5592C154.182 16.4405 154.11 16.3242 154.023 16.1861C153.103 14.7447 151.924 13.5043 150.522 12.4965C148.185 10.8153 145.41 9.92378 142.498 9.92378C140.31 9.92378 138.221 10.418 136.292 11.387C136.148 11.4597 135.998 11.5227 135.839 11.5857C133.609 12.4408 131.095 11.5202 129.986 9.44169C129.782 9.06134 129.638 8.65435 129.553 8.2304C129.151 6.25117 130.153 4.2259 131.993 3.30291C135.22 1.67252 138.85 0.814933 142.498 0.814933C154.513 0.814933 164.543 9.95285 165.342 21.603V21.6272C165.376 22.1044 165.394 22.6083 165.394 23.1219C165.394 29.7234 162.405 35.9542 157.191 40.2083Z" fill="#E54322"/>
<path d="M147.182 51.3037H138.079C137.908 51.3037 137.768 51.4394 137.768 51.6065V52.7064C137.768 52.8735 137.908 53.0092 138.079 53.0092H147.182C147.354 53.0092 147.493 52.8735 147.493 52.7064V51.6065C147.491 51.4394 147.351 51.3037 147.182 51.3037ZM138.092 52.7064L138.079 51.6186H147.17L147.182 52.6943L138.092 52.7064Z" fill="#E54322"/>
<path d="M146.484 53.7771H138.775C138.609 53.7771 138.472 53.9103 138.472 54.0727V54.9375C138.472 55.1022 138.609 55.2331 138.775 55.2331H140.693V55.8435C140.693 56.2045 140.993 56.5001 141.366 56.5001H143.893C144.263 56.5001 144.564 56.2045 144.564 55.8435V55.2331H146.481C146.65 55.2331 146.785 55.0998 146.785 54.9375V54.0727C146.787 53.9079 146.653 53.7771 146.484 53.7771ZM144.243 54.9181V55.8435C144.243 56.0325 144.089 56.1851 143.895 56.1851H141.369C141.175 56.1851 141.018 56.0301 141.018 55.8435V54.9181H140.695L138.798 54.9375L138.778 54.092H146.466L146.486 54.9181H144.243Z" fill="#E54322"/>
<path d="M24.7886 39.7456C25.2686 39.7456 25.7143 39.9399 26.1258 40.3285C26.5372 40.7399 26.7429 41.2085 26.7429 41.7342C26.7429 42.2599 26.5029 42.7514 26.0229 43.2085C25.5658 43.6885 24.9715 44.1114 24.2401 44.4771C23.5086 44.8428 22.7429 45.1285 21.9429 45.3342C21.1658 45.5399 20.4572 45.6428 19.8172 45.6428C18.4001 45.6428 17.2686 45.5056 16.4229 45.2314C15.5772 44.9799 14.8801 44.6828 14.3315 44.3399C13.7829 44.0199 13.2686 43.7228 12.7886 43.4485C12.3086 43.1971 11.7258 43.0714 11.0401 43.0714C10.6058 43.0714 10.2515 43.1399 9.9772 43.2771C9.72578 43.4371 9.44006 43.5856 9.12006 43.7228C8.82292 43.8828 8.40006 43.9628 7.85149 43.9628C7.28006 43.9628 6.80006 43.7456 6.41149 43.3114C6.02292 42.8771 5.82863 42.4085 5.82863 41.9056C5.82863 41.0142 6.22863 40.4199 7.02863 40.1228L14.1258 37.4828L17.2115 38.2371L10.5601 40.7056L12.5143 39.5742C13.3143 39.5742 14.0115 39.6885 14.6058 39.9171C15.2229 40.1685 15.8058 40.4428 16.3543 40.7399C16.9029 41.0371 17.4629 41.2999 18.0343 41.5285C18.6286 41.7799 19.3029 41.9056 20.0572 41.9056C20.6743 41.9056 21.1886 41.8028 21.6001 41.5971C22.0343 41.3914 22.4115 41.1628 22.7315 40.9114C23.1201 40.6142 23.4629 40.3399 23.7601 40.0885C24.0801 39.8599 24.4229 39.7456 24.7886 39.7456ZM24.6515 26.7856C24.6515 28.4999 24.3658 30.0999 23.7943 31.5856C23.2229 33.0714 22.4115 34.3856 21.3601 35.5285C20.3315 36.6485 19.0972 37.5285 17.6572 38.1685C16.2401 38.8085 14.6858 39.1285 12.9943 39.1285C11.3029 39.1285 9.74863 38.8085 8.33149 38.1685C6.91435 37.5285 5.68006 36.6485 4.62863 35.5285C3.60006 34.3856 2.80006 33.0714 2.22863 31.5856C1.6572 30.0999 1.37149 28.4999 1.37149 26.7856C1.37149 25.0714 1.6572 23.4714 2.22863 21.9856C2.80006 20.4999 3.60006 19.1971 4.62863 18.0771C5.68006 16.9342 6.91435 16.0428 8.33149 15.4028C9.74863 14.7628 11.3029 14.4428 12.9943 14.4428C14.6858 14.4428 16.2401 14.7628 17.6572 15.4028C19.0972 16.0428 20.3315 16.9342 21.3601 18.0771C22.4115 19.1971 23.2229 20.4999 23.7943 21.9856C24.3658 23.4714 24.6515 25.0714 24.6515 26.7856ZM20.1943 26.7856C20.1943 25.2542 19.8858 23.8714 19.2686 22.6371C18.6515 21.3799 17.8058 20.3856 16.7315 19.6542C15.6572 18.9228 14.4115 18.5571 12.9943 18.5571C11.5772 18.5571 10.3315 18.9228 9.2572 19.6542C8.18292 20.3856 7.3372 21.3685 6.72006 22.6028C6.12578 23.8371 5.82863 25.2314 5.82863 26.7856C5.82863 28.3171 6.12578 29.7114 6.72006 30.9685C7.3372 32.2028 8.18292 33.1856 9.2572 33.9171C10.3315 34.6485 11.5772 35.0142 12.9943 35.0142C14.4115 35.0142 15.6572 34.6485 16.7315 33.9171C17.8058 33.1856 18.6515 32.2028 19.2686 30.9685C19.8858 29.7114 20.1943 28.3171 20.1943 26.7856ZM41.7218 20.4428C42.316 20.4428 42.8075 20.6485 43.196 21.0599C43.5846 21.4485 43.7789 21.9399 43.7789 22.5342V31.2428C43.7789 33.6656 43.1046 35.5856 41.756 37.0028C40.4075 38.4199 38.4646 39.1285 35.9275 39.1285C33.3903 39.1285 31.4475 38.4199 30.0989 37.0028C28.7732 35.5856 28.1103 33.6656 28.1103 31.2428V22.5342C28.1103 21.9399 28.3046 21.4485 28.6932 21.0599C29.0818 20.6485 29.5732 20.4428 30.1675 20.4428C30.7618 20.4428 31.2532 20.6485 31.6418 21.0599C32.0303 21.4485 32.2246 21.9399 32.2246 22.5342V31.2428C32.2246 32.6371 32.5332 33.6771 33.1503 34.3628C33.7675 35.0256 34.6932 35.3571 35.9275 35.3571C37.1846 35.3571 38.1218 35.0256 38.7389 34.3628C39.356 33.6771 39.6646 32.6371 39.6646 31.2428V22.5342C39.6646 21.9399 39.8589 21.4485 40.2475 21.0599C40.636 20.6485 41.1275 20.4428 41.7218 20.4428ZM52.1074 36.6942C52.1074 37.2885 51.9131 37.7914 51.5245 38.2028C51.136 38.5914 50.6445 38.7856 50.0502 38.7856C49.456 38.7856 48.9645 38.5914 48.576 38.2028C48.1874 37.7914 47.9931 37.2885 47.9931 36.6942V22.5342C47.9931 21.9399 48.1874 21.4485 48.576 21.0599C48.9645 20.6485 49.456 20.4428 50.0502 20.4428C50.6445 20.4428 51.136 20.6485 51.5245 21.0599C51.9131 21.4485 52.1074 21.9399 52.1074 22.5342V36.6942ZM50.016 18.2142C49.2388 18.2142 48.6902 18.0885 48.3702 17.8371C48.0502 17.5856 47.8902 17.1399 47.8902 16.4999V15.8485C47.8902 15.1856 48.0617 14.7399 48.4045 14.5114C48.7702 14.2599 49.3188 14.1342 50.0502 14.1342C50.8502 14.1342 51.4102 14.2599 51.7302 14.5114C52.0502 14.7628 52.2102 15.2085 52.2102 15.8485V16.4999C52.2102 17.1628 52.0388 17.6199 51.696 17.8714C51.3531 18.0999 50.7931 18.2142 50.016 18.2142ZM68.0272 35.0142C68.5758 35.0142 69.0329 35.1971 69.3986 35.5628C69.7643 35.9056 69.9472 36.3514 69.9472 36.8999C69.9472 37.4256 69.7643 37.8714 69.3986 38.2371C69.0329 38.6028 68.5758 38.7856 68.0272 38.7856H56.9872C56.4158 38.7856 55.9586 38.5799 55.6158 38.1685C55.2729 37.7571 55.1129 37.3456 55.1358 36.9342C55.1586 36.5914 55.2043 36.2942 55.2729 36.0428C55.3415 35.7685 55.5129 35.4599 55.7872 35.1171L64.3243 24.0771L64.2558 24.5571H57.2958C56.7472 24.5571 56.2901 24.3742 55.9243 24.0085C55.5586 23.6428 55.3758 23.1856 55.3758 22.6371C55.3758 22.1114 55.5586 21.6771 55.9243 21.3342C56.2901 20.9685 56.7472 20.7856 57.2958 20.7856H67.8558C68.3815 20.7856 68.8272 20.9799 69.1929 21.3685C69.5586 21.7571 69.7186 22.2485 69.6729 22.8428C69.6501 23.0714 69.6043 23.2999 69.5358 23.5285C69.4901 23.7571 69.3415 24.0314 69.0901 24.3514L60.6901 35.2199V35.0142H68.0272Z" fill="#160603"/>
<path d="M86.5201 34.7742C87.1143 34.7742 87.6058 34.9685 87.9943 35.3571C88.4058 35.7228 88.6115 36.2028 88.6115 36.7971C88.6115 37.3685 88.4058 37.8485 87.9943 38.2371C87.6058 38.6028 87.1143 38.7856 86.5201 38.7856H75.3772C74.7829 38.7856 74.2801 38.5914 73.8686 38.2028C73.4801 37.7914 73.2858 37.2885 73.2858 36.6942V16.8771C73.2858 16.2828 73.4915 15.7914 73.9029 15.4028C74.3143 14.9914 74.8401 14.7856 75.4801 14.7856C76.0286 14.7856 76.5086 14.9914 76.9201 15.4028C77.3543 15.7914 77.5715 16.2828 77.5715 16.8771V35.3571L76.8172 34.7742H86.5201ZM107.212 20.0999C107.807 20.0999 108.298 20.2942 108.687 20.6828C109.075 21.0714 109.269 21.5742 109.269 22.1914V36.6942C109.269 37.2885 109.075 37.7914 108.687 38.2028C108.298 38.5914 107.807 38.7856 107.212 38.7856C106.618 38.7856 106.127 38.5914 105.738 38.2028C105.349 37.7914 105.155 37.2885 105.155 36.6942V35.0142L105.909 35.3228C105.909 35.6199 105.749 35.9856 105.429 36.4199C105.109 36.8314 104.675 37.2428 104.127 37.6542C103.578 38.0656 102.927 38.4199 102.172 38.7171C101.441 38.9914 100.641 39.1285 99.7723 39.1285C98.1951 39.1285 96.7666 38.7285 95.4866 37.9285C94.2066 37.1056 93.1894 35.9856 92.4351 34.5685C91.7037 33.1285 91.338 31.4828 91.338 29.6314C91.338 27.7571 91.7037 26.1114 92.4351 24.6942C93.1894 23.2542 94.1951 22.1342 95.4523 21.3342C96.7094 20.5114 98.1037 20.0999 99.6351 20.0999C100.618 20.0999 101.521 20.2485 102.344 20.5456C103.167 20.8428 103.875 21.2199 104.469 21.6771C105.087 22.1342 105.555 22.6028 105.875 23.0828C106.218 23.5399 106.389 23.9285 106.389 24.2485L105.155 24.6942V22.1914C105.155 21.5971 105.349 21.1056 105.738 20.7171C106.127 20.3056 106.618 20.0999 107.212 20.0999ZM100.287 35.3571C101.292 35.3571 102.172 35.1056 102.927 34.6028C103.681 34.0999 104.264 33.4142 104.675 32.5456C105.109 31.6771 105.327 30.7056 105.327 29.6314C105.327 28.5342 105.109 27.5514 104.675 26.6828C104.264 25.8142 103.681 25.1285 102.927 24.6256C102.172 24.1228 101.292 23.8714 100.287 23.8714C99.3037 23.8714 98.4351 24.1228 97.6809 24.6256C96.9266 25.1285 96.3323 25.8142 95.898 26.6828C95.4866 27.5514 95.2809 28.5342 95.2809 29.6314C95.2809 30.7056 95.4866 31.6771 95.898 32.5456C96.3323 33.4142 96.9266 34.0999 97.6809 34.6028C98.4351 35.1056 99.3037 35.3571 100.287 35.3571ZM123.221 20.0999C124.821 20.0999 126.25 20.5114 127.507 21.3342C128.787 22.1342 129.793 23.2428 130.524 24.6599C131.278 26.0771 131.656 27.7228 131.656 29.5971C131.656 31.4714 131.278 33.1285 130.524 34.5685C129.793 35.9856 128.798 37.1056 127.541 37.9285C126.307 38.7285 124.913 39.1285 123.358 39.1285C122.444 39.1285 121.587 38.9799 120.787 38.6828C119.987 38.3856 119.278 38.0085 118.661 37.5514C118.067 37.0942 117.598 36.6371 117.256 36.1799C116.936 35.6999 116.776 35.2999 116.776 34.9799L117.838 34.5342V37.0371C117.838 37.6314 117.644 38.1342 117.256 38.5456C116.867 38.9342 116.376 39.1285 115.781 39.1285C115.187 39.1285 114.696 38.9342 114.307 38.5456C113.918 38.1571 113.724 37.6542 113.724 37.0371V15.5056C113.724 14.9114 113.918 14.4199 114.307 14.0314C114.696 13.6199 115.187 13.4142 115.781 13.4142C116.376 13.4142 116.867 13.6199 117.256 14.0314C117.644 14.4199 117.838 14.9114 117.838 15.5056V24.2142L117.256 23.9056C117.256 23.6085 117.416 23.2542 117.736 22.8428C118.056 22.4085 118.49 21.9856 119.038 21.5742C119.587 21.1399 120.216 20.7856 120.924 20.5114C121.656 20.2371 122.421 20.0999 123.221 20.0999ZM122.707 23.8714C121.701 23.8714 120.821 24.1228 120.067 24.6256C119.313 25.1285 118.718 25.8142 118.284 26.6828C117.873 27.5285 117.667 28.4999 117.667 29.5971C117.667 30.6714 117.873 31.6542 118.284 32.5456C118.718 33.4142 119.313 34.0999 120.067 34.6028C120.821 35.1056 121.701 35.3571 122.707 35.3571C123.713 35.3571 124.581 35.1056 125.313 34.6028C126.067 34.0999 126.65 33.4142 127.061 32.5456C127.496 31.6542 127.713 30.6714 127.713 29.5971C127.713 28.4999 127.496 27.5285 127.061 26.6828C126.65 25.8142 126.067 25.1285 125.313 24.6256C124.581 24.1228 123.713 23.8714 122.707 23.8714Z" fill="#E54322"/>
</svg>
