<svg width="285" height="127" viewBox="0 0 285 127" fill="none" xmlns="http://www.w3.org/2000/svg">
<path d="M284.142 39.1083C284.142 51.1294 278.545 61.9023 269.762 69.0731C269.31 69.4416 268.846 69.806 268.377 70.1495C263.79 73.5841 258.421 76.0637 252.583 77.3119V85.5005H235.305V70.2375C235.305 69.8228 235.348 69.4123 235.404 69.0018C235.821 64.7295 239.505 61.3829 243.997 61.3829C246.138 61.3829 248.21 61.0939 250.179 60.5494L263.154 65.3034L264.255 65.7055L263.79 64.4447L260.239 54.765C264.332 50.7357 266.86 45.2026 266.86 39.1041C266.86 38.6894 266.847 38.279 266.821 37.8643C266.722 36.0549 266.396 34.3041 265.871 32.6328V32.6287C265.48 31.3553 264.968 30.1323 264.353 28.9679C264.186 28.6454 264.014 28.3312 263.829 28.0213C263.704 27.8077 263.58 27.6024 263.451 27.3972C261.903 24.972 259.891 22.8526 257.539 21.1646C253.743 18.4337 249.057 16.8253 243.993 16.8253C240.3 16.8253 236.771 17.6588 233.512 19.2924C233.237 19.4264 232.966 19.5479 232.686 19.6568C228.62 21.2191 223.921 19.5479 221.866 15.6944C221.479 14.9698 221.217 14.2159 221.066 13.4536C220.335 9.87236 222.076 6.10269 225.576 4.34769C231.238 1.50787 237.613 0 244.002 0C265.235 0 282.663 16.1384 284.056 36.4821V36.4863C284.116 37.3533 284.142 38.2287 284.142 39.1083Z" fill="white"/>
<path d="M252.635 88.3615V90.263C252.635 90.5521 252.394 90.7866 252.098 90.7866H236.363C236.066 90.7866 235.826 90.5521 235.826 90.263V88.3615C235.826 88.0724 236.066 87.8379 236.363 87.8379H252.102C252.394 87.8379 252.635 88.0724 252.635 88.3615Z" fill="white"/>
<path d="M251.419 92.6253V94.1206C251.419 94.4054 251.182 94.6316 250.894 94.6316H247.58V95.6871C247.58 96.3112 247.059 96.8222 246.419 96.8222H242.051C241.402 96.8222 240.886 96.3112 240.886 95.6871V94.6316H237.571C237.283 94.6316 237.047 94.4012 237.047 94.1206V92.6253C237.047 92.3404 237.283 92.1143 237.571 92.1143H250.898C251.187 92.1143 251.419 92.3404 251.419 92.6253Z" fill="white"/>
<path d="M236.832 39.8622C236.832 41.7261 235.284 43.2382 233.371 43.2382C231.462 43.2382 229.91 41.7261 229.91 39.8622C229.91 38.0025 231.462 36.4905 233.371 36.4905C235.284 36.4905 236.832 38.0025 236.832 39.8622Z" fill="white"/>
<path d="M246.496 39.8622C246.496 41.7261 244.948 43.2382 243.035 43.2382C241.126 43.2382 239.575 41.7261 239.575 39.8622C239.575 38.0025 241.126 36.4905 243.035 36.4905C244.953 36.4905 246.496 38.0025 246.496 39.8622Z" fill="white"/>
<path d="M256.165 39.8622C256.165 41.7261 254.613 43.2382 252.704 43.2382C250.791 43.2382 249.243 41.7261 249.243 39.8622C249.243 38.0025 250.791 36.4905 252.704 36.4905C254.613 36.4905 256.165 38.0025 256.165 39.8622Z" fill="white"/>
<path d="M284.143 39.1083C284.143 51.1294 278.546 61.9023 269.763 69.0731C274.1 49.7891 266.805 34.4758 265.881 32.637C265.954 32.859 266.014 33.0894 266.083 33.3114C264.41 28.1511 261.65 24.6495 257.549 21.1688C253.753 18.4379 249.067 16.8295 244.003 16.8295C240.31 16.8295 236.78 17.663 233.522 19.2966C233.246 19.4306 232.976 19.5521 232.696 19.661C228.629 21.2233 223.93 19.5521 221.875 15.6986C221.488 14.974 221.226 14.2201 221.076 13.4578C220.345 9.87656 222.086 6.10688 225.585 4.35188C231.239 1.50787 237.614 0 244.003 0C265.236 0 282.664 16.1384 284.057 36.4821V36.4863C284.117 37.3533 284.143 38.2287 284.143 39.1083Z" fill="white"/>
<path d="M284.057 36.4821C260.356 -6.28279 223.991 12.5279 221.076 13.4619C220.345 9.88074 222.086 6.11107 225.585 4.35607C231.239 1.50787 237.614 0 244.003 0C265.236 0 282.664 16.1384 284.057 36.4821Z" fill="white"/>
<path d="M284.057 36.4823C280.97 31.1503 277.338 26.1031 272.965 21.7303L272.149 20.9093C271.873 20.6371 271.573 20.3942 271.285 20.1345L269.552 18.5931C268.318 17.6549 267.144 16.6454 265.825 15.8245C264.561 14.9239 263.194 14.1868 261.844 13.4203L259.746 12.4066C259.045 12.0715 258.31 11.816 257.592 11.5145C254.694 10.3919 251.655 9.6045 248.564 9.18146C245.473 8.75004 242.33 8.69559 239.213 8.91758C232.958 9.35319 226.866 11.104 221.071 13.4621C223.939 12.214 226.862 11.0579 229.893 10.2118C232.92 9.349 236.032 8.78774 239.175 8.49873C245.46 7.92909 251.904 8.74585 257.794 11.0118C258.521 11.3176 259.264 11.5815 259.974 11.9249L262.093 12.9637C263.456 13.7428 264.836 14.5009 266.108 15.4182C267.437 16.2601 268.619 17.2863 269.857 18.2371L271.594 19.8078C271.878 20.0758 272.179 20.3271 272.45 20.6036L273.258 21.4455C273.795 22.0109 274.341 22.5638 274.87 23.1335L276.37 24.9136L277.118 25.8015C277.363 26.1031 277.583 26.4214 277.819 26.7272L279.203 28.5911C279.681 29.2026 280.063 29.877 280.493 30.5178L281.753 32.4613C282.548 33.7974 283.296 35.1462 284.057 36.4823Z" fill="white"/>
<path d="M269.763 69.073C269.457 69.3243 269.148 69.5672 268.838 69.806C268.559 70.0238 268.275 70.2374 267.983 70.4468C267.437 70.8447 266.878 71.2301 266.31 71.5987C266.156 71.7076 265.992 71.8123 265.829 71.9086C265.489 72.1264 265.141 72.34 264.793 72.5453C264.513 72.7128 264.23 72.8762 263.946 73.0353C263.615 73.2196 263.275 73.4039 262.94 73.5798C262.738 73.6846 262.54 73.7851 262.334 73.8898C262.252 73.9317 262.162 73.9778 262.076 74.0196C261.895 74.1076 261.715 74.1956 261.534 74.2751C261.25 74.4176 260.958 74.5474 260.674 74.6772C260.317 74.8364 259.961 74.9914 259.595 75.1338C259.372 75.2301 259.148 75.3181 258.925 75.4019C258.731 75.4898 258.529 75.5652 258.327 75.6364C257.579 75.9171 256.814 76.1767 256.044 76.4155C255.73 76.5118 255.412 76.604 255.09 76.7003C254.815 76.7757 254.535 76.8469 254.26 76.9181C253.994 76.9893 253.723 77.0521 253.456 77.1192C253.164 77.1904 252.876 77.2532 252.583 77.316V85.5046H235.305V70.2416C235.305 69.8269 235.348 69.4165 235.404 69.006C235.821 64.7337 239.506 61.387 243.998 61.387C246.139 61.387 248.211 61.098 250.18 60.5535L263.155 65.3075L264.255 65.7096L263.791 64.4489L260.24 54.7692C264.333 50.7398 266.861 45.2067 266.861 39.1082C266.861 37.1019 266.586 35.1626 266.074 33.3113C266.005 33.0893 265.945 32.859 265.872 32.637C266.805 34.4757 274.1 49.789 269.763 69.073Z" fill="white"/>
<g opacity="0.5">
<path d="M269.763 69.073L270.128 66.7735L270.317 65.6258C270.373 65.2405 270.399 64.8551 270.442 64.4698L270.691 62.1619C270.743 61.3912 270.769 60.6164 270.812 59.8457L270.867 58.6854L270.863 57.5252C270.859 56.7503 270.88 55.9796 270.85 55.209L270.726 52.8927C270.687 52.122 270.575 51.3555 270.506 50.5848C270.188 47.5104 269.638 44.457 268.864 41.458C268.666 40.7083 268.486 39.9543 268.249 39.2171L267.914 38.103L267.544 37.0014C267.046 35.5312 266.504 34.0736 265.859 32.6537L265.906 32.637L266.083 33.3197L265.859 32.6537L265.906 32.637C267.368 35.4014 268.434 38.3585 269.298 41.3533C270.141 44.3607 270.717 47.435 271.061 50.5346C271.392 53.6341 271.452 56.7629 271.233 59.8708C271.074 62.9787 270.476 66.0531 269.763 69.073Z" fill="white"/>
</g>
<path d="M284.058 36.4905V36.4821C282.665 16.1384 265.236 0 244.003 0C237.615 0 231.239 1.50787 225.586 4.35607C222.087 6.11107 220.345 9.88075 221.076 13.4619C221.227 14.2243 221.489 14.9782 221.876 15.7028C223.931 19.5563 228.63 21.2275 232.697 19.6652C232.976 19.5563 233.251 19.4348 233.522 19.3008C236.781 17.663 240.31 16.8337 244.003 16.8337C249.063 16.8337 253.754 18.4421 257.55 21.173C259.901 22.8568 261.913 24.9804 263.461 27.4056C263.59 27.6108 263.719 27.8202 263.839 28.0297C264.024 28.3396 264.196 28.6537 264.364 28.9763C264.978 30.1407 265.49 31.3637 265.881 32.637V32.6412C266.406 34.3125 266.728 36.0633 266.831 37.8727C266.857 38.2874 266.87 38.6978 266.87 39.1125C266.87 45.2068 264.342 50.7441 260.249 54.7734L263.8 64.4531L264.265 65.7139L263.164 65.3118L250.19 60.5578C248.221 61.1023 246.148 61.3913 244.008 61.3913C239.515 61.3913 235.831 64.7337 235.414 69.0102C235.358 69.4165 235.315 69.8312 235.315 70.2459V85.5089H252.593V77.3203C258.431 76.0763 263.8 73.5967 268.388 70.1579C268.856 69.8144 269.32 69.45 269.772 69.0814C278.555 61.9107 284.152 51.1378 284.152 39.1167C284.144 38.2287 284.118 37.3533 284.058 36.4905ZM269.406 68.6542C268.908 69.0605 268.465 69.404 268.039 69.7181C263.409 73.1862 258.169 75.5611 252.468 76.7758L252.025 76.8679V84.9518H235.865V70.2333C235.865 69.8186 235.917 69.4165 235.964 69.0521C236.359 64.9851 239.816 61.9232 243.999 61.9232C246.093 61.9232 248.16 61.651 250.155 61.119L265.193 66.627L260.89 54.9033C265.107 50.631 267.425 45.0351 267.425 39.1083C267.425 38.656 267.412 38.2371 267.386 37.8434C267.287 36.0423 266.969 34.2664 266.436 32.5575L266.414 32.4779C266.023 31.2046 265.499 29.9438 264.858 28.7333C264.686 28.4024 264.506 28.0757 264.321 27.7658C264.205 27.5605 264.08 27.3595 263.929 27.1207C262.339 24.6286 260.301 22.484 257.876 20.7416C253.835 17.8348 249.037 16.2934 244.003 16.2934C240.22 16.2934 236.609 17.1478 233.273 18.8233C233.023 18.9489 232.765 19.0578 232.49 19.1667C228.634 20.6453 224.288 19.0536 222.37 15.4599C222.018 14.8023 221.768 14.0986 221.622 13.3656C220.926 9.94357 222.658 6.44196 225.84 4.84613C231.42 2.02725 237.697 0.544509 244.003 0.544509C264.776 0.544509 282.119 16.3436 283.499 36.4863V36.5282C283.559 37.3533 283.589 38.2245 283.589 39.1125C283.589 50.5263 278.422 61.2992 269.406 68.6542Z" fill="white"/>
<path d="M252.102 87.8379H236.363C236.067 87.8379 235.826 88.0724 235.826 88.3615V90.263C235.826 90.5521 236.067 90.7866 236.363 90.7866H252.102C252.399 90.7866 252.64 90.5521 252.64 90.263V88.3615C252.635 88.0724 252.394 87.8379 252.102 87.8379ZM236.385 90.263L236.363 88.3824H252.081L252.102 90.2421L236.385 90.263Z" fill="white"/>
<path d="M250.894 92.1143H237.567C237.279 92.1143 237.042 92.3446 237.042 92.6253V94.1206C237.042 94.4054 237.279 94.6316 237.567 94.6316H240.881V95.6871C240.881 96.3112 241.402 96.8222 242.046 96.8222H246.414C247.055 96.8222 247.575 96.3112 247.575 95.6871V94.6316H250.89C251.182 94.6316 251.414 94.4012 251.414 94.1206V92.6253C251.418 92.3404 251.186 92.1143 250.894 92.1143ZM247.021 94.0871V95.6871C247.021 96.0138 246.754 96.2777 246.419 96.2777H242.051C241.715 96.2777 241.445 96.0096 241.445 95.6871V94.0871H240.886L237.606 94.1206L237.571 92.6588H250.864L250.898 94.0871H247.021Z" fill="white"/>
<path d="M40.4874 67.242C41.3173 67.242 42.088 67.5779 42.7993 68.2497C43.5107 68.961 43.8663 69.7712 43.8663 70.6801C43.8663 71.5891 43.4514 72.4387 42.6215 73.2291C41.8311 74.059 40.8036 74.7901 39.539 75.4224C38.2744 76.0547 36.9505 76.5487 35.5673 76.9044C34.2236 77.2601 32.9985 77.4379 31.892 77.4379C29.4418 77.4379 27.4856 77.2008 26.0234 76.7266C24.5612 76.2919 23.3559 75.7781 22.4074 75.1853C21.4589 74.632 20.5697 74.1183 19.7398 73.6441C18.9099 73.2094 17.9022 72.992 16.7166 72.992C15.9658 72.992 15.3532 73.1106 14.879 73.3477C14.4443 73.6243 13.9503 73.8812 13.397 74.1183C12.8833 74.3949 12.1522 74.5332 11.2037 74.5332C10.2157 74.5332 9.38581 74.1578 8.71399 73.407C8.04216 72.6561 7.70625 71.8459 7.70625 70.9765C7.70625 69.4353 8.39783 68.4078 9.78101 67.894L22.0517 63.3296L27.3868 64.6337L15.8867 68.9018L19.2656 66.9456C20.6488 66.9456 21.8541 67.1432 22.8816 67.5384C23.9486 67.9731 24.9564 68.4473 25.9048 68.961C26.8533 69.4748 27.8215 69.9293 28.8095 70.3245C29.837 70.7592 31.0028 70.9765 32.307 70.9765C33.374 70.9765 34.2632 70.7987 34.9745 70.443C35.7254 70.0873 36.3774 69.6921 36.9307 69.2574C37.6025 68.7437 38.1953 68.2695 38.7091 67.8347C39.2623 67.4396 39.8551 67.242 40.4874 67.242ZM40.2503 44.8346C40.2503 47.7985 39.7563 50.5648 38.7683 53.1336C37.7804 55.7023 36.3774 57.9747 34.5596 59.9507C32.7812 61.8871 30.6472 63.4086 28.1574 64.5151C25.7072 65.6217 23.0199 66.1749 20.0955 66.1749C17.1711 66.1749 14.4838 65.6217 12.0336 64.5151C9.58341 63.4086 7.44937 61.8871 5.63149 59.9507C3.85312 57.9747 2.46995 55.7023 1.48197 53.1336C0.49399 50.5648 0 47.7985 0 44.8346C0 41.8706 0.49399 39.1043 1.48197 36.5355C2.46995 33.9668 3.85312 31.7142 5.63149 29.7777C7.44937 27.8018 9.58341 26.2605 12.0336 25.154C14.4838 24.0475 17.1711 23.4942 20.0955 23.4942C23.0199 23.4942 25.7072 24.0475 28.1574 25.154C30.6472 26.2605 32.7812 27.8018 34.5596 29.7777C36.3774 31.7142 37.7804 33.9668 38.7683 36.5355C39.7563 39.1043 40.2503 41.8706 40.2503 44.8346ZM32.5441 44.8346C32.5441 42.1868 32.0106 39.7959 30.9435 37.6618C29.8765 35.4883 28.4143 33.7692 26.5569 32.5046C24.6995 31.2399 22.5457 30.6076 20.0955 30.6076C17.6453 30.6076 15.4915 31.2399 13.6341 32.5046C11.7767 33.7692 10.3145 35.4685 9.2475 37.6025C8.22 39.7366 7.70625 42.1473 7.70625 44.8346C7.70625 47.4823 8.22 49.893 9.2475 52.0666C10.3145 54.2006 11.7767 55.8999 13.6341 57.1646C15.4915 58.4292 17.6453 59.0615 20.0955 59.0615C22.5457 59.0615 24.6995 58.4292 26.5569 57.1646C28.4143 55.8999 29.8765 54.2006 30.9435 52.0666C32.0106 49.893 32.5441 47.4823 32.5441 44.8346Z" fill="white"/>
<path d="M69.7642 33.868C70.7917 33.868 71.6414 34.2237 72.3132 34.935C72.985 35.6068 73.321 36.4565 73.321 37.484V52.5408C73.321 56.7298 72.1551 60.0495 69.8235 62.4996C67.4919 64.9498 64.1327 66.1749 59.7461 66.1749C55.3595 66.1749 52.0003 64.9498 49.6687 62.4996C47.3766 60.0495 46.2305 56.7298 46.2305 52.5408V37.484C46.2305 36.4565 46.5664 35.6068 47.2383 34.935C47.9101 34.2237 48.7598 33.868 49.7873 33.868C50.8148 33.868 51.6644 34.2237 52.3363 34.935C53.0081 35.6068 53.344 36.4565 53.344 37.484V52.5408C53.344 54.9515 53.8775 56.7496 54.9445 57.9352C56.0115 59.0812 57.6121 59.6543 59.7461 59.6543C61.9197 59.6543 63.54 59.0812 64.607 57.9352C65.674 56.7496 66.2075 54.9515 66.2075 52.5408V37.484C66.2075 36.4565 66.5434 35.6068 67.2152 34.935C67.8871 34.2237 68.7367 33.868 69.7642 33.868Z" fill="white"/>
<path d="M87.7206 61.9661C87.7206 62.9936 87.3847 63.8631 86.7129 64.5744C86.041 65.2462 85.1914 65.5821 84.1639 65.5821C83.1364 65.5821 82.2867 65.2462 81.6149 64.5744C80.9431 63.8631 80.6072 62.9936 80.6072 61.9661V37.484C80.6072 36.4565 80.9431 35.6068 81.6149 34.935C82.2867 34.2237 83.1364 33.868 84.1639 33.868C85.1914 33.868 86.041 34.2237 86.7129 34.935C87.3847 35.6068 87.7206 36.4565 87.7206 37.484V61.9661ZM84.1046 30.0149C82.761 30.0149 81.8125 29.7975 81.2592 29.3628C80.706 28.9281 80.4293 28.1575 80.4293 27.0509V25.9246C80.4293 24.7786 80.7257 24.0079 81.3185 23.6127C81.9508 23.178 82.8993 22.9607 84.1639 22.9607C85.5471 22.9607 86.5153 23.178 87.0685 23.6127C87.6218 24.0475 87.8985 24.8181 87.8985 25.9246V27.0509C87.8985 28.197 87.6021 28.9874 87.0093 29.4221C86.4165 29.8173 85.4483 30.0149 84.1046 30.0149Z" fill="white"/>
<path d="M115.245 59.0615C116.194 59.0615 116.984 59.3776 117.617 60.0099C118.249 60.6027 118.565 61.3733 118.565 62.3218C118.565 63.2308 118.249 64.0014 117.617 64.6337C116.984 65.266 116.194 65.5821 115.245 65.5821H96.1577C95.1697 65.5821 94.3793 65.2265 93.7865 64.5151C93.1937 63.8038 92.9171 63.0924 92.9566 62.3811C92.9961 61.7883 93.0752 61.2746 93.1937 60.8398C93.3123 60.3656 93.6087 59.8321 94.0829 59.2393L108.843 40.1515L108.725 40.9814H96.6912C95.7427 40.9814 94.9523 40.6653 94.32 40.033C93.6877 39.4007 93.3716 38.6103 93.3716 37.6618C93.3716 36.7529 93.6877 36.002 94.32 35.4092C94.9523 34.7769 95.7427 34.4608 96.6912 34.4608H114.949C115.858 34.4608 116.629 34.7967 117.261 35.4685C117.893 36.1403 118.17 36.99 118.091 38.0175C118.051 38.4127 117.972 38.8079 117.854 39.2031C117.775 39.5983 117.518 40.0725 117.083 40.6258L102.56 59.4171V59.0615H115.245Z" fill="white"/>
<path d="M147.219 58.6465C148.246 58.6465 149.096 58.9824 149.768 59.6543C150.479 60.2866 150.835 61.1165 150.835 62.144C150.835 63.132 150.479 63.9619 149.768 64.6337C149.096 65.266 148.246 65.5821 147.219 65.5821H127.953C126.926 65.5821 126.056 65.2462 125.345 64.5744C124.673 63.8631 124.337 62.9936 124.337 61.9661V27.703C124.337 26.6755 124.693 25.8258 125.404 25.154C126.116 24.4426 127.025 24.087 128.131 24.087C129.08 24.087 129.91 24.4426 130.621 25.154C131.372 25.8258 131.747 26.6755 131.747 27.703V59.6543L130.443 58.6465H147.219Z" fill="white"/>
<path d="M182.995 33.2752C184.023 33.2752 184.872 33.6111 185.544 34.2829C186.216 34.9548 186.552 35.8242 186.552 36.8912V61.9661C186.552 62.9936 186.216 63.8631 185.544 64.5744C184.872 65.2462 184.023 65.5821 182.995 65.5821C181.968 65.5821 181.118 65.2462 180.446 64.5744C179.774 63.8631 179.438 62.9936 179.438 61.9661V59.0615L180.743 59.595C180.743 60.1087 180.466 60.741 179.913 61.4919C179.359 62.2033 178.608 62.9146 177.66 63.6259C176.712 64.3373 175.585 64.9498 174.281 65.4636C173.017 65.9378 171.633 66.1749 170.132 66.1749C167.405 66.1749 164.935 65.4834 162.722 64.1002C160.509 62.6775 158.75 60.741 157.446 58.2909C156.181 55.8011 155.549 52.9558 155.549 49.7547C155.549 46.5141 156.181 43.6687 157.446 41.2186C158.75 38.7288 160.489 36.7924 162.662 35.4092C164.836 33.9865 167.247 33.2752 169.894 33.2752C171.594 33.2752 173.155 33.5321 174.578 34.0458C176 34.5596 177.225 35.2116 178.253 36.002C179.32 36.7924 180.13 37.6025 180.683 38.4324C181.276 39.2228 181.572 39.8947 181.572 40.4479L179.438 41.2186V36.8912C179.438 35.8637 179.774 35.014 180.446 34.3422C181.118 33.6309 181.968 33.2752 182.995 33.2752ZM171.021 59.6543C172.76 59.6543 174.281 59.2196 175.585 58.3501C176.889 57.4807 177.897 56.2951 178.608 54.7934C179.359 53.2917 179.735 51.6121 179.735 49.7547C179.735 47.8578 179.359 46.1585 178.608 44.6567C177.897 43.155 176.889 41.9694 175.585 41.1C174.281 40.2306 172.76 39.7959 171.021 39.7959C169.321 39.7959 167.82 40.2306 166.516 41.1C165.211 41.9694 164.184 43.155 163.433 44.6567C162.722 46.1585 162.366 47.8578 162.366 49.7547C162.366 51.6121 162.722 53.2917 163.433 54.7934C164.184 56.2951 165.211 57.4807 166.516 58.3501C167.82 59.2196 169.321 59.6543 171.021 59.6543Z" fill="white"/>
<path d="M210.674 33.2752C213.44 33.2752 215.91 33.9865 218.084 35.4092C220.297 36.7924 222.036 38.7091 223.301 41.1593C224.605 43.6095 225.257 46.4548 225.257 49.6954C225.257 52.936 224.605 55.8011 223.301 58.2909C222.036 60.741 220.317 62.6775 218.143 64.1002C216.009 65.4834 213.599 66.1749 210.911 66.1749C209.331 66.1749 207.849 65.9181 206.465 65.4043C205.082 64.8906 203.857 64.2385 202.79 63.4481C201.763 62.6577 200.952 61.8673 200.36 61.077C199.806 60.2471 199.53 59.5555 199.53 59.0022L201.367 58.2316V62.5589C201.367 63.5864 201.031 64.4559 200.36 65.1672C199.688 65.839 198.838 66.1749 197.811 66.1749C196.783 66.1749 195.933 65.839 195.262 65.1672C194.59 64.4954 194.254 63.6259 194.254 62.5589V25.3318C194.254 24.3043 194.59 23.4547 195.262 22.7828C195.933 22.0715 196.783 21.7158 197.811 21.7158C198.838 21.7158 199.688 22.0715 200.36 22.7828C201.031 23.4547 201.367 24.3043 201.367 25.3318V40.3886L200.36 39.8551C200.36 39.3414 200.636 38.7288 201.19 38.0175C201.743 37.2666 202.494 36.5355 203.442 35.8242C204.391 35.0733 205.477 34.4608 206.702 33.9865C207.967 33.5123 209.291 33.2752 210.674 33.2752ZM209.785 39.7959C208.046 39.7959 206.525 40.2306 205.221 41.1C203.916 41.9694 202.889 43.155 202.138 44.6567C201.427 46.1189 201.071 47.7985 201.071 49.6954C201.071 51.5528 201.427 53.2522 202.138 54.7934C202.889 56.2951 203.916 57.4807 205.221 58.3501C206.525 59.2196 208.046 59.6543 209.785 59.6543C211.524 59.6543 213.026 59.2196 214.29 58.3501C215.594 57.4807 216.602 56.2951 217.313 54.7934C218.064 53.2522 218.44 51.5528 218.44 49.6954C218.44 47.7985 218.064 46.1189 217.313 44.6567C216.602 43.155 215.594 41.9694 214.29 41.1C213.026 40.2306 211.524 39.7959 209.785 39.7959Z" fill="white"/>
<path d="M9.01403 113.186C8.95437 112.682 8.71242 112.291 8.28817 112.012C7.86393 111.734 7.34357 111.595 6.7271 111.595C6.27634 111.595 5.88192 111.668 5.54386 111.813C5.2091 111.959 4.94727 112.16 4.75835 112.415C4.57274 112.67 4.47994 112.96 4.47994 113.285C4.47994 113.557 4.54457 113.791 4.67383 113.986C4.8064 114.178 4.97544 114.339 5.18093 114.468C5.38642 114.594 5.60186 114.699 5.82724 114.782C6.05262 114.861 6.25977 114.926 6.44869 114.975L7.48278 115.254C7.74793 115.323 8.04291 115.42 8.36772 115.542C8.69585 115.665 9.00906 115.832 9.30735 116.044C9.60896 116.253 9.85754 116.522 10.0531 116.85C10.2486 117.178 10.3464 117.581 10.3464 118.058C10.3464 118.608 10.2022 119.105 9.91389 119.549C9.62885 119.993 9.21123 120.346 8.66104 120.608C8.11417 120.87 7.44963 121.001 6.66744 121.001C5.93827 121.001 5.30688 120.883 4.77326 120.648C4.24296 120.413 3.82534 120.085 3.52042 119.664C3.21881 119.243 3.04812 118.754 3.00835 118.197H4.28107C4.31422 118.581 4.44348 118.9 4.66886 119.152C4.89755 119.4 5.1859 119.586 5.53391 119.708C5.88524 119.828 6.26308 119.887 6.66744 119.887C7.13808 119.887 7.56067 119.811 7.93519 119.659C8.30972 119.503 8.60636 119.287 8.82511 119.012C9.04386 118.734 9.15323 118.409 9.15323 118.038C9.15323 117.7 9.05877 117.425 8.86985 117.213C8.68093 117.001 8.43235 116.828 8.12411 116.696C7.81587 116.563 7.48278 116.447 7.12482 116.348L5.87198 115.99C5.07653 115.761 4.44679 115.434 3.98278 115.01C3.51876 114.586 3.28675 114.031 3.28675 113.345C3.28675 112.775 3.44087 112.278 3.74911 111.853C4.06067 111.426 4.47828 111.094 5.00195 110.859C5.52894 110.62 6.11725 110.501 6.76687 110.501C7.42312 110.501 8.00645 110.619 8.51687 110.854C9.02728 111.086 9.43164 111.404 9.72994 111.809C10.0315 112.213 10.1906 112.672 10.2072 113.186H9.01403ZM13.3878 116.228V120.822H12.2145V110.64H13.3878V114.379H13.4872C13.6662 113.984 13.9347 113.671 14.2926 113.439C14.6539 113.204 15.1345 113.086 15.7344 113.086C16.2547 113.086 16.7105 113.191 17.1016 113.399C17.4927 113.605 17.7959 113.921 18.0114 114.349C18.2301 114.773 18.3395 115.313 18.3395 115.97V120.822H17.1662V116.049C17.1662 115.443 17.0088 114.974 16.6939 114.642C16.3823 114.308 15.9498 114.14 15.3963 114.14C15.0118 114.14 14.6671 114.221 14.3622 114.384C14.0606 114.546 13.822 114.783 13.6463 115.095C13.474 115.406 13.3878 115.784 13.3878 116.228ZM22.7331 121.001C22.2492 121.001 21.8101 120.91 21.4157 120.728C21.0212 120.542 20.708 120.275 20.476 119.927C20.244 119.576 20.128 119.152 20.128 118.654C20.128 118.217 20.2142 117.862 20.3865 117.59C20.5589 117.315 20.7892 117.1 21.0776 116.944C21.3659 116.788 21.6841 116.672 22.0321 116.596C22.3835 116.517 22.7364 116.454 23.0911 116.407C23.5551 116.348 23.9313 116.303 24.2196 116.273C24.5113 116.24 24.7234 116.185 24.856 116.109C24.9919 116.033 25.0598 115.9 25.0598 115.711V115.671C25.0598 115.181 24.9256 114.8 24.6571 114.528C24.392 114.256 23.9893 114.12 23.449 114.12C22.8889 114.12 22.4498 114.243 22.1316 114.488C21.8134 114.733 21.5897 114.995 21.4604 115.274L20.3468 114.876C20.5456 114.412 20.8108 114.051 21.1422 113.792C21.477 113.53 21.8416 113.348 22.236 113.245C22.6337 113.139 23.0248 113.086 23.4093 113.086C23.6545 113.086 23.9363 113.116 24.2544 113.176C24.5759 113.232 24.8858 113.35 25.1841 113.529C25.4857 113.708 25.736 113.978 25.9348 114.339C26.1337 114.7 26.2331 115.184 26.2331 115.791V120.822H25.0598V119.788H25.0002C24.9206 119.954 24.7881 120.131 24.6025 120.32C24.4168 120.509 24.1699 120.67 23.8617 120.802C23.5534 120.935 23.1773 121.001 22.7331 121.001ZM22.9121 119.947C23.3761 119.947 23.7672 119.856 24.0854 119.674C24.4069 119.491 24.6489 119.256 24.8113 118.968C24.977 118.679 25.0598 118.376 25.0598 118.058V116.984C25.0101 117.044 24.9007 117.098 24.7317 117.148C24.566 117.194 24.3738 117.236 24.155 117.272C23.9396 117.305 23.7291 117.335 23.5236 117.362C23.3214 117.385 23.1574 117.405 23.0314 117.421C22.7265 117.461 22.4415 117.526 22.1763 117.615C21.9145 117.702 21.7024 117.832 21.54 118.008C21.3809 118.18 21.3013 118.416 21.3013 118.714C21.3013 119.122 21.4521 119.43 21.7537 119.639C22.0587 119.844 22.4448 119.947 22.9121 119.947ZM28.3746 120.822V113.186H29.5082V114.339H29.5877C29.7269 113.961 29.9788 113.655 30.3434 113.419C30.708 113.184 31.119 113.066 31.5763 113.066C31.6625 113.066 31.7702 113.068 31.8995 113.071C32.0288 113.075 32.1265 113.08 32.1928 113.086V114.279C32.1531 114.269 32.0619 114.255 31.9194 114.235C31.7802 114.211 31.6327 114.2 31.4769 114.2C31.1057 114.2 30.7743 114.278 30.4826 114.434C30.1942 114.586 29.9656 114.798 29.7965 115.07C29.6308 115.338 29.5479 115.645 29.5479 115.99V120.822H28.3746ZM33.5836 123.686V113.186H34.7172V114.399H34.8564C34.9425 114.266 35.0618 114.097 35.2143 113.892C35.3701 113.683 35.5922 113.497 35.8805 113.335C36.1722 113.169 36.5666 113.086 37.0637 113.086C37.7067 113.086 38.2735 113.247 38.764 113.568C39.2546 113.89 39.6374 114.346 39.9125 114.936C40.1876 115.526 40.3251 116.222 40.3251 117.024C40.3251 117.832 40.1876 118.533 39.9125 119.127C39.6374 119.717 39.2562 120.174 38.769 120.499C38.2818 120.82 37.72 120.981 37.0836 120.981C36.5931 120.981 36.2003 120.9 35.9054 120.738C35.6104 120.572 35.3833 120.385 35.2243 120.176C35.0652 119.964 34.9425 119.788 34.8564 119.649H34.7569V123.686H33.5836ZM34.737 117.004C34.737 117.581 34.8216 118.089 34.9906 118.53C35.1596 118.968 35.4065 119.311 35.7314 119.559C36.0562 119.805 36.4539 119.927 36.9245 119.927C37.4151 119.927 37.8244 119.798 38.1525 119.539C38.484 119.278 38.7325 118.926 38.8983 118.485C39.0673 118.041 39.1518 117.547 39.1518 117.004C39.1518 116.467 39.069 115.983 38.9032 115.552C38.7408 115.118 38.4939 114.775 38.1625 114.523C37.8343 114.268 37.4217 114.14 36.9245 114.14C36.4473 114.14 36.0462 114.261 35.7214 114.503C35.3966 114.742 35.1513 115.077 34.9856 115.507C34.8199 115.935 34.737 116.434 34.737 117.004ZM45.3166 120.981C44.5808 120.981 43.9461 120.819 43.4125 120.494C42.8822 120.166 42.4728 119.708 42.1845 119.122C41.8994 118.532 41.7569 117.846 41.7569 117.063C41.7569 116.281 41.8994 115.592 42.1845 114.995C42.4728 114.395 42.8739 113.928 43.3876 113.593C43.9047 113.255 44.5079 113.086 45.1973 113.086C45.595 113.086 45.9877 113.153 46.3755 113.285C46.7633 113.418 47.1163 113.633 47.4345 113.931C47.7527 114.226 48.0062 114.617 48.1951 115.105C48.3841 115.592 48.4785 116.192 48.4785 116.904V117.402H42.5922V116.387H47.2853C47.2853 115.956 47.1992 115.572 47.0268 115.234C46.8578 114.896 46.6158 114.629 46.301 114.434C45.9894 114.238 45.6215 114.14 45.1973 114.14C44.7299 114.14 44.3256 114.256 43.9842 114.488C43.6461 114.717 43.3859 115.015 43.2037 115.383C43.0214 115.751 42.9302 116.145 42.9302 116.566V117.242C42.9302 117.819 43.0297 118.308 43.2285 118.709C43.4307 119.107 43.7108 119.41 44.0687 119.619C44.4267 119.824 44.8426 119.927 45.3166 119.927C45.6248 119.927 45.9032 119.884 46.1518 119.798C46.4037 119.708 46.6208 119.576 46.8031 119.4C46.9854 119.221 47.1262 118.999 47.2257 118.734L48.3592 119.052C48.2399 119.437 48.0394 119.775 47.7576 120.066C47.4759 120.355 47.1279 120.58 46.7136 120.742C46.2993 120.902 45.8336 120.981 45.3166 120.981ZM51.4366 116.228V120.822H50.2633V113.186H51.3968V114.379H51.4963C51.6752 113.991 51.947 113.68 52.3116 113.444C52.6762 113.206 53.1468 113.086 53.7235 113.086C54.2406 113.086 54.693 113.192 55.0808 113.404C55.4686 113.613 55.7702 113.931 55.9856 114.359C56.2011 114.783 56.3088 115.32 56.3088 115.97V120.822H55.1355V116.049C55.1355 115.449 54.9797 114.982 54.6681 114.647C54.3566 114.309 53.929 114.14 53.3855 114.14C53.0109 114.14 52.6762 114.221 52.3812 114.384C52.0895 114.546 51.8592 114.783 51.6902 115.095C51.5211 115.406 51.4366 115.784 51.4366 116.228ZM61.6744 110.64H63.0863L65.9102 115.393H66.0295L68.8533 110.64H70.2653L66.5863 116.626V120.822H65.3533V116.626L61.6744 110.64ZM73.723 120.981C73.0336 120.981 72.4287 120.817 71.9084 120.489C71.3913 120.161 70.987 119.702 70.6953 119.112C70.407 118.522 70.2628 117.832 70.2628 117.044C70.2628 116.248 70.407 115.554 70.6953 114.961C70.987 114.367 71.3913 113.907 71.9084 113.578C72.4287 113.25 73.0336 113.086 73.723 113.086C74.4124 113.086 75.0156 113.25 75.5327 113.578C76.053 113.907 76.4574 114.367 76.7457 114.961C77.0374 115.554 77.1832 116.248 77.1832 117.044C77.1832 117.832 77.0374 118.522 76.7457 119.112C76.4574 119.702 76.053 120.161 75.5327 120.489C75.0156 120.817 74.4124 120.981 73.723 120.981ZM73.723 119.927C74.2467 119.927 74.6776 119.793 75.0156 119.524C75.3537 119.256 75.6039 118.903 75.7663 118.465C75.9287 118.028 76.0099 117.554 76.0099 117.044C76.0099 116.533 75.9287 116.058 75.7663 115.617C75.6039 115.176 75.3537 114.82 75.0156 114.548C74.6776 114.276 74.2467 114.14 73.723 114.14C73.1993 114.14 72.7685 114.276 72.4304 114.548C72.0923 114.82 71.8421 115.176 71.6797 115.617C71.5173 116.058 71.4361 116.533 71.4361 117.044C71.4361 117.554 71.5173 118.028 71.6797 118.465C71.8421 118.903 72.0923 119.256 72.4304 119.524C72.7685 119.793 73.1993 119.927 73.723 119.927ZM83.7868 117.7V113.186H84.96V120.822H83.7868V119.529H83.7072C83.5282 119.917 83.2498 120.247 82.872 120.519C82.4941 120.787 82.0169 120.921 81.4402 120.921C80.9629 120.921 80.5386 120.817 80.1674 120.608C79.7962 120.396 79.5046 120.078 79.2924 119.654C79.0803 119.226 78.9743 118.688 78.9743 118.038V113.186H80.1475V117.958C80.1475 118.515 80.3033 118.959 80.6149 119.291C80.9297 119.622 81.3308 119.788 81.818 119.788C82.1097 119.788 82.4063 119.713 82.7079 119.564C83.0128 119.415 83.2681 119.186 83.4735 118.878C83.6824 118.57 83.7868 118.177 83.7868 117.7ZM87.109 120.822V113.186H88.2425V114.339H88.3221C88.4613 113.961 88.7132 113.655 89.0778 113.419C89.4424 113.184 89.8533 113.066 90.3107 113.066C90.3969 113.066 90.5046 113.068 90.6339 113.071C90.7631 113.075 90.8609 113.08 90.9272 113.086V114.279C90.8874 114.269 90.7963 114.255 90.6538 114.235C90.5146 114.211 90.3671 114.2 90.2113 114.2C89.8401 114.2 89.5086 114.278 89.217 114.434C88.9286 114.586 88.6999 114.798 88.5309 115.07C88.3652 115.338 88.2823 115.645 88.2823 115.99V120.822H87.109ZM96.4146 110.64H97.8862L101.346 119.092H101.466L104.926 110.64H106.398V120.822H105.244V113.086H105.145L101.963 120.822H100.849L97.6674 113.086H97.568V120.822H96.4146V110.64ZM108.711 120.822V113.186H109.884V120.822H108.711ZM109.307 111.913C109.078 111.913 108.881 111.835 108.716 111.679C108.553 111.523 108.472 111.336 108.472 111.117C108.472 110.899 108.553 110.711 108.716 110.556C108.881 110.4 109.078 110.322 109.307 110.322C109.536 110.322 109.731 110.4 109.894 110.556C110.06 110.711 110.142 110.899 110.142 111.117C110.142 111.336 110.06 111.523 109.894 111.679C109.731 111.835 109.536 111.913 109.307 111.913ZM113.206 116.228V120.822H112.033V113.186H113.166V114.379H113.266C113.445 113.991 113.717 113.68 114.081 113.444C114.446 113.206 114.916 113.086 115.493 113.086C116.01 113.086 116.463 113.192 116.85 113.404C117.238 113.613 117.54 113.931 117.755 114.359C117.971 114.783 118.078 115.32 118.078 115.97V120.822H116.905V116.049C116.905 115.449 116.749 114.982 116.438 114.647C116.126 114.309 115.699 114.14 115.155 114.14C114.78 114.14 114.446 114.221 114.151 114.384C113.859 114.546 113.629 114.783 113.46 115.095C113.291 115.406 113.206 115.784 113.206 116.228ZM123.106 120.981C122.469 120.981 121.908 120.82 121.42 120.499C120.933 120.174 120.552 119.717 120.277 119.127C120.002 118.533 119.864 117.832 119.864 117.024C119.864 116.222 120.002 115.526 120.277 114.936C120.552 114.346 120.935 113.89 121.425 113.568C121.916 113.247 122.483 113.086 123.126 113.086C123.623 113.086 124.016 113.169 124.304 113.335C124.596 113.497 124.818 113.683 124.97 113.892C125.126 114.097 125.247 114.266 125.333 114.399H125.433V110.64H126.606V120.822H125.472V119.649H125.333C125.247 119.788 125.124 119.964 124.965 120.176C124.806 120.385 124.579 120.572 124.284 120.738C123.989 120.9 123.596 120.981 123.106 120.981ZM123.265 119.927C123.736 119.927 124.133 119.805 124.458 119.559C124.783 119.311 125.03 118.968 125.199 118.53C125.368 118.089 125.452 117.581 125.452 117.004C125.452 116.434 125.37 115.935 125.204 115.507C125.038 115.077 124.793 114.742 124.468 114.503C124.143 114.261 123.742 114.14 123.265 114.14C122.768 114.14 122.353 114.268 122.022 114.523C121.694 114.775 121.447 115.118 121.281 115.552C121.119 115.983 121.038 116.467 121.038 117.004C121.038 117.547 121.121 118.041 121.286 118.485C121.455 118.926 121.704 119.278 122.032 119.539C122.363 119.798 122.774 119.927 123.265 119.927ZM134.585 120.822L132.259 113.186H133.491L135.142 119.032H135.222L136.852 113.186H138.105L139.716 119.012H139.795L141.446 113.186H142.679L140.352 120.822H139.199L137.528 114.956H137.409L135.739 120.822H134.585ZM144.23 120.822V113.186H145.403V120.822H144.23ZM144.827 111.913C144.598 111.913 144.401 111.835 144.235 111.679C144.073 111.523 143.991 111.336 143.991 111.117C143.991 110.899 144.073 110.711 144.235 110.556C144.401 110.4 144.598 110.322 144.827 110.322C145.055 110.322 145.251 110.4 145.413 110.556C145.579 110.711 145.662 110.899 145.662 111.117C145.662 111.336 145.579 111.523 145.413 111.679C145.251 111.835 145.055 111.913 144.827 111.913ZM150.873 113.186V114.18H146.916V113.186H150.873ZM148.069 111.356H149.243V118.635C149.243 118.966 149.291 119.215 149.387 119.38C149.486 119.543 149.612 119.652 149.765 119.708C149.921 119.761 150.085 119.788 150.257 119.788C150.386 119.788 150.492 119.781 150.575 119.768C150.658 119.751 150.724 119.738 150.774 119.728L151.013 120.782C150.933 120.812 150.822 120.842 150.68 120.872C150.537 120.905 150.356 120.921 150.138 120.921C149.806 120.921 149.481 120.85 149.163 120.708C148.848 120.565 148.586 120.348 148.378 120.056C148.172 119.765 148.069 119.397 148.069 118.953V111.356ZM153.976 116.228V120.822H152.802V110.64H153.976V114.379H154.075C154.254 113.984 154.523 113.671 154.881 113.439C155.242 113.204 155.722 113.086 156.322 113.086C156.843 113.086 157.298 113.191 157.689 113.399C158.081 113.605 158.384 113.921 158.599 114.349C158.818 114.773 158.927 115.313 158.927 115.97V120.822H157.754V116.049C157.754 115.443 157.597 114.974 157.282 114.642C156.97 114.308 156.538 114.14 155.984 114.14C155.6 114.14 155.255 114.221 154.95 114.384C154.648 114.546 154.41 114.783 154.234 115.095C154.062 115.406 153.976 115.784 153.976 116.228ZM165.17 120.822V110.64H171.315V111.734H166.403V115.174H170.997V116.268H166.403V119.728H171.395V120.822H165.17ZM174.552 116.228V120.822H173.379V113.186H174.512V114.379H174.612C174.79 113.991 175.062 113.68 175.427 113.444C175.791 113.206 176.262 113.086 176.839 113.086C177.356 113.086 177.808 113.192 178.196 113.404C178.584 113.613 178.885 113.931 179.101 114.359C179.316 114.783 179.424 115.32 179.424 115.97V120.822H178.251V116.049C178.251 115.449 178.095 114.982 177.783 114.647C177.472 114.309 177.044 114.14 176.501 114.14C176.126 114.14 175.791 114.221 175.496 114.384C175.205 114.546 174.974 114.783 174.805 115.095C174.636 115.406 174.552 115.784 174.552 116.228ZM184.65 123.845C184.084 123.845 183.596 123.772 183.189 123.626C182.781 123.483 182.441 123.295 182.17 123.059C181.901 122.827 181.687 122.579 181.528 122.313L182.463 121.657C182.569 121.796 182.703 121.956 182.866 122.135C183.028 122.317 183.25 122.474 183.532 122.607C183.817 122.743 184.19 122.811 184.65 122.811C185.267 122.811 185.776 122.662 186.177 122.363C186.578 122.065 186.778 121.598 186.778 120.961V119.41H186.679C186.593 119.549 186.47 119.722 186.311 119.927C186.155 120.129 185.93 120.31 185.635 120.469C185.343 120.625 184.949 120.703 184.452 120.703C183.835 120.703 183.282 120.557 182.791 120.265C182.304 119.974 181.918 119.549 181.633 118.992C181.351 118.436 181.21 117.76 181.21 116.964C181.21 116.182 181.348 115.501 181.623 114.921C181.898 114.337 182.281 113.887 182.771 113.568C183.262 113.247 183.828 113.086 184.471 113.086C184.969 113.086 185.363 113.169 185.655 113.335C185.95 113.497 186.175 113.683 186.331 113.892C186.49 114.097 186.613 114.266 186.699 114.399H186.818V113.186H187.952V121.041C187.952 121.697 187.802 122.231 187.504 122.642C187.209 123.056 186.811 123.359 186.311 123.551C185.814 123.747 185.26 123.845 184.65 123.845ZM184.611 119.649C185.081 119.649 185.479 119.541 185.804 119.326C186.129 119.11 186.376 118.8 186.545 118.396C186.714 117.992 186.798 117.508 186.798 116.944C186.798 116.394 186.715 115.908 186.55 115.488C186.384 115.067 186.139 114.737 185.814 114.498C185.489 114.26 185.088 114.14 184.611 114.14C184.113 114.14 183.699 114.266 183.368 114.518C183.04 114.77 182.793 115.108 182.627 115.532C182.465 115.956 182.383 116.427 182.383 116.944C182.383 117.474 182.466 117.943 182.632 118.351C182.801 118.755 183.05 119.074 183.378 119.306C183.709 119.534 184.12 119.649 184.611 119.649ZM192.346 121.001C191.863 121.001 191.423 120.91 191.029 120.728C190.635 120.542 190.321 120.275 190.089 119.927C189.857 119.576 189.741 119.152 189.741 118.654C189.741 118.217 189.827 117.862 190 117.59C190.172 117.315 190.403 117.1 190.691 116.944C190.979 116.788 191.297 116.672 191.645 116.596C191.997 116.517 192.35 116.454 192.704 116.407C193.168 116.348 193.545 116.303 193.833 116.273C194.125 116.24 194.337 116.185 194.469 116.109C194.605 116.033 194.673 115.9 194.673 115.711V115.671C194.673 115.181 194.539 114.8 194.27 114.528C194.005 114.256 193.603 114.12 193.062 114.12C192.502 114.12 192.063 114.243 191.745 114.488C191.427 114.733 191.203 114.995 191.074 115.274L189.96 114.876C190.159 114.412 190.424 114.051 190.756 113.792C191.09 113.53 191.455 113.348 191.849 113.245C192.247 113.139 192.638 113.086 193.023 113.086C193.268 113.086 193.55 113.116 193.868 113.176C194.189 113.232 194.499 113.35 194.797 113.529C195.099 113.708 195.349 113.978 195.548 114.339C195.747 114.7 195.846 115.184 195.846 115.791V120.822H194.673V119.788H194.613C194.534 119.954 194.401 120.131 194.216 120.32C194.03 120.509 193.783 120.67 193.475 120.802C193.167 120.935 192.791 121.001 192.346 121.001ZM192.525 119.947C192.989 119.947 193.381 119.856 193.699 119.674C194.02 119.491 194.262 119.256 194.425 118.968C194.59 118.679 194.673 118.376 194.673 118.058V116.984C194.623 117.044 194.514 117.098 194.345 117.148C194.179 117.194 193.987 117.236 193.768 117.272C193.553 117.305 193.342 117.335 193.137 117.362C192.935 117.385 192.771 117.405 192.645 117.421C192.34 117.461 192.055 117.526 191.79 117.615C191.528 117.702 191.316 117.832 191.153 118.008C190.994 118.18 190.915 118.416 190.915 118.714C190.915 119.122 191.065 119.43 191.367 119.639C191.672 119.844 192.058 119.947 192.525 119.947ZM201.07 123.845C200.504 123.845 200.016 123.772 199.609 123.626C199.201 123.483 198.861 123.295 198.589 123.059C198.321 122.827 198.107 122.579 197.948 122.313L198.883 121.657C198.989 121.796 199.123 121.956 199.286 122.135C199.448 122.317 199.67 122.474 199.952 122.607C200.237 122.743 200.61 122.811 201.07 122.811C201.687 122.811 202.196 122.662 202.597 122.363C202.998 122.065 203.198 121.598 203.198 120.961V119.41H203.099C203.013 119.549 202.89 119.722 202.731 119.927C202.575 120.129 202.35 120.31 202.055 120.469C201.763 120.625 201.369 120.703 200.871 120.703C200.255 120.703 199.701 120.557 199.211 120.265C198.724 119.974 198.338 119.549 198.053 118.992C197.771 118.436 197.63 117.76 197.63 116.964C197.63 116.182 197.768 115.501 198.043 114.921C198.318 114.337 198.701 113.887 199.191 113.568C199.682 113.247 200.248 113.086 200.891 113.086C201.388 113.086 201.783 113.169 202.075 113.335C202.37 113.497 202.595 113.683 202.751 113.892C202.91 114.097 203.032 114.266 203.119 114.399H203.238V113.186H204.371V121.041C204.371 121.697 204.222 122.231 203.924 122.642C203.629 123.056 203.231 123.359 202.731 123.551C202.234 123.747 201.68 123.845 201.07 123.845ZM201.031 119.649C201.501 119.649 201.899 119.541 202.224 119.326C202.549 119.11 202.795 118.8 202.964 118.396C203.134 117.992 203.218 117.508 203.218 116.944C203.218 116.394 203.135 115.908 202.969 115.488C202.804 115.067 202.558 114.737 202.234 114.498C201.909 114.26 201.508 114.14 201.031 114.14C200.533 114.14 200.119 114.266 199.788 114.518C199.46 114.77 199.213 115.108 199.047 115.532C198.884 115.956 198.803 116.427 198.803 116.944C198.803 117.474 198.886 117.943 199.052 118.351C199.221 118.755 199.469 119.074 199.798 119.306C200.129 119.534 200.54 119.649 201.031 119.649ZM206.519 120.822V113.186H207.692V120.822H206.519ZM207.116 111.913C206.887 111.913 206.69 111.835 206.524 111.679C206.362 111.523 206.281 111.336 206.281 111.117C206.281 110.899 206.362 110.711 206.524 110.556C206.69 110.4 206.887 110.322 207.116 110.322C207.344 110.322 207.54 110.4 207.702 110.556C207.868 110.711 207.951 110.899 207.951 111.117C207.951 111.336 207.868 111.523 207.702 111.679C207.54 111.835 207.344 111.913 207.116 111.913ZM211.015 116.228V120.822H209.841V113.186H210.975V114.379H211.074C211.253 113.991 211.525 113.68 211.89 113.444C212.254 113.206 212.725 113.086 213.302 113.086C213.819 113.086 214.271 113.192 214.659 113.404C215.047 113.613 215.348 113.931 215.564 114.359C215.779 114.783 215.887 115.32 215.887 115.97V120.822H214.714V116.049C214.714 115.449 214.558 114.982 214.246 114.647C213.935 114.309 213.507 114.14 212.964 114.14C212.589 114.14 212.254 114.221 211.959 114.384C211.668 114.546 211.437 114.783 211.268 115.095C211.099 115.406 211.015 115.784 211.015 116.228ZM221.113 123.845C220.547 123.845 220.059 123.772 219.652 123.626C219.244 123.483 218.904 123.295 218.632 123.059C218.364 122.827 218.15 122.579 217.991 122.313L218.926 121.657C219.032 121.796 219.166 121.956 219.328 122.135C219.491 122.317 219.713 122.474 219.995 122.607C220.28 122.743 220.653 122.811 221.113 122.811C221.73 122.811 222.239 122.662 222.64 122.363C223.041 122.065 223.241 121.598 223.241 120.961V119.41H223.142C223.056 119.549 222.933 119.722 222.774 119.927C222.618 120.129 222.393 120.31 222.098 120.469C221.806 120.625 221.412 120.703 220.914 120.703C220.298 120.703 219.744 120.557 219.254 120.265C218.767 119.974 218.381 119.549 218.096 118.992C217.814 118.436 217.673 117.76 217.673 116.964C217.673 116.182 217.81 115.501 218.086 114.921C218.361 114.337 218.743 113.887 219.234 113.568C219.725 113.247 220.291 113.086 220.934 113.086C221.431 113.086 221.826 113.169 222.118 113.335C222.413 113.497 222.638 113.683 222.794 113.892C222.953 114.097 223.075 114.266 223.162 114.399H223.281V113.186H224.414V121.041C224.414 121.697 224.265 122.231 223.967 122.642C223.672 123.056 223.274 123.359 222.774 123.551C222.277 123.747 221.723 123.845 221.113 123.845ZM221.074 119.649C221.544 119.649 221.942 119.541 222.267 119.326C222.592 119.11 222.838 118.8 223.007 118.396C223.176 117.992 223.261 117.508 223.261 116.944C223.261 116.394 223.178 115.908 223.012 115.488C222.847 115.067 222.601 114.737 222.277 114.498C221.952 114.26 221.551 114.14 221.074 114.14C220.576 114.14 220.162 114.266 219.831 114.518C219.502 114.77 219.256 115.108 219.09 115.532C218.927 115.956 218.846 116.427 218.846 116.944C218.846 117.474 218.929 117.943 219.095 118.351C219.264 118.755 219.512 119.074 219.841 119.306C220.172 119.534 220.583 119.649 221.074 119.649ZM234.358 117.64H235.71L236.843 119.132L237.142 119.529L238.832 121.777H237.48L236.366 120.285L236.088 119.907L234.358 117.64ZM239.25 115.731C239.25 116.805 239.056 117.733 238.668 118.515C238.28 119.297 237.748 119.901 237.072 120.325C236.396 120.749 235.624 120.961 234.755 120.961C233.887 120.961 233.115 120.749 232.439 120.325C231.762 119.901 231.23 119.297 230.843 118.515C230.455 117.733 230.261 116.805 230.261 115.731C230.261 114.657 230.455 113.729 230.843 112.947C231.23 112.165 231.762 111.562 232.439 111.137C233.115 110.713 233.887 110.501 234.755 110.501C235.624 110.501 236.396 110.713 237.072 111.137C237.748 111.562 238.28 112.165 238.668 112.947C239.056 113.729 239.25 114.657 239.25 115.731ZM238.056 115.731C238.056 114.849 237.909 114.105 237.614 113.499C237.322 112.892 236.926 112.433 236.426 112.122C235.929 111.81 235.372 111.654 234.755 111.654C234.139 111.654 233.58 111.81 233.08 112.122C232.583 112.433 232.187 112.892 231.892 113.499C231.6 114.105 231.454 114.849 231.454 115.731C231.454 116.613 231.6 117.357 231.892 117.963C232.187 118.57 232.583 119.029 233.08 119.34C233.58 119.652 234.139 119.808 234.755 119.808C235.372 119.808 235.929 119.652 236.426 119.34C236.926 119.029 237.322 118.57 237.614 117.963C237.909 117.357 238.056 116.613 238.056 115.731ZM245.976 117.7V113.186H247.15V120.822H245.976V119.529H245.897C245.718 119.917 245.439 120.247 245.061 120.519C244.684 120.787 244.206 120.921 243.63 120.921C243.152 120.921 242.728 120.817 242.357 120.608C241.986 120.396 241.694 120.078 241.482 119.654C241.27 119.226 241.164 118.688 241.164 118.038V113.186H242.337V117.958C242.337 118.515 242.493 118.959 242.804 119.291C243.119 119.622 243.52 119.788 244.007 119.788C244.299 119.788 244.596 119.713 244.897 119.564C245.202 119.415 245.458 119.186 245.663 118.878C245.872 118.57 245.976 118.177 245.976 117.7ZM249.298 120.822V113.186H250.472V120.822H249.298ZM249.895 111.913C249.666 111.913 249.469 111.835 249.303 111.679C249.141 111.523 249.06 111.336 249.06 111.117C249.06 110.899 249.141 110.711 249.303 110.556C249.469 110.4 249.666 110.322 249.895 110.322C250.124 110.322 250.319 110.4 250.482 110.556C250.647 110.711 250.73 110.899 250.73 111.117C250.73 111.336 250.647 111.523 250.482 111.679C250.319 111.835 250.124 111.913 249.895 111.913ZM252.402 120.822V119.927L256.737 114.359V114.279H252.541V113.186H258.249V114.12L254.033 119.649V119.728H258.388V120.822H252.402ZM259.976 120.822V119.927L264.311 114.359V114.279H260.115V113.186H265.823V114.12L261.607 119.649V119.728H265.962V120.822H259.976ZM270.752 120.981C270.016 120.981 269.382 120.819 268.848 120.494C268.318 120.166 267.908 119.708 267.62 119.122C267.335 118.532 267.192 117.846 267.192 117.063C267.192 116.281 267.335 115.592 267.62 114.995C267.908 114.395 268.309 113.928 268.823 113.593C269.34 113.255 269.943 113.086 270.633 113.086C271.031 113.086 271.423 113.153 271.811 113.285C272.199 113.418 272.552 113.633 272.87 113.931C273.188 114.226 273.442 114.617 273.631 115.105C273.82 115.592 273.914 116.192 273.914 116.904V117.402H268.028V116.387H272.721C272.721 115.956 272.635 115.572 272.462 115.234C272.293 114.896 272.051 114.629 271.737 114.434C271.425 114.238 271.057 114.14 270.633 114.14C270.165 114.14 269.761 114.256 269.42 114.488C269.082 114.717 268.821 115.015 268.639 115.383C268.457 115.751 268.366 116.145 268.366 116.566V117.242C268.366 117.819 268.465 118.308 268.664 118.709C268.866 119.107 269.146 119.41 269.504 119.619C269.862 119.824 270.278 119.927 270.752 119.927C271.06 119.927 271.339 119.884 271.587 119.798C271.839 119.708 272.056 119.576 272.239 119.4C272.421 119.221 272.562 118.999 272.661 118.734L273.795 119.052C273.675 119.437 273.475 119.775 273.193 120.066C272.911 120.355 272.563 120.58 272.149 120.742C271.735 120.902 271.269 120.981 270.752 120.981ZM281.108 114.896L280.054 115.194C279.988 115.019 279.89 114.848 279.761 114.682C279.635 114.513 279.462 114.374 279.244 114.264C279.025 114.155 278.745 114.1 278.403 114.1C277.936 114.1 277.547 114.208 277.235 114.424C276.927 114.636 276.773 114.906 276.773 115.234C276.773 115.526 276.879 115.756 277.091 115.925C277.303 116.094 277.634 116.235 278.085 116.348L279.219 116.626C279.902 116.792 280.41 117.045 280.745 117.387C281.08 117.725 281.247 118.161 281.247 118.694C281.247 119.132 281.121 119.523 280.869 119.867C280.621 120.212 280.273 120.484 279.825 120.683C279.378 120.882 278.857 120.981 278.264 120.981C277.485 120.981 276.841 120.812 276.33 120.474C275.82 120.136 275.497 119.642 275.361 118.992L276.474 118.714C276.58 119.125 276.781 119.433 277.076 119.639C277.374 119.844 277.764 119.947 278.244 119.947C278.791 119.947 279.225 119.831 279.547 119.599C279.872 119.364 280.034 119.082 280.034 118.754C280.034 118.489 279.941 118.267 279.756 118.088C279.57 117.905 279.285 117.769 278.901 117.68L277.628 117.382C276.929 117.216 276.415 116.959 276.087 116.611C275.762 116.26 275.599 115.821 275.599 115.294C275.599 114.863 275.72 114.482 275.962 114.15C276.208 113.819 276.541 113.559 276.962 113.37C277.386 113.181 277.866 113.086 278.403 113.086C279.159 113.086 279.752 113.252 280.183 113.583C280.617 113.915 280.926 114.352 281.108 114.896Z" fill="white"/>
</svg>
