
<svg xmlns="http://www.w3.org/2000/svg" viewBox="0 0 48 48"><path d="M20.59 27h-4c-6.34 0-11.5 5.16-11.5 11.5v3c0 .83.67 1.5 1.5 1.5h24c.83 0 1.5-.67 1.5-1.5v-3c0-6.34-5.16-11.5-11.5-11.5zm8.5 13h-21v-1.5c0-4.69 3.81-8.5 8.5-8.5h4c4.69 0 8.5 3.81 8.5 8.5V40zm-21-24.5c0 5.79 4.71 10.5 10.5 10.5s10.5-4.71 10.5-10.5S24.38 5 18.59 5 8.09 9.71 8.09 15.5zm18 0c0 4.14-3.36 7.5-7.5 7.5s-7.5-3.36-7.5-7.5S14.45 8 18.59 8s7.5 3.36 7.5 7.5zm16.38-7.89a1.49 1.49 0 0 0-2.12 0l-1.77 1.77-1.77-1.77a1.49 1.49 0 0 0-2.12 0 1.49 1.49 0 0 0 0 2.12l1.77 1.77-1.77 1.77a1.49 1.49 0 0 0 0 2.12c.29.29.68.44 1.06.44s.77-.15 1.06-.44l1.77-1.77 1.77 1.77c.29.29.68.44 1.06.44s.77-.15 1.06-.44c.59-.59.59-1.54 0-2.12L40.7 11.5l1.77-1.77c.59-.58.59-1.53 0-2.12z"/></svg>