<?xml version="1.0" encoding="UTF-8"?>
<svg version="1.1" xmlns="http://www.w3.org/2000/svg" width="74" height="75">
<path d="M0 0 C5.86874486 3.54648883 10.45524089 8.98310608 12.5625 15.5 C14.90650133 29.12210611 7.99017634 39.7629281 0.52099609 50.50610352 C-6.46651273 60.29910608 -6.46651273 60.29910608 -11.0625 61.25 C-14.06058291 61.15800107 -15.18304045 60.72351177 -17.4609375 58.72265625 C-19.63267571 56.07450906 -21.55105889 53.35890881 -23.4375 50.5 C-24.14390625 49.43007813 -24.8503125 48.36015625 -25.578125 47.2578125 C-27.61726008 44.04806283 -29.5509819 40.80140668 -31.4375 37.5 C-31.89640625 36.71753906 -32.3553125 35.93507812 -32.828125 35.12890625 C-36.38509947 28.30302214 -36.77527657 20.55846767 -34.8125 13.13671875 C-32.16105637 7.04076576 -26.99778721 2.29209088 -21.109375 -0.671875 C-14.63535035 -2.67844404 -6.26472423 -2.7761327 0 0 Z M-25.75 12.125 C-29.1074008 16.85023075 -29.30803193 20.80862318 -28.4375 26.5 C-24.79929244 36.28552378 -18.94956104 44.43744824 -12.4375 52.5 C-7.88676829 50.99362353 -5.90554897 47.27037726 -3.4375 43.4375 C-2.99615723 42.75864746 -2.55481445 42.07979492 -2.10009766 41.38037109 C2.81962202 33.69388169 7.00742405 26.93660273 5.5625 17.5 C3.59815961 11.82523887 -0.06550662 8.18599669 -5.4375 5.5 C-14.28331402 4.69222357 -19.66937508 5.22266901 -25.75 12.125 Z " fill="#726867" transform="translate(49.4375,2.5)"/>
<path d="M0 0 C2.23098656 1.85285324 2.81047552 3.2810869 4 6 C3.25234375 5.979375 2.5046875 5.95875 1.734375 5.9375 C-1.3531571 6.00216036 -4.01693358 6.18331035 -7 7 C-9.18866459 9.40429657 -10.09795318 11.90898622 -11 15 C-11.33 15.99 -11.66 16.98 -12 18 C7.14 18 26.28 18 46 18 C44.17607885 12.0541962 44.17607885 12.0541962 41 7 C39.15108054 6.76636119 37.29511969 6.58696365 35.4375 6.4375 C34.42558594 6.35371094 33.41367187 6.26992188 32.37109375 6.18359375 C31.19740234 6.09271484 31.19740234 6.09271484 30 6 C31.82330284 1.83245065 31.82330284 1.83245065 34 0 C38.70527214 -0.98532254 43.24219402 -1.03665481 47.4375 1.4375 C51.3752914 7.8954779 53.92583344 13.32880862 53 21 C51.86962891 22.70230103 51.86962891 22.70230103 50 24 C47.15380859 24.38095093 47.15380859 24.38095093 43.6484375 24.38818359 C41.68124756 24.40236832 41.68124756 24.40236832 39.67431641 24.4168396 C38.24120787 24.41146992 36.80810208 24.40531698 35.375 24.3984375 C33.90673681 24.40045831 32.4384746 24.40336981 30.97021484 24.40713501 C27.89345745 24.41155806 24.81696139 24.4051282 21.74023438 24.39111328 C17.79559529 24.37402107 13.85156852 24.3838624 9.9069519 24.40183067 C6.87519717 24.41266922 3.84358771 24.40922192 0.81182861 24.4014473 C-0.6426399 24.39944547 -2.09712158 24.40190398 -3.55157471 24.40888596 C-5.58385976 24.41650067 -7.61619102 24.40283742 -9.6484375 24.38818359 C-10.80520996 24.38579681 -11.96198242 24.38341003 -13.15380859 24.38095093 C-16 24 -16 24 -17.86181641 22.69058228 C-19.42642549 20.36661591 -19.58360188 18.22782995 -19.49609375 15.46875 C-18.44920891 10.25905536 -15.77427348 5.49202313 -13 1 C-9.04117125 -0.97941438 -4.29161462 -0.7036473 0 0 Z " fill="#726867" transform="translate(21,51)"/>
<path d="M0 0 C0.70125 0.00515625 1.4025 0.0103125 2.125 0.015625 C2.82625 0.01046875 3.5275 0.0053125 4.25 0 C6.125 0.265625 6.125 0.265625 8.125 2.265625 C8.390625 4.140625 8.390625 4.140625 8.375 6.265625 C8.38015625 6.966875 8.3853125 7.668125 8.390625 8.390625 C8.125 10.265625 8.125 10.265625 6.125 12.265625 C4.25 12.53125 4.25 12.53125 2.125 12.515625 C1.42375 12.52078125 0.7225 12.5259375 0 12.53125 C-1.875 12.265625 -1.875 12.265625 -3.875 10.265625 C-4.140625 8.390625 -4.140625 8.390625 -4.125 6.265625 C-4.13015625 5.564375 -4.1353125 4.863125 -4.140625 4.140625 C-3.75603481 1.4258707 -2.7147543 0.38459019 0 0 Z " fill="#736968" transform="translate(35.875,18.734375)"/>
</svg>
