<svg width="16" height="11" viewBox="0 0 16 11" fill="none" xmlns="http://www.w3.org/2000/svg">
<path d="M0 0H16V10.6668H0V0Z" fill="#F0F0F0"/>
<path d="M0 1.33325H16V2.66647H0V1.33325ZM0 4.00003H16V5.33325H0V4.00003ZM0 6.66647H16V7.99969H0V6.66647ZM0 9.33325H16V10.6665H0V9.33325Z" fill="#D80027"/>
<path d="M0 0H8V5.74366H0V0Z" fill="#2E52B2"/>
<path d="M3.11941 2.3528L2.99056 2.74918H2.57381L2.91103 2.99402L2.78219 3.39036L3.11941 3.14552L3.45641 3.39036L3.32759 2.99402L3.66481 2.74918H3.24803L3.11941 2.3528ZM3.24803 4.17955L3.11941 3.78321L2.99056 4.17955H2.57381L2.91103 4.42443L2.78219 4.82077L3.11941 4.57589L3.45641 4.82077L3.32759 4.42443L3.66481 4.17955H3.24803ZM1.48675 4.17955L1.35809 3.78321L1.22925 4.17955H0.8125L1.14972 4.42443L1.02087 4.82077L1.35809 4.57589L1.69512 4.82077L1.56631 4.42443L1.90347 4.17955H1.48675ZM1.35809 2.3528L1.22925 2.74918H0.8125L1.14972 2.99402L1.02087 3.39036L1.35809 3.14552L1.69512 3.39036L1.56631 2.99402L1.90347 2.74918H1.48675L1.35809 2.3528ZM3.11941 0.922363L2.99056 1.31877H2.57381L2.91103 1.56364L2.78219 1.95999L3.11941 1.71511L3.45641 1.95999L3.32759 1.56364L3.66481 1.31877H3.24803L3.11941 0.922363ZM1.35809 0.922363L1.22925 1.31877H0.8125L1.14972 1.56364L1.02087 1.95999L1.35809 1.71511L1.69512 1.95999L1.56631 1.56364L1.90347 1.31877H1.48675L1.35809 0.922363ZM4.88069 2.3528L4.75188 2.74918H4.33513L4.67231 2.99402L4.54353 3.39036L4.88069 3.14552L5.21775 3.39036L5.08891 2.99402L5.42612 2.74918H5.00937L4.88069 2.3528ZM5.00937 4.17955L4.88069 3.78321L4.75188 4.17955H4.33513L4.67231 4.42443L4.54353 4.82077L4.88069 4.57589L5.21775 4.82077L5.08891 4.42443L5.42612 4.17955H5.00937ZM6.77069 4.17955L6.64203 3.78321L6.51319 4.17955H6.09647L6.43363 4.42443L6.30481 4.82077L6.64203 4.57589L6.97906 4.82077L6.85022 4.42443L7.18744 4.17955H6.77069ZM6.64203 2.3528L6.51319 2.74918H6.09647L6.43363 2.99402L6.30481 3.39036L6.64203 3.14552L6.97906 3.39036L6.85022 2.99402L7.18744 2.74918H6.77069L6.64203 2.3528ZM4.88069 0.922363L4.75188 1.31877H4.33513L4.67231 1.56364L4.54353 1.95999L4.88069 1.71511L5.21775 1.95999L5.08891 1.56364L5.42612 1.31877H5.00937L4.88069 0.922363ZM6.64203 0.922363L6.51319 1.31877H6.09647L6.43363 1.56364L6.30481 1.95999L6.64203 1.71511L6.97906 1.95999L6.85022 1.56364L7.18744 1.31877H6.77069L6.64203 0.922363Z" fill="#F0F0F0"/>
</svg>
