<svg width="25" height="24" viewBox="0 0 25 24" fill="none" xmlns="http://www.w3.org/2000/svg">
<g id="arrow-up-fill">
<g id="Group 37">
<path id="&#240;&#159;&#142;&#168; Icon &#208;&#161;olor" d="M16.424 15.5H9.40384C8.84313 15.5 8.3374 15.1639 8.08329 14.623C7.79585 14.0102 7.87917 13.2853 8.29825 12.7753L11.8091 8.51229C12.369 7.82924 13.4588 7.82924 14.0187 8.51229L17.5287 12.7745C17.9486 13.2853 18.0328 14.0102 17.7445 14.623C17.4904 15.1639 16.9847 15.5 16.424 15.5Z" fill="#00BA00"/>
<mask id="mask0_421_3547" style="mask-type:luminance" maskUnits="userSpaceOnUse" x="7" y="8" width="11" height="8">
<path id="&#240;&#159;&#142;&#168; Icon &#208;&#161;olor_2" d="M16.424 15.5H9.40384C8.84313 15.5 8.3374 15.1639 8.08329 14.623C7.79585 14.0102 7.87917 13.2853 8.29825 12.7753L11.8091 8.51229C12.369 7.82924 13.4588 7.82924 14.0187 8.51229L17.5287 12.7745C17.9486 13.2853 18.0328 14.0102 17.7445 14.623C17.4904 15.1639 16.9847 15.5 16.424 15.5Z" fill="white"/>
</mask>
<g mask="url(#mask0_421_3547)">
</g>
</g>
</g>
</svg>
