<svg width="25" height="24" viewBox="0 0 25 24" fill="none" xmlns="http://www.w3.org/2000/svg">
<path d="M16.424 8.5H9.40384C8.84313 8.5 8.3374 8.83609 8.08329 9.37702C7.79585 9.98984 7.87917 10.7147 8.29825 11.2247L11.8091 15.4877C12.369 16.1708 13.4588 16.1708 14.0187 15.4877L17.5287 11.2255C17.9486 10.7147 18.0328 9.98984 17.7445 9.37702C17.4904 8.83609 16.9847 8.5 16.424 8.5Z" fill="#FF2147"/>
<mask id="mask0_436_3587" style="mask-type:luminance" maskUnits="userSpaceOnUse" x="7" y="8" width="11" height="8">
<path d="M16.424 8.5H9.40384C8.84313 8.5 8.3374 8.83609 8.08329 9.37702C7.79585 9.98984 7.87917 10.7147 8.29825 11.2247L11.8091 15.4877C12.369 16.1708 13.4588 16.1708 14.0187 15.4877L17.5287 11.2255C17.9486 10.7147 18.0328 9.98984 17.7445 9.37702C17.4904 8.83609 16.9847 8.5 16.424 8.5Z" fill="white"/>
</mask>
<g mask="url(#mask0_436_3587)">
</g>
</svg>
