<svg width="32" height="32" viewBox="0 0 32 32" fill="none" xmlns="http://www.w3.org/2000/svg">
<rect x="0.25" y="0.25" width="31.5" height="31.5" rx="15.75" stroke="black" stroke-opacity="0.08" stroke-width="0.5"/>
<path d="M10.1907 14.2521C10.1933 14.0638 10.2593 13.8755 10.3914 13.7215C10.6905 13.3723 11.2169 13.3321 11.5661 13.6311L15.9897 17.4229L20.5076 13.8895C20.8699 13.6062 21.394 13.6701 21.6774 14.0324C21.9607 14.3956 21.8967 14.9189 21.5344 15.2031L16.479 19.1566C16.1664 19.4006 15.7249 19.3911 15.4234 19.1327L10.4818 14.897C10.2866 14.7293 10.1874 14.4912 10.1907 14.2521Z" fill="#8A8281"/>
<mask id="mask0_318_1450" style="mask-type:luminance" maskUnits="userSpaceOnUse" x="11" y="13" width="11" height="7">
<path d="M11.8571 14.2752C11.8597 14.0869 11.9166 13.8985 12.0302 13.7443C12.2872 13.3945 12.7385 13.3532 13.0373 13.6516L16.8216 17.4345L20.7012 13.8922C21.0123 13.6082 21.4615 13.6711 21.7037 14.0328C21.9458 14.3954 21.8899 14.9188 21.5788 15.2037L17.2376 19.1671C16.9691 19.4117 16.5907 19.4032 16.3328 19.1454L12.1053 14.9196C11.9383 14.7523 11.8538 14.5144 11.8571 14.2752Z" fill="white"/>
</mask>
<g mask="url(#mask0_318_1450)">
</g>
</svg>
