<svg width="52" height="52" viewBox="0 0 52 52" fill="none" xmlns="http://www.w3.org/2000/svg">
<mask id="mask0_358_2321" style="mask-type:alpha" maskUnits="userSpaceOnUse" x="0" y="0" width="52" height="52">
<circle cx="26" cy="26" r="26" fill="#D9D9D9"/>
</mask>
<g mask="url(#mask0_358_2321)">
<path d="M55.5764 32.3376C58.4135 15.3567 47.0249 -0.721981 30.1393 -3.57509C13.2536 -6.4282 -2.73484 5.02464 -5.57195 22.0055C-8.40906 38.9865 2.97955 55.0651 19.8652 57.9182C36.7509 60.7713 52.7393 49.3185 55.5764 32.3376Z" fill="#F4E6E1"/>
<mask id="mask1_358_2321" style="mask-type:luminance" maskUnits="userSpaceOnUse" x="-7" y="-5" width="64" height="64">
<path d="M55.5764 32.3376C58.4135 15.3567 47.0249 -0.721984 30.1393 -3.57509C13.2536 -6.4282 -2.73484 5.02464 -5.57195 22.0055C-8.40906 38.9865 2.97955 55.0651 19.8652 57.9182C36.7509 60.7713 52.7393 49.3185 55.5764 32.3376Z" fill="white"/>
</mask>
<g mask="url(#mask1_358_2321)">
<path d="M36.7143 21.4827C40.9821 13.7566 37.6034 9.32657 34.8714 10.7775C34.8714 10.7775 34.4592 5.98575 28.207 3.10013C20.9728 -0.240689 11.629 2.3645 9.80628 7.39605C8.12504 12.0415 11.1278 14.2809 11.1278 14.2809C11.1278 14.2809 9.26877 17.6176 12.4494 22.6126C15.626 27.6076 34.8027 24.9414 36.7143 21.4827Z" fill="#5B4852"/>
<path d="M52.0031 58.9999H-2.00293C-2.00293 58.9999 -0.36614 49.8919 3.34796 44.649C7.05802 39.4021 20.8353 37.4878 20.8353 37.4878L25.0021 38.134L29.1688 37.4878C29.1688 37.4878 42.9502 39.4021 46.6603 44.649C50.3703 49.8878 52.0031 58.9999 52.0031 58.9999Z" fill="#E54322"/>
<path d="M20.8357 37.4878L15.501 38.4957C15.501 38.4957 16.7296 44.5637 21.6076 47.5956L24.9176 43.5151V39.1379L20.8357 37.4878Z" fill="white"/>
<path d="M28.7967 37.4878L34.1314 38.4957C34.1314 38.4957 32.9028 44.5637 28.0248 47.5956L24.7148 43.511V39.1338L28.7967 37.4878Z" fill="white"/>
<path d="M24.9095 42.1129C22.8887 42.1129 21.252 40.4669 21.252 38.4347V31.4036H28.567V38.4307C28.571 40.4628 26.9302 42.1129 24.9095 42.1129Z" fill="#F1B69A"/>
<path d="M28.5709 30.5908V34.9071C28.5709 34.9071 27.3423 37.057 24.9134 37.057C22.9614 37.057 21.2559 35.1956 21.2559 35.1956V30.5908H28.5709Z" fill="#150A08"/>
<path d="M14.6761 23.0395C12.6998 20.0157 10.4043 21.9584 10.4043 24.0881C10.4043 27.1688 13.7264 29.8227 15.6259 27.6118C17.5213 25.3968 14.6761 23.0395 14.6761 23.0395Z" fill="#F1B69A"/>
<path d="M14.2434 24.4335C13.0108 22.1209 11.3093 24.2791 11.96 25.1366" stroke="#E07E61" stroke-miterlimit="10" stroke-linecap="round"/>
<path d="M34.4386 23.0395C36.4149 20.0157 38.7104 21.9584 38.7104 24.0881C38.7104 27.1688 35.3884 29.8227 33.4889 27.6118C31.5894 25.3968 34.4386 23.0395 34.4386 23.0395Z" fill="#F1B69A"/>
<path d="M34.8711 24.4335C36.1037 22.1209 37.8052 24.2791 37.1545 25.1366" stroke="#E07E61" stroke-miterlimit="10" stroke-linecap="round"/>
<path d="M24.5458 34.907C16.7296 34.9029 12.1062 26.3111 13.933 17.4917C15.4404 10.2248 33.6714 10.2248 35.1749 17.4917C37.0056 26.3111 32.3701 34.9111 24.5458 34.907Z" fill="#F1B69A"/>
<path opacity="0.5" d="M23.5068 26.0754C24.3111 26.4615 26.1257 25.6039 26.1621 26.0754C26.1984 26.5468 25.2002 26.9614 24.8365 26.9614C24.4687 26.9614 23.5068 26.0754 23.5068 26.0754Z" fill="#F1B69A"/>
<path d="M23.535 23.7058C22.3953 26.185 24.1008 26.6687 24.5575 26.7256" stroke="#E07E61" stroke-miterlimit="10" stroke-linecap="round"/>
<path d="M21.8252 28.075C24.8442 28.6562 27.2367 28.1725 28.2026 27.3962" stroke="#150A08" stroke-miterlimit="10" stroke-linecap="round"/>
<path d="M21.4662 16.947C20.9772 15.8497 18.1158 16.3496 17.7117 17.134C17.3075 17.9143 18.6453 18.1338 19.6394 18.085C20.6336 18.0362 21.7774 17.6461 21.4662 16.947Z" fill="#150A08"/>
<path d="M27.6488 16.947C28.1378 15.8497 30.9991 16.3496 31.4033 17.134C31.8074 17.9143 30.4697 18.1338 29.4755 18.085C28.4813 18.0362 27.3376 17.6461 27.6488 16.947Z" fill="#150A08"/>
<path opacity="0.5" d="M23.8501 29.5706C24.9454 29.5747 26.5135 29.0016 26.756 29.5706C26.9984 30.1396 25.6607 31.2776 24.8322 31.1963C24.0078 31.1191 22.6013 29.5665 23.8501 29.5706Z" fill="#F1B69A"/>
<path d="M19.3965 21.1739C19.3965 21.6088 19.7481 21.9664 20.1846 21.9664C20.617 21.9664 20.9727 21.6128 20.9727 21.1739C20.9727 20.739 20.621 20.3813 20.1846 20.3813C19.7481 20.3854 19.3965 20.739 19.3965 21.1739Z" fill="#150A08"/>
<path d="M29.7148 21.1739C29.7148 21.6088 29.3632 21.9664 28.9268 21.9664C28.4943 21.9664 28.1387 21.6128 28.1387 21.1739C28.1387 20.739 28.4903 20.3813 28.9268 20.3813C29.3632 20.3854 29.7148 20.739 29.7148 21.1739Z" fill="#150A08"/>
<path d="M31.4764 12.0414C29.4516 16.6137 25.0141 14.0085 25.0141 14.0085C25.0141 14.0085 22.1043 16.7478 17.6344 16.3129C13.1646 15.874 10.8326 10.4848 16.2765 8.20472C21.7203 5.92467 34.3256 5.61579 31.4764 12.0414Z" fill="#5B4852"/>
</g>
</g>
</svg>
