<svg width="52" height="52" viewBox="0 0 52 52" fill="none" xmlns="http://www.w3.org/2000/svg">
<mask id="mask0_358_2353" style="mask-type:alpha" maskUnits="userSpaceOnUse" x="0" y="0" width="52" height="52">
<circle cx="26" cy="26" r="26" fill="#D9D9D9"/>
</mask>
<g mask="url(#mask0_358_2353)">
<path d="M51.649 30.531C54.0055 16.2426 44.4328 2.73258 30.2678 0.35552C16.1027 -2.02154 2.70935 7.63453 0.352816 21.923C-2.00372 36.2114 7.56897 49.7214 21.734 52.0985C35.899 54.4755 49.2924 44.8195 51.649 30.531Z" fill="#F4E6E1"/>
<mask id="mask1_358_2353" style="mask-type:luminance" maskUnits="userSpaceOnUse" x="-1" y="-1" width="54" height="54">
<path d="M51.649 30.531C54.0055 16.2426 44.4328 2.73258 30.2678 0.355527C16.1027 -2.02153 2.70935 7.63454 0.352815 21.923C-2.00372 36.2114 7.56897 49.7214 21.734 52.0985C35.899 54.4755 49.2924 44.8195 51.649 30.531Z" fill="white"/>
</mask>
<g mask="url(#mask1_358_2353)">
<path d="M36.3094 21.4141C36.5195 18.4907 38.7228 10.3566 33.9672 10.9105C33.3503 6.67416 29.4183 4.53037 25.6287 4.72868C15.348 5.25864 13.7583 14.7331 15.3684 21.4175C17.9784 28.4267 31.3809 22.9458 36.3094 21.4277C36.3094 21.4209 36.3094 21.4175 36.3094 21.4141Z" fill="#5B4852"/>
<path d="M48.6479 53.0001H3.35254C3.35254 53.0001 4.72533 45.3378 7.84038 40.9271C10.952 36.513 22.5072 34.9026 22.5072 34.9026L26.0019 35.4462L29.4966 34.9026C29.4966 34.9026 41.0552 36.513 44.1668 40.9271C47.2785 45.3344 48.6479 53.0001 48.6479 53.0001Z" fill="#E54322"/>
<path d="M19.8227 35.2309C22.9005 34.5163 25.5206 34.7249 25.941 34.7659C25.941 34.7659 25.941 34.7659 25.9443 34.7659C26.3647 34.7249 28.9848 34.5163 32.0626 35.2309C32.3541 38.0107 31.2186 41.5119 26.002 41.529C20.7176 41.5426 19.5244 38.0449 19.8227 35.2309Z" fill="white"/>
<path d="M25.924 38.7936C24.2292 38.7936 22.8564 37.4089 22.8564 35.6993V29.7842H28.9916V35.6959C28.995 37.4054 27.6188 38.7936 25.924 38.7936Z" fill="#F1B69A"/>
<path d="M28.9955 29.4387V33.0698C28.9955 33.0698 27.9651 34.8786 25.9279 34.8786C24.2908 34.8786 22.8604 33.3126 22.8604 33.3126V29.4387H28.9955Z" fill="#150A08"/>
<path d="M17.3416 22.7476C15.6841 20.2038 13.7588 21.8381 13.7588 23.6298C13.7588 26.2215 16.545 28.4542 18.1382 26.5942C19.7279 24.7307 17.3416 22.7476 17.3416 22.7476Z" fill="#F1B69A"/>
<path d="M16.9789 23.9204C15.9451 21.9749 14.5181 23.7905 15.0638 24.5119" stroke="#E07E61" stroke-miterlimit="10" stroke-linecap="round"/>
<path d="M33.9165 22.7476C35.574 20.2038 37.4993 21.8381 37.4993 23.6298C37.4993 26.2215 34.713 28.4542 33.1199 26.5942C31.5268 24.7307 33.9165 22.7476 33.9165 22.7476Z" fill="#F1B69A"/>
<path d="M34.2793 23.9204C35.3131 21.9749 36.7402 23.7905 36.1944 24.5119" stroke="#E07E61" stroke-miterlimit="10" stroke-linecap="round"/>
<path d="M25.6195 32.7314C19.064 32.728 15.1863 25.4999 16.7184 18.0804C17.9827 11.967 33.2733 11.967 34.5342 18.0804C36.0697 25.4999 32.1818 32.7348 25.6195 32.7314Z" fill="#F1B69A"/>
<path d="M35.2968 20.5149C35.2968 20.5149 35.2121 27.1753 32.7478 30.2902C30.287 33.405 25.9279 33.6067 25.9279 33.6067C25.9279 33.6067 21.0435 33.405 18.5826 30.2902C16.1184 27.1753 16.0303 20.5149 16.0303 20.5149L16.3726 19.8447C16.6235 21.6295 17.7793 26.2556 19.1724 27.2779C21.4536 26.5086 23.1586 26.4231 25.7618 26.4231C28.5447 26.4231 30.3175 26.724 32.2529 26.9702C33.3715 25.9752 34.7307 21.4722 34.9545 19.8447L35.2968 20.5149Z" fill="#5B4852"/>
<path opacity="0.5" d="M24.748 25.3015C25.4226 25.6264 26.9445 24.9049 26.975 25.3015C27.0055 25.6982 26.1683 26.0469 25.8632 26.0469C25.5582 26.0469 24.748 25.3015 24.748 25.3015Z" fill="#F1B69A"/>
<path d="M24.7716 23.3083C23.8157 25.394 25.2462 25.8009 25.6292 25.8488" stroke="#E07E61" stroke-miterlimit="10" stroke-linecap="round"/>
<path d="M23.2432 27.2778C25.7515 27.5514 27.4293 27.271 28.6225 27.312C28.6225 27.312 27.1209 29.4524 25.3515 29.0284C23.5821 28.601 23.2432 27.2778 23.2432 27.2778Z" fill="white"/>
<path d="M23.0362 17.6221C22.626 16.699 20.2262 17.1195 19.8872 17.7794C19.5483 18.4359 20.6702 18.6205 21.5041 18.5795C22.3379 18.5385 23.2972 18.2102 23.0362 17.6221Z" fill="#D76A40"/>
<path d="M28.2224 17.6221C28.6325 16.699 31.0324 17.1195 31.3713 17.7794C31.7103 18.4359 30.5883 18.6205 29.7545 18.5795C28.9206 18.5385 27.9614 18.2102 28.2224 17.6221Z" fill="#D76A40"/>
<path opacity="0.5" d="M24.9788 29.6507C25.8974 29.6541 27.2126 29.172 27.4159 29.6507C27.6193 30.1294 26.4973 31.0867 25.8025 31.0184C25.1076 30.95 23.9314 29.6473 24.9788 29.6507Z" fill="#F1B69A"/>
<path d="M21.3008 21.1782C21.3008 21.5441 21.5957 21.8449 21.9618 21.8449C22.3244 21.8449 22.6227 21.5475 22.6227 21.1782C22.6227 20.8124 22.3278 20.5115 21.9618 20.5115C21.5957 20.5149 21.3008 20.8124 21.3008 21.1782Z" fill="#150A08"/>
<path d="M29.2967 21.8449C29.6618 21.8449 29.9577 21.5464 29.9577 21.1782C29.9577 20.81 29.6618 20.5115 29.2967 20.5115C28.9317 20.5115 28.6357 20.81 28.6357 21.1782C28.6357 21.5464 28.9317 21.8449 29.2967 21.8449Z" fill="#150A08"/>
<path d="M20.6055 13.6115L22.1342 13.2388C22.1342 13.2388 20.1445 16.4597 24.3815 17.0785C28.6185 17.6974 33.0352 14.8014 29.5168 13.3243L30.7946 13.2388L27.7169 10.8557L20.6055 13.6115Z" fill="#5B4852"/>
</g>
</g>
</svg>
