<svg width="52" height="52" viewBox="0 0 52 52" fill="none" xmlns="http://www.w3.org/2000/svg">
<mask id="mask0_358_2453" style="mask-type:alpha" maskUnits="userSpaceOnUse" x="0" y="0" width="52" height="52">
<circle cx="26" cy="26" r="26" fill="#D9D9D9"/>
</mask>
<g mask="url(#mask0_358_2453)">
<path d="M27.0018 54.0035C41.9144 54.0035 54.0035 41.9144 54.0035 27.0018C54.0035 12.0891 41.9144 0 27.0018 0C12.0891 0 0 12.0891 0 27.0018C0 41.9144 12.0891 54.0035 27.0018 54.0035Z" fill="#F4DDD4"/>
<mask id="mask1_358_2453" style="mask-type:luminance" maskUnits="userSpaceOnUse" x="0" y="0" width="55" height="55">
<path d="M27.0018 54.0035C41.9144 54.0035 54.0035 41.9144 54.0035 27.0018C54.0035 12.0891 41.9144 0 27.0018 0C12.0891 0 0 12.0891 0 27.0018C0 41.9144 12.0891 54.0035 27.0018 54.0035Z" fill="white"/>
</mask>
<g mask="url(#mask1_358_2453)">
<path d="M31.1973 9.39846C30.173 4.17833 35.9387 1.01035 39.3953 4.74504C42.8519 8.48326 40.2753 11.2887 36.78 11.6336C33.2846 11.9786 32.0808 9.2647 32.0808 9.2647L31.1973 9.39846Z" fill="#5B4852"/>
<path d="M28.6982 9.19434C29.6627 6.227 34.7702 8.64171 35.9987 10.634C37.2272 12.6263 36.6569 15.5197 36.6569 15.5197L28.6982 9.19434Z" fill="#B9290C"/>
<path d="M15.4388 22.2254C13.8935 11.6654 21.282 7.83217 27.7095 7.97296C34.1369 8.11376 37.1747 13.2283 37.1747 13.2283C37.1747 13.2283 41.7718 20.05 36.1433 26.3121C30.5149 32.5741 15.4388 22.2254 15.4388 22.2254Z" fill="#5B4852"/>
<path d="M48.03 54.0003H5.96973C5.96973 54.0003 7.93035 46.4288 10.7217 41.9444C13.513 37.4564 23.7562 35.9287 23.7562 35.9287L27.0016 36.4708L30.247 35.9287C30.247 35.9287 40.4937 37.4564 43.285 41.9444C46.0728 46.4288 48.03 54.0003 48.03 54.0003Z" fill="#E54322"/>
<path d="M15.7344 38.2166C19.6873 46.3619 31.6975 47.1257 38.2658 38.2166C38.2658 38.2166 28.6914 32.0954 15.7344 38.2166Z" fill="#B9290C"/>
<path d="M26.92 39.938C25.16 39.938 23.7344 38.5124 23.7344 36.7524V30.6628H30.1055V36.7489C30.1091 38.5089 28.6799 39.938 26.92 39.938Z" fill="#F1B69A"/>
<path d="M30.1094 29.9587V33.697C30.1094 33.697 29.0394 35.559 26.9239 35.559C25.2237 35.559 23.7383 33.9469 23.7383 33.9469V29.9587H30.1094Z" fill="#150A08"/>
<path d="M18.0077 23.4186C16.2865 20.7998 14.2871 22.4823 14.2871 24.3268C14.2871 26.9949 17.1805 29.2935 18.8349 27.3786C20.4893 25.4637 18.0077 23.4186 18.0077 23.4186Z" fill="#F1B69A"/>
<path d="M17.6314 24.626C16.5578 22.6232 15.0759 24.4923 15.6426 25.235" stroke="#E07E61" stroke-miterlimit="10" stroke-linecap="round"/>
<path d="M35.2201 23.4186C36.9414 20.7998 38.9407 22.4823 38.9407 24.3268C38.9407 26.9949 36.0473 29.2935 34.3929 27.3786C32.7385 25.4602 35.2201 23.4186 35.2201 23.4186Z" fill="#F1B69A"/>
<path d="M35.5967 24.626C36.6703 22.6232 38.1522 24.4923 37.5855 25.235" stroke="#E07E61" stroke-miterlimit="10" stroke-linecap="round"/>
<path d="M26.6036 33.697C19.796 33.6934 15.7691 26.2522 17.3601 18.6138C18.6731 12.3201 34.5517 12.3201 35.8611 18.6138C37.4557 26.2522 33.4183 33.7005 26.6036 33.697Z" fill="#F1B69A"/>
<path opacity="0.5" d="M25.6992 26.0481C26.3997 26.3825 27.9802 25.6398 28.0118 26.0481C28.0435 26.4564 27.1741 26.8154 26.8573 26.8154C26.537 26.8154 25.6992 26.0481 25.6992 26.0481Z" fill="#F1B69A"/>
<path d="M25.7235 23.9958C24.7309 26.143 26.2163 26.5619 26.6141 26.6112" stroke="#E07E61" stroke-miterlimit="10" stroke-linecap="round"/>
<path d="M23.9214 18.142C23.4955 17.1917 21.0033 17.6246 20.6513 18.304C20.2993 18.9798 21.4645 19.1699 22.3304 19.1276C23.1963 19.0854 24.1924 18.7475 23.9214 18.142Z" fill="#5B4852"/>
<path d="M29.3071 18.142C29.733 17.1917 32.2251 17.6246 32.5771 18.304C32.9291 18.9798 31.764 19.1699 30.8981 19.1276C30.0322 19.0854 29.036 18.7475 29.3071 18.142Z" fill="#5B4852"/>
<path d="M22.1191 21.8028C22.1191 22.1795 22.4254 22.4892 22.8055 22.4892C23.1822 22.4892 23.4919 22.183 23.4919 21.8028C23.4919 21.4262 23.1857 21.1165 22.8055 21.1165C22.4254 21.12 22.1191 21.4262 22.1191 21.8028Z" fill="#150A08"/>
<path d="M31.1052 21.8028C31.1052 22.1795 30.799 22.4892 30.4188 22.4892C30.0422 22.4892 29.7324 22.183 29.7324 21.8028C29.7324 21.4262 30.0387 21.1165 30.4188 21.1165C30.799 21.12 31.1052 21.4262 31.1052 21.8028Z" fill="#150A08"/>
<path d="M24.2246 27.9558C26.854 28.4591 28.9379 28.0402 29.7791 27.3679" stroke="#150A08" stroke-miterlimit="10" stroke-linecap="round"/>
<path opacity="0.5" d="M25.9876 29.2512C26.9415 29.2547 28.3072 28.7584 28.5184 29.2512C28.7296 29.744 27.5645 30.7296 26.8429 30.6592C26.1213 30.5888 24.8964 29.2477 25.9876 29.2512Z" fill="#F1B69A"/>
<path d="M28.0154 12.0632C16.7022 15.7873 18.5044 26.4353 20.5847 32.7571C20.5847 32.7571 13.323 22.3169 16.572 15.7838C19.8209 9.25072 28.0154 12.0632 28.0154 12.0632Z" fill="#5B4852"/>
</g>
</g>
</svg>
