<svg width="52" height="52" viewBox="0 0 52 52" fill="none" xmlns="http://www.w3.org/2000/svg">
<mask id="mask0_358_2385" style="mask-type:alpha" maskUnits="userSpaceOnUse" x="0" y="0" width="52" height="52">
<circle cx="26" cy="26" r="26" fill="#D9D9D9"/>
</mask>
<g mask="url(#mask0_358_2385)">
<path d="M54.6079 30.9873C57.2364 15.0814 46.5591 0.0418896 30.7597 -2.60427C14.9602 -5.25043 0.0214375 5.49878 -2.607 21.4048C-5.23544 37.3107 5.44179 52.3502 21.2413 54.9964C37.0407 57.6425 51.9795 46.8933 54.6079 30.9873Z" fill="#F4E6E1"/>
<mask id="mask1_358_2385" style="mask-type:luminance" maskUnits="userSpaceOnUse" x="-4" y="-4" width="60" height="60">
<path d="M54.6079 30.9873C57.2364 15.0814 46.5591 0.0418923 30.7597 -2.60427C14.9602 -5.25043 0.0214371 5.49878 -2.607 21.4048C-5.23544 37.3107 5.44179 52.3502 21.2413 54.9964C37.0407 57.6425 51.9795 46.8933 54.6079 30.9873Z" fill="white"/>
</mask>
<g mask="url(#mask1_358_2385)">
<path d="M15.0903 22.0372C9.07893 14.303 14.1753 6.03215 18.8029 3.4249C25.5855 -0.396535 36.9693 0.771971 38.4513 3.68372C39.7406 6.21865 37.5024 8.48715 37.5024 8.48715C37.5024 8.48715 40.9088 9.39683 40.7803 12.4875C40.6517 15.5781 36.8067 17.1044 36.8067 17.1044C36.8067 17.1044 40.7689 19.5556 33.5251 24.2448C26.2812 28.9417 16.3795 23.6967 15.0903 22.0372Z" fill="#5B4852"/>
<path d="M51.26 56H0.738281C0.738281 56 2.26947 47.4703 5.74395 42.5603C9.21465 37.6465 22.1031 35.8538 22.1031 35.8538L26.001 36.4589L29.899 35.8538C29.899 35.8538 42.7912 37.6465 46.2619 42.5603C49.7326 47.4665 51.26 56 51.26 56Z" fill="#E54322"/>
<path d="M38.4775 37.5057C37.8915 41.8486 34.2507 44.4483 31.0636 45.9136C27.8953 47.3714 24.2696 47.3714 21.0976 45.9136C17.9104 44.4483 14.2696 41.8448 13.6836 37.5057L15.9331 37.0833C16.4397 40.8286 19.7252 42.9905 22.4208 44.1514C24.7611 45.16 27.4 45.16 29.7403 44.1514C32.4397 42.9905 35.7214 40.8286 36.228 37.0833L38.4775 37.5057Z" fill="#B9290C"/>
<path d="M36.2284 37.0832C35.7028 40.9883 32.1565 43.1731 29.4004 44.2959C27.2681 45.1638 24.89 45.1638 22.7577 44.2959C20.0053 43.1731 16.459 40.9883 15.9297 37.087C19.8616 35.7815 25.2907 35.2181 25.3853 35.2105C25.8314 35.1801 26.0771 35.1763 26.0771 35.1763C26.0771 35.1763 26.3229 35.1801 26.769 35.2105C26.8673 35.2143 32.2964 35.7776 36.2284 37.0832Z" fill="#F1B69A"/>
<path d="M25.9137 40.1854C24.0234 40.1854 22.4922 38.6438 22.4922 36.7407V30.156H29.3353V36.7369C29.3391 38.64 27.8041 40.1854 25.9137 40.1854Z" fill="#F1B69A"/>
<path d="M29.3392 29.3948V33.437C29.3392 33.437 28.1899 35.4504 25.9176 35.4504C24.0916 35.4504 22.4961 33.7072 22.4961 33.7072V29.3948H29.3392Z" fill="#150A08"/>
<path d="M16.3409 22.3228C14.4922 19.491 12.3447 21.3104 12.3447 23.3048C12.3447 26.1899 15.4525 28.6754 17.2294 26.6048C19.0026 24.5304 16.3409 22.3228 16.3409 22.3228Z" fill="#F1B69A"/>
<path d="M15.9364 23.6285C14.7833 21.4627 13.1916 23.4838 13.8003 24.2869" stroke="#E07E61" stroke-miterlimit="10" stroke-linecap="round"/>
<path d="M34.8284 22.3228C36.6772 19.491 38.8246 21.3104 38.8246 23.3048C38.8246 26.1899 35.7169 28.6754 33.9399 26.6048C32.163 24.5304 34.8284 22.3228 34.8284 22.3228Z" fill="#F1B69A"/>
<path d="M35.2334 23.6285C36.3865 21.4627 37.9782 23.4838 37.3695 24.2869" stroke="#E07E61" stroke-miterlimit="10" stroke-linecap="round"/>
<path d="M25.5737 33.4369C18.2618 33.4331 13.9367 25.3868 15.6456 17.1273C17.0558 10.3218 34.1106 10.3218 35.517 17.1273C37.2297 25.3868 32.8932 33.4407 25.5737 33.4369Z" fill="#F1B69A"/>
<path opacity="0.5" d="M24.6016 25.166C25.3539 25.5276 27.0515 24.7245 27.0855 25.166C27.1195 25.6075 26.1857 25.9957 25.8454 25.9957C25.5014 25.9957 24.6016 25.166 24.6016 25.166Z" fill="#F1B69A"/>
<path d="M24.6283 22.947C23.5621 25.2688 25.1576 25.7217 25.5848 25.775" stroke="#E07E61" stroke-miterlimit="10" stroke-linecap="round"/>
<path d="M23.0293 27.0387C25.8535 27.583 28.0917 27.1301 28.9953 26.4031" stroke="#150A08" stroke-miterlimit="10" stroke-linecap="round"/>
<path d="M22.6928 16.6172C22.2354 15.5895 19.5586 16.0577 19.1805 16.7923C18.8025 17.523 20.0539 17.7286 20.9839 17.6829C21.914 17.6372 22.9839 17.2718 22.6928 16.6172Z" fill="#D88D48"/>
<path d="M28.3671 17.4509C28.8245 16.4232 31.5013 16.8914 31.8794 17.626C32.2574 18.3568 31.006 18.5623 30.076 18.5166C29.1459 18.4672 28.076 18.1056 28.3671 17.4509Z" fill="#D88D48"/>
<path opacity="0.5" d="M24.9236 28.4394C25.9482 28.4432 27.4151 27.9065 27.642 28.4394C27.8688 28.9722 26.6174 30.038 25.8424 29.9618C25.0711 29.8895 23.7554 28.4355 24.9236 28.4394Z" fill="#F1B69A"/>
<path d="M20.7568 20.5757C20.7568 20.983 21.0858 21.3179 21.4941 21.3179C21.8986 21.3179 22.2313 20.9868 22.2313 20.5757C22.2313 20.1684 21.9024 19.8335 21.4941 19.8335C21.0858 19.8373 20.7568 20.1684 20.7568 20.5757Z" fill="#150A08"/>
<path d="M30.4091 20.5757C30.4091 20.983 30.0801 21.3179 29.6718 21.3179C29.2673 21.3179 28.9346 20.9868 28.9346 20.5757C28.9346 20.1684 29.2635 19.8335 29.6718 19.8335C30.0801 19.8373 30.4091 20.1684 30.4091 20.5757Z" fill="#150A08"/>
<path d="M20.5911 9.67842C20.4134 14.3905 31.0863 16.9216 33.9181 16.4877C36.7498 16.0538 37.6005 12.3428 33.1582 9.2978C28.7158 6.25664 20.6705 7.58501 20.5911 9.67842Z" fill="#5B4852"/>
</g>
</g>
</svg>
