<svg width="52" height="52" viewBox="0 0 52 52" fill="none" xmlns="http://www.w3.org/2000/svg">
<mask id="mask0_358_2419" style="mask-type:alpha" maskUnits="userSpaceOnUse" x="0" y="0" width="52" height="52">
<circle cx="26" cy="26" r="26" fill="#D9D9D9"/>
</mask>
<g mask="url(#mask0_358_2419)">
<path d="M44.0952 45.0932C54.64 34.5484 54.64 17.452 44.0952 6.9073C33.5505 -3.63744 16.4541 -3.63744 5.90935 6.9073C-4.63539 17.452 -4.63539 34.5484 5.90935 45.0932C16.4541 55.6379 33.5505 55.6379 44.0952 45.0932Z" fill="#F4DDD4"/>
<mask id="mask1_358_2419" style="mask-type:luminance" maskUnits="userSpaceOnUse" x="-2" y="-2" width="55" height="56">
<path d="M44.0952 45.0932C54.64 34.5484 54.64 17.452 44.0952 6.9073C33.5505 -3.63744 16.4541 -3.63744 5.90935 6.9073C-4.63539 17.452 -4.63539 34.5484 5.90935 45.0932C16.4541 55.6379 33.5505 55.6379 44.0952 45.0932Z" fill="white"/>
</mask>
<g mask="url(#mask1_358_2419)">
<path d="M36.787 34.8086C33.3796 36.8643 28.244 39.5641 24.8859 39.5219L24.9598 40.152C21.4891 40.1977 15.6812 37.0544 11.9641 34.7946C10.5103 33.911 10.2393 32.0208 11.3023 30.7149C12.0239 29.8279 12.4076 28.5853 11.6402 26.9098C9.75704 22.7879 9.28536 16.7652 11.9852 10.6651C14.4738 5.05426 20.9752 2.90003 24.3826 5.44849C27.7934 2.90355 34.2878 5.05778 36.7729 10.6616C39.4762 16.7582 39.0045 22.7844 37.1178 26.9063C36.354 28.5818 36.7342 29.8243 37.4558 30.7114C38.5293 32.0243 38.2513 33.9251 36.787 34.8086Z" fill="#5B4852"/>
<path d="M46.03 53H3.96973C3.96973 53 5.93035 45.4286 8.7217 40.9441C11.513 36.4561 21.7562 34.9285 21.7562 34.9285L25.0016 35.4705L28.247 34.9285C28.247 34.9285 38.4937 36.4561 41.285 40.9441C44.0728 45.4286 46.03 53 46.03 53Z" fill="#E54322"/>
<path d="M21.7559 34.9318C17.4968 35.8893 15.5326 38.9868 19.3659 39.8035C19.3659 39.8035 17.898 42.5068 21.4884 43.686C25.0753 44.8617 26.0116 41.8451 26.0116 41.8451C26.0116 41.8451 28.1271 44.9567 30.6404 43.686C33.1536 42.4153 33.3965 40.0323 31.0311 38.9411C31.0311 38.9411 32.4179 39.807 33.0691 38.5011C33.7203 37.1952 31.1543 35.2029 27.2577 34.9353C23.3646 34.6643 21.7559 34.9318 21.7559 34.9318Z" fill="#B9290C"/>
<path d="M24.92 38.9377C23.16 38.9377 21.7344 37.5122 21.7344 35.7522V29.6626H28.1055V35.7486C28.1091 37.5086 26.6799 38.9377 24.92 38.9377Z" fill="#F1B69A"/>
<path d="M28.1094 28.9585V32.6967C28.1094 32.6967 27.0394 34.5588 24.9239 34.5588C23.2237 34.5588 21.7383 32.9466 21.7383 32.9466V28.9585H28.1094Z" fill="#150A08"/>
<path d="M16.0077 22.415C14.2865 19.7961 12.2871 21.4787 12.2871 23.3231C12.2871 25.9913 15.1805 28.2898 16.8349 26.3749C18.4858 24.4601 16.0077 22.415 16.0077 22.415Z" fill="#F1B69A"/>
<path d="M15.6314 23.6258C14.5578 21.6229 13.0759 23.492 13.6426 24.2347" stroke="#E07E61" stroke-miterlimit="10" stroke-linecap="round"/>
<path d="M33.2201 22.415C34.9414 19.7961 36.9407 21.4787 36.9407 23.3231C36.9407 25.9913 34.0473 28.2898 32.3929 26.3749C30.7385 24.4601 33.2201 22.415 33.2201 22.415Z" fill="#F1B69A"/>
<path d="M33.5967 23.6258C34.6703 21.6229 36.1522 23.492 35.5855 24.2347" stroke="#E07E61" stroke-miterlimit="10" stroke-linecap="round"/>
<path d="M24.6036 32.6967C17.796 32.6932 13.7691 25.252 15.3601 17.6136C16.6731 11.3199 32.5517 11.3199 33.8611 17.6136C35.4557 25.252 31.4183 32.7002 24.6036 32.6967Z" fill="#F1B69A"/>
<path opacity="0.5" d="M23.6992 25.0478C24.3997 25.3822 25.9802 24.6395 26.0118 25.0478C26.0435 25.4561 25.1741 25.8152 24.8573 25.8152C24.537 25.8152 23.6992 25.0478 23.6992 25.0478Z" fill="#F1B69A"/>
<path d="M23.7235 22.9956C22.7309 25.1428 24.2163 25.5617 24.6141 25.611" stroke="#E07E61" stroke-miterlimit="10" stroke-linecap="round"/>
<path d="M21.9214 17.1418C21.4955 16.1914 19.0033 16.6244 18.6513 17.3037C18.2993 17.9796 19.4645 18.1696 20.3304 18.1274C21.1963 18.0852 22.1924 17.7472 21.9214 17.1418Z" fill="#D88D48"/>
<path d="M27.3071 17.1418C27.733 16.1914 30.2251 16.6244 30.5771 17.3037C30.9291 17.9796 29.764 18.1696 28.8981 18.1274C28.0322 18.0852 27.036 17.7472 27.3071 17.1418Z" fill="#D88D48"/>
<path d="M20.1191 20.8026C20.1191 21.1792 20.4254 21.489 20.8055 21.489C21.1822 21.489 21.4919 21.1828 21.4919 20.8026C21.4919 20.426 21.1857 20.1162 20.8055 20.1162C20.4254 20.1197 20.1191 20.426 20.1191 20.8026Z" fill="#150A08"/>
<path d="M29.1052 20.8026C29.1052 21.1792 28.799 21.489 28.4188 21.489C28.0387 21.489 27.7324 21.1828 27.7324 20.8026C27.7324 20.426 28.0387 20.1162 28.4188 20.1162C28.799 20.1162 29.1052 20.426 29.1052 20.8026Z" fill="#150A08"/>
<path d="M22.2246 26.9555C24.854 27.4589 26.9379 27.04 27.7791 26.3677" stroke="#150A08" stroke-miterlimit="10" stroke-linecap="round"/>
<path opacity="0.5" d="M23.9876 28.251C24.9415 28.2545 26.3072 27.7582 26.5184 28.251C26.7296 28.7438 25.568 29.7293 24.8429 29.6589C24.1213 29.5885 22.8964 28.2474 23.9876 28.251Z" fill="#F1B69A"/>
<path d="M25.4095 15.0052C26.3107 12.7489 25.9798 9.98567 24.6105 9.92583C23.2412 9.86599 21.4883 11.9393 21.4883 11.9393L22.224 15.0052H25.4095Z" fill="#F1B69A"/>
<path d="M24.1317 9.86597C23.4594 15.2199 32.6641 17.6698 34.6353 17.3318C36.61 16.9939 36.0891 10.6861 31.1189 9.54565C26.1487 8.40518 24.3887 7.81734 24.1317 9.86597Z" fill="#5B4852"/>
<path d="M24.6148 9.92601C25.2871 15.2799 16.1 17.67 14.1253 17.332C12.1506 16.9941 12.6715 10.6863 17.6418 9.54585C22.612 8.40186 24.3579 7.87738 24.6148 9.92601Z" fill="#5B4852"/>
</g>
</g>
</svg>
