<svg width="36" height="44" viewBox="0 0 36 44" fill="none" xmlns="http://www.w3.org/2000/svg">
<g clip-path="url(#clip0_381_3173)">
<path d="M18 0V3.98842L32.7367 12.9944L35.9997 11.0002L18 0Z" fill="url(#paint0_linear_381_3173)"/>
<path d="M0 11.0002L3.26297 12.9944L18.0003 3.98842V0L0 11.0002Z" fill="url(#paint1_linear_381_3173)"/>
<path d="M35.9993 11.0002L32.7363 12.9945V31.0057L35.9993 32.9999V11.0002Z" fill="url(#paint2_linear_381_3173)"/>
<path d="M0 32.9999L3.26357 31.0057L3.26297 12.9945L0 11.0002V32.9999Z" fill="url(#paint3_linear_381_3173)"/>
<path d="M35.9997 32.9998L32.7367 31.0056L18 40.0116V44L35.9997 32.9998Z" fill="url(#paint4_linear_381_3173)"/>
<path d="M17.9997 44V40.0116L3.26297 31.0056L0 32.9998L17.9997 44Z" fill="url(#paint5_linear_381_3173)"/>
<path d="M3.26367 31.0056L4.96986 29.9634L4.97045 14.0367L3.26367 12.9944V31.0056Z" fill="url(#paint6_linear_381_3173)"/>
<path d="M18.001 40.0116V37.9264L4.96986 29.9634L3.26367 31.0063L18.001 40.0116Z" fill="url(#paint7_linear_381_3173)"/>
<path d="M32.7373 31.0057L31.0311 29.9634L18 37.9264L18.0006 40.0116L32.7373 31.0057Z" fill="url(#paint8_linear_381_3173)"/>
<path d="M32.7374 12.9937L31.0312 14.0366V29.9633L32.7374 31.0055V12.9937Z" fill="url(#paint9_linear_381_3173)"/>
<path d="M18 3.98853V6.07372L31.0305 14.0368L32.7367 12.9938L18 3.98853Z" fill="url(#paint10_linear_381_3173)"/>
<path d="M4.9707 29.9633V14.0373L18.0013 6.07422L31.0318 14.0373L31.0312 29.9627L18.0007 37.9264L4.9707 29.9633Z" fill="#302D76"/>
<path opacity="0.5" d="M18.0004 28.5772L10.8105 31.8829L11.5587 23.6237L6.36719 17.407L14.0195 15.6086L18.0004 8.46069L21.9813 15.6086L29.6336 17.407L24.4416 23.6237L25.1897 31.8829L18.0004 28.5772Z" fill="#0C0F38"/>
<path d="M3.26367 12.9945L4.97045 14.0368L18.001 6.07372V3.98853L3.26367 12.9945Z" fill="url(#paint11_linear_381_3173)"/>
<path d="M28.4796 17.732L18 21.3364L21.5861 16.1118L28.4796 17.732Z" fill="url(#paint12_linear_381_3173)"/>
<path d="M23.8027 23.3318L18 21.3363L28.4796 17.7319L23.8027 23.3318Z" fill="url(#paint13_linear_381_3173)"/>
<path d="M18.0007 9.6731V21.3365L14.4141 16.1119L18.0007 9.6731Z" fill="url(#paint14_linear_381_3173)"/>
<path d="M21.5861 16.1119L18 21.3365V9.6731L21.5861 16.1119Z" fill="url(#paint15_linear_381_3173)"/>
<path d="M7.51953 17.7319L17.9997 21.3363L12.197 23.3318L7.51953 17.7319Z" fill="url(#paint16_linear_381_3173)"/>
<path d="M14.413 16.1118L17.9997 21.3364L7.51953 17.732L14.413 16.1118Z" fill="url(#paint17_linear_381_3173)"/>
<path d="M11.5234 30.7722L18.0008 21.3364V27.7947L11.5234 30.7722Z" fill="url(#paint18_linear_381_3173)"/>
<path d="M12.1981 23.3319L18.0008 21.3364L11.5234 30.7722L12.1981 23.3319Z" fill="url(#paint19_linear_381_3173)"/>
<path d="M24.4767 30.7722L18 21.3364L23.8027 23.3319L24.4767 30.7722Z" fill="url(#paint20_linear_381_3173)"/>
<path opacity="0.5" d="M18.0013 6.07373L4.9707 14.0368V29.9628L18.0013 37.9259L31.0318 29.9628V14.0368L18.0013 6.07373ZM30.3868 29.5694L18.0007 37.1384L5.61512 29.5694V14.4308L18.0013 6.86188L30.3874 14.4308L30.3868 29.5694Z" fill="#0C0F38"/>
<path d="M28.4794 17.732L27.9998 17.8971L21.5859 16.1118L28.4794 17.732Z" fill="#DBA0FC"/>
<path d="M23.8027 23.3318L28.4796 17.7319L28 17.897L23.8027 23.3318Z" fill="#DBA0FC"/>
<path d="M18.0007 9.6731V10.2071L14.4141 16.1119L18.0007 9.6731Z" fill="#FAC2FC"/>
<path d="M21.5861 16.1119L18 9.6731V10.2071L21.5861 16.1119Z" fill="#FAC2FC"/>
<path d="M7.51953 17.7319L7.99914 17.897L12.197 23.3318L7.51953 17.7319Z" fill="#DBA0FC"/>
<path d="M14.413 16.1118L7.51953 17.732L7.99914 17.8971L14.413 16.1118Z" fill="#F7B9F9"/>
<path d="M11.5234 30.7722L11.8199 30.3405L18.0008 27.7947L11.5234 30.7722Z" fill="#DBA0FC"/>
<path d="M12.1981 23.3318L11.5234 30.7721L11.8199 30.3404L12.1981 23.3318Z" fill="#DBA0FC"/>
<path d="M24.4767 30.7722L18 27.7947V21.3364L24.4767 30.7722Z" fill="url(#paint21_linear_381_3173)"/>
<path d="M24.4768 30.7721L24.1804 30.3404L23.8027 23.3318L24.4768 30.7721Z" fill="#DBA0FC"/>
<path d="M18 27.7947L24.4767 30.7722L24.1803 30.3405L18 27.7947Z" fill="#DBA0FC"/>
<path d="M18 39.7957V40.0116L32.7367 31.0056L32.5601 30.8977L18 39.7957Z" fill="#FAC2FC"/>
<path d="M32.5605 30.8977L32.7372 31.0056V12.9944L32.5605 13.1023V30.8977Z" fill="#FAC2FC"/>
<path d="M32.5601 13.1024L32.7367 12.9945L18 3.98853V4.20439L32.5601 13.1024Z" fill="#DFADF9"/>
<path d="M18.0004 4.20439V3.98853L3.26367 12.9945L3.44034 13.1024L18.0004 4.20439Z" fill="#DBA0FC"/>
<path d="M3.44034 13.1023L3.26367 12.9944V31.0056L3.44034 30.8977V13.1023Z" fill="#DBA0FC"/>
<path d="M3.44034 30.8977L3.26367 31.0056L18.0004 40.0116V39.7957L3.44034 30.8977Z" fill="#DFADF9"/>
</g>
<defs>
<linearGradient id="paint0_linear_381_3173" x1="17.3434" y1="1.51102" x2="35.4813" y2="11.5417" gradientUnits="userSpaceOnUse">
<stop stop-color="#D0ABFC"/>
<stop offset="1" stop-color="#CD96FB"/>
</linearGradient>
<linearGradient id="paint1_linear_381_3173" x1="0.706507" y1="12.5414" x2="19.1471" y2="2.51789" gradientUnits="userSpaceOnUse">
<stop stop-color="#DBA0FC"/>
<stop offset="1" stop-color="#CD96FB"/>
</linearGradient>
<linearGradient id="paint2_linear_381_3173" x1="34.3679" y1="11.21" x2="34.3679" y2="32.6155" gradientUnits="userSpaceOnUse">
<stop stop-color="#B182EA"/>
<stop offset="1" stop-color="#AD7AEB"/>
</linearGradient>
<linearGradient id="paint3_linear_381_3173" x1="1.6317" y1="11.5353" x2="1.6317" y2="33.0075" gradientUnits="userSpaceOnUse">
<stop stop-color="#B182EA"/>
<stop offset="1" stop-color="#AD7AEB"/>
</linearGradient>
<linearGradient id="paint4_linear_381_3173" x1="35.2934" y1="31.4586" x2="16.8528" y2="41.4821" gradientUnits="userSpaceOnUse">
<stop stop-color="#8E63D7"/>
<stop offset="1" stop-color="#8B63CC"/>
</linearGradient>
<linearGradient id="paint5_linear_381_3173" x1="18.6565" y1="42.489" x2="0.518586" y2="32.4583" gradientUnits="userSpaceOnUse">
<stop stop-color="#7B54C7"/>
<stop offset="1" stop-color="#A272E0"/>
</linearGradient>
<linearGradient id="paint6_linear_381_3173" x1="4.11702" y1="13.2918" x2="4.11702" y2="30.4199" gradientUnits="userSpaceOnUse">
<stop stop-color="#D0ABFC"/>
<stop offset="1" stop-color="#CD96FB"/>
</linearGradient>
<linearGradient id="paint7_linear_381_3173" x1="3.62329" y1="30.2024" x2="18.7797" y2="38.4359" gradientUnits="userSpaceOnUse">
<stop stop-color="#DBA0FC"/>
<stop offset="1" stop-color="#CD96FB"/>
</linearGradient>
<linearGradient id="paint8_linear_381_3173" x1="17.7597" y1="39.1381" x2="32.353" y2="31.1404" gradientUnits="userSpaceOnUse">
<stop stop-color="#B182EA"/>
<stop offset="1" stop-color="#AD7AEB"/>
</linearGradient>
<linearGradient id="paint9_linear_381_3173" x1="31.8842" y1="30.1422" x2="31.8842" y2="13.615" gradientUnits="userSpaceOnUse">
<stop stop-color="#7B54C7"/>
<stop offset="1" stop-color="#A272E0"/>
</linearGradient>
<linearGradient id="paint10_linear_381_3173" x1="17.601" y1="4.76129" x2="32.5106" y2="12.9382" gradientUnits="userSpaceOnUse">
<stop stop-color="#8E63D7"/>
<stop offset="1" stop-color="#8B63CC"/>
</linearGradient>
<linearGradient id="paint11_linear_381_3173" x1="3.6362" y1="13.9963" x2="18.4428" y2="5.56725" gradientUnits="userSpaceOnUse">
<stop stop-color="#B182EA"/>
<stop offset="1" stop-color="#AD7AEB"/>
</linearGradient>
<linearGradient id="paint12_linear_381_3173" x1="23.1688" y1="19.3092" x2="22.1822" y2="16.5128" gradientUnits="userSpaceOnUse">
<stop stop-color="#DBA0FC"/>
<stop offset="1" stop-color="#CD96FB"/>
</linearGradient>
<linearGradient id="paint13_linear_381_3173" x1="24.4351" y1="23.2037" x2="23.4152" y2="20.4093" gradientUnits="userSpaceOnUse">
<stop stop-color="#8E63D7"/>
<stop offset="1" stop-color="#8B63CC"/>
</linearGradient>
<linearGradient id="paint14_linear_381_3173" x1="16.2582" y1="10.5494" x2="16.1893" y2="20.4384" gradientUnits="userSpaceOnUse">
<stop stop-color="#DBA0FC"/>
<stop offset="1" stop-color="#BF8CEB"/>
</linearGradient>
<linearGradient id="paint15_linear_381_3173" x1="19.6898" y1="21.2211" x2="19.8448" y2="10.0474" gradientUnits="userSpaceOnUse">
<stop stop-color="#7B54C7"/>
<stop offset="1" stop-color="#A272E0"/>
</linearGradient>
<linearGradient id="paint16_linear_381_3173" x1="15.0733" y1="22.3202" x2="7.67581" y2="18.6028" gradientUnits="userSpaceOnUse">
<stop stop-color="#7B54C7"/>
<stop offset="1" stop-color="#A272E0"/>
</linearGradient>
<linearGradient id="paint17_linear_381_3173" x1="18.229" y1="19.444" x2="8.38401" y2="16.3925" gradientUnits="userSpaceOnUse">
<stop stop-color="#DBA0FC"/>
<stop offset="1" stop-color="#CD96FB"/>
</linearGradient>
<linearGradient id="paint18_linear_381_3173" x1="15.2153" y1="26.4251" x2="17.3285" y2="27.9678" gradientUnits="userSpaceOnUse">
<stop stop-color="#8E63D7"/>
<stop offset="1" stop-color="#8B63CC"/>
</linearGradient>
<linearGradient id="paint19_linear_381_3173" x1="11.7334" y1="23.8723" x2="14.5729" y2="25.6983" gradientUnits="userSpaceOnUse">
<stop stop-color="#B182EA"/>
<stop offset="1" stop-color="#AD7AEB"/>
</linearGradient>
<linearGradient id="paint20_linear_381_3173" x1="19.6552" y1="20.4636" x2="25.7473" y2="28.6277" gradientUnits="userSpaceOnUse">
<stop stop-color="#B182EA"/>
<stop offset="1" stop-color="#AD7AEB"/>
</linearGradient>
<linearGradient id="paint21_linear_381_3173" x1="17.6206" y1="23.6346" x2="22.6466" y2="30.6395" gradientUnits="userSpaceOnUse">
<stop stop-color="#7B54C7"/>
<stop offset="1" stop-color="#A272E0"/>
</linearGradient>
<clipPath id="clip0_381_3173">
<rect width="36" height="44" fill="white"/>
</clipPath>
</defs>
</svg>
