<svg width="22" height="22" viewBox="0 0 22 22" fill="none" xmlns="http://www.w3.org/2000/svg">
<circle cx="11" cy="11" r="10.5" stroke="black" stroke-opacity="0.12"/>
<path d="M15.1046 7.26949C14.6227 7.2603 14.1375 7.23908 13.677 7.23318C12.9799 7.22399 12.9556 7.28458 12.9556 7.08443C12.9674 6.82133 12.9147 6.55935 12.802 6.32131C12.6894 6.08327 12.5202 5.87641 12.3092 5.71877C11.9658 5.51832 11.5775 5.40754 11.18 5.39664C10.7825 5.38575 10.3887 5.47509 10.0349 5.65643C9.48076 5.95611 9.25217 6.57605 9.21673 7.17827C9.21673 7.40664 9.07017 7.36574 8.76698 7.36946C8.36208 7.37449 7.90795 7.36989 7.50304 7.36946C7.14785 7.35663 6.79221 7.36321 6.43773 7.38914C6.11792 7.42633 5.9917 7.70086 6.01183 8.04233C6.03808 8.48749 6.22117 8.63164 6.4257 8.63339C6.70089 8.63558 7.02639 8.63274 7.14386 8.63777C7.37004 8.64761 7.33942 8.65155 7.35758 8.82896C7.38558 9.23299 7.46367 10.6369 7.5002 11.1558C7.6052 12.6477 7.78173 14.4753 7.93048 15.9622C7.96679 16.326 8.08317 16.4986 8.59417 16.5261C10.0729 16.6057 12.6152 16.62 14.0929 16.5885C14.7859 16.5753 14.7257 16.3638 14.7502 15.7896C14.7865 14.9347 14.82 14.0864 14.8349 13.2656L14.876 10.9955C14.8891 10.2707 14.8765 9.61121 14.9228 8.88802C14.9392 8.63493 14.983 8.62246 15.3964 8.6183C15.938 8.61283 15.989 8.27202 15.9916 7.9883C15.9969 7.4423 15.573 7.27824 15.1046 7.26949ZM10.2103 7.05424C10.2406 6.83615 10.3539 6.63816 10.5265 6.50152C10.6992 6.36489 10.9179 6.30014 11.1371 6.32077C11.3159 6.3419 11.4843 6.41617 11.6204 6.53398C11.7565 6.65178 11.8542 6.80771 11.9008 6.98161C11.9555 7.27255 11.9437 7.31499 11.7553 7.31499C11.2645 7.31499 10.769 7.34868 10.2884 7.30296C10.1611 7.29071 10.1646 7.2148 10.2103 7.05424ZM13.6945 13.1232C13.6836 13.8517 13.6967 14.5921 13.628 15.3175C13.628 15.4807 13.5497 15.4803 13.3225 15.4803C12.6389 15.4803 11.8949 15.4895 11.2039 15.4713C10.6587 15.4569 9.89158 15.4551 9.33967 15.4258C9.17429 15.4171 9.07367 15.4188 9.04348 15.2081C8.95204 14.5711 8.90545 13.9313 8.85273 13.2891C8.7322 11.8186 8.59417 10.3064 8.46926 8.87358C8.44258 8.56733 8.42617 8.56536 8.65783 8.56974C9.05879 8.57718 10.7475 8.62377 11.1494 8.63339C11.9041 8.65155 13.0044 8.64258 13.4769 8.66074C13.7044 8.66949 13.6952 8.75152 13.7225 9.13346C13.7645 9.72146 13.7059 12.3664 13.6945 13.1232ZM12.2858 9.4244C11.9039 9.45174 11.8255 9.43818 11.8039 9.97915C11.7553 11.1875 11.8039 12.7343 11.8129 13.9801C11.8179 14.6479 11.7459 14.796 12.3015 14.8223C12.9294 14.8859 12.8397 14.6123 12.8766 14.0978C12.9602 12.6898 12.9632 11.2783 12.8858 9.86999C12.841 9.43993 12.5905 9.40274 12.2858 9.4244ZM10.6854 9.74268C10.6447 9.31436 10.1241 9.23889 9.75923 9.44671C9.52298 9.56702 9.58183 9.89121 9.57001 10.1119C9.54507 11.5511 9.62916 12.99 9.82158 14.4165C9.86708 14.7984 10.067 14.7892 10.3763 14.7984C10.4523 14.803 10.5284 14.7908 10.5992 14.7626C10.6699 14.7345 10.7336 14.6911 10.7857 14.6355C10.8377 14.58 10.877 14.5136 10.9005 14.4412C10.924 14.3688 10.9313 14.2921 10.9219 14.2166C10.8908 13.1335 10.7565 11.4244 10.7329 10.346C10.7325 10.1953 10.7036 9.93365 10.6854 9.74268Z" fill="#8A8281"/>
</svg>
