<svg width="28" height="28" viewBox="0 0 28 28" fill="none" xmlns="http://www.w3.org/2000/svg">
<circle cx="14" cy="14" r="13" fill="#E54322" stroke="#F7F7F7" stroke-width="2"/>
<path d="M19.106 9.91304H17.6712L16.8791 8.71739C16.5802 8.26902 16.0571 8 15.519 8H12.231C11.6929 8 11.1698 8.26902 10.8709 8.71739L10.0788 9.91304H8.64403C8.42796 9.91242 8.21389 9.95452 8.01415 10.0369C7.81441 10.1193 7.63292 10.2404 7.48014 10.3932C7.32735 10.546 7.20628 10.7274 7.12388 10.9272C7.04148 11.1269 6.99938 11.341 7.00001 11.5571V17.356C6.99938 17.572 7.04148 17.7861 7.12388 17.9858C7.20628 18.1856 7.32735 18.3671 7.48014 18.5199C7.63292 18.6726 7.81441 18.7937 8.01415 18.8761C8.21389 18.9585 8.42796 19.0006 8.64403 19H19.106C19.3221 19.0006 19.5361 18.9585 19.7359 18.8761C19.9356 18.7937 20.1171 18.6726 20.2699 18.5199C20.4227 18.3671 20.5437 18.1856 20.6261 17.9858C20.7085 17.7861 20.7506 17.572 20.75 17.356V11.5571C20.7506 11.341 20.7085 11.1269 20.6261 10.9272C20.5437 10.7274 20.4227 10.546 20.2699 10.3932C20.1171 10.2404 19.9356 10.1193 19.7359 10.0369C19.5361 9.95452 19.3221 9.91242 19.106 9.91304ZM13.875 17.6549C11.8274 17.6549 10.1685 15.9959 10.1685 13.9484C10.1685 11.9008 11.8274 10.2568 13.875 10.2568C15.9226 10.2568 17.5815 11.9158 17.5815 13.9633C17.5815 15.9959 15.9226 17.6549 13.875 17.6549ZM18.8967 12.2296H18.2391C17.9701 12.2147 17.7609 11.9905 17.7758 11.7215C17.7908 11.4674 17.9851 11.2731 18.2391 11.2581H18.837C19.106 11.2432 19.3302 11.4524 19.3451 11.7215C19.3601 11.9905 19.1658 12.2147 18.8967 12.2296Z" fill="white"/>
<path d="M13.875 11.9009C12.7391 11.9009 11.8125 12.8275 11.8125 13.9634C11.8125 15.0992 12.7391 16.0109 13.875 16.0109C15.0109 16.0109 15.9375 15.0843 15.9375 13.9484C15.9375 12.8126 15.0109 11.9009 13.875 11.9009Z" fill="white"/>
</svg>
