<svg width="24" height="24" viewBox="0 0 24 24" fill="none" xmlns="http://www.w3.org/2000/svg">
<path fill-rule="evenodd" clip-rule="evenodd" d="M0 9.56013C0 7.85431 3.63521 6.4707 8.1201 6.4707C12.605 6.4707 16.2402 7.85431 16.2402 9.56013V20.9105C16.2402 22.6178 12.605 24 8.1201 24C3.63521 24 0 22.6178 0 20.9105V9.56013Z" fill="#FE9923"/>
<path fill-rule="evenodd" clip-rule="evenodd" d="M8.1201 12.6482C12.5927 12.6482 16.2402 11.2616 16.2402 9.56013C16.2402 7.85867 12.5927 6.4707 8.1201 6.4707C3.64747 6.4707 0 7.85872 0 9.56013C0 11.2616 3.64747 12.6482 8.1201 12.6482Z" fill="#FECD3D"/>
<path fill-rule="evenodd" clip-rule="evenodd" d="M8.1201 12.6481C3.63521 12.6481 0 11.2659 0 9.56006V12.3973C0 14.1031 3.63521 15.4868 8.1201 15.4868C12.605 15.4868 16.2402 14.1032 16.2402 12.3973V9.56592C16.2307 11.2688 12.5995 12.6481 8.1201 12.6481Z" fill="#E59C1C"/>
<path fill-rule="evenodd" clip-rule="evenodd" d="M8.1201 15.4869C3.63521 15.4869 0 14.1033 0 12.3975V15.2362C0 16.942 3.63521 18.3241 8.1201 18.3241C12.605 18.3241 16.2402 16.942 16.2402 15.2362V12.3975C16.2402 14.1033 12.605 15.4869 8.1201 15.4869Z" fill="#F9B938"/>
<path fill-rule="evenodd" clip-rule="evenodd" d="M8.1201 18.3241C3.63521 18.3241 0 16.9419 0 15.2361V18.0733C0 19.7791 3.63521 21.1628 8.1201 21.1628C12.605 21.1628 16.2402 19.7791 16.2402 18.0733V15.2361C16.2402 16.9419 12.605 18.3241 8.1201 18.3241Z" fill="#E59C1C"/>
<path fill-rule="evenodd" clip-rule="evenodd" d="M16.2402 18.0732C16.2402 19.7791 12.605 21.1627 8.1201 21.1627C3.63521 21.1627 0 19.7791 0 18.0732V20.9105C0 22.6178 3.63521 24 8.1201 24C12.605 24 16.2402 22.6178 16.2402 20.9105V18.0732Z" fill="#F9B938"/>
<path d="M4.7664 13.7899V15.2115C4.49236 15.1645 4.21951 15.1101 3.9481 15.0481V13.7899H4.7664ZM1.43994 14.1529C1.68586 14.2885 1.95906 14.4168 2.25688 14.5349V13.0273H1.43994V14.1529ZM6.4563 15.4214C6.72542 15.4432 6.99726 15.4593 7.2746 15.4695V14.1223H6.4563V15.4214ZM8.96582 15.4695C9.23842 15.4596 9.51079 15.4435 9.78276 15.4214V14.1223H8.96582V15.4695ZM11.474 15.2114C11.748 15.1643 12.0208 15.1099 12.2923 15.0481V13.7898H11.474V15.2114ZM13.9835 14.5349C14.2813 14.4168 14.5545 14.2885 14.8004 14.1529V13.0273H13.9835V14.5349Z" fill="#D68F13"/>
<path d="M4.7664 16.6315V18.053C4.49225 18.0067 4.21938 17.9523 3.9481 17.8896V16.6314H4.7664V16.6315ZM1.43994 16.9959C1.68586 17.13 1.95906 17.2584 2.25688 17.3765V15.8689H1.43994V16.9959ZM6.4563 18.2644C6.72542 18.2848 6.99726 18.3008 7.2746 18.3125V16.9639H6.4563V18.2644ZM8.96582 18.3125C9.23835 18.3011 9.5107 18.2851 9.78276 18.2644V16.9639H8.96582V18.3125ZM11.474 18.053C11.7554 18.0048 12.0286 17.9509 12.2923 17.8896V16.6314H11.474V18.053ZM13.9835 17.3765C14.2813 17.2584 14.5545 17.13 14.8004 16.9959V15.8689H13.9835V17.3765Z" fill="#E59C1C"/>
<path d="M4.7664 19.473V20.896C4.49248 20.8483 4.21964 20.7939 3.9481 20.7327V19.473H4.7664ZM1.43994 19.8375C1.68586 19.9731 1.95906 20.0999 2.25688 20.218V18.7104H1.43994V19.8375ZM6.4563 21.1059C6.72542 21.1263 6.99726 21.1424 7.2746 21.1541V19.8054H6.4563V21.1059ZM8.96582 21.154C9.23835 21.1426 9.5107 21.1266 9.78276 21.1059V19.8054H8.96582V21.154ZM11.474 20.896C11.7554 20.8464 12.0286 20.7925 12.2923 20.7327V19.473H11.474V20.896ZM13.9835 20.218C14.2813 20.0999 14.5545 19.9731 14.8004 19.8375V18.7104H13.9835V20.218Z" fill="#D68F13"/>
<path d="M4.7664 22.2969V23.7199C4.49248 23.6722 4.21964 23.6178 3.9481 23.5566V22.2969H4.7664V22.2969ZM1.43994 22.6614C1.68586 22.797 1.95906 22.9239 2.25688 23.042V21.5345H1.43994V22.6614ZM6.4563 23.9299C6.72542 23.9503 6.99726 23.9664 7.2746 23.978V22.6294H6.4563V23.9299ZM8.96582 23.978C9.23835 23.9666 9.5107 23.9506 9.78276 23.9299V22.6294H8.96582V23.978ZM11.474 23.7199C11.7554 23.6704 12.0286 23.6164 12.2923 23.5566V22.2969H11.474V23.7199ZM13.9835 23.042C14.2813 22.9239 14.5545 22.797 14.8004 22.6614V21.5344H13.9835V23.042Z" fill="#E59C1C"/>
<path fill-rule="evenodd" clip-rule="evenodd" d="M16.3523 0.0526815C18.4616 -0.549474 21.4561 4.0796 23.0408 10.3927C24.6268 16.7072 24.202 22.3146 22.0927 22.9182C20.9247 23.252 19.7553 23.5859 18.5859 23.9212C16.4767 24.5234 13.4822 19.8943 11.8975 13.5798C10.3114 7.26672 10.7363 1.6593 12.8456 1.05574C14.015 0.721905 15.1843 0.386566 16.3523 0.0526815Z" fill="#FE9923"/>
<path fill-rule="evenodd" clip-rule="evenodd" d="M23.0408 10.3927C24.6269 16.7072 24.202 22.3145 22.0927 22.9182C19.9848 23.5203 16.9903 18.8912 15.4043 12.5767C13.8197 6.26366 14.2445 0.656233 16.3524 0.0526732C18.4616 -0.549433 21.4561 4.07964 23.0408 10.3927Z" fill="#FECD3D"/>
<path fill-rule="evenodd" clip-rule="evenodd" d="M21.256 10.9031C22.5169 15.9273 22.6289 20.2589 21.506 20.5797C20.3831 20.9019 18.45 17.0893 17.1891 12.0665C15.9282 7.04383 15.8162 2.71215 16.9391 2.38994C18.0621 2.06919 19.9951 5.88037 21.256 10.9031Z" fill="#FEA832"/>
<path d="M17.0661 21.0419L15.1987 21.577C15.4118 21.8919 15.6276 22.182 15.8421 22.4401L17.312 22.0202L17.0661 21.0419ZM13.8735 19.2164C13.7289 18.9106 13.5904 18.6014 13.4582 18.2892L15.2383 17.7804L15.4814 18.7572L13.8735 19.2164ZM12.5361 15.8135C12.4337 15.4942 12.3353 15.1734 12.241 14.8513L13.9391 14.3658L14.1822 15.3426L12.5361 15.8135ZM11.599 12.2969C11.5293 11.963 11.4637 11.632 11.405 11.304L13.0511 10.8331L13.2984 11.8114L11.599 12.2969ZM11.0429 8.66942C11.011 8.32838 10.986 7.98665 10.9678 7.64446L12.577 7.18376L12.8202 8.1606L11.0429 8.66942ZM11.0102 4.89328C11.0471 4.50546 11.0976 4.14095 11.1632 3.80125L12.6318 3.38135L12.879 4.35964L11.0102 4.89328Z" fill="#C85929"/>
</svg>
