<svg width="24" height="24" viewBox="0 0 24 24" fill="none" xmlns="http://www.w3.org/2000/svg">
<path d="M12 20C7.5816 20 4 16.4184 4 12C4 7.5816 7.5816 4 12 4C16.4184 4 20 7.5816 20 12C20 16.4184 16.4184 20 12 20ZM12 18.4C12.8405 18.4 13.6728 18.2344 14.4493 17.9128C15.2259 17.5911 15.9314 17.1197 16.5258 16.5254C17.1201 15.931 17.5915 15.2255 17.9132 14.4489C18.2348 13.6724 18.4004 12.8401 18.4004 11.9996C18.4004 11.1591 18.2348 10.3268 17.9132 9.55027C17.5915 8.77374 17.1201 8.06817 16.5258 7.47383C15.9314 6.8795 15.2259 6.40805 14.4493 6.0864C13.6728 5.76475 12.8405 5.5992 12 5.5992C10.3025 5.5992 8.67454 6.27353 7.47423 7.47383C6.27393 8.67414 5.5996 10.3021 5.5996 11.9996C5.5996 13.6971 6.27393 15.3251 7.47423 16.5254C8.67454 17.7257 10.3025 18.4 12 18.4ZM12 8.04L15.96 12L12 15.96L8.04 12L12 8.04ZM12 10.3032L10.3032 12L12 13.6968L13.6968 12L12 10.3032Z" fill="#160603"/>
</svg>
