<svg width="24" height="24" viewBox="0 0 24 24" fill="none" xmlns="http://www.w3.org/2000/svg">
<path d="M17.2384 4H9.9616C9.22944 4.00085 8.52751 4.29207 8.00979 4.80979C7.49207 5.32751 7.20085 6.02944 7.2 6.7616V7.2H6.7616C6.02944 7.20085 5.32751 7.49207 4.80979 8.00979C4.29207 8.52751 4.00085 9.22944 4 9.9616V17.2384C4.00085 17.9706 4.29207 18.6725 4.80979 19.1902C5.32751 19.7079 6.02944 19.9992 6.7616 20H14.0384C15.4368 20 16.584 18.9504 16.7632 17.6H17.2384C17.9706 17.5992 18.6725 17.3079 19.1902 16.7902C19.7079 16.2725 19.9992 15.5706 20 14.8384V6.7616C19.9992 6.02944 19.7079 5.32751 19.1902 4.80979C18.6725 4.29207 17.9706 4.00085 17.2384 4ZM18.4 14.8384C18.4 15.4784 17.8792 16 17.2384 16H16.8V9.9616C16.7992 9.22944 16.5079 8.52751 15.9902 8.00979C15.4725 7.49207 14.7706 7.20085 14.0384 7.2H8.8V6.7616C8.8 6.1216 9.3208 5.6 9.9616 5.6H17.2384C17.8784 5.6 18.4 6.1208 18.4 6.7616V14.8384Z" fill="#E54322"/>
</svg>
