
<svg xmlns="http://www.w3.org/2000/svg" enable-background="new 0 0 66 66" viewBox="0 0 66 66"><path d="M33.95,1.01C16.23,0.99,11.38,16.02,11.67,22.32c0.33,7.14,3.55,13.78,9.5,17.75c2.09,1.39,3.44,3.68,3.76,6.26C22.76,46.37,21,48.14,21,50.32c0,1.03,0.4,1.96,1.04,2.67C21.4,53.7,21,54.63,21,55.66c0,2.21,1.79,4,4,4h0.13c0.62,3.04,3.31,5.33,6.53,5.33h2.67c3.22,0,5.91-2.29,6.53-5.33H41c2.2,0,4-1.79,4-4c0-1.03-0.4-1.96-1.04-2.67C44.6,52.28,45,51.35,45,50.32c0-2.18-1.75-3.94-3.91-3.99c0.35-2.55,1.83-4.92,4.11-6.51c5.82-4.06,9.13-10.71,9.13-17.8C54.34,11.66,45.05,1.02,33.95,1.01z M34.34,62.32h-2.67c-1.74,0-3.22-1.11-3.77-2.67h10.21C37.56,61.21,36.07,62.32,34.34,62.32z M41,56.99H25c-0.74,0-1.33-0.6-1.33-1.33c0-0.74,0.6-1.33,1.33-1.33h16c0.73,0,1.33,0.6,1.33,1.33C42.34,56.39,41.74,56.99,41,56.99z M42.34,50.32c0,0.74-0.6,1.33-1.33,1.33H25c-0.74,0-1.33-0.6-1.33-1.33s0.6-1.33,1.33-1.33h16C41.74,48.99,42.34,49.59,42.34,50.32z M43.68,37.64c-3,2.09-4.91,5.28-5.27,8.69h-4.07V33.54l7.61-7.61c0.52-0.52,0.52-1.36,0-1.89c-0.52-0.52-1.36-0.52-1.89,0L33,31.1l-7.05-7.06c-0.52-0.52-1.36-0.52-1.89,0c-0.52,0.52-0.52,1.36,0,1.89l7.61,7.61v12.78h-4.05c-0.34-3.48-2.14-6.58-4.97-8.47c-5.2-3.47-7.92-9.29-8.31-15.53c-0.33-5.34,3.96-18.65,19.5-18.65c8.95,0,17.7,8.67,17.83,18.38c0,0,0,0,0,0C51.76,28.26,48.77,34.08,43.68,37.64z"/></svg>