<svg width="39" height="39" viewBox="0 0 39 39" fill="none" xmlns="http://www.w3.org/2000/svg">
<g clip-path="url(#clip0_46_2816)">
<mask id="mask0_46_2816" style="mask-type:luminance" maskUnits="userSpaceOnUse" x="0" y="0" width="39" height="39">
<path d="M0 3.8147e-06H38.6667V38.6667H0V3.8147e-06Z" fill="white"/>
</mask>
<g mask="url(#mask0_46_2816)">
<path d="M19.3335 13.9714V13.2497C19.3335 12.4654 19.8003 11.7929 20.477 11.3965C21.1483 11.0032 21.5991 10.2744 21.5991 9.44018" stroke="#E54322" stroke-width="2.26563" stroke-miterlimit="10" stroke-linecap="round" stroke-linejoin="round"/>
<path d="M21.5991 9.44019C21.5991 8.18888 20.5848 7.17456 19.3335 7.17456C18.0822 7.17456 17.0679 8.18888 17.0679 9.44019" stroke="#E54322" stroke-width="2.26563" stroke-miterlimit="10" stroke-linecap="round" stroke-linejoin="round"/>
<path d="M20.4663 18.5027C20.4663 19.1283 19.9591 19.6355 19.3335 19.6355C18.7079 19.6355 18.2007 19.1283 18.2007 18.5027C18.2007 17.8771 18.7079 17.3699 19.3335 17.3699C19.9591 17.3699 20.4663 17.8771 20.4663 18.5027Z" fill="#E54322"/>
<path d="M25.3749 27.5652H13.2915V30.7371C13.2915 31.9884 14.3058 33.0027 15.5571 33.0027H23.1092C24.3605 33.0027 25.3749 31.9884 25.3749 30.7371V27.5652Z" stroke="#160603" stroke-width="2.26563" stroke-miterlimit="10" stroke-linecap="round" stroke-linejoin="round"/>
<path d="M8.00537 12.461C8.00537 15.1407 8.93866 17.599 10.4961 19.5359C12.3229 21.8079 13.2918 24.6498 13.2918 27.5652H25.3752C25.3752 24.6498 26.3441 21.8079 28.171 19.5359C29.7284 17.599 30.6617 15.1407 30.6617 12.461" stroke="#160603" stroke-width="2.26563" stroke-miterlimit="10" stroke-linecap="round" stroke-linejoin="round"/>
<path d="M30.6617 12.4608C30.6617 6.20443 25.5899 1.13267 19.3335 1.13267C13.0771 1.13267 8.00537 6.20443 8.00537 12.4608" stroke="#160603" stroke-width="2.26563" stroke-miterlimit="10" stroke-linecap="round" stroke-linejoin="round"/>
<path d="M23.1092 33.0027H15.5571V35.2683C15.5571 36.5196 16.5715 37.5339 17.8228 37.5339H20.8436C22.0949 37.5339 23.1092 36.5196 23.1092 35.2683V33.0027Z" stroke="#160603" stroke-width="2.26563" stroke-miterlimit="10" stroke-linecap="round" stroke-linejoin="round"/>
<path d="M35.2681 12.4608H37.5337" stroke="#E54322" stroke-width="2.26563" stroke-miterlimit="10" stroke-linecap="round" stroke-linejoin="round"/>
<path d="M3.39844 12.4608H1.13281" stroke="#E54322" stroke-width="2.26563" stroke-miterlimit="10" stroke-linecap="round" stroke-linejoin="round"/>
<path d="M34.312 7.03662L36.441 6.2617" stroke="#E54322" stroke-width="2.26563" stroke-miterlimit="10" stroke-linecap="round" stroke-linejoin="round"/>
<path d="M4.35509 17.8851L2.22607 18.66" stroke="#E54322" stroke-width="2.26563" stroke-miterlimit="10" stroke-linecap="round" stroke-linejoin="round"/>
<path d="M34.312 17.8851L36.441 18.66" stroke="#E54322" stroke-width="2.26563" stroke-miterlimit="10" stroke-linecap="round" stroke-linejoin="round"/>
<path d="M4.35509 7.03662L2.22607 6.2617" stroke="#E54322" stroke-width="2.26563" stroke-miterlimit="10" stroke-linecap="round" stroke-linejoin="round"/>
</g>
</g>
<defs>
<clipPath id="clip0_46_2816">
<rect width="38.6667" height="38.6667" fill="white"/>
</clipPath>
</defs>
</svg>
