<svg width="42" height="42" viewBox="0 0 42 42" fill="none" xmlns="http://www.w3.org/2000/svg">
<circle cx="21" cy="21" r="21" fill="#FCECE8"/>
<path d="M26.7857 13.26H25.8214V12.6429C25.8214 12.4724 25.7537 12.3088 25.6331 12.1883C25.5126 12.0677 25.3491 12 25.1786 12C25.0081 12 24.8446 12.0677 24.724 12.1883C24.6034 12.3088 24.5357 12.4724 24.5357 12.6429V13.26H17.4643V12.6429C17.4643 12.4724 17.3966 12.3088 17.276 12.1883C17.1554 12.0677 16.9919 12 16.8214 12C16.6509 12 16.4874 12.0677 16.3669 12.1883C16.2463 12.3088 16.1786 12.4724 16.1786 12.6429V13.26H15.2143C13.4419 13.26 12 14.7019 12 16.4743V26.7857C12 28.5581 13.4419 30 15.2143 30H26.7857C28.5581 30 30 28.5581 30 26.7857V16.4743C30 14.7019 28.5581 13.26 26.7857 13.26ZM13.2857 16.4743C13.2857 15.411 14.151 14.5457 15.2143 14.5457H16.1786V15.1629C16.1786 15.3334 16.2463 15.4969 16.3669 15.6174C16.4874 15.738 16.6509 15.8057 16.8214 15.8057C16.9919 15.8057 17.1554 15.738 17.276 15.6174C17.3966 15.4969 17.4643 15.3334 17.4643 15.1629V14.5457H24.5357V15.1629C24.5357 15.3334 24.6034 15.4969 24.724 15.6174C24.8446 15.738 25.0081 15.8057 25.1786 15.8057C25.3491 15.8057 25.5126 15.738 25.6331 15.6174C25.7537 15.4969 25.8214 15.3334 25.8214 15.1629V14.5457H26.7857C27.849 14.5457 28.7143 15.411 28.7143 16.4743V17.1236H13.2857V16.4743ZM26.7857 28.7143H15.2143C14.151 28.7143 13.2857 27.849 13.2857 26.7857V18.4093H28.7143V26.7857C28.7143 27.849 27.849 28.7143 26.7857 28.7143Z" fill="#160603"/>
<path d="M21.5648 19.4482C21.2074 19.3635 20.8353 19.3611 20.4768 19.441C20.1182 19.521 19.7825 19.6812 19.4948 19.9098C19.2086 20.1358 18.9773 20.4239 18.8185 20.7523C18.6598 21.0806 18.5775 21.4408 18.5781 21.8055C18.5781 21.976 18.6459 22.1395 18.7664 22.2601C18.887 22.3807 19.0505 22.4484 19.221 22.4484C19.3915 22.4484 19.555 22.3807 19.6756 22.2601C19.7961 22.1395 19.8638 21.976 19.8638 21.8055C19.8638 21.4578 20.0213 21.1331 20.2946 20.9152C20.5716 20.6947 20.9194 20.6195 21.2762 20.7011C21.4772 20.7498 21.6609 20.853 21.8071 20.9993C21.9533 21.1456 22.0563 21.3294 22.1048 21.5304C22.1603 21.7588 22.1441 21.9988 22.0584 22.2177C21.9727 22.4365 21.8217 22.6237 21.6259 22.7538C20.832 23.2796 20.3576 24.1912 20.3576 25.1915C20.3576 25.362 20.4253 25.5255 20.5458 25.646C20.6664 25.7666 20.8299 25.8343 21.0004 25.8343C21.1709 25.8343 21.3344 25.7666 21.455 25.646C21.5755 25.5255 21.6433 25.362 21.6433 25.1915C21.6433 24.6238 21.9023 24.1128 22.3369 23.8248C23.1881 23.2603 23.5886 22.2459 23.3578 21.2424C23.2559 20.8058 23.034 20.4064 22.7171 20.0893C22.4001 19.7722 22.0014 19.5502 21.5648 19.4482ZM21.0133 26.4547H21.0068C20.652 26.4547 20.3672 26.7427 20.3672 27.0975C20.3672 27.4524 20.6584 27.7404 21.0133 27.7404C21.1838 27.7404 21.3473 27.6727 21.4678 27.5521C21.5884 27.4316 21.6561 27.268 21.6561 27.0975C21.6561 26.927 21.5884 26.7635 21.4678 26.643C21.3473 26.5224 21.1838 26.4547 21.0133 26.4547Z" fill="#E54322"/>
</svg>
