<svg width="36" height="36" viewBox="0 0 36 36" fill="none" xmlns="http://www.w3.org/2000/svg">
<path d="M6.00569 29H26.6453C27.3199 28.9994 27.9667 28.7582 28.4438 28.3294C28.9209 27.9007 29.1893 27.3193 29.1901 26.7129V25.8347C29.1901 25.7784 29.1778 25.7226 29.1538 25.6706C29.1299 25.6186 29.0947 25.5713 29.0504 25.5315C29.0061 25.4917 28.9535 25.4601 28.8957 25.4385C28.8378 25.417 28.7757 25.4059 28.7131 25.406H25.0547V3.60497C25.0548 3.54867 25.0424 3.49291 25.0185 3.44088C24.9945 3.38885 24.9594 3.34158 24.9151 3.30176C24.8708 3.26195 24.8182 3.23037 24.7603 3.20884C24.7024 3.1873 24.6404 3.17624 24.5778 3.17627H3.93789C3.87525 3.17624 3.81321 3.1873 3.75533 3.20884C3.69744 3.23037 3.64485 3.26195 3.60055 3.30176C3.55626 3.34158 3.52113 3.38885 3.49717 3.44088C3.47321 3.49291 3.4609 3.54867 3.46094 3.60497V26.7129C3.46166 27.3193 3.72997 27.9006 4.207 28.3294C4.68402 28.7582 5.33108 28.9994 6.00569 29ZM28.2361 26.7129C28.2356 27.092 28.0679 27.4554 27.7696 27.7234C27.4714 27.9915 27.067 28.1422 26.6453 28.1426H7.99037C8.35303 27.7374 8.55057 27.2329 8.55018 26.7129V26.2634H28.2361V26.7129ZM4.41566 26.7129V4.03368H24.1016V25.406H8.07323C8.01058 25.4059 7.94854 25.417 7.89066 25.4385C7.83278 25.4601 7.78018 25.4917 7.73589 25.5315C7.69159 25.5713 7.65646 25.6186 7.6325 25.6706C7.60855 25.7226 7.59623 25.7784 7.59627 25.8347V26.7129C7.59584 27.0919 7.42816 27.4553 7.13002 27.7233C6.83188 27.9914 6.42763 28.1421 6.00597 28.1426C5.58418 28.1423 5.17977 27.9916 4.88147 27.7235C4.58317 27.4555 4.41535 27.092 4.41485 26.7129H4.41566Z" fill="#160603"/>
<path d="M21.5878 12.7895H11.3401C11.2136 12.7895 11.0923 12.8346 11.0029 12.915C10.9134 12.9954 10.8632 13.1045 10.8632 13.2182C10.8632 13.3319 10.9134 13.4409 11.0029 13.5213C11.0923 13.6017 11.2136 13.6469 11.3401 13.6469H21.5878C21.7143 13.6469 21.8356 13.6017 21.9251 13.5213C22.0145 13.4409 22.0648 13.3319 22.0648 13.2182C22.0648 13.1045 22.0145 12.9954 21.9251 12.915C21.8356 12.8346 21.7143 12.7895 21.5878 12.7895ZM21.5878 17.0407H11.3401C11.2136 17.0407 11.0923 17.0859 11.0029 17.1663C10.9134 17.2467 10.8632 17.3557 10.8632 17.4694C10.8632 17.5831 10.9134 17.6922 11.0029 17.7726C11.0923 17.853 11.2136 17.8981 11.3401 17.8981H21.5878C21.7143 17.8981 21.8356 17.853 21.9251 17.7726C22.0145 17.6922 22.0648 17.5831 22.0648 17.4694C22.0648 17.3557 22.0145 17.2467 21.9251 17.1663C21.8356 17.0859 21.7143 17.0407 21.5878 17.0407ZM9.18647 16.0256H6.92789C6.80139 16.0256 6.68008 16.0707 6.59063 16.1511C6.50118 16.2315 6.45093 16.3406 6.45093 16.4543V18.4844C6.45093 18.5981 6.50118 18.7071 6.59063 18.7875C6.68008 18.8679 6.80139 18.9131 6.92789 18.9131H9.18647C9.24912 18.9131 9.31116 18.902 9.36904 18.8805C9.42692 18.859 9.47951 18.8274 9.52381 18.7876C9.56811 18.7478 9.60324 18.7005 9.62719 18.6485C9.65115 18.5964 9.66346 18.5407 9.66343 18.4844V16.4543C9.66346 16.398 9.65115 16.3422 9.62719 16.2902C9.60324 16.2381 9.56811 16.1909 9.52381 16.1511C9.47951 16.1112 9.42692 16.0797 9.36904 16.0581C9.31116 16.0366 9.24912 16.0255 9.18647 16.0256ZM8.70952 18.0557H7.40484V16.883H8.70952V18.0557ZM9.18647 20.2773H6.92789C6.80139 20.2773 6.68008 20.3225 6.59063 20.4029C6.50118 20.4833 6.45093 20.5923 6.45093 20.706V22.7361C6.45093 22.8498 6.50118 22.9589 6.59063 23.0393C6.68008 23.1197 6.80139 23.1649 6.92789 23.1649H9.18647C9.24912 23.1649 9.31116 23.1538 9.36904 23.1323C9.42692 23.1108 9.47951 23.0792 9.52381 23.0394C9.56811 22.9995 9.60324 22.9523 9.62719 22.9002C9.65115 22.8482 9.66346 22.7925 9.66343 22.7361V20.7058C9.66343 20.6495 9.65109 20.5938 9.62712 20.5418C9.60314 20.4898 9.56801 20.4425 9.52371 20.4027C9.47942 20.363 9.42684 20.3314 9.36897 20.3099C9.31111 20.2884 9.24909 20.2773 9.18647 20.2773ZM8.70952 22.3074H7.40484V21.1347H8.70952V22.3074ZM21.5878 21.292H11.3401C11.2136 21.292 11.0923 21.3372 11.0029 21.4176C10.9134 21.498 10.8632 21.607 10.8632 21.7207C10.8632 21.8344 10.9134 21.9435 11.0029 22.0239C11.0923 22.1043 11.2136 22.1494 11.3401 22.1494H21.5878C21.7143 22.1494 21.8356 22.1043 21.9251 22.0239C22.0145 21.9435 22.0648 21.8344 22.0648 21.7207C22.0648 21.607 22.0145 21.498 21.9251 21.4176C21.8356 21.3372 21.7143 21.292 21.5878 21.292ZM7.40675 12.7944C7.31734 12.714 7.19606 12.6688 7.06961 12.6688C6.94316 12.6688 6.82189 12.714 6.73247 12.7944C6.64306 12.8747 6.59283 12.9837 6.59283 13.0974C6.59283 13.211 6.64306 13.32 6.73247 13.4004L7.74989 14.3152C7.8394 14.3954 7.9607 14.4405 8.08716 14.4405C8.21362 14.4405 8.33492 14.3954 8.42444 14.3152L10.1913 12.7272C10.2369 12.6877 10.2732 12.6404 10.2982 12.5881C10.3232 12.5357 10.3363 12.4795 10.3369 12.4226C10.3374 12.3656 10.3253 12.3092 10.3013 12.2565C10.2773 12.2038 10.2419 12.156 10.1971 12.1157C10.1523 12.0755 10.0991 12.0437 10.0405 12.0221C9.98183 12.0006 9.91902 11.9897 9.85569 11.9902C9.79236 11.9907 9.72978 12.0026 9.67159 12.0251C9.61341 12.0475 9.56079 12.0802 9.5168 12.1212L8.08702 13.4058L7.40675 12.7944ZM6.35391 9.49357H8.7286C8.85509 9.49357 8.97641 9.4484 9.06585 9.368C9.1553 9.2876 9.20555 9.17856 9.20555 9.06486C9.20555 8.95116 9.1553 8.84212 9.06585 8.76172C8.97641 8.68132 8.85509 8.63616 8.7286 8.63616H6.83086V7.71138H8.7286C8.85509 7.71138 8.97641 7.66621 9.06585 7.58581C9.1553 7.50541 9.20555 7.39637 9.20555 7.28267C9.20555 7.16897 9.1553 7.05993 9.06585 6.97953C8.97641 6.89913 8.85509 6.85397 8.7286 6.85397H6.83086V5.92894H8.7286C8.85509 5.92894 8.97641 5.88378 9.06585 5.80338C9.1553 5.72298 9.20555 5.61394 9.20555 5.50024C9.20555 5.38654 9.1553 5.2775 9.06585 5.1971C8.97641 5.1167 8.85509 5.07153 8.7286 5.07153H6.35391C6.22741 5.07153 6.1061 5.1167 6.01665 5.1971C5.9272 5.2775 5.87695 5.38654 5.87695 5.50024V9.06486C5.87692 9.12117 5.88923 9.17693 5.91319 9.22896C5.93714 9.28098 5.97227 9.32826 6.01657 9.36807C6.06087 9.40789 6.11346 9.43946 6.17134 9.461C6.22923 9.48253 6.29126 9.4936 6.35391 9.49357ZM18.7869 9.49357C18.8495 9.4936 18.9116 9.48253 18.9695 9.461C19.0273 9.43946 19.0799 9.40789 19.1242 9.36807C19.1685 9.32826 19.2037 9.28098 19.2276 9.22896C19.2516 9.17693 19.2639 9.12117 19.2638 9.06486V6.71139L20.1036 7.64352C20.1498 7.69102 20.2068 7.72908 20.2708 7.75516C20.3347 7.78124 20.4041 7.79473 20.4744 7.79473C20.5446 7.79473 20.614 7.78124 20.6779 7.75516C20.7419 7.72908 20.7989 7.69102 20.8452 7.64352L21.6849 6.71262V9.06486C21.6849 9.17856 21.7351 9.2876 21.8246 9.368C21.914 9.4484 22.0353 9.49357 22.1618 9.49357C22.2883 9.49357 22.4096 9.4484 22.4991 9.368C22.5885 9.2876 22.6388 9.17856 22.6388 9.06486V5.50024C22.6387 5.41165 22.6081 5.32526 22.5512 5.25294C22.4942 5.18062 22.4138 5.12593 22.3209 5.09639C22.2279 5.06685 22.1271 5.06391 22.0323 5.08797C21.9374 5.11204 21.8532 5.16192 21.7912 5.23077L20.4742 6.69277L19.1581 5.23052C19.0961 5.16167 19.0118 5.11179 18.917 5.08773C18.8221 5.06367 18.7213 5.06661 18.6284 5.09615C18.5355 5.12569 18.455 5.18038 18.3981 5.25269C18.3412 5.32501 18.3106 5.4114 18.3105 5.49999V9.06486C18.3104 9.12113 18.3227 9.17685 18.3467 9.22884C18.3706 9.28084 18.4057 9.32809 18.4499 9.3679C18.4941 9.40771 18.5467 9.4393 18.6045 9.46086C18.6623 9.48242 18.7243 9.49353 18.7869 9.49357ZM10.0425 9.41101C10.0931 9.44423 10.1505 9.46817 10.2113 9.48146C10.2722 9.49475 10.3354 9.49713 10.3972 9.48847C10.4591 9.4798 10.5185 9.46025 10.572 9.43095C10.6255 9.40164 10.672 9.36315 10.7089 9.31767L11.7718 8.00927L12.8348 9.31767C12.8717 9.36324 12.9182 9.40183 12.9717 9.43124C13.0252 9.46065 13.0846 9.4803 13.1465 9.48907C13.2085 9.49784 13.2717 9.49556 13.3327 9.48235C13.3937 9.46915 13.4511 9.44528 13.5018 9.41211C13.5525 9.37894 13.5955 9.33713 13.6282 9.28904C13.6609 9.24096 13.6828 9.18756 13.6925 9.13188C13.7023 9.07621 13.6997 9.01935 13.685 8.96456C13.6703 8.90976 13.6438 8.85811 13.6069 8.81254L12.3635 7.28267L13.6069 5.7533C13.6438 5.70784 13.6705 5.65629 13.6853 5.60158C13.7 5.54687 13.7027 5.49008 13.6931 5.43445C13.6834 5.37882 13.6617 5.32544 13.6291 5.27736C13.5966 5.22927 13.5538 5.18743 13.5032 5.15421C13.4526 5.121 13.3953 5.09706 13.3344 5.08377C13.2735 5.07047 13.2103 5.06809 13.1485 5.07674C13.0866 5.0854 13.0272 5.10493 12.9737 5.13421C12.9202 5.1635 12.8736 5.20197 12.8367 5.24742L11.7737 6.55608L10.7108 5.24742C10.6362 5.15562 10.524 5.09422 10.399 5.07674C10.274 5.05926 10.1464 5.08713 10.0443 5.15421C9.94217 5.2213 9.87387 5.3221 9.85442 5.43445C9.83497 5.5468 9.86597 5.66149 9.94061 5.7533L11.184 7.28267L9.9387 8.81254C9.86429 8.90431 9.83344 9.01888 9.85291 9.13108C9.87237 9.24328 9.94057 9.34396 10.0425 9.41101ZM14.817 9.49357C14.9435 9.49357 15.0648 9.4484 15.1542 9.368C15.2437 9.2876 15.2939 9.17856 15.2939 9.06486V7.71138H16.7147V9.06486C16.7147 9.17856 16.765 9.2876 16.8544 9.368C16.9439 9.4484 17.0652 9.49357 17.1917 9.49357C17.3182 9.49357 17.4395 9.4484 17.5289 9.368C17.6184 9.2876 17.6686 9.17856 17.6686 9.06486V5.50024C17.6686 5.38656 17.6183 5.27755 17.5289 5.19717C17.4394 5.11679 17.3182 5.0716 17.1917 5.07153H14.817C14.6905 5.07153 14.5692 5.1167 14.4797 5.1971C14.3903 5.2775 14.34 5.38654 14.34 5.50024V9.06486C14.34 9.12117 14.3523 9.17693 14.3763 9.22896C14.4002 9.28098 14.4354 9.32826 14.4797 9.36807C14.5239 9.40789 14.5765 9.43946 14.6344 9.461C14.6923 9.48253 14.7543 9.4936 14.817 9.49357ZM16.7147 5.92894V6.85397H15.2939V5.92894H16.7147Z" fill="#E54322"/>
</svg>
