<svg width="30" height="30" viewBox="0 0 30 30" fill="none" xmlns="http://www.w3.org/2000/svg">
<path d="M13.9918 26.9763C7.31203 26.9763 1.89697 21.5612 1.89697 14.8814C1.89697 8.20162 7.31203 2.78656 13.9918 2.78656M28.1025 15C28.1025 22.7929 21.7847 29.1107 13.9918 29.1107V25.3162C19.6895 25.3162 24.308 20.6976 24.308 15C24.308 9.30237 19.6895 4.68379 13.9918 4.68379V0.889328C21.7847 0.889328 28.1025 7.20711 28.1025 15Z" stroke="#8A8281" stroke-width="1.77866" stroke-miterlimit="10"/>
<path d="M11.2897 8.9949H8.69487L8.18084 12.0975C8.18084 12.0975 8.21291 12.081 8.27042 12.0551C8.63025 11.8931 8.95171 11.7831 9.61853 11.7831C10.8224 11.7831 11.791 12.7917 11.7279 14.0077C11.6709 15.1052 10.7608 15.9851 9.6621 16.0072C8.96268 16.0213 8.33878 15.6953 7.94434 15.1835" stroke="#8A8281" stroke-width="1.77866" stroke-miterlimit="3" stroke-linecap="square"/>
<path d="M19.0167 14.0982C19.0167 15.2012 18.1226 16.0954 17.0196 16.0954C15.9166 16.0954 15.0225 15.2012 15.0225 14.0982V10.9043C15.0225 9.80134 15.9166 8.90721 17.0196 8.90721C18.1226 8.90721 19.0167 9.80134 19.0167 10.9043V14.0982Z" stroke="#8A8281" stroke-width="1.77866" stroke-miterlimit="10" stroke-linecap="round" stroke-linejoin="round"/>
<path d="M12.3122 23.1621L14.328 17.7075M16.672 19.5751V21.2945M9.96826 19.5751V21.2945" stroke="#8A8281" stroke-width="1.77866" stroke-miterlimit="10" stroke-linejoin="round"/>
</svg>
