<svg width="30" height="30" viewBox="0 0 30 30" fill="none" xmlns="http://www.w3.org/2000/svg">
<g clip-path="url(#clip0_59_6319)">
<path d="M22.1353 5.26149H7.86416C7.66253 5.26149 7.46916 5.18139 7.32659 5.03882C7.18401 4.89625 7.10392 4.70288 7.10392 4.50125C7.10392 4.29962 7.18401 4.10625 7.32659 3.96368C7.46916 3.82111 7.66253 3.74101 7.86416 3.74101H22.1353C22.337 3.74101 22.5303 3.82111 22.6729 3.96368C22.8155 4.10625 22.8956 4.29962 22.8956 4.50125C22.8956 4.70288 22.8155 4.89625 22.6729 5.03882C22.5303 5.18139 22.337 5.26149 22.1353 5.26149ZM3.55513 9.00236C2.95057 9.00129 2.37109 8.76066 1.9436 8.33317C1.51612 7.90569 1.27549 7.3262 1.27441 6.72165V2.28389C1.27441 1.679 1.5147 1.0989 1.94242 0.671179C2.37014 0.243463 2.95024 0.00317383 3.55513 0.00317383C4.16001 0.00317383 4.74012 0.243463 5.16784 0.671179C5.59555 1.0989 5.83584 1.679 5.83584 2.28389V6.72266C5.8345 7.32704 5.59375 7.90627 5.16629 8.33353C4.73884 8.7608 4.15951 9.00129 3.55513 9.00236ZM3.55513 1.52061C3.3535 1.52061 3.16013 1.6007 3.01756 1.74328C2.87499 1.88585 2.79489 2.07922 2.79489 2.28085V6.71962C2.79489 6.81946 2.81455 6.91832 2.85276 7.01055C2.89096 7.10279 2.94696 7.1866 3.01756 7.25719C3.08815 7.32779 3.17196 7.38378 3.2642 7.42199C3.35643 7.4602 3.45529 7.47986 3.55513 7.47986C3.65496 7.47986 3.75382 7.4602 3.84606 7.42199C3.93829 7.38378 4.0221 7.32779 4.0927 7.25719C4.16329 7.1866 4.21929 7.10279 4.2575 7.01055C4.2957 6.91832 4.31537 6.81946 4.31537 6.71962V2.28389C4.31577 2.1838 4.2964 2.08461 4.25837 1.99202C4.22034 1.89944 4.16441 1.81527 4.09377 1.74435C4.02314 1.67343 3.9392 1.61716 3.84676 1.57877C3.75433 1.54037 3.65522 1.52061 3.55513 1.52061Z" fill="#E54322"/>
<path d="M2.03372 5.43381H0.758041C0.556413 5.43381 0.363044 5.35371 0.220471 5.21114C0.077899 5.06857 -0.00219727 4.8752 -0.00219727 4.67357C-0.00219727 4.47194 0.077899 4.27857 0.220471 4.136C0.363044 3.99343 0.556413 3.91333 0.758041 3.91333H2.03169C2.23332 3.91333 2.42669 3.99343 2.56926 4.136C2.71183 4.27857 2.79193 4.47194 2.79193 4.67357C2.79193 4.8752 2.71183 5.06857 2.56926 5.21114C2.42669 5.35371 2.23332 5.43381 2.03169 5.43381H2.03372ZM26.4445 9.00236C25.8399 9.00129 25.2604 8.76066 24.8329 8.33317C24.4054 7.90569 24.1648 7.3262 24.1637 6.72165V2.28389C24.1637 1.679 24.404 1.0989 24.8317 0.671179C25.2595 0.243463 25.8396 0.00317383 26.4445 0.00317383C27.0493 0.00317383 27.6294 0.243463 28.0572 0.671179C28.4849 1.0989 28.7252 1.679 28.7252 2.28389V6.72266C28.724 7.32708 28.4833 7.90639 28.0558 8.33368C27.6283 8.76097 27.0489 9.00143 26.4445 9.00236ZM26.4445 1.52061C26.2428 1.52061 26.0495 1.6007 25.9069 1.74328C25.7643 1.88585 25.6842 2.07922 25.6842 2.28085V6.71962C25.6842 6.92125 25.7643 7.11462 25.9069 7.25719C26.0495 7.39976 26.2428 7.47986 26.4445 7.47986C26.6461 7.47986 26.8394 7.39976 26.982 7.25719C27.1246 7.11462 27.2047 6.92125 27.2047 6.71962V2.28389C27.2051 2.1838 27.1857 2.08461 27.1477 1.99202C27.1097 1.89944 27.0537 1.81527 26.9831 1.74435C26.9125 1.67343 26.8285 1.61716 26.7361 1.57877C26.6437 1.54037 26.5445 1.52061 26.4445 1.52061Z" fill="#E54322"/>
<path d="M29.2416 5.43381H27.9659C27.7643 5.43381 27.5709 5.35371 27.4283 5.21114C27.2858 5.06857 27.2057 4.8752 27.2057 4.67357C27.2057 4.47194 27.2858 4.27857 27.4283 4.136C27.5709 3.99343 27.7643 3.91333 27.9659 3.91333H29.2416C29.4432 3.91333 29.6366 3.99343 29.7792 4.136C29.9217 4.27857 30.0018 4.47194 30.0018 4.67357C30.0018 4.8752 29.9217 5.06857 29.7792 5.21114C29.6366 5.35371 29.4432 5.43381 29.2416 5.43381ZM15.0596 12.797C14.4392 12.797 13.8327 12.613 13.3169 12.2683C12.8011 11.9237 12.399 11.4338 12.1616 10.8606C11.9242 10.2874 11.8621 9.65674 11.9831 9.04827C12.1042 8.43981 12.4029 7.88089 12.8416 7.44221C13.2803 7.00353 13.8392 6.70478 14.4476 6.58375C15.0561 6.46272 15.6868 6.52484 16.26 6.76225C16.8331 6.99966 17.323 7.40171 17.6677 7.91754C18.0124 8.43338 18.1963 9.03983 18.1963 9.66022C18.1949 10.4917 17.8639 11.2887 17.276 11.8766C16.688 12.4645 15.8911 12.7955 15.0596 12.797ZM15.0596 8.04446C14.7399 8.04446 14.4274 8.13927 14.1616 8.31689C13.8958 8.49451 13.6886 8.74696 13.5663 9.04233C13.444 9.33769 13.412 9.66269 13.4744 9.97623C13.5368 10.2898 13.6908 10.5778 13.9169 10.8038C14.143 11.0298 14.431 11.1837 14.7446 11.246C15.0581 11.3083 15.3831 11.2762 15.6785 11.1538C15.9738 11.0314 16.2262 10.8242 16.4037 10.5583C16.5813 10.2924 16.676 9.97991 16.6759 9.66022C16.6755 9.23173 16.505 8.82091 16.202 8.51797C15.899 8.21503 15.4881 8.04473 15.0596 8.04446Z" fill="#E54322"/>
<path d="M18.9532 30C18.3401 29.9993 17.7523 29.7554 17.3188 29.3218C16.8854 28.8883 16.6416 28.3004 16.6411 27.6873C16.6411 27.6706 16.6015 25.4644 15.2123 22.1842C15.2002 22.1543 15.1794 22.1287 15.1526 22.1107C15.1259 22.0927 15.0943 22.083 15.0621 22.083C15.0298 22.083 14.9982 22.0927 14.9715 22.1107C14.9447 22.1287 14.9239 22.1543 14.9118 22.1842C13.5205 25.4644 13.4795 27.6706 13.4795 27.6924C13.4699 28.2998 13.2217 28.879 12.7885 29.3048C12.3554 29.7307 11.772 29.969 11.1646 29.9684C10.5572 29.9677 9.97438 29.7281 9.54216 29.3013C9.10995 28.8744 8.86301 28.2947 8.85471 27.6873C8.85471 27.3569 8.90996 24.3296 10.8237 19.9836C11.0302 19.5185 11.1331 19.014 11.1253 18.5052L11.0711 15.4434C11.0703 15.4035 11.061 15.3642 11.044 15.328C11.027 15.2918 11.0025 15.2597 10.9722 15.2336C10.9215 15.1961 10.8709 15.1576 10.8202 15.1186C9.21 13.8763 8.12995 12.7071 7.72196 10.7214L7.05396 7.43358C7.03397 7.33573 7.03345 7.23491 7.05244 7.13686C7.07142 7.03881 7.10953 6.94546 7.16459 6.86215C7.21965 6.77883 7.29059 6.70717 7.37335 6.65127C7.45611 6.59537 7.54906 6.55632 7.64692 6.53635C7.74477 6.51638 7.8456 6.51588 7.94364 6.53489C8.04168 6.55389 8.13502 6.59202 8.21833 6.6471C8.30164 6.70218 8.37328 6.77313 8.42916 6.85589C8.48505 6.93866 8.52408 7.03163 8.54403 7.12949L9.21152 10.4157C9.52727 11.954 10.3473 12.8318 11.7492 13.9128C11.7908 13.9448 11.8328 13.9767 11.8754 14.0076C12.09 14.1701 12.2656 14.3783 12.3895 14.6173C12.5134 14.8562 12.5824 15.1197 12.5915 15.3887V15.4044L12.6463 18.4778C12.6578 19.2062 12.5108 19.9284 12.2155 20.5943C10.3965 24.7234 10.3757 27.5647 10.3757 27.6833C10.373 27.789 10.3915 27.8941 10.4301 27.9925C10.4687 28.0909 10.5266 28.1806 10.6004 28.2563C10.6742 28.332 10.7624 28.3922 10.8598 28.4333C10.9572 28.4743 11.0619 28.4955 11.1676 28.4955C11.2733 28.4955 11.378 28.4743 11.4754 28.4333C11.5728 28.3922 11.661 28.332 11.7348 28.2563C11.8086 28.1806 11.8665 28.0909 11.9051 27.9925C11.9437 27.8941 11.9622 27.789 11.9595 27.6833C11.9595 27.659 11.9773 25.2034 13.5084 21.5872C13.6369 21.2822 13.8526 21.022 14.1284 20.8391C14.4042 20.6562 14.7278 20.5587 15.0588 20.5588H15.0643C15.3952 20.5603 15.7183 20.6592 15.9933 20.8433C16.2682 21.0273 16.4828 21.2884 16.6102 21.5938C18.1418 25.21 18.1595 27.6655 18.1595 27.6899C18.1568 27.7956 18.1753 27.9007 18.2139 27.9991C18.2525 28.0975 18.3104 28.1872 18.3842 28.2629C18.458 28.3386 18.5462 28.3988 18.6437 28.4398C18.7411 28.4809 18.8457 28.5021 18.9514 28.5021C19.0571 28.5021 19.1618 28.4809 19.2592 28.4398C19.3566 28.3988 19.4448 28.3386 19.5186 28.2629C19.5924 28.1872 19.6503 28.0975 19.6889 27.9991C19.7275 27.9007 19.746 27.7956 19.7433 27.6899C19.7433 27.5708 19.7221 24.7265 17.9 20.5943C17.6051 19.9302 17.4578 19.21 17.4682 18.4834L17.5189 15.413V15.3963C17.5281 15.1274 17.5971 14.864 17.721 14.6251C17.8449 14.3863 18.0205 14.1781 18.235 14.0157C18.2776 13.9843 18.3197 13.9524 18.3612 13.9204C19.7631 12.8389 20.5832 11.9611 20.8994 10.4233L21.5745 7.13658C21.6175 6.94174 21.7354 6.77162 21.9027 6.66294C22.0701 6.55425 22.2734 6.5157 22.4689 6.55561C22.6644 6.59552 22.8364 6.71069 22.9477 6.87627C23.0591 7.04185 23.1009 7.24457 23.0641 7.44068L22.389 10.7269C21.9835 12.7127 20.9004 13.8819 19.2902 15.1241C19.2396 15.1632 19.1889 15.2012 19.1382 15.2392C19.1075 15.2651 19.0827 15.2972 19.0652 15.3333C19.0477 15.3695 19.0381 15.4089 19.0368 15.449L18.9861 18.5072C18.9796 19.0146 19.0834 19.5173 19.2902 19.9805C21.2076 24.3291 21.2628 27.3599 21.2628 27.6909C21.2612 28.3029 21.0173 28.8894 20.5845 29.3221C20.1517 29.7548 19.5652 29.9985 18.9532 30Z" fill="#160603"/>
</g>
<defs>
<clipPath id="clip0_59_6319">
<rect width="30" height="30" fill="white"/>
</clipPath>
</defs>
</svg>
