<svg width="39" height="39" viewBox="0 0 39 39" fill="none" xmlns="http://www.w3.org/2000/svg">
<mask id="mask0_46_2858" style="mask-type:luminance" maskUnits="userSpaceOnUse" x="0" y="0" width="39" height="39">
<path d="M0 3.8147e-06H39V39H0V3.8147e-06Z" fill="white"/>
</mask>
<g mask="url(#mask0_46_2858)">
<path d="M7.12588 8.48814C7.15977 8.77858 7.22536 9.05927 7.31897 9.32687C5.56984 10.1408 4.35703 11.9136 4.35703 13.9699C4.35703 15.4937 5.02308 16.8617 6.07966 17.7995C4.10361 18.7646 2.74219 20.7937 2.74219 23.141C2.74219 25.6347 4.27865 27.7691 6.45633 28.6504C6.39851 28.9583 6.36797 29.2758 6.36797 29.6005C6.36797 32.1457 8.22572 34.2566 10.6591 34.6522C11.0669 36.6972 12.8715 38.2383 15.0363 38.2383C17.5016 38.2383 19.5 36.2399 19.5 33.7747C19.5 36.2399 21.4984 38.2383 23.9637 38.2383C26.1285 38.2383 27.9331 36.6972 28.3408 34.6522C30.7742 34.2566 32.632 32.1457 32.632 29.6005C32.632 29.2758 32.6014 28.9583 32.5436 28.6504C34.7213 27.7691 36.2578 25.6347 36.2578 23.141C36.2578 20.7937 34.8964 18.7646 32.9203 17.7995C33.9768 16.8617 34.6429 15.4937 34.6429 13.9699C34.6429 11.9136 33.4301 10.1408 31.6809 9.32687C31.8232 8.92034 31.9007 8.48357 31.9007 8.02852C31.9007 5.85777 30.141 4.09805 27.9702 4.09805C27.3828 4.09805 26.8255 4.22723 26.325 4.45826V4.17429C26.325 2.29734 24.7894 0.761719 22.9125 0.761719C21.0356 0.761719 19.5 2.29734 19.5 4.17429C19.5 2.29734 17.9644 0.761719 16.0875 0.761719C14.2106 0.761719 12.675 2.29734 12.675 4.17429V4.45826C12.3068 4.28832 11.9079 4.17353 11.4889 4.12463M18.2304 13.4062H20.7696C21.3281 13.4062 21.7852 13.8633 21.7852 14.4219V17.2148H24.5781C25.1367 17.2148 25.5937 17.6719 25.5937 18.2304V20.7696C25.5937 21.3281 25.1367 21.7852 24.5781 21.7852H21.7852V24.5782C21.7852 25.1368 21.3281 25.5938 20.7696 25.5938H18.2304C17.6719 25.5938 17.2148 25.1368 17.2148 24.5782V21.7852H14.4218C13.8633 21.7852 13.4062 21.3281 13.4062 20.7696V18.2304C13.4062 17.6719 13.8633 17.2148 14.4218 17.2148H17.2148V14.4219C17.2148 13.8633 17.6719 13.4062 18.2304 13.4062Z" stroke="#160603" stroke-width="1.2" stroke-miterlimit="22.926" stroke-linecap="round" stroke-linejoin="round"/>
<path d="M9.06405 11.4324C8.24917 10.9619 7.63012 10.2147 7.31934 9.32653" stroke="#160603" stroke-width="1.2" stroke-miterlimit="22.926" stroke-linecap="round" stroke-linejoin="round"/>
<path d="M12.6748 4.45895C13.4128 4.79905 14.0273 5.3596 14.4336 6.06335" stroke="#160603" stroke-width="1.2" stroke-miterlimit="22.926" stroke-linecap="round" stroke-linejoin="round"/>
<path d="M6.08008 17.8004C6.42171 17.6338 6.77857 17.5005 7.1458 17.4021" stroke="#160603" stroke-width="1.2" stroke-miterlimit="22.926" stroke-linecap="round" stroke-linejoin="round"/>
<path d="M10.2211 28.8799C9.71959 29.0143 9.20262 29.0824 8.68343 29.0824C7.92019 29.0824 7.1641 28.9354 6.45654 28.6493" stroke="#160603" stroke-width="1.2" stroke-miterlimit="22.926" stroke-linecap="round" stroke-linejoin="round"/>
<path d="M12.8121 34.5448C12.38 34.6606 11.9346 34.7192 11.4872 34.7192C11.21 34.7192 10.9333 34.6967 10.6597 34.6519" stroke="#160603" stroke-width="1.2" stroke-miterlimit="22.926" stroke-linecap="round" stroke-linejoin="round"/>
<path d="M10.8256 15.6418C11.099 16.1154 11.2429 16.6526 11.2429 17.1994C11.2429 18.6093 10.296 19.8434 8.93408 20.2084" stroke="#E54322" stroke-width="1.2" stroke-miterlimit="22.926" stroke-linecap="round" stroke-linejoin="round"/>
<path d="M11.6001 25.5133C13.3205 25.5133 14.7152 26.908 14.7152 28.6284C14.7152 28.9007 14.6796 29.1717 14.609 29.4347" stroke="#E54322" stroke-width="1.2" stroke-miterlimit="22.926" stroke-linecap="round" stroke-linejoin="round"/>
<path d="M12.3818 9.55165C12.966 10.1358 13.7584 10.4641 14.5846 10.4641C15.4107 10.4641 16.2032 10.1358 16.7873 9.55165" stroke="#E54322" stroke-width="1.2" stroke-miterlimit="22.926" stroke-linecap="round" stroke-linejoin="round"/>
<path d="M29.9355 11.4324C30.7505 10.9619 31.3696 10.2147 31.6803 9.32653" stroke="#160603" stroke-width="1.2" stroke-miterlimit="22.926" stroke-linecap="round" stroke-linejoin="round"/>
<path d="M26.3252 4.45895C25.5872 4.79905 24.9727 5.3596 24.5664 6.06335" stroke="#160603" stroke-width="1.2" stroke-miterlimit="22.926" stroke-linecap="round" stroke-linejoin="round"/>
<path d="M32.9202 17.8004C32.5786 17.6338 32.2217 17.5005 31.8545 17.4021" stroke="#160603" stroke-width="1.2" stroke-miterlimit="22.926" stroke-linecap="round" stroke-linejoin="round"/>
<path d="M28.7783 28.8799C29.2798 29.0143 29.7968 29.0824 30.316 29.0824C31.0792 29.0824 31.8353 28.9354 32.5429 28.6493" stroke="#160603" stroke-width="1.2" stroke-miterlimit="22.926" stroke-linecap="round" stroke-linejoin="round"/>
<path d="M26.1885 34.5448C26.6205 34.6606 27.066 34.7192 27.5133 34.7192C27.7905 34.7192 28.0673 34.6967 28.3409 34.6519" stroke="#160603" stroke-width="1.2" stroke-miterlimit="22.926" stroke-linecap="round" stroke-linejoin="round"/>
<path d="M28.1752 15.6418C27.9018 16.1154 27.7578 16.6526 27.7578 17.1994C27.7578 18.6093 28.7048 19.8434 30.0667 20.2084" stroke="#E54322" stroke-width="1.2" stroke-miterlimit="22.926" stroke-linecap="round" stroke-linejoin="round"/>
<path d="M27.4003 25.5133C25.6799 25.5133 24.2852 26.908 24.2852 28.6284C24.2852 28.9007 24.3208 29.1717 24.3913 29.4347" stroke="#E54322" stroke-width="1.2" stroke-miterlimit="22.926" stroke-linecap="round" stroke-linejoin="round"/>
<path d="M26.6184 9.55165C26.0342 10.1358 25.2418 10.4641 24.4156 10.4641C23.5895 10.4641 22.7971 10.1358 22.2129 9.55165" stroke="#E54322" stroke-width="1.2" stroke-miterlimit="22.926" stroke-linecap="round" stroke-linejoin="round"/>
<path d="M19.5 26.3555V33.7747M19.5 4.17427V12.6445" stroke="#160603" stroke-width="1.2" stroke-miterlimit="22.926" stroke-linecap="round" stroke-linejoin="round"/>
<path d="M18.2304 13.4063H20.7696C21.3281 13.4063 21.7852 13.8633 21.7852 14.4219V17.2148H24.5781C25.1367 17.2148 25.5937 17.6719 25.5937 18.2304V20.7696C25.5937 21.3281 25.1367 21.7852 24.5781 21.7852H21.7852V24.5782C21.7852 25.1367 21.3281 25.5938 20.7696 25.5938H18.2304C17.6719 25.5938 17.2148 25.1367 17.2148 24.5782V21.7852H14.4218C13.8633 21.7852 13.4062 21.3281 13.4062 20.7696V18.2304C13.4062 17.6719 13.8633 17.2148 14.4218 17.2148H17.2148V14.4219C17.2148 13.8633 17.6719 13.4063 18.2304 13.4063Z" stroke="#160603" stroke-width="1.2" stroke-miterlimit="22.926" stroke-linecap="round" stroke-linejoin="round"/>
<path d="M8.24951 5.24927H8.25063" stroke="#160603" stroke-width="1.2" stroke-miterlimit="2.613" stroke-linecap="round" stroke-linejoin="round"/>
</g>
</svg>
