<svg width="40" height="42" viewBox="0 0 40 42" fill="none" xmlns="http://www.w3.org/2000/svg">
<path d="M40 21.11C40 19.7508 39.8808 18.4605 39.6765 17.2046H20.4342V24.9638H31.4516C30.9578 27.51 29.5104 29.6605 27.3648 31.1229V36.2842H33.9378C37.7863 32.6885 40 27.3896 40 21.11Z" fill="#4285F4"/>
<path d="M20.4343 41.2904C25.9515 41.2904 30.5663 39.4323 33.9379 36.2839L27.3649 31.1226C25.5258 32.3613 23.1929 33.1183 20.4343 33.1183C15.1043 33.1183 10.5917 29.4882 8.97402 24.585H2.19665V29.9011C5.55128 36.6452 12.4479 41.2904 20.4343 41.2904Z" fill="#34A853"/>
<path d="M8.97406 24.5854C8.54834 23.3467 8.32697 22.0219 8.32697 20.6456C8.32697 19.2692 8.56537 17.9445 8.97406 16.7058V11.3896H2.19669C0.800343 14.1768 0 17.3079 0 20.6456C0 23.9832 0.800343 27.1144 2.19669 29.9015L8.97406 24.5854Z" fill="#FBBC05"/>
<path d="M20.4343 8.17207C23.4483 8.17207 26.1388 9.22153 28.2674 11.2689L34.0912 5.38496C30.5663 2.04732 25.9515 0 20.4343 0C12.4479 0 5.55128 4.64518 2.19665 11.3893L8.97402 16.7054C10.5917 11.8022 15.1043 8.17207 20.4343 8.17207Z" fill="#EA4335"/>
</svg>
