<svg width="16" height="16" viewBox="0 0 16 16" fill="none" xmlns="http://www.w3.org/2000/svg">
<path d="M15.3972 6.60889H8.87039C8.58259 6.60889 8.34961 6.84186 8.34961 7.12966V9.21617C8.34961 9.50396 8.58259 9.73694 8.87039 9.73694H12.5467C12.1458 10.7819 11.392 11.6556 10.4361 12.2106L12.0019 14.9241C14.5133 13.4714 16.0002 10.919 16.0002 8.06499C16.0002 7.65728 15.9694 7.36606 15.9112 7.04058C15.8632 6.79047 15.6473 6.60889 15.3972 6.60889Z" fill="#167EE6"/>
<path d="M8.00045 12.8686C6.20171 12.8686 4.63253 11.8853 3.78969 10.4326L1.07617 11.9949C2.45692 14.3898 5.04367 16.0001 8.00045 16.0001C9.45314 16.0001 10.8202 15.6095 12.0022 14.9277V14.9243L10.4364 12.2108C9.71696 12.6288 8.88782 12.8686 8.00045 12.8686Z" fill="#12B347"/>
<path d="M11.9983 14.9276V14.9242L10.4326 12.2107C9.71651 12.6253 8.88738 12.8685 8 12.8685V16C9.45269 16 10.8197 15.6094 11.9983 14.9276Z" fill="#0F993E"/>
<path d="M3.13151 7.99999C3.13151 7.11262 3.37477 6.2835 3.78934 5.56744L1.07582 4.00513C0.390583 5.18029 0 6.54389 0 7.99999C0 9.45609 0.390583 10.8197 1.07582 11.9949L3.78934 10.4325C3.37134 9.71648 3.13151 8.88736 3.13151 7.99999Z" fill="#FFD500"/>
<path d="M8.00045 3.13148C9.1722 3.13148 10.2514 3.54947 11.0908 4.24155C11.2998 4.41285 11.6013 4.39915 11.7898 4.21071L13.2665 2.73405C13.4823 2.5182 13.4652 2.16531 13.2356 1.9666C11.8275 0.740044 9.99448 0 8.00045 0C5.04367 0 2.45692 1.61028 1.07617 4.00514L3.78969 5.56746C4.63253 4.11478 6.20171 3.13148 8.00045 3.13148Z" fill="#FF4B26"/>
<path d="M11.0904 4.24154C11.2994 4.41285 11.6009 4.39915 11.7893 4.21071L13.266 2.73405C13.4819 2.5182 13.4647 2.16531 13.2352 1.9666C11.827 0.740043 9.99403 0 8 0V3.13148C9.17175 3.13148 10.251 3.54604 11.0904 4.24154Z" fill="#D93F21"/>
</svg>
