<svg width="13" height="13" viewBox="0 0 13 13" fill="none" xmlns="http://www.w3.org/2000/svg">
<g clip-path="url(#clip0_477_1980)">
<path d="M6.5 13C10.0898 13 13 10.0898 13 6.5C13 2.91015 10.0898 0 6.5 0C2.91015 0 0 2.91015 0 6.5C0 10.0898 2.91015 13 6.5 13Z" fill="#00BA00"/>
<path fill-rule="evenodd" clip-rule="evenodd" d="M4.46793 9.67313L2.09824 7.1192C1.94104 6.95075 1.85707 6.72683 1.86474 6.49656C1.87242 6.26628 1.97112 6.04845 2.13919 5.89085C2.30829 5.73429 2.5326 5.65122 2.76289 5.65985C2.99318 5.66849 3.21063 5.76813 3.36754 5.93691L5.19982 7.89715L8.10179 5.18455C8.12771 5.16074 8.15506 5.13852 8.18368 5.11802L9.54509 3.84361C9.71354 3.6864 9.93746 3.60243 10.1677 3.6101C10.398 3.61778 10.6158 3.71648 10.7734 3.88455C10.9306 4.05299 11.0146 4.27691 11.0069 4.50719C10.9993 4.73747 10.9006 4.9553 10.7325 5.1129L6.56124 9.00266L5.11281 10.3487L4.47305 9.6629L4.46793 9.67313Z" fill="white"/>
</g>
<defs>
<clipPath id="clip0_477_1980">
<rect width="13" height="13" fill="white"/>
</clipPath>
</defs>
</svg>
