<svg width="30" height="30" viewBox="0 0 30 30" fill="none" xmlns="http://www.w3.org/2000/svg">
<g clip-path="url(#clip0_318_3146)">
<path d="M15.0013 12.0372C12.1553 12.0372 9.83984 9.72174 9.83984 6.87575C9.83984 4.02975 12.1553 1.71429 15.0013 1.71429C17.8476 1.71429 20.1628 4.02975 20.1628 6.87575C20.1628 9.72174 17.8473 12.0372 15.0013 12.0372ZM15.0013 2.95388C12.8386 2.95388 11.0794 4.71342 11.0794 6.87581C11.0794 9.03819 12.8389 10.7977 15.0013 10.7977C17.1637 10.7977 18.9232 9.03819 18.9232 6.87581C18.9232 4.71342 17.1637 2.95388 15.0013 2.95388Z" fill="#8A8281"/>
<path d="M14.9995 23.5058C11.8192 23.5058 8.82259 22.2771 6.56136 20.0462C6.50199 19.9876 6.45506 19.9177 6.42338 19.8405C6.3917 19.7634 6.37593 19.6806 6.377 19.5972C6.39342 18.2836 6.69743 17.0252 7.28065 15.8572C8.7517 12.9108 11.7092 11.0806 14.9996 11.0806C19.6974 11.0806 23.5672 14.9012 23.6258 19.5972C23.6269 19.6806 23.6111 19.7634 23.5793 19.8406C23.5476 19.9178 23.5006 19.9877 23.4411 20.0462C21.1802 22.2774 18.1823 23.5058 14.9995 23.5058ZM7.62427 19.3489C9.62799 21.2321 12.2363 22.2662 14.9995 22.2662C17.7649 22.2662 20.3748 21.2324 22.3785 19.3492C22.1904 15.4497 18.9341 12.3198 14.9995 12.3198C12.182 12.3198 9.64904 13.8872 8.38965 16.4106C7.92947 17.3322 7.67262 18.3192 7.62427 19.3489ZM24.4612 10.8662C22.5809 10.8662 21.0509 9.33626 21.0509 7.45588C21.0509 5.57549 22.5809 4.04593 24.4612 4.04593C26.3416 4.04593 27.8715 5.57585 27.8715 7.45623C27.8715 9.33662 26.3419 10.8662 24.4612 10.8662ZM24.4612 5.28546C23.2645 5.28546 22.2905 6.2594 22.2905 7.45617C22.2905 8.65295 23.2645 9.62689 24.4612 9.62689C25.658 9.62689 26.632 8.65295 26.632 7.45617C26.632 6.2594 25.6583 5.28546 24.4612 5.28546Z" fill="#8A8281"/>
<path d="M24.459 17.913C23.7497 17.913 23.0481 17.8154 22.3738 17.6226C22.0444 17.5287 21.8538 17.1856 21.948 16.8565C22.0422 16.5271 22.3844 16.3359 22.7141 16.4307C23.2777 16.5915 23.865 16.6731 24.459 16.6731C26.0611 16.6731 27.5743 16.088 28.7491 15.0202C28.5845 12.802 26.7128 11.0394 24.459 11.0394C22.8197 11.0394 21.3462 11.9517 20.6137 13.4202C20.5759 13.4949 20.2546 14.2683 19.7008 13.9795C19.1027 13.6675 19.455 12.9655 19.5052 12.8651C20.4485 10.9748 22.3469 9.79977 24.459 9.79977C27.4758 9.79977 29.9617 12.2525 30.0001 15.2677C30.0011 15.351 29.9853 15.4337 29.9536 15.5108C29.922 15.5879 29.875 15.6578 29.8157 15.7164C28.3824 17.133 26.4798 17.913 24.459 17.913ZM5.53775 10.8662C3.65737 10.8662 2.12744 9.33626 2.12744 7.45588C2.12744 5.57549 3.65737 4.04593 5.53775 4.04593C7.41813 4.04593 8.94806 5.57585 8.94806 7.45623C8.94806 9.33662 7.41813 10.8662 5.53775 10.8662ZM5.53775 5.28546C4.34068 5.28546 3.36703 6.2594 3.36703 7.45617C3.36703 8.65295 4.34097 9.62689 5.53775 9.62689C6.73452 9.62689 7.70846 8.65295 7.70846 7.45617C7.70846 6.2594 6.73452 5.28546 5.53775 5.28546Z" fill="#8A8281"/>
<path d="M5.53766 17.913C3.51568 17.913 1.61419 17.1327 0.183813 15.7162C0.124633 15.6577 0.0778577 15.5879 0.0462837 15.5109C0.0147097 15.4339 -0.00101469 15.3513 5.07368e-05 15.2681C0.0384684 12.2532 2.52283 9.80018 5.53766 9.80018C7.6517 9.80018 9.55159 10.9753 10.4958 12.8671C10.5444 12.9641 10.8184 13.7491 10.3067 13.9737C9.8013 14.1956 9.42509 13.4971 9.38733 13.4215C8.65383 11.952 7.17909 11.0397 5.53796 11.0397C3.28601 11.0397 1.41556 12.8023 1.2513 15.0208C2.42357 16.0884 3.93518 16.6734 5.53796 16.6734C6.13634 16.6734 6.7248 16.5907 7.28697 16.4283C7.61578 16.3325 7.9594 16.5225 8.05455 16.8513C8.1497 17.1801 7.96035 17.5237 7.63154 17.6189C6.95727 17.8138 6.25261 17.913 5.53766 17.913Z" fill="#8A8281"/>
</g>
<defs>
<clipPath id="clip0_318_3146">
<rect width="30" height="30" fill="white"/>
</clipPath>
</defs>
</svg>
