<svg width="43" height="43" viewBox="0 0 43 43" fill="none" xmlns="http://www.w3.org/2000/svg">
<path d="M23.2103 40.9682H20.091C18.1946 40.9694 16.3101 40.6682 14.5086 40.076L15.1263 38.1952C16.7289 38.7198 18.4046 38.9866 20.091 38.9857H23.2103C32.0418 38.9857 39.2278 31.8002 39.2278 22.9687V19.8498C39.2278 11.0183 32.0418 3.83278 23.2103 3.83278H20.091C11.2585 3.83278 4.07257 11.0183 4.07257 19.8498V22.9687C4.07257 25.0336 4.45598 27.0134 5.21207 28.8579L3.37964 29.6072C2.52546 27.5258 2.09277 25.2916 2.09277 22.9682V19.8494C2.09277 9.92489 10.1665 1.84985 20.091 1.84985H23.2103C33.1343 1.8503 41.208 9.92534 41.208 19.8498V22.9687C41.208 32.8932 33.1343 40.9682 23.2103 40.9682Z" fill="#160603"/>
<path d="M28.4444 19.6299C28.1817 19.6296 27.93 19.525 27.7444 19.3391C27.5588 19.1533 27.4545 18.9014 27.4545 18.6387V16.417C27.4545 15.8706 27.8975 15.4258 28.4444 15.4258C28.9913 15.4258 29.4343 15.8706 29.4343 16.417V18.6387C29.4343 19.1852 28.9913 19.6299 28.4444 19.6299ZM25.8362 26.617C25.6493 26.6169 25.4662 26.564 25.3082 26.4643C25.1501 26.3646 25.0235 26.2222 24.943 26.0535C24.2197 24.5472 22.8123 23.452 21.1792 23.1259C19.5456 22.79 17.8252 23.2661 16.5791 24.3805C16.3828 24.5546 16.1256 24.6439 15.8637 24.629C15.6017 24.6141 15.3564 24.4961 15.1811 24.3008C15.0061 24.1046 14.9162 23.847 14.931 23.5845C14.9459 23.3221 15.0644 23.0762 15.2604 22.9011C16.9683 21.3782 19.328 20.7444 21.5675 21.182C22.6792 21.408 23.7234 21.8881 24.6187 22.5847C25.514 23.2813 26.2361 24.1756 26.7284 25.1975C26.8419 25.4341 26.8568 25.7061 26.7698 25.9536C26.6827 26.2012 26.501 26.404 26.2644 26.5175C26.1312 26.5832 25.9847 26.6172 25.8362 26.617ZM31.2228 14.8865C31.0658 14.8867 30.911 14.8495 30.7712 14.778C30.6313 14.7065 30.5106 14.6028 30.4188 14.4753C29.5279 13.2373 27.3501 13.2373 26.4592 14.4753C26.3054 14.6884 26.0732 14.8316 25.8138 14.8735C25.5543 14.9153 25.2889 14.8524 25.0758 14.6986C24.8628 14.5448 24.7196 14.3126 24.6777 14.0531C24.6358 13.7937 24.6987 13.5283 24.8526 13.3152C26.4852 11.0523 30.3919 11.0523 32.025 13.3152C32.1012 13.4207 32.1558 13.5402 32.1857 13.6668C32.2156 13.7934 32.2203 13.9247 32.1995 14.0531C32.1786 14.1815 32.1327 14.3046 32.0642 14.4152C31.9958 14.5258 31.9062 14.6219 31.8006 14.6979C31.626 14.8238 31.4235 14.8865 31.2228 14.8865ZM15.7236 17.5167C15.4609 17.5163 15.2091 17.4117 15.0235 17.2259C14.8379 17.04 14.7337 16.7881 14.7337 16.5254V14.3038C14.7337 13.7573 15.1767 13.3125 15.7236 13.3125C16.2705 13.3125 16.7135 13.7573 16.7135 14.3038V16.5254C16.7136 16.6555 16.6881 16.7844 16.6384 16.9046C16.5887 17.0248 16.5158 17.1341 16.4239 17.2261C16.3319 17.3182 16.2228 17.3912 16.1026 17.4411C15.9825 17.4909 15.8537 17.5166 15.7236 17.5167ZM18.5024 12.3576C18.3454 12.3578 18.1906 12.3206 18.0508 12.2491C17.911 12.1776 17.7902 12.0738 17.6984 11.9464C16.8075 10.7061 14.6298 10.711 13.7388 11.9464C13.5845 12.1584 13.3525 12.3008 13.0936 12.3425C12.8346 12.3842 12.5697 12.3219 12.3566 12.169C12.1435 12.0153 12.0002 11.7834 11.9581 11.5241C11.916 11.2648 11.9786 10.9994 12.1322 10.7863C13.7653 8.52339 17.6711 8.52339 19.3047 10.7863C19.3808 10.8918 19.4354 11.0112 19.4653 11.1378C19.4952 11.2645 19.4999 11.3957 19.4791 11.5241C19.4582 11.6526 19.4123 11.7756 19.3439 11.8863C19.2754 11.9969 19.1858 12.093 19.0803 12.169C18.9056 12.2949 18.7031 12.3576 18.5024 12.3576Z" fill="#160603"/>
<path d="M9.81098 41.1496C8.0341 41.1496 6.32306 40.596 4.95646 39.5492C3.38786 38.3403 2.3899 36.7107 1.98767 34.6991C1.80089 33.7321 1.74938 32.9124 1.82508 32.1124C1.99663 30.8986 2.47948 29.8397 3.30723 28.8292C3.42548 28.6962 3.50387 28.6115 3.58046 28.5416C4.01091 28.005 4.52781 27.4922 5.19968 26.9363C5.87111 26.3486 6.16494 25.5993 6.10492 24.5865C6.09462 24.3859 6.00952 23.9895 5.93203 23.6002C5.77122 22.7926 5.71255 22.4638 5.73494 22.1955C5.93337 20.9844 6.95328 20.2565 8.11652 20.4572C8.34451 20.399 8.72837 20.5517 9.07147 20.7497C9.46564 20.897 9.92789 21.2598 10.3243 21.7651C11.0437 22.6475 11.3447 23.6678 11.5247 24.4584C11.7079 25.5101 11.7043 26.3347 11.5234 27.1056C11.5063 27.2843 11.4405 27.524 11.3263 27.7945C13.9645 27.2145 18.815 26.0754 20.5744 25.6476C21.9289 25.3695 23.1137 26.0369 23.4899 27.2893C23.6807 27.9033 23.6064 28.5658 23.2758 29.1486C23.106 29.4483 22.8773 29.7105 22.6035 29.9195C22.3297 30.1285 22.0164 30.2799 21.6826 30.3647C20.982 30.5631 18.9297 31.0535 17.5201 31.3872C17.7964 32.069 17.7673 32.8282 17.4041 33.5269C17.3479 33.6399 17.2827 33.7482 17.2092 33.8508C17.5013 34.2741 17.6383 34.847 17.5573 35.4973C17.4453 36.0608 17.1219 36.5128 16.8128 36.8438C17.0448 37.3418 17.0605 37.9125 16.871 38.4831C16.622 39.039 16.2986 39.426 15.87 39.7378C15.7508 39.8202 15.5694 39.9263 15.1327 40.0737C14.162 40.4074 12.1661 40.8643 11.4042 41.0022C10.8788 41.1001 10.3455 41.1495 9.81098 41.1496ZM7.80342 22.4101C7.72011 22.4706 7.79984 22.8379 7.87419 23.2128C7.97408 23.7131 8.06948 24.226 8.08292 24.475C8.17833 26.0973 7.63993 27.4344 6.48252 28.4449C5.87021 28.9524 5.42946 29.39 5.07651 29.8424L4.89331 30.0238C4.24831 30.8072 3.9052 31.5467 3.79143 32.3449C3.73903 32.9128 3.78068 33.5368 3.93163 34.3175C4.2398 35.8601 4.9708 37.0592 6.16315 37.9801C7.46883 38.9785 9.29633 39.3799 11.0463 39.0538C11.7433 38.9279 13.6237 38.4979 14.4975 38.1978C14.5913 38.1704 14.6828 38.1356 14.7712 38.0939C14.8826 38.0031 14.9718 37.8883 15.0323 37.758L14.7609 37.5524L14.4922 36.6046L14.6601 36.2951C14.7184 36.1378 14.8241 35.9663 15.0144 35.8113C15.5018 35.4051 15.59 35.2313 15.6057 35.1753C15.6214 35.023 15.5846 34.9648 15.4229 34.8537L14.9916 34.5585L14.9602 34.167C14.9033 33.9675 14.8999 33.7566 14.9506 33.5554C15.0012 33.3542 15.1041 33.17 15.2487 33.0212C15.5036 32.8228 15.5913 32.7261 15.6393 32.6298C15.7602 32.3977 15.8068 32.0739 15.3871 31.7595L14.9598 31.4379L14.958 30.8188C14.9717 30.6129 15.0385 30.4141 15.1519 30.2417C15.2652 30.0692 15.4212 29.9291 15.6048 29.8348L16.8101 29.5203C18.1969 29.1916 20.445 28.6594 21.1545 28.4543L21.1948 28.4444C21.3439 28.4082 21.4783 28.3065 21.554 28.1734C21.5943 28.1009 21.6351 27.9898 21.5975 27.8689C21.5182 27.6077 21.3247 27.5016 21.0156 27.5786C19.2065 28.0162 14.0201 29.2346 11.5135 29.7788C11.1565 29.8827 10.7977 29.9575 10.5447 30.0108C10.232 30.0955 9.85309 30.2186 9.39084 30.0834C8.73554 29.8321 8.43095 29.2829 8.5501 28.6908C8.66387 28.3598 8.77182 28.0865 9.01593 27.8397C9.20137 27.6534 9.35456 27.4093 9.45892 27.1289C9.54716 26.926 9.56642 26.8458 9.57717 26.7567C9.71379 26.1498 9.7102 25.5746 9.58389 24.8468C9.39532 24.0271 9.1512 23.4591 8.77809 23.0022C8.58593 22.7581 8.3987 22.6032 8.20879 22.5261L7.80342 22.4101ZM16.0935 35.9927C16.2041 36.0725 16.304 36.1571 16.394 36.2489C16.317 36.1396 16.2136 36.0515 16.0935 35.9927ZM16.5396 30.1492C16.5687 30.1711 16.5978 30.1927 16.626 30.2146C16.5987 30.1927 16.5696 30.1685 16.5396 30.1492Z" fill="#E54322"/>
<path d="M15.6033 34.8856H15.3198C15.0569 34.8856 14.8048 34.7811 14.6189 34.5952C14.433 34.4093 14.3286 34.1572 14.3286 33.8943C14.3286 33.6314 14.433 33.3793 14.6189 33.1934C14.8048 33.0075 15.0569 32.9031 15.3198 32.9031H15.6033C15.8662 32.9031 16.1184 33.0075 16.3043 33.1934C16.4901 33.3793 16.5946 33.6314 16.5946 33.8943C16.5946 34.1572 16.4901 34.4093 16.3043 34.5952C16.1184 34.7811 15.8662 34.8856 15.6033 34.8856ZM15.2611 37.9462H14.875C14.6121 37.9462 14.36 37.8417 14.1741 37.6558C13.9882 37.4699 13.8838 37.2178 13.8838 36.9549C13.8838 36.692 13.9882 36.4399 14.1741 36.254C14.36 36.0681 14.6121 35.9637 14.875 35.9637H15.2611C15.524 35.9637 15.7762 36.0681 15.962 36.254C16.1479 36.4399 16.2524 36.692 16.2524 36.9549C16.2524 37.2178 16.1479 37.4699 15.962 37.6558C15.7762 37.8417 15.524 37.9462 15.2611 37.9462Z" fill="#E54322"/>
</svg>
