<svg width="30" height="30" viewBox="0 0 30 30" fill="none" xmlns="http://www.w3.org/2000/svg">
<mask id="mask0_181_634" style="mask-type:luminance" maskUnits="userSpaceOnUse" x="0" y="0" width="30" height="30">
<path d="M0 3.8147e-06H30V30H0V3.8147e-06Z" fill="white"/>
</mask>
<g mask="url(#mask0_181_634)">
<path d="M5.48144 6.5293C5.50752 6.75272 5.55797 6.96864 5.62998 7.17448C4.28449 7.80056 3.35156 9.16427 3.35156 10.7461C3.35156 11.9182 3.86391 12.9705 4.67666 13.6919C3.15662 14.4342 2.10938 15.9951 2.10938 17.8008C2.10938 19.719 3.29127 21.3608 4.96641 22.0387C4.92193 22.2756 4.89844 22.5198 4.89844 22.7696C4.89844 24.7274 6.32748 26.3512 8.19932 26.6555C8.51297 28.2286 9.90117 29.414 11.5664 29.414C13.4627 29.414 15 27.8768 15 25.9805C15 27.8768 16.5373 29.414 18.4336 29.414C20.0988 29.414 21.487 28.2286 21.8006 26.6555C23.6725 26.3512 25.1015 24.7274 25.1015 22.7696C25.1015 22.5198 25.078 22.2756 25.0335 22.0387C26.7087 21.3608 27.8906 19.719 27.8906 17.8008C27.8906 15.9951 26.8434 14.4342 25.3233 13.6919C26.136 12.9705 26.6484 11.9182 26.6484 10.7461C26.6484 9.16427 25.7154 7.80056 24.37 7.17448C24.4794 6.86177 24.539 6.52579 24.539 6.17575C24.539 4.50595 23.1854 3.15231 21.5156 3.15231C21.0637 3.15231 20.635 3.25169 20.25 3.4294V3.21097C20.25 1.76716 19.0687 0.585907 17.625 0.585907C16.1812 0.585907 15 1.76716 15 3.21097C15 1.76716 13.8187 0.585907 12.375 0.585907C10.9312 0.585907 9.75 1.76716 9.75 3.21097V3.4294C9.46676 3.29868 9.15996 3.21038 8.83764 3.17276M14.0234 10.3125H15.9766C16.4062 10.3125 16.7578 10.664 16.7578 11.0937V13.2422H18.9063C19.3359 13.2422 19.6875 13.5937 19.6875 14.0234V15.9766C19.6875 16.4062 19.3359 16.7578 18.9063 16.7578H16.7578V18.9062C16.7578 19.336 16.4062 19.6875 15.9766 19.6875H14.0234C13.5937 19.6875 13.2422 19.336 13.2422 18.9062V16.7578H11.0937C10.6641 16.7578 10.3125 16.4062 10.3125 15.9766V14.0234C10.3125 13.5937 10.6641 13.2422 11.0937 13.2422H13.2422V11.0937C13.2422 10.664 13.5937 10.3125 14.0234 10.3125Z" stroke="#160603" stroke-width="1.2" stroke-miterlimit="22.926" stroke-linecap="round" stroke-linejoin="round"/>
<path d="M6.97246 8.79413C6.34562 8.43225 5.86943 7.85745 5.63037 7.17425" stroke="#160603" stroke-width="1.2" stroke-miterlimit="22.926" stroke-linecap="round" stroke-linejoin="round"/>
<path d="M9.75 3.42989C10.3177 3.69151 10.7904 4.1227 11.1029 4.66405" stroke="#160603" stroke-width="1.2" stroke-miterlimit="22.926" stroke-linecap="round" stroke-linejoin="round"/>
<path d="M4.67725 13.6926C4.94004 13.5644 5.21455 13.4618 5.49703 13.3862" stroke="#160603" stroke-width="1.2" stroke-miterlimit="22.926" stroke-linecap="round" stroke-linejoin="round"/>
<path d="M7.86262 22.2153C7.47684 22.3187 7.07916 22.3711 6.67979 22.3711C6.09268 22.3711 5.51107 22.258 4.9668 22.0379" stroke="#160603" stroke-width="1.2" stroke-miterlimit="22.926" stroke-linecap="round" stroke-linejoin="round"/>
<path d="M9.85539 26.5729C9.52305 26.6619 9.18039 26.707 8.83627 26.707C8.62305 26.707 8.41018 26.6897 8.19971 26.6552" stroke="#160603" stroke-width="1.2" stroke-miterlimit="22.926" stroke-linecap="round" stroke-linejoin="round"/>
<path d="M8.32707 12.0321C8.53736 12.3964 8.64811 12.8097 8.64811 13.2302C8.64811 14.3148 7.91967 15.2642 6.87207 15.5449" stroke="#E54322" stroke-width="1.2" stroke-miterlimit="22.926" stroke-linecap="round" stroke-linejoin="round"/>
<path d="M8.92285 19.6255C10.2463 19.6255 11.3191 20.6984 11.3191 22.0218C11.3191 22.2312 11.2917 22.4397 11.2374 22.642" stroke="#E54322" stroke-width="1.2" stroke-miterlimit="22.926" stroke-linecap="round" stroke-linejoin="round"/>
<path d="M9.52441 7.34739C9.97377 7.79675 10.5833 8.04929 11.2188 8.04929C11.8543 8.04929 12.4639 7.79675 12.9132 7.34739" stroke="#E54322" stroke-width="1.2" stroke-miterlimit="22.926" stroke-linecap="round" stroke-linejoin="round"/>
<path d="M23.0273 8.79413C23.6542 8.43225 24.1304 7.85745 24.3694 7.17425" stroke="#160603" stroke-width="1.2" stroke-miterlimit="22.926" stroke-linecap="round" stroke-linejoin="round"/>
<path d="M20.2504 3.42989C19.6827 3.69151 19.21 4.1227 18.8975 4.66405" stroke="#160603" stroke-width="1.2" stroke-miterlimit="22.926" stroke-linecap="round" stroke-linejoin="round"/>
<path d="M25.3232 13.6926C25.0604 13.5644 24.7859 13.4618 24.5034 13.3862" stroke="#160603" stroke-width="1.2" stroke-miterlimit="22.926" stroke-linecap="round" stroke-linejoin="round"/>
<path d="M22.1372 22.2153C22.523 22.3187 22.9207 22.3711 23.32 22.3711C23.9071 22.3711 24.4887 22.258 25.033 22.0379" stroke="#160603" stroke-width="1.2" stroke-miterlimit="22.926" stroke-linecap="round" stroke-linejoin="round"/>
<path d="M20.145 26.5729C20.4774 26.6619 20.82 26.707 21.1641 26.707C21.3774 26.707 21.5902 26.6897 21.8007 26.6552" stroke="#160603" stroke-width="1.2" stroke-miterlimit="22.926" stroke-linecap="round" stroke-linejoin="round"/>
<path d="M21.6731 12.0321C21.4628 12.3964 21.3521 12.8097 21.3521 13.2302C21.3521 14.3148 22.0805 15.2642 23.1281 15.5449" stroke="#E54322" stroke-width="1.2" stroke-miterlimit="22.926" stroke-linecap="round" stroke-linejoin="round"/>
<path d="M21.0774 19.6255C19.754 19.6255 18.6812 20.6984 18.6812 22.0218C18.6812 22.2312 18.7086 22.4397 18.7628 22.642" stroke="#E54322" stroke-width="1.2" stroke-miterlimit="22.926" stroke-linecap="round" stroke-linejoin="round"/>
<path d="M20.4757 7.34739C20.0264 7.79675 19.4168 8.04929 18.7813 8.04929C18.1458 8.04929 17.5363 7.79675 17.0869 7.34739" stroke="#E54322" stroke-width="1.2" stroke-miterlimit="22.926" stroke-linecap="round" stroke-linejoin="round"/>
<path d="M15 20.2734V25.9805M15 3.21094V9.72651" stroke="#160603" stroke-width="1.2" stroke-miterlimit="22.926" stroke-linecap="round" stroke-linejoin="round"/>
<path d="M14.0234 10.3125H15.9766C16.4062 10.3125 16.7578 10.6641 16.7578 11.0937V13.2422H18.9063C19.3359 13.2422 19.6875 13.5938 19.6875 14.0234V15.9766C19.6875 16.4063 19.3359 16.7578 18.9063 16.7578H16.7578V18.9063C16.7578 19.3359 16.4062 19.6875 15.9766 19.6875H14.0234C13.5937 19.6875 13.2422 19.3359 13.2422 18.9063V16.7578H11.0937C10.6641 16.7578 10.3125 16.4063 10.3125 15.9766V14.0234C10.3125 13.5938 10.6641 13.2422 11.0937 13.2422H13.2422V11.0937C13.2422 10.6641 13.5937 10.3125 14.0234 10.3125Z" stroke="#160603" stroke-width="1.2" stroke-miterlimit="22.926" stroke-linecap="round" stroke-linejoin="round"/>
<path d="M6.3457 4.03789H6.34682" stroke="#160603" stroke-width="1.2" stroke-miterlimit="2.613" stroke-linecap="round" stroke-linejoin="round"/>
</g>
</svg>
