<svg width="30" height="30" viewBox="0 0 30 30" fill="none" xmlns="http://www.w3.org/2000/svg">
<path d="M22.9548 9.36366C23.3276 9.4773 23.723 9.53639 24.123 9.53639C26.3185 9.53639 28.1048 7.75003 28.1048 5.55457C28.1048 3.35912 26.3185 1.57275 24.123 1.57275H5.87757C3.68212 1.57275 1.89575 3.35912 1.89575 5.55457C1.89575 7.75003 3.68212 9.53639 5.87757 9.53639C6.28212 9.53639 6.67302 9.4773 7.04575 9.36366C7.24273 9.7167 7.52289 10.0163 7.86191 10.2365C8.20094 10.4567 8.58859 10.5909 8.99121 10.6273V21.9591C8.41237 21.9791 7.86387 22.2229 7.46116 22.6392C7.05845 23.0555 6.83295 23.6118 6.83212 24.1909V24.7864H6.55484C5.60484 24.7864 4.83212 25.5591 4.83212 26.5091V26.7091C4.83212 27.6591 5.60484 28.4318 6.55484 28.4318H23.4503C24.4003 28.4318 25.173 27.6591 25.173 26.7091V26.5091C25.173 25.5591 24.4003 24.7864 23.4503 24.7864H23.173V24.1909C23.1722 23.6118 22.9467 23.0555 22.544 22.6392C22.1413 22.2229 21.5928 21.9791 21.0139 21.9591V10.6228C21.8321 10.55 22.5594 10.0773 22.9548 9.36366ZM9.80484 10.6409H20.2003V21.9546H9.80484V10.6409ZM2.70939 5.55457C2.70939 4.71432 3.04318 3.90848 3.63733 3.31433C4.23148 2.72018 5.03732 2.38639 5.87757 2.38639H24.123C25.8685 2.38639 27.2912 3.80912 27.2912 5.55457C27.2912 7.30003 25.873 8.72275 24.123 8.72275C23.6958 8.72275 23.2821 8.64094 22.8958 8.4773C22.3189 8.237 21.8262 7.8311 21.4799 7.31089C21.1336 6.79067 20.9493 6.17949 20.9503 5.55457V5.14548H9.04575V5.55457C9.04575 5.87275 9.0003 6.18639 8.90939 6.48185C8.77337 6.92714 8.54068 7.3369 8.22795 7.68184C7.91522 8.02679 7.53017 8.29841 7.1003 8.4773C6.71848 8.64094 6.30484 8.72275 5.87302 8.72275C4.13212 8.72275 2.70939 7.30003 2.70939 5.55457ZM7.8003 9.04094C7.81848 9.03185 7.83666 9.01821 7.85484 9.00457C7.91393 8.97275 7.96848 8.93185 8.02757 8.89548C8.11393 8.84094 8.2003 8.78185 8.28212 8.72275C8.34121 8.68185 8.39121 8.63184 8.44575 8.58639C8.52303 8.52275 8.59575 8.45912 8.66393 8.39094C8.71393 8.34094 8.76393 8.28639 8.81393 8.23639C8.87757 8.16366 8.94121 8.09094 9.0003 8.01366C9.04575 7.95912 9.08666 7.90003 9.12757 7.84094C9.18212 7.75912 9.23666 7.6773 9.28666 7.59094C9.32303 7.53185 9.35939 7.47275 9.39121 7.40912C9.44121 7.31821 9.48212 7.2273 9.52303 7.13184C9.60037 6.96906 9.65981 6.79837 9.7003 6.62275C9.71393 6.56821 9.73212 6.51821 9.74575 6.46366C9.78666 6.29548 9.81393 6.1273 9.83212 5.95912H20.1503C20.1685 6.13184 20.1958 6.30003 20.2367 6.46366C20.2503 6.51821 20.2685 6.56821 20.2821 6.62275C20.3139 6.73185 20.3458 6.84094 20.3821 6.95003C20.4048 7.01366 20.4321 7.07275 20.4594 7.13184C20.5003 7.2273 20.5412 7.31821 20.5912 7.40912C20.623 7.47275 20.6594 7.53185 20.6958 7.59094C20.7458 7.6773 20.7958 7.75912 20.8548 7.83639C20.8958 7.89548 20.9412 7.95003 20.9867 8.00912C21.0458 8.08639 21.1094 8.15912 21.173 8.2273C21.223 8.28185 21.273 8.33185 21.323 8.38639C21.3912 8.45457 21.4639 8.51821 21.5412 8.58185C21.5958 8.6273 21.6503 8.67275 21.7094 8.71821C21.7912 8.7773 21.8776 8.83639 21.9594 8.89094C22.0185 8.9273 22.073 8.96821 22.1321 9.00003C22.1503 9.00912 22.1685 9.02275 22.1867 9.03639C22.0384 9.27684 21.8311 9.47535 21.5845 9.613C21.3378 9.75065 21.06 9.82286 20.7776 9.82276H9.20939C8.62757 9.8273 8.09575 9.52275 7.8003 9.04094ZM23.4458 25.6C23.9458 25.6 24.3548 26.0091 24.3548 26.5091V26.7091C24.3548 27.2091 23.9458 27.6182 23.4458 27.6182H6.55484C6.05484 27.6182 5.64575 27.2091 5.64575 26.7091V26.5091C5.64575 26.0091 6.05484 25.6 6.55484 25.6H23.173H23.4458ZM22.3594 24.1864V24.7818H7.64121V24.1864C7.64121 23.4046 8.27757 22.7682 9.05939 22.7682H20.9321C21.7185 22.7682 22.3594 23.4046 22.3594 24.1864Z" fill="#160603"/>
<path d="M24.1638 7.65904C25.3229 7.65904 26.2684 6.71359 26.2684 5.5545C26.2684 4.39541 25.3229 3.44995 24.1638 3.44995C23.0047 3.44995 22.0593 4.39541 22.0593 5.5545C22.0593 6.71359 23.0047 7.65904 24.1638 7.65904ZM24.1638 4.26359C24.8775 4.26359 25.4547 4.84086 25.4547 5.5545C25.4547 6.26813 24.8775 6.84541 24.1638 6.84541C23.4502 6.84541 22.8729 6.26813 22.8729 5.5545C22.8729 4.84086 23.4502 4.26359 24.1638 4.26359ZM7.90929 5.5545C7.90929 4.39541 6.96383 3.44995 5.80474 3.44995C4.64565 3.44995 3.7002 4.39541 3.7002 5.5545C3.7002 6.71359 4.64565 7.65904 5.80474 7.65904C6.96383 7.65904 7.90929 6.71359 7.90929 5.5545ZM5.80474 6.84541C5.0911 6.84541 4.51383 6.26813 4.51383 5.5545C4.51383 4.84086 5.0911 4.26359 5.80474 4.26359C6.51838 4.26359 7.09565 4.84086 7.09565 5.5545C7.09565 6.26813 6.51383 6.84541 5.80474 6.84541ZM17.2638 12.6863H18.0775V20.0863H17.2638V12.6863ZM14.5911 12.6863H15.4047V20.0863H14.5911V12.6863ZM11.9229 12.6863H12.7366V20.0863H11.9229V12.6863Z" fill="#E54322"/>
</svg>
