<svg width="24" height="24" viewBox="0 0 24 24" fill="none" xmlns="http://www.w3.org/2000/svg">
<path d="M23.3527 10.4388L23.351 10.4372L13.5609 0.647484C13.1436 0.229922 12.5888 0 11.9987 0C11.4085 0 10.8537 0.229781 10.4363 0.647297L0.651238 10.432C0.647957 10.4353 0.644676 10.4388 0.641394 10.4421C-0.215574 11.304 -0.214074 12.7023 0.645613 13.562C1.03833 13.955 1.5571 14.1825 2.11172 14.2064C2.13422 14.2086 2.15696 14.2096 2.17983 14.2096H2.57002V21.4143C2.57002 22.84 3.72999 24 5.15602 24H8.98618C9.37439 24 9.6893 23.6852 9.6893 23.2969V17.6484C9.6893 16.9979 10.2185 16.4687 10.8691 16.4687H13.1282C13.7789 16.4687 14.308 16.9979 14.308 17.6484V23.2969C14.308 23.6852 14.6228 24 15.0111 24H18.8413C20.2673 24 21.4273 22.84 21.4273 21.4144V14.2097H21.7891C22.3791 14.2097 22.9339 13.9799 23.3516 13.5624C24.2122 12.7013 24.2125 11.3005 23.3527 10.4388Z" fill="white"/>
</svg>
