<svg width="26" height="23" viewBox="0 0 26 23" fill="none" xmlns="http://www.w3.org/2000/svg">
<path d="M21.9575 22.6662H16.2909C16.103 22.6662 15.9228 22.5916 15.79 22.4588C15.6571 22.3259 15.5825 22.1458 15.5825 21.9579V16.2912C15.5825 16.1034 15.5079 15.9232 15.3751 15.7904C15.2422 15.6575 15.062 15.5829 14.8742 15.5829H10.6242C10.4363 15.5829 10.2562 15.6575 10.1233 15.7904C9.99048 15.9232 9.91585 16.1034 9.91585 16.2912V21.9579C9.91585 22.1458 9.84123 22.3259 9.70839 22.4588C9.57555 22.5916 9.39538 22.6662 9.20752 22.6662H3.54085C3.35299 22.6662 3.17282 22.5916 3.03999 22.4588C2.90715 22.3259 2.83252 22.1458 2.83252 21.9579V13.7678C2.91132 13.7142 3.00296 13.6841 3.07468 13.6195L12.7492 5.09071L22.433 13.6306C22.5012 13.6917 22.5906 13.7191 22.6659 13.7722V21.9579C22.6659 22.1458 22.5912 22.3259 22.4584 22.4588C22.3256 22.5916 22.1454 22.6662 21.9575 22.6662Z" fill="white"/>
<path d="M23.3712 12.5672L13.219 3.6125C13.0896 3.49833 12.923 3.43534 12.7504 3.43534C12.5779 3.43534 12.4112 3.49833 12.2818 3.6125L2.12965 12.5676C1.98991 12.6931 1.80606 12.7579 1.61852 12.7479C1.43098 12.7378 1.25511 12.6537 1.12957 12.514L0.181289 11.4608C0.0558134 11.3211 -0.00903031 11.1372 0.0010149 10.9497C0.0110601 10.7622 0.0951719 10.5863 0.234857 10.4608L11.5682 0.455544C11.8925 0.16234 12.3141 0 12.7513 0C13.1885 0 13.6102 0.16234 13.9345 0.455544L18.4164 4.41203V2.12455C18.4164 1.93669 18.4911 1.75653 18.6239 1.62369C18.7567 1.49085 18.9369 1.41622 19.1248 1.41622H21.9581C22.146 1.41622 22.3261 1.49085 22.459 1.62369C22.5918 1.75653 22.6664 1.93669 22.6664 2.12455V8.16442L25.2647 10.459C25.4044 10.5845 25.4886 10.7603 25.4988 10.9478C25.5089 11.1354 25.4441 11.3193 25.3187 11.4591L24.3713 12.5136C24.2458 12.6533 24.0699 12.7374 23.8824 12.7474C23.6948 12.7575 23.511 12.6926 23.3712 12.5672Z" fill="white"/>
</svg>
