<svg width="24" height="24" viewBox="0 0 24 24" fill="none" xmlns="http://www.w3.org/2000/svg">
<g clip-path="url(#clip0_362_1045)">
<path d="M8.5 7H15.5C15.6326 7 15.7598 7.05104 15.8536 7.14188C15.9473 7.23273 16 7.35594 16 7.48441V16.7575C16.0001 16.8008 15.9881 16.8433 15.9654 16.8807C15.9428 16.918 15.9102 16.9487 15.8711 16.9697C15.832 16.9907 15.7878 17.0011 15.7431 16.9999C15.6984 16.9987 15.6549 16.9859 15.617 16.9629L12 14.7651L8.383 16.9624C8.34518 16.9854 8.30169 16.9982 8.25705 16.9994C8.21241 17.0006 8.16824 16.9903 8.12915 16.9693C8.09005 16.9484 8.05745 16.9177 8.03474 16.8805C8.01203 16.8432 8.00003 16.8008 8 16.7575V7.48441C8 7.35594 8.05268 7.23273 8.14645 7.14188C8.24021 7.05104 8.36739 7 8.5 7ZM15 7.96882H9V15.4443L12 13.6224L15 15.4443V7.96882Z" fill="#ABA8B0"/>
</g>
<defs>
<clipPath id="clip0_362_1045">
<rect width="24" height="24" fill="white"/>
</clipPath>
</defs>
</svg>
