<svg width="304" height="304" viewBox="0 0 304 304" fill="none" xmlns="http://www.w3.org/2000/svg">
<path d="M268.833 219.672L268.361 219.647C268.37 219.482 269.12 203.036 262.994 196.626C261.383 194.941 259.415 194.086 257.145 194.086C257.129 194.086 257.115 194.086 257.099 194.086C255.045 194.097 253.237 194.894 251.724 196.457C245.638 202.75 246.038 219.483 246.043 219.652L245.57 219.666C245.551 218.97 245.161 202.564 251.384 196.129C252.988 194.47 254.909 193.624 257.095 193.613C257.112 193.613 257.128 193.613 257.144 193.613C259.549 193.613 261.631 194.516 263.336 196.299C269.603 202.857 268.869 218.988 268.833 219.672Z" fill="black"/>
<path d="M284.182 261.773H234.028L238.561 211.048H269.747L284.182 261.773Z" fill="#161C1C"/>
<path d="M284.182 262.009H234.028C233.961 262.009 233.898 261.981 233.853 261.932C233.808 261.883 233.786 261.818 233.792 261.751L238.325 211.026C238.336 210.904 238.438 210.811 238.561 210.811H269.747C269.852 210.811 269.945 210.881 269.974 210.982L284.409 261.708C284.43 261.778 284.415 261.856 284.37 261.915C284.325 261.974 284.256 262.009 284.182 262.009ZM234.286 261.536H283.868L269.568 211.284H238.777L234.286 261.536Z" fill="black"/>
<path d="M274.096 261.773H225.915L230.449 211.048H269.563L274.096 261.773Z" fill="#007AFD"/>
<path d="M261.743 219.67L261.27 219.65C261.279 219.442 262.076 198.772 255.294 191.739C253.808 190.197 252.044 189.415 250.052 189.415C250.036 189.415 250.022 189.415 250.006 189.415C248.207 189.426 246.593 190.156 245.208 191.583C238.524 198.471 238.946 219.443 238.951 219.655L238.478 219.666C238.458 218.796 238.048 198.282 244.868 191.254C246.345 189.731 248.072 188.954 250.003 188.942C250.019 188.942 250.036 188.942 250.053 188.942C252.179 188.942 254.056 189.771 255.635 191.409C262.557 198.59 261.779 218.813 261.743 219.67Z" fill="black"/>
<path d="M248.316 234.963C248.316 234.963 241.275 226.679 238.534 233.989C235.793 241.298 248.909 250.716 248.909 250.716C248.909 250.716 261.209 238.692 257.911 233.848C253.733 227.704 248.316 234.963 248.316 234.963Z" fill="white"/>
<path d="M169.38 179.362C172.972 174.035 173.002 167.772 169.445 165.373C165.889 162.975 160.094 165.35 156.501 170.677C152.909 176.005 152.879 182.268 156.435 184.666C159.992 187.064 165.787 184.69 169.38 179.362Z" fill="white"/>
<path d="M167.961 178.405C170.762 174.251 170.785 169.368 168.012 167.498C165.239 165.628 160.72 167.48 157.919 171.634C155.118 175.787 155.095 180.67 157.868 182.54C160.641 184.41 165.16 182.559 167.961 178.405Z" fill="#FFB902"/>
<path d="M159.632 185.828C158.417 185.828 157.279 185.517 156.303 184.859C154.516 183.652 153.538 181.489 153.55 178.765C153.563 176.077 154.541 173.157 156.303 170.542C158.067 167.926 160.409 165.924 162.895 164.905C165.416 163.874 167.787 163.968 169.576 165.174C171.364 166.379 172.341 168.544 172.329 171.266C172.317 173.955 171.338 176.875 169.576 179.49C166.891 183.471 162.973 185.828 159.632 185.828ZM166.233 164.67C165.241 164.67 164.176 164.894 163.077 165.344C160.675 166.328 158.408 168.269 156.697 170.807C154.986 173.346 154.037 176.173 154.025 178.769C154.012 181.33 154.916 183.353 156.568 184.467C160.011 186.79 165.67 184.438 169.186 179.227C170.897 176.688 171.846 173.861 171.858 171.265C171.871 168.704 170.967 166.681 169.315 165.567C168.427 164.969 167.379 164.67 166.233 164.67Z" fill="black"/>
<path d="M159.76 178.829L160.398 177.883C160.041 177.63 159.78 177.206 159.718 176.825L160.292 176.298C160.365 176.674 160.57 177.071 160.921 177.309C161.366 177.609 161.925 177.427 162.285 176.893C162.633 176.377 162.604 175.894 162.329 175.301C161.943 174.496 161.839 173.799 162.388 172.984C162.912 172.206 163.681 171.866 164.351 172.114L164.989 171.167L165.377 171.428L164.764 172.336C165.127 172.609 165.282 172.931 165.357 173.213L164.784 173.726C164.728 173.526 164.61 173.146 164.21 172.876C163.728 172.552 163.255 172.86 163.002 173.235C162.674 173.721 162.742 174.123 163.058 174.827C163.436 175.655 163.434 176.361 162.872 177.195C162.374 177.935 161.561 178.397 160.81 178.121L160.153 179.095L159.76 178.829Z" fill="white"/>
<path d="M195.808 172.999C198.109 169.021 197.473 164.349 194.386 162.563C191.299 160.777 186.931 162.554 184.63 166.532C182.329 170.51 182.965 175.182 186.052 176.968C189.139 178.754 193.507 176.977 195.808 172.999Z" fill="white"/>
<path d="M194.575 172.287C196.37 169.186 195.873 165.543 193.467 164.151C191.06 162.759 187.655 164.144 185.86 167.245C184.066 170.346 184.563 173.989 186.969 175.382C189.376 176.774 192.781 175.389 194.575 172.287Z" fill="#FFB902"/>
<path d="M188.698 177.903C187.709 177.903 186.768 177.659 185.929 177.174C182.734 175.327 182.057 170.499 184.42 166.414C186.782 162.33 191.305 160.511 194.499 162.358C197.695 164.206 198.371 169.032 196.007 173.117C194.868 175.087 193.199 176.595 191.308 177.365C190.427 177.724 189.545 177.903 188.698 177.903ZM191.734 162.106C189.218 162.106 186.48 163.801 184.831 166.652C182.598 170.511 183.198 175.048 186.167 176.765C187.596 177.591 189.358 177.649 191.132 176.928C192.927 176.198 194.514 174.761 195.6 172.882C197.832 169.023 197.233 164.486 194.264 162.769C193.487 162.319 192.624 162.106 191.734 162.106Z" fill="black"/>
<path d="M188.082 172.623L188.491 171.917C188.18 171.727 187.928 171.413 187.838 171.129L188.239 170.735C188.338 171.017 188.542 171.313 188.847 171.489C189.233 171.711 189.66 171.575 189.889 171.176C190.112 170.792 190.038 170.431 189.757 169.99C189.365 169.389 189.21 168.87 189.561 168.262C189.897 167.682 190.472 167.426 191.032 167.609L191.441 166.903L191.777 167.098L191.384 167.775C191.701 167.977 191.859 168.218 191.947 168.428L191.546 168.811C191.48 168.66 191.346 168.38 190.998 168.178C190.58 167.936 190.236 168.167 190.074 168.446C189.864 168.81 189.96 169.109 190.286 169.633C190.676 170.25 190.748 170.777 190.387 171.4C190.067 171.953 189.469 172.297 188.841 172.093L188.42 172.82L188.082 172.623Z" fill="white"/>
<path d="M227.194 193.986C229.417 190.689 227.423 185.456 222.741 182.298C218.058 179.141 212.46 179.253 210.236 182.55C208.013 185.847 210.007 191.08 214.69 194.237C219.372 197.395 224.971 197.282 227.194 193.986Z" fill="white"/>
<path d="M216.165 181.59C225.801 182.559 230.012 193.592 221.256 194.941C211.624 193.958 207.428 182.946 216.165 181.59Z" fill="#FFB902"/>
<path d="M221.665 196.759C219.4 196.759 216.865 195.986 214.556 194.43C209.773 191.204 207.746 185.815 210.038 182.415C212.331 179.015 218.088 178.872 222.871 182.098C225.175 183.652 226.918 185.749 227.776 188.001C228.646 190.282 228.508 192.453 227.388 194.113C226.204 195.872 224.091 196.759 221.665 196.759ZM215.757 180.236C213.491 180.236 211.529 181.053 210.432 182.68C208.286 185.863 210.255 190.959 214.822 194.04C219.389 197.118 224.852 197.033 226.999 193.851C228.03 192.323 228.15 190.305 227.337 188.171C226.513 186.009 224.835 183.992 222.609 182.492C220.374 180.985 217.927 180.236 215.757 180.236Z" fill="black"/>
<path d="M222.053 191.081L221.221 190.519C220.986 190.85 220.603 191.098 220.26 191.163L219.802 190.651C220.141 190.575 220.5 190.379 220.719 190.055C220.997 189.642 220.846 189.137 220.377 188.82C219.923 188.515 219.49 188.552 218.954 188.814C218.227 189.184 217.601 189.294 216.885 188.811C216.201 188.35 215.913 187.658 216.149 187.04L215.317 186.48L215.559 186.121L216.358 186.66C216.61 186.323 216.902 186.174 217.154 186.102L217.601 186.613C217.42 186.668 217.078 186.784 216.829 187.155C216.527 187.601 216.792 188.024 217.122 188.247C217.55 188.535 217.91 188.465 218.546 188.161C219.295 187.798 219.926 187.784 220.659 188.278C221.31 188.717 221.705 189.448 221.442 190.139L222.298 190.716L222.053 191.081Z" fill="white"/>
<path d="M225.033 154.502C226.301 150.604 224.918 146.661 221.945 145.694C218.972 144.728 215.534 147.104 214.267 151.002C213 154.899 214.383 158.843 217.356 159.809C220.329 160.776 223.766 158.4 225.033 154.502Z" fill="white"/>
<path d="M224.036 149.72C225.549 156.722 218.302 161.738 215.266 155.785C213.764 148.785 220.998 143.782 224.036 149.72Z" fill="#FFB902"/>
<path d="M218.733 160.266C218.242 160.266 217.755 160.191 217.285 160.038C215.774 159.546 214.608 158.321 213.999 156.587C213.398 154.875 213.414 152.866 214.043 150.932C214.671 148.998 215.84 147.365 217.332 146.333C218.845 145.289 220.509 144.985 222.018 145.474C223.529 145.965 224.695 147.191 225.304 148.925C225.905 150.637 225.889 152.646 225.26 154.579C224.632 156.513 223.463 158.147 221.971 159.178C220.93 159.898 219.818 160.266 218.733 160.266ZM220.574 145.718C219.583 145.718 218.563 146.059 217.602 146.723C216.194 147.695 215.091 149.242 214.494 151.078C213.897 152.914 213.88 154.815 214.446 156.43C215.005 158.023 216.065 159.144 217.431 159.588C218.797 160.033 220.314 159.75 221.702 158.789C223.109 157.816 224.213 156.269 224.812 154.433C225.409 152.597 225.426 150.696 224.859 149.082C224.301 147.489 223.241 146.367 221.875 145.924C221.452 145.786 221.016 145.718 220.574 145.718Z" fill="black"/>
<path d="M218.299 155.63L218.524 154.938C218.222 154.832 217.95 154.606 217.822 154.375L218.097 153.957C218.231 154.182 218.46 154.4 218.754 154.496C219.124 154.617 219.467 154.417 219.595 154.027C219.718 153.65 219.589 153.35 219.269 153.019C218.825 152.572 218.598 152.15 218.791 151.553C218.976 150.983 219.425 150.651 219.94 150.706L220.165 150.013L220.49 150.119L220.274 150.784C220.582 150.9 220.762 151.079 220.875 151.245L220.597 151.655C220.514 151.537 220.349 151.317 220.015 151.207C219.612 151.077 219.358 151.342 219.268 151.616C219.152 151.973 219.287 152.214 219.662 152.608C220.107 153.071 220.264 153.516 220.066 154.126C219.889 154.668 219.437 155.081 218.861 155.023L218.628 155.736L218.299 155.63Z" fill="white"/>
<path d="M179.299 142.434C180.203 140.561 178.275 137.757 174.991 136.171C171.707 134.585 168.312 134.818 167.407 136.691C166.503 138.564 168.431 141.368 171.715 142.954C174.999 144.539 178.394 144.307 179.299 142.434Z" fill="white"/>
<path d="M170.888 135.996C176.892 136.233 180.963 142.146 175.813 143.15C169.811 142.906 165.751 137.004 170.888 135.996Z" fill="#FFB902"/>
<path d="M175.926 144.243C174.613 144.243 173.099 143.894 171.613 143.176C169.988 142.391 168.632 141.288 167.796 140.072C166.931 138.816 166.718 137.582 167.194 136.597C167.669 135.612 168.77 135.011 170.29 134.908C171.766 134.808 173.468 135.184 175.093 135.968C176.718 136.753 178.073 137.856 178.91 139.072C179.775 140.328 179.987 141.562 179.512 142.547C178.973 143.666 177.615 144.243 175.926 144.243ZM170.77 135.365C170.618 135.365 170.47 135.37 170.323 135.381C168.979 135.473 168.018 135.978 167.62 136.804C167.221 137.629 167.421 138.696 168.185 139.805C168.977 140.955 170.267 142.001 171.818 142.75C174.979 144.277 178.24 144.094 179.086 142.341C179.485 141.516 179.285 140.449 178.521 139.34C177.731 138.19 176.44 137.144 174.888 136.395C173.5 135.724 172.055 135.365 170.77 135.365Z" fill="black"/>
<path d="M175.736 140.995L175.153 140.713C175.054 140.902 174.855 141.049 174.655 141.094L174.308 140.827C174.503 140.776 174.695 140.657 174.785 140.472C174.898 140.239 174.738 139.966 174.408 139.807C174.091 139.654 173.832 139.687 173.541 139.847C173.147 140.071 172.783 140.15 172.28 139.908C171.801 139.677 171.531 139.306 171.59 138.962L171.006 138.68L171.105 138.476L171.665 138.747C171.772 138.555 171.93 138.465 172.074 138.416L172.414 138.682C172.312 138.719 172.119 138.792 172.017 139.003C171.894 139.256 172.114 139.48 172.345 139.592C172.645 139.737 172.854 139.688 173.201 139.502C173.607 139.279 173.99 139.254 174.505 139.502C174.961 139.722 175.301 140.11 175.235 140.497L175.836 140.786L175.736 140.995Z" fill="white"/>
<path d="M181.144 217.908C187.57 217.908 192.779 212.699 192.779 206.274C192.779 199.848 187.57 194.639 181.144 194.639C174.718 194.639 169.509 199.848 169.509 206.274C169.509 212.699 174.718 217.908 181.144 217.908Z" fill="white"/>
<path d="M189.916 208.608C191.202 203.766 188.32 198.799 183.479 197.513C178.637 196.227 173.67 199.11 172.384 203.952C171.098 208.794 173.98 213.762 178.822 215.048C183.663 216.333 188.63 213.45 189.916 208.608Z" fill="#FFB902"/>
<path d="M181.144 218.144C174.598 218.144 169.272 212.819 169.272 206.274C169.272 199.728 174.598 194.403 181.144 194.403C187.69 194.403 193.014 199.728 193.014 206.274C193.014 212.818 187.69 218.144 181.144 218.144ZM181.144 194.875C174.858 194.875 169.745 199.988 169.745 206.273C169.745 212.557 174.858 217.67 181.144 217.67C187.428 217.67 192.541 212.557 192.541 206.273C192.543 199.988 187.429 194.875 181.144 194.875Z" fill="black"/>
<path d="M180.369 211.194V210.053C179.714 210.042 179.037 209.838 178.64 209.556L178.911 208.799C179.319 209.071 179.906 209.285 180.538 209.285C181.341 209.285 181.883 208.821 181.883 208.177C181.883 207.555 181.443 207.171 180.606 206.832C179.454 206.381 178.742 205.86 178.742 204.878C178.742 203.94 179.409 203.229 180.448 203.059V201.917H181.149V203.014C181.826 203.037 182.289 203.217 182.618 203.409L182.336 204.154C182.098 204.019 181.635 203.77 180.912 203.77C180.042 203.77 179.714 204.29 179.714 204.742C179.714 205.329 180.132 205.623 181.115 206.029C182.278 206.504 182.866 207.091 182.866 208.098C182.866 208.99 182.244 209.827 181.081 210.019V211.194H180.369Z" fill="white"/>
<path d="M181.144 105.417L179.007 111.991L286.905 147.072L289.042 140.498L181.144 105.417Z" fill="#E5E8FF"/>
<path d="M287.059 147.374L286.834 147.301L178.712 112.146L180.996 105.121L181.22 105.194L289.342 140.349L287.059 147.374ZM179.309 111.842L286.756 146.778L288.748 140.653L181.301 105.717L179.309 111.842Z" fill="black"/>
<path d="M234.58 123.484L234.884 122.857C235.308 121.984 245.364 101.45 253.981 99.3095C255.603 98.907 257.087 99.1842 258.389 100.139C259.605 101.028 260.166 102.139 260.055 103.441C259.419 110.982 236.191 122.677 235.202 123.172L234.58 123.484ZM255.377 99.605C254.961 99.605 254.533 99.6597 254.094 99.7691C246.528 101.649 237.44 118.859 235.63 122.422C239.449 120.446 259.026 110.003 259.583 103.403C259.679 102.259 259.198 101.317 258.109 100.521C257.278 99.9114 256.362 99.605 255.377 99.605Z" fill="black"/>
<path d="M235.17 123.598L234.887 123.071C234.473 122.297 224.774 104.009 228.044 97.494C228.67 96.2476 229.734 95.5034 231.207 95.2821C233.1 94.9963 234.625 95.4815 235.731 96.7243C240.809 102.419 235.55 122.184 235.324 123.023L235.17 123.598ZM232.212 95.6773C231.913 95.6773 231.601 95.7016 231.277 95.7503C229.947 95.9509 229.028 96.5905 228.467 97.708C225.612 103.396 233.41 119.166 235.021 122.304C235.871 118.908 239.81 102.008 235.379 97.0392C234.571 96.1333 233.508 95.6773 232.212 95.6773Z" fill="black"/>
<path d="M274.302 150.006L273.893 149.769C278.995 140.996 276.955 131.332 275.633 129.603C275.398 129.295 275.129 128.999 274.834 128.723C274.491 129.949 273.538 131.051 272.196 131.192C271.313 131.285 270.395 130.804 269.855 129.967C269.388 129.246 269.334 128.43 269.711 127.785C270.382 126.632 272.029 126.44 273.146 126.983C273.613 127.211 274.072 127.496 274.5 127.822C274.502 127.741 274.502 127.659 274.497 127.578C274.403 125.79 273.073 124.453 272.29 123.816C268.887 121.044 263.972 121.004 259.629 121.187C251.494 121.526 243.272 122.199 235.191 123.186L235.134 123.193L235.081 123.172C230.89 121.596 227.408 120.065 224.03 117.726C221.307 115.84 217.699 112.616 215.971 107.975C215.954 107.929 215.937 107.881 215.919 107.832C215.872 107.832 215.825 107.832 215.778 107.832C212.65 107.832 209.573 107.297 206.623 106.243L206.782 105.798C209.674 106.833 212.692 107.358 215.759 107.361C215.524 106.615 215.321 105.68 215.42 104.732C215.549 103.495 216.217 102.418 217.162 101.923C218.171 101.394 219.472 101.549 220.328 102.303C221.183 103.056 221.504 104.327 221.108 105.396C220.782 106.275 219.996 107.007 218.955 107.404C218.131 107.719 217.258 107.803 216.421 107.825C218.109 112.344 221.637 115.491 224.301 117.337C227.624 119.64 231.061 121.153 235.194 122.709C243.268 121.724 251.483 121.053 259.612 120.712C264.037 120.527 269.059 120.57 272.592 123.447C273.436 124.134 274.868 125.581 274.973 127.551C274.984 127.759 274.975 127.972 274.947 128.183C275.346 128.531 275.707 128.913 276.013 129.313C277.761 131.609 279.297 141.416 274.302 150.006ZM271.827 127.16C271.14 127.16 270.462 127.43 270.116 128.022C269.832 128.511 269.881 129.142 270.249 129.709C270.688 130.388 271.453 130.791 272.143 130.72C273.339 130.594 274.189 129.503 274.428 128.368C273.965 127.989 273.457 127.659 272.935 127.406C272.603 127.246 272.214 127.16 271.827 127.16ZM218.441 102.088C218.07 102.088 217.702 102.171 217.376 102.341C216.57 102.764 215.998 103.698 215.885 104.78C215.788 105.706 216.01 106.633 216.249 107.355C217.09 107.339 217.97 107.271 218.78 106.962C219.695 106.613 220.379 105.982 220.658 105.23C220.982 104.356 220.71 103.274 220.01 102.657C219.586 102.284 219.013 102.088 218.441 102.088Z" fill="black"/>
<path d="M248.423 202.78V258.301C248.423 260.305 246.801 261.928 244.797 261.928H147.284C145.28 261.928 143.658 260.304 143.658 258.301V202.78H248.423Z" fill="#FF4148"/>
<path d="M248.423 202.783V258.301C248.423 260.307 246.801 261.929 244.795 261.929H147.282C145.442 261.929 143.92 260.557 143.689 258.779H212.438C230.217 258.779 244.635 244.366 244.635 226.582V202.783H248.423Z" fill="#F23243"/>
<path d="M244.795 262.165H147.282C145.151 262.165 143.419 260.432 143.419 258.301V202.547H248.659V258.301C248.659 260.432 246.926 262.165 244.795 262.165ZM143.892 203.02V258.301C143.892 260.172 145.413 261.693 147.283 261.693H244.797C246.666 261.693 248.187 260.172 248.187 258.301V203.02H143.892Z" fill="black"/>
<path d="M165.274 229.041C165.652 229.774 165.033 230.625 164.22 230.483L160.592 229.845C160.271 229.788 159.944 229.892 159.713 230.123L157.127 232.742C156.545 233.329 155.547 232.998 155.434 232.179L154.933 228.547C154.89 228.221 154.687 227.938 154.394 227.791L151.094 226.146C150.356 225.782 150.361 224.727 151.104 224.368L154.419 222.741C154.717 222.599 154.92 222.32 154.967 221.999L155.515 218.367C155.633 217.548 156.64 217.232 157.213 217.823L159.762 220.472C159.989 220.703 160.315 220.812 160.636 220.76L164.282 220.159C165.095 220.027 165.709 220.883 165.321 221.611L163.581 224.86C163.43 225.148 163.426 225.499 163.576 225.787L165.274 229.041ZM170.878 246.757C170.915 247.25 170.374 247.574 169.958 247.305L168.107 246.103C167.943 245.996 167.739 245.977 167.556 246.05L165.515 246.889C165.056 247.077 164.583 246.66 164.712 246.182L165.287 244.061C165.341 243.871 165.295 243.667 165.167 243.517L163.732 241.836C163.411 241.462 163.66 240.881 164.154 240.857L166.365 240.736C166.563 240.728 166.74 240.622 166.841 240.455L167.995 238.58C168.252 238.157 168.882 238.218 169.059 238.679L169.845 240.738C169.915 240.919 170.07 241.055 170.259 241.102L172.412 241.626C172.892 241.744 173.029 242.361 172.645 242.671L170.923 244.055C170.773 244.179 170.687 244.371 170.703 244.566L170.878 246.757ZM226.941 222.926C226.977 223.419 226.436 223.743 226.02 223.474L224.17 222.271C224.005 222.164 223.801 222.146 223.619 222.219L221.577 223.058C221.119 223.245 220.646 222.828 220.775 222.35L221.35 220.23C221.403 220.04 221.357 219.836 221.229 219.686L219.794 218.004C219.473 217.631 219.723 217.05 220.216 217.026L222.427 216.905C222.625 216.897 222.803 216.791 222.904 216.624L224.058 214.749C224.314 214.326 224.944 214.387 225.122 214.848L225.907 216.906C225.978 217.088 226.132 217.224 226.322 217.271L228.474 217.795C228.955 217.913 229.092 218.53 228.708 218.84L226.986 220.224C226.835 220.348 226.75 220.54 226.766 220.734L226.941 222.926ZM213.746 247.084C213.916 247.727 213.28 248.29 212.664 248.037L209.917 246.904C209.674 246.803 209.398 246.829 209.175 246.971L206.681 248.586C206.121 248.947 205.392 248.513 205.444 247.848L205.68 244.899C205.703 244.634 205.593 244.376 205.387 244.209L203.072 242.339C202.554 241.924 202.741 241.094 203.388 240.939L206.283 240.234C206.542 240.175 206.752 239.99 206.845 239.744L207.909 236.978C208.145 236.354 208.994 236.279 209.342 236.844L210.89 239.374C211.028 239.597 211.267 239.739 211.529 239.754L214.507 239.914C215.171 239.951 215.507 240.733 215.075 241.24L213.139 243.498C212.97 243.699 212.906 243.973 212.974 244.228L213.746 247.084Z" fill="white"/>
<path d="M192.633 219.016C194.3 219.016 195.652 217.664 195.652 215.997C195.652 214.329 194.3 212.978 192.633 212.978C190.965 212.978 189.613 214.329 189.613 215.997C189.613 217.664 190.965 219.016 192.633 219.016Z" fill="white"/>
<path d="M188.42 249.747C189.831 249.747 190.974 248.604 190.974 247.193C190.974 245.783 189.831 244.64 188.42 244.64C187.01 244.64 185.867 245.783 185.867 247.193C185.867 248.604 187.01 249.747 188.42 249.747Z" fill="white"/>
<path d="M220.75 240.492C221.357 240.492 221.848 240 221.848 239.394C221.848 238.788 221.357 238.296 220.75 238.296C220.144 238.296 219.652 238.788 219.652 239.394C219.652 240 220.144 240.492 220.75 240.492Z" fill="white"/>
<path d="M225.314 211.105C225.878 211.105 226.335 210.648 226.335 210.083C226.335 209.519 225.878 209.062 225.314 209.062C224.75 209.062 224.292 209.519 224.292 210.083C224.292 210.648 224.75 211.105 225.314 211.105Z" fill="white"/>
<path d="M169.692 214.464C170.901 214.464 171.882 213.483 171.882 212.273C171.882 211.064 170.901 210.083 169.692 210.083C168.482 210.083 167.502 211.064 167.502 212.273C167.502 213.483 168.482 214.464 169.692 214.464Z" fill="white"/>
<path d="M123.355 256.11L115.507 243.982L113.953 239.676L100.808 234.855L95.6031 244.382C95.2298 244.823 95.3551 245.485 95.8524 245.757L121.849 259.992C122.286 260.231 122.834 260.071 123.074 259.634L123.591 258.691C124.045 257.859 123.953 256.847 123.355 256.11Z" fill="#161C1C"/>
<path d="M113.951 239.676L117.107 231.796L105.196 226.819L100.806 234.855C104.598 239.63 109.442 241.354 113.951 239.676Z" fill="#FAC8D7"/>
<path d="M114.136 248.074L113.877 247.677C115.684 246.499 117.407 247.226 117.479 247.257L117.29 247.691C117.228 247.665 115.723 247.038 114.136 248.074ZM115.824 250.76L115.565 250.363C117.373 249.185 119.096 249.912 119.168 249.943L118.98 250.377C118.918 250.35 117.411 249.724 115.824 250.76Z" fill="white"/>
<path d="M103.724 131.384C103.724 131.384 147.789 162.382 148.724 175.609C149.581 187.726 118.571 236.444 118.571 236.444C111.034 235.737 104.963 232.443 100.209 226.819L121.956 178.905L88.3996 151.619L93.249 131.383H103.724V131.384Z" fill="#242B2B"/>
<path d="M93.1578 259.009L83.0151 248.722L80.6208 244.821L66.7718 242.763L63.6053 253.148C63.3293 253.656 63.5859 254.279 64.1282 254.444L92.4707 263.117C92.9474 263.263 93.4508 262.994 93.5967 262.519L93.9117 261.49C94.1877 260.581 93.8934 259.609 93.1578 259.009Z" fill="#161C1C"/>
<path d="M80.6208 244.821L82.1153 236.466L69.4433 234.006L66.7718 242.763C71.4509 246.67 76.5436 247.377 80.6208 244.821Z" fill="#FAC8D7"/>
<path d="M82.502 253.007L82.1688 252.671C83.6997 251.15 85.5347 251.513 85.6113 251.53L85.5152 251.993C85.4483 251.98 83.8481 251.669 82.502 253.007ZM84.6993 255.296L84.3661 254.96C85.897 253.44 87.7308 253.802 87.8086 253.818L87.7125 254.281C87.6456 254.268 86.0442 253.959 84.6993 255.296Z" fill="white"/>
<path d="M94.2193 137.785C94.2193 137.785 106.557 180.277 106.241 189.123C105.801 201.439 86.1475 240.881 86.1475 240.881C76.7928 242.269 69.4324 240.774 65.7224 234.005L81.8903 191.442C80.9333 177.343 67.2691 146.112 72.0675 140.401C78.1596 133.147 94.2193 137.785 94.2193 137.785Z" fill="#242B2B"/>
<path d="M100.457 161.504C99.2268 156.721 97.8296 151.516 96.3072 146.034L96.762 145.908C98.2856 151.392 99.6828 156.599 100.915 161.386L100.457 161.504Z" fill="white"/>
<path d="M144.224 78.6509C144.224 78.6509 127.044 110.513 118.363 111.193C117.166 111.288 115.682 111.061 114.041 110.621C110.746 109.737 106.816 107.997 103.345 106.257C98.423 103.783 94.4175 101.32 94.4175 101.32L92.8051 84.4901C94.6449 84.433 94.696 84.3819 101.36 85.5541C106.041 86.3822 116.548 92.084 116.548 92.084L132.323 73.9681C130.449 65.1703 150.919 76.6749 144.224 78.6509Z" fill="#E54322"/>
<path d="M114.04 110.621C110.745 109.737 106.815 107.997 103.344 106.257C103.572 101.277 103.835 92.0853 103.835 92.0853C103.835 92.0853 108.631 103.788 114.04 110.621Z" fill="#B03319"/>
<path d="M113.049 136.54C109.256 141.807 91.5149 146.432 78.2326 146.087C73.3285 145.959 69.6829 146.62 68.7806 146.262C68.7806 146.262 67.7871 140.157 66.5675 131.731C66.1188 128.61 65.636 125.173 65.163 121.606C64.6426 117.691 63.9057 111.78 63.4083 107.411V107.406C63.0776 104.512 62.8551 102.294 62.8696 101.774C62.9402 99.1879 63.2478 97.1876 63.8716 96.0762C65.5643 93.0593 72.1088 88.8799 76.3077 87.1909C85.1455 83.6438 92.8063 84.4865 92.8063 84.4865C93.705 84.5144 98.7125 83.8335 100.963 86.595C105.034 91.5928 107.598 114.14 107.598 114.14L113.049 136.54Z" fill="#E54322"/>
<path d="M66.9116 118.414C64.7459 124.33 66.8216 132.042 66.9067 132.364L66.5663 131.73C66.1176 128.61 65.6348 125.173 65.1618 121.606C64.6413 117.691 63.9044 111.78 63.4071 107.41V107.406L71.8668 102.999C71.7866 103.287 69.0919 112.465 66.9116 118.414Z" fill="#B03319"/>
<path d="M82.6442 239.01C77.61 239.01 72.5526 237.18 68.7356 233.904L69.0445 233.545C73.3807 237.267 79.3562 239.078 85.0325 238.393L85.0896 238.863C84.2785 238.961 83.4614 239.01 82.6442 239.01ZM117.738 233.894C112.022 233.894 106.351 230.916 103.144 226.178L103.535 225.913C106.777 230.701 112.603 233.641 118.382 233.408L118.402 233.881C118.181 233.89 117.959 233.894 117.738 233.894Z" fill="white"/>
<path d="M92.5072 51.9706C92.5072 51.9706 93.7633 58.6501 89.7542 60.7331C85.745 62.8174 83.5453 59.0149 83.5453 59.0149L84.2372 53.4736L88.0737 52.4814" fill="black"/>
<path d="M75.3105 83.9818L79.1883 88.5856L86.6449 87.4717L90.879 87.355L88.0968 81.3395L87.7928 79.7453L86.9951 75.5282L72.7022 70.8004C72.887 71.333 73.0609 71.8644 73.2202 72.3885C75.1366 78.6241 75.3105 83.9818 75.3105 83.9818Z" fill="#FFCFC5"/>
<path d="M72.701 70.8004C72.8858 71.333 73.0597 71.8644 73.219 72.3885C73.3005 72.3812 73.3771 72.3702 73.4525 72.3569C73.6726 72.6487 73.8647 72.9989 74.0325 73.4014C77.1163 78.5682 83.4954 80.7777 87.7916 79.7465L86.9939 75.5294L72.701 70.8004Z" fill="#FC9B88"/>
<path d="M75.3093 83.9831C77.3242 86.6181 82.4679 87.0851 86.6437 87.4705C86.6437 87.4705 87.2456 94.5294 86.0879 94.8042C85.0215 95.0572 74.4763 94.0527 73.2458 88.7546C74.4849 87.2735 74.5347 85.8277 75.3093 83.9831ZM86.6449 87.4705C86.6449 87.4705 90.1518 92.0476 91.7679 92.0828C93.6077 92.1242 93.711 86.9683 92.8039 84.4877L88.0955 81.337C88.8689 83.0103 89.8855 84.4087 86.6449 87.4705Z" fill="#B03319"/>
<path d="M86.9379 78.28C82.6515 79.5957 75.9125 77.4166 72.7107 72.0589C72.5453 71.6589 72.3544 71.3062 72.1331 71.0156C71.0922 71.198 69.8312 70.849 68.7672 69.9978C67.0806 68.6468 66.5189 66.5237 67.5342 65.2737C68.1106 64.5538 69.0506 64.268 70.0866 64.4188C69.2123 58.1674 71.3926 52.6528 75.6766 51.2264C78.5366 50.2743 81.7286 51.3347 84.4463 53.7788C84.7734 54.0719 85.0969 54.3868 85.4082 54.7212C87.1957 56.6255 88.7084 59.1547 89.6776 62.0926C92.2543 69.7996 91.442 76.8938 86.9379 78.28Z" fill="#FFCFC5"/>
<path d="M64.2011 74.0726C65.3272 75.5708 67.1998 76.3843 69.0712 76.5472C71.0703 76.7126 72.9661 77.3996 74.632 76.2809L74.356 76.0134C73.9997 74.5189 73.1935 73.2008 72.7059 72.059C72.5466 71.6601 72.3544 71.3062 72.1319 71.0144C71.0922 71.198 69.83 70.8466 68.766 70.0003C67.0806 68.642 66.5213 66.5225 67.5318 65.2712C68.1082 64.5514 69.0506 64.2668 70.0805 64.42C70.0805 64.42 72.4712 64.9891 72.825 66.9396L74.4083 67.1208L74.3341 63.4558C74.3341 63.4558 76.3599 61.1672 74.7925 59.4661C74.7925 59.4661 94.1099 60.3501 92.5765 52.3172C91.0431 44.2843 83.3483 48.7616 83.3483 48.7616C83.3483 48.7616 83.8055 47.4459 83.994 45.8858C84.3819 42.7935 83.7277 38.743 76.4159 42.1259C68.0206 46.011 66.6757 53.622 66.5055 57.0073C65.2992 56.955 63.9482 57.6688 63.2818 58.6501C62.41 59.9476 62.7055 61.892 63.9275 62.8648C63.1578 62.2154 61.8993 62.4294 61.2086 63.159C60.5227 63.8874 60.3318 64.983 60.4765 65.9765C60.7392 67.7932 62.0683 69.4154 63.7914 70.0367C62.703 71.5592 63.0812 72.5733 64.2011 74.0726Z" fill="black"/>
<path d="M86.5306 64.0528L89.0282 68.6152L86.6838 69.5272L86.5306 64.0528Z" fill="#FC9B88"/>
<path d="M147.773 61.8385C148.863 62.5693 147.317 63.6539 146.439 64.6024C147.639 63.615 150.316 62.6082 150.74 63.1286C151.871 64.5137 148.579 66.3741 147.684 66.9943C148.57 66.4167 151.646 65.377 151.915 65.9376C152.412 66.9748 149.774 68.6918 148.658 69.5345C149.654 68.8232 152.013 68.9557 151.949 69.492C151.731 71.3257 143.759 76.8828 143.759 76.8828C142.217 78.8321 133.978 73.8781 135.52 71.9288C135.52 71.9288 138.335 62.5705 140.551 62.1376C142.769 61.7047 140.743 66.4459 140.743 66.4459C140.743 66.4459 146.341 60.8766 147.773 61.8385Z" fill="#FFCFC5"/>
<path d="M22.4109 83.1355C22.4109 83.1355 39.5905 114.997 48.2716 115.678C49.4681 115.773 50.9528 115.546 52.5932 115.105C55.8886 114.221 67.2083 112.225 70.0598 107.605C74.2015 100.894 71.8729 89.4113 71.8729 89.4113C70.0331 89.3541 50.9091 99.0943 50.9091 99.0943L34.3131 78.4539C36.1857 69.6537 15.7156 81.1595 22.4109 83.1355Z" fill="#E54322"/>
<path d="M18.8614 66.3219C17.7718 67.0527 19.3174 68.1373 20.1953 69.0858C18.9951 68.0984 16.3187 67.0916 15.8943 67.612C14.7635 68.9971 18.0552 70.8575 18.9501 71.4777C18.0649 70.9001 14.9884 69.8604 14.7197 70.421C14.2223 71.4582 16.8611 73.1752 17.9761 74.0179C16.9802 73.3066 14.6212 73.4391 14.6856 73.9754C14.9033 75.8091 22.8754 81.3662 22.8754 81.3662C24.4173 83.3155 32.6569 78.3615 31.115 76.4122C31.115 76.4122 28.3 67.0539 26.0832 66.621C23.8652 66.1881 25.8911 70.9293 25.8911 70.9293C25.8911 70.9293 20.2938 65.3612 18.8614 66.3219Z" fill="#FFCFC5"/>
<path d="M242.149 182.844C240.276 182.356 238.652 181.062 237.577 179.201C236.39 177.144 236.049 174.731 236.642 172.577C237.741 168.584 241.659 165.516 246.171 165.118C249.207 164.849 252.36 165.905 254.864 167.855C255.169 167.408 255.531 166.988 255.947 166.613C257.415 165.286 259.476 164.437 262.075 164.088C266.409 163.502 270.891 164.419 274.664 166.607C276.222 163.777 278.235 161.04 280.799 158.264L281.146 158.585C278.606 161.336 276.612 164.048 275.071 166.849C275.549 167.142 276.014 167.454 276.465 167.789C278.665 169.414 279.777 171.114 279.87 172.982C279.93 174.21 279.43 175.364 278.531 176.068C277.677 176.736 276.644 176.9 275.62 176.528C274.304 176.05 273.219 174.779 272.92 173.366C272.465 171.224 273.381 169.064 274.23 167.423C274.299 167.289 274.368 167.155 274.44 167.022C270.756 164.881 266.378 163.987 262.139 164.556C259.638 164.892 257.662 165.702 256.266 166.963C255.868 167.322 255.523 167.724 255.235 168.152C256.412 169.137 257.428 170.325 258.196 171.671C258.883 172.878 258.291 174.007 257.449 174.547C256.621 175.078 255.365 175.145 254.565 174.034C254.285 173.645 254.076 173.225 253.943 172.79C253.506 171.345 253.777 169.686 254.613 168.255C252.196 166.359 249.141 165.331 246.214 165.589C241.965 165.963 238.132 168.955 237.101 172.702C236.55 174.705 236.882 177.046 237.989 178.964C239 180.715 240.521 181.931 242.271 182.387L242.149 182.844ZM274.844 167.266C274.778 167.391 274.713 167.515 274.648 167.64C273.836 169.212 272.958 171.272 273.381 173.269C273.644 174.509 274.63 175.667 275.779 176.084C276.391 176.307 277.315 176.42 278.237 175.697C279.015 175.088 279.448 174.083 279.394 173.006C279.309 171.288 278.258 169.706 276.182 168.169C275.75 167.849 275.302 167.548 274.844 167.266ZM254.981 168.557C254.238 169.859 253.999 171.354 254.393 172.653C254.511 173.039 254.696 173.411 254.947 173.759C255.569 174.626 256.522 174.58 257.191 174.151C257.85 173.727 258.317 172.845 257.782 171.907C257.054 170.629 256.093 169.498 254.981 168.557ZM169.002 152.201C160.93 152.201 152.888 147.442 149.218 140.228C148.195 138.219 147.718 136.438 147.763 134.79C147.47 134.425 147.203 134.038 146.968 133.638C144.433 129.323 144.222 123.633 146.433 119.142C148.201 115.552 151.52 112.718 155.32 111.41C155.264 110.443 155.308 109.519 155.372 108.704C156.256 97.3566 163.406 86.7324 173.588 81.6398L173.799 82.063C163.764 87.0826 156.716 97.5548 155.843 108.742C155.783 109.502 155.742 110.362 155.785 111.258C156.59 111.01 157.415 110.83 158.248 110.725C160.147 110.487 161.745 110.694 163.001 111.341C164.61 112.169 165.611 113.779 165.49 115.35C165.417 116.295 164.927 117.181 164.11 117.847C163.17 118.613 161.921 118.984 160.773 118.837C158.813 118.588 156.967 117.041 156.07 114.897C155.659 113.916 155.45 112.892 155.356 111.899C151.722 113.184 148.553 115.908 146.858 119.353C144.715 123.705 144.919 129.218 147.376 133.401C147.512 133.634 147.66 133.861 147.817 134.082C148.061 132.166 149.086 130.518 150.574 129.7C152.649 128.559 155.513 129.311 156.705 131.309C157.291 132.291 157.429 133.541 157.084 134.738C156.75 135.899 155.997 136.851 155.018 137.35C152.77 138.498 150.11 137.346 148.24 135.343C148.303 136.762 148.764 138.298 149.637 140.015C153.6 147.802 162.765 152.664 171.438 151.578L171.497 152.047C170.669 152.15 169.835 152.201 169.002 152.201ZM148.244 134.631C149.99 136.731 152.626 138.037 154.805 136.926C155.667 136.486 156.334 135.64 156.632 134.605C156.941 133.534 156.82 132.42 156.3 131.549C155.232 129.759 152.663 129.087 150.802 130.113C149.345 130.913 148.345 132.684 148.244 134.631ZM155.818 111.742C155.902 112.729 156.102 113.747 156.506 114.713C157.339 116.703 159.038 118.137 160.834 118.367C161.857 118.499 162.971 118.165 163.812 117.479C164.528 116.895 164.958 116.126 165.02 115.312C165.124 113.95 164.205 112.49 162.786 111.759C161.616 111.158 160.111 110.966 158.309 111.192C157.463 111.299 156.631 111.485 155.818 111.742ZM201.423 185.673C198.144 178.487 198.815 169.57 203.132 162.956L203.528 163.215C199.296 169.696 198.64 178.435 201.854 185.478L201.423 185.673ZM191.913 147.824C189.853 138.668 184.92 130.119 178.02 123.755L178.341 123.407C185.311 129.836 190.294 138.471 192.375 147.72L191.913 147.824Z" fill="black"/>
</svg>
