<svg width="304" height="304" viewBox="0 0 304 304" fill="none" xmlns="http://www.w3.org/2000/svg">
<path d="M219.56 76.0101C203.575 67.236 198.971 95.9016 182.988 87.1274C180.353 78.461 177.718 69.7936 175.084 61.1272C191.069 69.9013 195.673 41.2357 211.656 50.0099C214.291 58.6763 216.925 67.3426 219.56 76.0101Z" fill="white"/>
<path d="M219.561 76.0085C203.574 67.2337 198.971 95.8991 182.989 87.1279C182.782 86.45 182.574 85.7688 182.371 85.0901C196.673 90.3421 201.563 64.6264 216.819 72.9987C214.392 65.0069 211.962 57.0201 209.531 49.0323C210.215 49.2824 210.925 49.6049 211.656 50.0075C214.291 58.6781 216.928 67.343 219.561 76.0085Z" fill="#E5E8FF"/>
<path d="M190.583 88.8751C188.295 89.2667 185.771 88.8886 182.889 87.3067L182.816 87.2664L174.741 60.7052L175.183 60.9473C183.042 65.2619 187.99 60.4808 193.228 55.4211C198.342 50.4794 203.63 45.3706 211.755 49.83L211.828 49.8703L219.903 76.4315L219.461 76.1894C211.6 71.8749 206.654 76.6548 201.416 81.7155C198.117 84.9043 194.743 88.1629 190.583 88.8751ZM183.159 86.9866C190.976 91.2306 195.909 86.465 201.131 81.4202C206.153 76.569 211.343 71.555 219.22 75.5964L211.484 50.149C203.668 45.905 198.734 50.6706 193.512 55.7154C188.491 60.5675 183.3 65.5806 175.423 61.5394L183.159 86.9866Z" fill="#242B2B"/>
<path d="M250.772 243.368H185.714V273.369H250.772V243.368Z" fill="white"/>
<path d="M120.655 251.243H55.5967V273.37H120.655V251.243Z" fill="white"/>
<path d="M120.656 251.243V273.37H55.5967V270.194H117.5V251.243H120.656Z" fill="#E5E8FF"/>
<path d="M185.714 234.224H120.655V273.369H185.714V234.224Z" fill="white"/>
<path d="M185.712 234.224V273.37H120.656V270.194H182.556V234.224H185.712Z" fill="#E5E8FF"/>
<path d="M250.772 243.368V273.37H185.712V270.194H247.615V243.368H250.772Z" fill="#E5E8FF"/>
<path d="M120.655 273.6H55.5968C55.4691 273.6 55.3669 273.497 55.3669 273.37V251.243C55.3669 251.115 55.4703 251.013 55.5968 251.013H120.655C120.783 251.013 120.885 251.116 120.885 251.243V273.37C120.885 273.497 120.782 273.6 120.655 273.6ZM55.8266 273.139H120.424V251.472H55.8266V273.139Z" fill="black"/>
<path d="M185.714 273.6H120.655C120.527 273.6 120.425 273.497 120.425 273.37V234.225C120.425 234.097 120.529 233.995 120.655 233.995H185.714C185.841 233.995 185.943 234.098 185.943 234.225V273.37C185.943 273.497 185.841 273.6 185.714 273.6ZM120.885 273.139H185.484V234.453H120.885V273.139Z" fill="black"/>
<path d="M139.906 68.0595C140.909 68.0595 141.722 67.2462 141.722 66.2428C141.722 65.2395 140.909 64.4261 139.906 64.4261C138.902 64.4261 138.089 65.2395 138.089 66.2428C138.089 67.2462 138.902 68.0595 139.906 68.0595Z" fill="#FFB902"/>
<path d="M219.56 76.0101C203.575 67.236 198.971 95.9016 182.988 87.1274C180.353 78.461 177.718 69.7936 175.084 61.1272C191.069 69.9013 195.673 41.2357 211.656 50.0099C214.291 58.6763 216.925 67.3426 219.56 76.0101Z" fill="white"/>
<path d="M219.561 76.0085C203.574 67.2337 198.971 95.8991 182.989 87.1279C182.782 86.45 182.574 85.7688 182.371 85.0901C196.673 90.3421 201.563 64.6264 216.819 72.9987C214.392 65.0069 211.962 57.0201 209.531 49.0323C210.215 49.2824 210.925 49.6049 211.656 50.0075C214.291 58.6781 216.928 67.343 219.561 76.0085Z" fill="#E5E8FF"/>
<path d="M190.583 88.8751C188.295 89.2667 185.771 88.8886 182.889 87.3067L182.816 87.2664L174.741 60.7052L175.183 60.9473C183.042 65.2619 187.99 60.4808 193.228 55.4211C198.342 50.4794 203.63 45.3706 211.755 49.83L211.828 49.8703L219.903 76.4315L219.461 76.1894C211.6 71.8749 206.654 76.6548 201.416 81.7155C198.117 84.9043 194.743 88.1629 190.583 88.8751ZM183.159 86.9866C190.976 91.2306 195.909 86.465 201.131 81.4202C206.153 76.569 211.343 71.555 219.22 75.5964L211.484 50.149C203.668 45.905 198.734 50.6706 193.512 55.7154C188.491 60.5675 183.3 65.5806 175.423 61.5394L183.159 86.9866Z" fill="#242B2B"/>
<path d="M174.591 58.2457L193.342 120.681C193.445 121.018 193.253 121.376 192.916 121.479C192.578 121.582 192.22 121.391 192.117 121.053L173.366 58.618C173.263 58.2806 173.455 57.9224 173.792 57.8196C174.13 57.7167 174.488 57.9082 174.591 58.2457Z" fill="black"/>
<path d="M192.872 121.7C192.459 121.771 192.046 121.524 191.922 121.113L173.171 58.6779C173.105 58.4627 173.128 58.2346 173.234 58.035C173.341 57.8353 173.518 57.6896 173.733 57.6241C173.95 57.5596 174.178 57.581 174.377 57.6876C174.577 57.7941 174.723 57.9714 174.788 58.1867L174.788 58.1877L193.54 120.623C193.675 121.068 193.422 121.541 192.977 121.677C192.941 121.685 192.906 121.694 192.872 121.7ZM173.905 58.0026C173.887 58.0057 173.87 58.0097 173.852 58.015C173.741 58.0482 173.649 58.1233 173.596 58.2259C173.541 58.3288 173.529 58.4462 173.563 58.5569L192.314 120.992C192.384 121.221 192.628 121.355 192.856 121.281C193.085 121.211 193.216 120.967 193.146 120.739L174.395 58.3035C174.329 58.0937 174.117 57.9662 173.905 58.0026Z" fill="black"/>
<path d="M188.279 94.2525C188.383 95.0086 187.062 95.5304 186.002 95.8285C185.851 95.8708 185.703 95.9092 185.567 95.9403C185.083 96.0561 184.732 96.1162 184.732 96.1162L185.264 98.0346L186.623 102.937L186.743 103.37C186.743 103.37 185.15 104.808 184.505 104.54C183.861 104.276 180.417 100.126 180.035 98.9429C180.035 98.9429 181.341 95.1236 182.388 94.308C183.573 93.3817 188.102 93.001 188.279 94.2525Z" fill="#FFCFC5"/>
<path d="M185.265 98.0354L186.624 102.937C185.913 103.138 185.279 103.101 185.273 102.337C184.973 102.479 183.695 101.82 184.721 101.182C184.721 101.182 183.59 101.289 183.929 100.127C183.929 100.127 182.339 100.246 182.602 99.4971C182.807 98.897 184.163 98.7232 185.265 98.0354Z" fill="#F58DA3"/>
<path d="M185.823 95.8867C185.823 95.8867 188.503 95.1663 188.921 95.9962C189.338 96.826 188.751 97.2223 188.751 97.2223C188.751 97.2223 189.611 97.5961 189.51 98.2752C189.408 98.9543 188.922 98.9837 188.922 98.9837C188.922 98.9837 189.75 99.2993 189.625 99.857C189.5 100.415 188.605 100.776 188.605 100.776C188.605 100.776 189.332 101.647 188.685 102.054C188.037 102.46 185.536 103.813 185.528 102.294C185.227 102.436 183.951 101.775 184.974 101.139C184.974 101.139 183.844 101.246 184.184 100.083C184.184 100.083 182.595 100.202 182.854 99.4531C183.113 98.7041 185.173 98.6219 186.279 97.3564L185.823 95.8867ZM186.002 95.8285C185.851 95.8709 185.703 95.9093 185.567 95.9404L185.566 95.9318C185.567 95.9327 185.737 95.886 186.002 95.8285Z" fill="#FFCFC5"/>
<path d="M184.975 101.139C186.105 100.619 187.282 100.177 188.159 99.2672C187.505 100.367 186.18 100.9 184.975 101.139ZM185.528 102.295C186.399 101.963 187.237 101.614 187.94 100.994C187.453 101.813 186.453 102.248 185.528 102.295ZM184.08 100.02C185.314 99.463 186.746 99.0089 187.488 97.8024C187 99.1688 185.388 99.7493 184.08 100.02Z" fill="#F58DA3"/>
<path d="M221.238 218.463C221.142 218.463 221.052 218.402 221.02 218.306C220.98 218.186 221.044 218.054 221.165 218.014C221.357 217.95 240.357 211.422 239.073 202.356C238.802 200.441 238.028 199.155 236.775 198.535C233.819 197.073 229.104 199.681 229.057 199.707C228.946 199.769 228.806 199.73 228.743 199.619C228.681 199.508 228.72 199.368 228.831 199.305C229.032 199.192 233.808 196.552 236.978 198.122C238.376 198.814 239.235 200.217 239.528 202.29C240.865 211.735 222.11 218.18 221.311 218.45C221.288 218.459 221.262 218.463 221.238 218.463ZM208.146 218.463C208.122 218.463 208.098 218.459 208.072 218.451C207.273 218.181 188.518 211.736 189.855 202.291C190.15 200.217 191.007 198.815 192.406 198.123C195.578 196.555 200.352 199.194 200.554 199.306C200.664 199.368 200.704 199.509 200.641 199.62C200.578 199.732 200.438 199.769 200.327 199.709C200.28 199.682 195.562 197.075 192.608 198.536C191.355 199.158 190.581 200.442 190.31 202.357C189.026 211.423 208.027 217.951 208.219 218.015C208.34 218.056 208.404 218.187 208.364 218.307C208.331 218.402 208.242 218.463 208.146 218.463Z" fill="black"/>
<path d="M222.15 235.57H207.592L207.721 235.253C210.767 227.742 210.649 219.495 210.207 213.15L210.19 212.903H219.552L219.535 213.15C219.093 219.495 218.976 227.742 222.022 235.253L222.15 235.57ZM208.273 235.11H221.468C218.554 227.695 218.633 219.636 219.058 213.364H210.682C211.109 219.636 211.188 227.695 208.273 235.11Z" fill="#242B2B"/>
<path d="M196.759 196.02C196.756 196.142 196.752 196.255 196.752 196.385C196.752 207.648 204.784 221.12 214.693 221.12C224.601 221.12 232.634 207.648 232.634 196.385C232.634 196.255 232.629 196.142 232.628 196.02H196.759Z" fill="white"/>
<path d="M232.633 196.385C232.633 207.648 224.6 221.119 214.692 221.119C211.297 221.119 208.12 219.538 205.416 217C207.765 218.778 210.4 219.842 213.183 219.842C222.825 219.842 230.695 207.085 231.103 196.02H232.628C232.628 196.142 232.633 196.254 232.633 196.385Z" fill="#E5E8FF"/>
<path d="M214.692 221.35C204.627 221.35 196.521 207.693 196.521 196.384C196.521 196.298 196.523 196.22 196.525 196.141L196.531 195.789H232.851L232.858 196.133C232.86 196.215 232.862 196.295 232.862 196.384C232.863 207.693 224.757 221.35 214.692 221.35ZM196.984 196.25C196.982 196.294 196.982 196.338 196.982 196.385C196.982 207.485 204.883 220.89 214.692 220.89C224.502 220.89 232.402 207.485 232.402 196.385C232.402 196.339 232.401 196.294 232.401 196.25H196.984Z" fill="#242B2B"/>
<path d="M235.999 193.107C235.973 193.9 235.644 194.615 235.12 195.139C234.574 195.685 233.821 196.02 232.989 196.02H196.546C194.835 196.02 193.329 194.618 193.385 192.907C193.411 192.115 193.74 191.4 194.264 190.875C194.81 190.33 195.563 189.994 196.395 189.994H232.838C234.548 189.994 236.054 191.395 235.999 193.107Z" fill="#FFD24F"/>
<path d="M235.998 193.107C235.973 193.896 235.643 194.612 235.12 195.14C234.572 195.687 233.819 196.018 232.99 196.018H196.547C195.147 196.018 193.89 195.085 193.511 193.807C194.067 194.261 194.782 194.538 195.541 194.538H231.985C232.813 194.538 233.567 194.207 234.114 193.66C234.637 193.132 234.966 192.416 234.992 191.627C235.002 191.311 234.958 191.01 234.869 190.724C235.574 191.296 236.028 192.15 235.998 193.107Z" fill="#FFB902"/>
<path d="M232.989 196.25H196.394C194.607 196.25 193.153 194.795 193.153 193.007C193.153 192.139 193.49 191.324 194.1 190.713C194.712 190.101 195.527 189.764 196.394 189.764H232.989C234.776 189.764 236.23 191.22 236.23 193.007C236.23 193.875 235.893 194.69 235.283 195.302C234.671 195.913 233.856 196.25 232.989 196.25ZM196.395 190.224C195.651 190.224 194.953 190.513 194.427 191.037C193.903 191.563 193.614 192.262 193.614 193.007C193.614 194.542 194.862 195.791 196.394 195.791H232.989C233.733 195.791 234.431 195.501 234.957 194.977C235.481 194.453 235.77 193.754 235.77 193.008C235.77 191.474 234.523 190.225 232.99 190.225H196.395V190.224Z" fill="#242B2B"/>
<path d="M224.593 237.347C224.593 237.899 224.368 238.407 224.003 238.765C223.644 239.129 223.137 239.354 222.585 239.354H207.155C206.046 239.354 205.149 238.456 205.149 237.347C205.149 236.795 205.374 236.288 205.739 235.93C206.097 235.566 206.604 235.34 207.157 235.34H222.586C223.695 235.34 224.593 236.238 224.593 237.347Z" fill="#FFD24F"/>
<path d="M224.594 237.35C224.594 237.902 224.369 238.404 224.004 238.768C223.645 239.131 223.138 239.357 222.586 239.357H207.157C206.461 239.357 205.854 239.007 205.494 238.473C205.747 238.589 206.028 238.653 206.327 238.653H221.757C222.309 238.653 222.816 238.428 223.175 238.064C223.538 237.7 223.765 237.198 223.765 236.646C223.765 236.231 223.641 235.844 223.419 235.527C224.115 235.835 224.594 236.535 224.594 237.35Z" fill="#FFB902"/>
<path d="M222.586 239.585H207.157C205.923 239.585 204.919 238.582 204.919 237.347C204.919 236.754 205.159 236.178 205.577 235.765C205.988 235.35 206.564 235.11 207.157 235.11H222.586C223.819 235.11 224.824 236.114 224.824 237.347C224.824 237.94 224.584 238.516 224.166 238.929C223.754 239.345 223.177 239.585 222.586 239.585ZM207.155 235.571C206.685 235.571 206.227 235.761 205.902 236.091C205.568 236.42 205.379 236.877 205.379 237.347C205.379 238.327 206.175 239.124 207.155 239.124H222.585C223.054 239.124 223.512 238.934 223.839 238.604C224.172 238.275 224.362 237.818 224.362 237.347C224.362 236.367 223.565 235.571 222.585 235.571H207.155Z" fill="#242B2B"/>
<path d="M227.034 241.361C227.034 241.913 226.809 242.421 226.445 242.779C226.086 243.143 225.579 243.368 225.027 243.368H204.714C203.605 243.368 202.707 242.47 202.707 241.361C202.707 240.809 202.932 240.302 203.297 239.944C203.656 239.58 204.163 239.354 204.715 239.354H225.029C226.137 239.354 227.034 240.252 227.034 241.361Z" fill="#FFD24F"/>
<path d="M227.033 241.364C227.033 241.916 226.807 242.418 226.443 242.782C226.085 243.14 225.578 243.367 225.026 243.367H204.711C204.016 243.367 203.399 243.013 203.045 242.478C203.298 242.597 203.584 242.661 203.883 242.661H224.198C224.75 242.661 225.257 242.436 225.615 242.076C225.979 241.713 226.205 241.211 226.205 240.659C226.205 240.244 226.081 239.857 225.86 239.54C226.554 239.849 227.033 240.549 227.033 241.364Z" fill="#FFB902"/>
<path d="M225.028 243.599H204.714C203.481 243.599 202.476 242.596 202.476 241.361C202.476 240.769 202.716 240.193 203.134 239.779C203.545 239.364 204.121 239.124 204.714 239.124H225.027C226.261 239.124 227.264 240.127 227.264 241.361C227.264 241.954 227.025 242.53 226.606 242.943C226.197 243.359 225.62 243.599 225.028 243.599ZM204.714 239.585C204.244 239.585 203.787 239.775 203.46 240.105C203.127 240.434 202.937 240.891 202.937 241.361C202.937 242.342 203.733 243.138 204.714 243.138H225.027C225.497 243.138 225.955 242.948 226.281 242.618C226.614 242.288 226.803 241.832 226.803 241.361C226.803 240.381 226.006 239.585 225.027 239.585H204.714Z" fill="#242B2B"/>
<path d="M214.692 201.208L216.572 205.019L220.777 205.629L217.735 208.595L218.453 212.783L214.692 210.806L210.931 212.783L211.65 208.595L208.607 205.629L212.812 205.019L214.692 201.208Z" fill="#FFD24F"/>
<path d="M235.792 101.88L228.623 97.9062C227.149 97.0891 227.228 94.9441 228.758 94.2376L235.056 91.3289C236.32 90.7452 237.786 91.5587 237.961 92.9389L238.832 99.8214C239.044 101.493 237.267 102.696 235.792 101.88Z" fill="#C5CDE3"/>
<path d="M227.264 154.122C226.605 154.039 225.945 153.957 225.286 153.874C227.691 152.322 223.568 149.95 225.974 148.398C226.633 148.481 227.294 148.564 227.953 148.646C225.546 150.198 229.67 152.57 227.264 154.122Z" fill="#FF4148"/>
<path d="M74.8156 136.613C74.2538 137.333 73.6908 138.051 73.129 138.771C72.994 134.841 67.2922 138.032 67.1572 134.102C67.719 133.382 68.282 132.663 68.8438 131.943C68.9788 135.873 74.6806 132.683 74.8156 136.613Z" fill="#FF4148"/>
<path d="M172.871 131.077C172.305 130.737 171.738 130.397 171.171 130.056C173.984 129.612 171.187 125.796 173.999 125.351C174.565 125.692 175.132 126.032 175.699 126.373C172.886 126.818 175.683 130.634 172.871 131.077Z" fill="#FFD24F"/>
<path d="M178.695 65.0791C178.054 65.2408 177.413 65.4038 176.772 65.5655C178.438 63.2563 173.759 62.5535 175.425 60.2443C176.066 60.0826 176.707 59.9196 177.348 59.7579C175.683 62.0671 180.362 62.7699 178.695 65.0791Z" fill="#FFD24F"/>
<path d="M148.475 230.628L139.416 225.732L136.97 223.572L127.101 225.058L127.109 232.797C127.027 233.2 127.332 233.572 127.735 233.572H148.863C149.217 233.572 149.506 233.284 149.506 232.929V232.162C149.506 231.486 149.102 230.885 148.475 230.628Z" fill="black"/>
<path d="M136.97 223.572L137.315 215.507L127.096 218.532L127.102 225.058C131.106 226.747 134.725 226.165 136.97 223.572Z" fill="#FFCFC5"/>
<path d="M139.938 228.814L139.65 228.66C140.375 227.305 141.7 227.169 141.756 227.165L141.785 227.491C141.737 227.495 140.578 227.62 139.938 228.814ZM141.915 229.916L141.626 229.762C142.352 228.407 143.677 228.271 143.733 228.267L143.762 228.593C143.713 228.597 142.555 228.722 141.915 229.916Z" fill="white"/>
<path d="M174.744 230.628L165.685 225.732L163.239 223.572L153.369 225.058L153.377 232.797C153.295 233.2 153.6 233.572 154.004 233.572H175.132C175.487 233.572 175.775 233.284 175.775 232.929V232.162C175.774 231.486 175.37 230.885 174.744 230.628Z" fill="black"/>
<path d="M163.239 223.572L163.585 215.507L153.365 218.532L153.371 225.058C157.375 226.747 160.994 226.165 163.239 223.572Z" fill="#FFCFC5"/>
<path d="M165.718 228.814L165.43 228.66C166.155 227.305 167.479 227.169 167.536 227.165L167.565 227.491C167.516 227.495 166.358 227.62 165.718 228.814ZM167.695 229.916L167.406 229.762C168.132 228.407 169.457 228.271 169.513 228.267L169.542 228.593C169.493 228.597 168.334 228.722 167.695 229.916Z" fill="white"/>
<path d="M158.892 140.842L129.305 144.196C128.695 146.454 128.216 148.911 128.059 151.395C127.613 158.442 123.909 199.861 124.191 220.087C129.96 220.199 135.356 218.696 141.455 220.087L147.049 164.917L149.782 219.591C154.749 221.103 159.342 218.975 166.15 217.928L158.892 140.842Z" fill="#242B2B"/>
<path d="M147.212 164.942L146.888 164.893C147.692 159.61 147.813 154.171 147.269 147.779L147.594 147.751C148.141 154.17 148.019 159.633 147.212 164.942Z" fill="white"/>
<path d="M147.316 164.762L146.991 164.726C147.467 160.556 148.59 156.507 150.329 152.688L150.627 152.824C148.902 156.61 147.788 160.627 147.316 164.762Z" fill="white"/>
<path d="M147.172 164.949L146.849 164.9C147.654 159.612 147.774 154.17 147.229 147.772L147.555 147.744C148.102 154.168 147.981 159.634 147.172 164.949Z" fill="white"/>
<path d="M147.276 164.769L146.951 164.732C147.428 160.56 148.551 156.506 150.292 152.686L150.59 152.821C148.863 156.61 147.748 160.63 147.276 164.769Z" fill="white"/>
<path d="M147.069 164.966L146.746 164.917C147.553 159.619 147.673 154.166 147.127 147.755L147.453 147.728C148.001 154.163 147.879 159.642 147.069 164.966Z" fill="white"/>
<path d="M147.174 164.785L146.849 164.749C147.326 160.568 148.453 156.507 150.197 152.678L150.495 152.813C148.764 156.611 147.647 160.638 147.174 164.785Z" fill="white"/>
<path d="M146.967 164.983L146.644 164.934C147.451 159.626 147.573 154.161 147.025 147.738L147.351 147.71C147.9 154.159 147.779 159.647 146.967 164.983Z" fill="white"/>
<path d="M147.071 164.802L146.746 164.765C147.224 160.576 148.352 156.507 150.1 152.671L150.398 152.806C148.664 156.611 147.546 160.647 147.071 164.802Z" fill="white"/>
<path d="M143.698 218.019C143.728 218.548 143.555 219.035 143.257 219.399C142.959 219.765 142.538 220.008 142.053 220.036L124.446 221.036C123.477 221.091 122.643 220.278 122.583 219.218C122.553 218.689 122.726 218.203 123.024 217.838C123.322 217.472 123.743 217.228 124.228 217.201L141.835 216.201C142.804 216.146 143.638 216.959 143.698 218.019ZM167.863 217.328C167.893 217.858 167.72 218.344 167.422 218.709C167.124 219.074 166.703 219.318 166.218 219.345L148.611 220.346C147.642 220.401 146.808 219.587 146.748 218.528C146.718 217.998 146.891 217.512 147.189 217.147C147.487 216.782 147.908 216.538 148.393 216.511L166 215.51C166.968 215.455 167.803 216.269 167.863 217.328Z" fill="#374141"/>
<path d="M141.616 213.222L132.931 216.707L141.546 216.217L141.616 213.222Z" fill="black"/>
<path d="M165.513 211.951L155.65 216.098L166 215.51L165.513 211.951Z" fill="black"/>
<path d="M149.583 113.312C149.583 113.312 153.746 116.255 158.446 118.931C158.577 119.006 158.707 119.078 158.838 119.153C160.31 119.977 161.825 120.769 163.27 121.426C163.672 121.61 164.068 121.783 164.458 121.943C166.423 122.748 168.196 123.245 169.475 123.157C173.867 122.849 181.765 109.731 183.901 106.451C184.169 106.032 184.532 105.698 184.908 105.371C186.962 103.579 179.139 96.8479 178.266 99.2416C178.033 99.8796 177.736 100.497 177.262 100.989L167.824 111.895C161.825 108.085 157.145 103.843 150.198 103.541L149.583 113.312Z" fill="#E54322"/>
<path d="M158.446 118.93C158.577 119.005 158.707 119.077 158.838 119.152C160.31 119.976 161.825 120.768 163.27 121.425C162.822 118.717 161.723 113.065 161.723 113.065C161.723 113.065 159.829 116.452 158.446 118.93Z" fill="black"/>
<path d="M158.881 140.057C158.829 141.232 161.216 142.135 160.193 144.218C157.073 150.586 130.363 147.544 127.459 144.729C126.442 143.169 126.75 141.831 128.529 140.738C128.542 140.709 128.719 140.398 128.719 140.398C128.781 140.293 129.101 137.062 129.454 133.095C129.5 132.614 129.543 132.123 129.588 131.626C129.592 131.573 129.594 131.521 129.601 131.468C129.631 131.089 129.663 130.703 129.696 130.32C130.108 125.512 130.49 120.449 130.503 118.749C130.546 113.009 130.798 107.203 132.6 105.62C138.298 100.606 149.392 102.738 149.392 102.738C149.392 102.738 159.587 104.766 161.615 108.91C162.819 111.376 159.212 132.587 158.881 140.057Z" fill="#E54322"/>
<path d="M144.461 133.006L129.454 133.094C129.5 132.613 129.543 132.122 129.588 131.625C129.588 131.621 129.588 131.621 129.592 131.619C129.624 131.583 129.627 131.53 129.601 131.468C129.631 131.089 129.663 130.703 129.696 130.32L144.461 133.006ZM136.908 113.358C136.908 113.358 135.103 122.582 129.829 128.736C130.002 126.249 130.476 122.264 130.502 118.75L136.908 113.358Z" fill="black"/>
<path d="M146.089 142.945C145.307 142.506 144.522 142.073 143.643 141.893C138.576 140.847 122.602 143.092 118.843 136.869C115.915 132.024 123.75 114.908 126.62 110.423C130.082 105.012 136.76 103.319 136.76 103.319C136.76 103.319 137.673 108.138 137.126 112.426C136.579 116.713 128.089 131.364 128.089 131.364L144.164 132.926C144.976 133.178 146.061 132.665 146.887 132.479C149.378 131.912 148.038 144.041 146.089 142.945Z" fill="#E54322"/>
<path d="M157.537 85.4947C157.537 85.4947 156.994 89.5078 154.336 89.9343C151.677 90.3608 151.146 87.7975 151.146 87.7975L152.577 84.793L154.933 84.9512" fill="black"/>
<path d="M141.806 100.374L143.135 103.706L147.561 104.475L149.978 105.203L149.532 101.279L149.659 100.32L149.999 97.7856L142.801 92.4302C142.806 92.7658 142.805 93.0996 142.796 93.4256C142.712 97.312 141.806 100.374 141.806 100.374Z" fill="#FFCFC5"/>
<path d="M142.802 92.4294C142.807 92.7649 142.805 93.0988 142.797 93.4248C142.844 93.4361 142.889 93.444 142.935 93.451C143.005 93.6572 143.047 93.8914 143.067 94.1501C143.842 97.6511 147.035 100.097 149.659 100.32L149.999 97.7856L142.802 92.4294Z" fill="#FC9B88"/>
<path d="M141.805 100.375C142.45 102.244 145.272 103.472 147.561 104.474C147.561 104.474 146.577 108.58 145.871 108.517C145.221 108.461 139.444 105.914 139.742 102.687C140.721 102.082 141.02 101.273 141.805 100.375ZM147.561 104.475C147.561 104.475 148.686 107.721 149.594 108.045C150.627 108.413 151.652 105.516 151.605 103.943L149.533 101.278C149.656 102.369 149.969 103.35 147.561 104.475Z" fill="#B03319"/>
<path d="M149.452 99.3308C146.781 99.2705 143.377 96.7746 142.572 93.1434C142.554 92.8856 142.512 92.6505 142.441 92.4443C141.818 92.3525 141.17 91.9182 140.728 91.2374C140.027 90.1572 140.108 88.8507 140.917 88.3342C141.377 88.0353 141.963 88.0502 142.52 88.3298C143.199 84.6305 145.466 81.9196 148.157 81.917C149.953 81.9152 151.56 83.1134 152.639 85.0063C152.769 85.2335 152.893 85.4721 153.006 85.7203C153.659 87.1326 154.041 88.8472 154.037 90.6903C154.049 95.5319 152.259 99.392 149.452 99.3308Z" fill="#FFCFC5"/>
<path d="M137.381 92.6854C137.737 93.7438 138.644 94.5556 139.671 94.9987C140.771 95.4671 141.715 96.2117 142.867 95.891L142.761 95.6882C142.839 94.7759 142.631 93.8792 142.569 93.1416C142.555 92.8864 142.512 92.6496 142.441 92.4434C141.819 92.3516 141.17 91.9164 140.728 91.2382C140.03 90.1537 140.111 88.8507 140.918 88.3315C141.379 88.0327 141.966 88.0484 142.52 88.3281C142.52 88.3281 143.765 89.0989 143.599 90.2682L144.461 90.6675L145.106 88.5806C145.106 88.5806 146.681 87.6665 146.114 86.4098C146.114 86.4098 156.874 90.5338 157.514 85.7028C158.154 80.8717 152.961 81.9606 152.961 81.9606C152.961 81.9606 153.467 81.3017 153.866 80.4549C154.665 78.7787 155.055 76.3649 150.284 76.9067C144.808 77.5298 142.618 81.5813 141.887 83.4638C141.214 83.2086 140.316 83.358 139.755 83.788C139.019 84.3578 138.821 85.514 139.33 86.2927C139.016 85.7806 138.264 85.6661 137.737 85.9492C137.212 86.2324 136.899 86.8162 136.795 87.4052C136.602 88.4819 137.05 89.6494 137.908 90.3232C137.004 90.983 137.028 91.628 137.381 92.6854Z" fill="black"/>
<path d="M151.89 91.2077L152.446 94.2568L150.949 94.3328L151.89 91.2077Z" fill="#FC9B88"/>
<path d="M156.287 137.179C156.287 137.179 156.704 137.123 157.3 137.07C156.748 137.179 156.287 137.179 156.287 137.179ZM149.999 135.177C149.999 135.177 150.051 135.171 150.15 135.159C150.054 135.171 149.999 135.177 149.999 135.177Z" fill="#FFCFC5"/>
<path d="M146.025 141.612C146.025 141.612 157.39 144.113 158.947 143.169C159.935 142.566 158.664 141.356 157.916 141.118C158.549 141.18 160.049 141.298 160.567 140.847C161.846 139.736 157.867 139.159 157.867 139.159C157.867 139.159 161.512 139.013 161.567 137.735C161.607 136.818 158.866 136.931 157.319 137.068C158.122 136.907 159.113 136.518 159.178 135.567C159.276 134.129 151.888 134.947 150.298 135.141C151.014 135.03 152.743 134.653 152.388 133.59C151.943 132.257 147.136 134.09 147.136 134.09C146.006 133.924 144.894 141.445 146.025 141.612Z" fill="#FFCFC5"/>
<path d="M149.999 135.177C149.999 135.177 150.055 135.171 150.15 135.159C150.051 135.171 149.999 135.177 149.999 135.177Z" fill="#014EB1"/>
</svg>
