<svg width="42" height="42" viewBox="0 0 42 42" fill="none" xmlns="http://www.w3.org/2000/svg">
<circle cx="21" cy="21" r="21" fill="#FCECE8"/>
<mask id="mask0_362_985" style="mask-type:luminance" maskUnits="userSpaceOnUse" x="12" y="12" width="18" height="18">
<path d="M12 12H30V30H12V12Z" fill="white"/>
</mask>
<g mask="url(#mask0_362_985)">
<path d="M21 18.5039V18.1679C21 17.8028 21.2173 17.4898 21.5323 17.3052C21.8448 17.1222 22.0547 16.7829 22.0547 16.3945" stroke="#E54322" stroke-width="1.05469" stroke-miterlimit="10" stroke-linecap="round" stroke-linejoin="round"/>
<path d="M22.0547 16.3945C22.0547 15.812 21.5825 15.3398 21 15.3398C20.4175 15.3398 19.9453 15.812 19.9453 16.3945" stroke="#E54322" stroke-width="1.05469" stroke-miterlimit="10" stroke-linecap="round" stroke-linejoin="round"/>
<path d="M21.5273 20.6133C21.5273 20.9045 21.2912 21.1406 21 21.1406C20.7088 21.1406 20.4727 20.9045 20.4727 20.6133C20.4727 20.322 20.7088 20.0859 21 20.0859C21.2912 20.0859 21.5273 20.322 21.5273 20.6133Z" fill="#E54322"/>
<path d="M23.8125 24.832H18.1875V26.3086C18.1875 26.8911 18.6597 27.3633 19.2422 27.3633H22.7578C23.3403 27.3633 23.8125 26.8911 23.8125 26.3086V24.832Z" stroke="#160603" stroke-width="1.05469" stroke-miterlimit="10" stroke-linecap="round" stroke-linejoin="round"/>
<path d="M15.7266 17.8008C15.7266 19.0482 16.161 20.1926 16.886 21.0943C17.7364 22.1519 18.1875 23.4749 18.1875 24.832H23.8125C23.8125 23.4749 24.2636 22.1519 25.114 21.0943C25.839 20.1926 26.2734 19.0482 26.2734 17.8008" stroke="#160603" stroke-width="1.05469" stroke-miterlimit="10" stroke-linecap="round" stroke-linejoin="round"/>
<path d="M26.2734 17.8008C26.2734 14.8883 23.9125 12.5273 21 12.5273C18.0876 12.5273 15.7266 14.8883 15.7266 17.8008" stroke="#160603" stroke-width="1.05469" stroke-miterlimit="10" stroke-linecap="round" stroke-linejoin="round"/>
<path d="M22.7578 27.3633H19.2422V28.418C19.2422 29.0005 19.7144 29.4727 20.2969 29.4727H21.7031C22.2856 29.4727 22.7578 29.0005 22.7578 28.418V27.3633Z" stroke="#160603" stroke-width="1.05469" stroke-miterlimit="10" stroke-linecap="round" stroke-linejoin="round"/>
<path d="M28.418 17.8008H29.4727" stroke="#E54322" stroke-width="1.05469" stroke-miterlimit="10" stroke-linecap="round" stroke-linejoin="round"/>
<path d="M13.582 17.8008H12.5273" stroke="#E54322" stroke-width="1.05469" stroke-miterlimit="10" stroke-linecap="round" stroke-linejoin="round"/>
<path d="M27.9727 15.2756L28.9637 14.9149" stroke="#E54322" stroke-width="1.05469" stroke-miterlimit="10" stroke-linecap="round" stroke-linejoin="round"/>
<path d="M14.0282 20.3258L13.0371 20.6865" stroke="#E54322" stroke-width="1.05469" stroke-miterlimit="10" stroke-linecap="round" stroke-linejoin="round"/>
<path d="M27.9727 20.3258L28.9637 20.6865" stroke="#E54322" stroke-width="1.05469" stroke-miterlimit="10" stroke-linecap="round" stroke-linejoin="round"/>
<path d="M14.0282 15.2756L13.0371 14.9149" stroke="#E54322" stroke-width="1.05469" stroke-miterlimit="10" stroke-linecap="round" stroke-linejoin="round"/>
</g>
</svg>
