<svg width="31" height="31" viewBox="0 0 31 31" fill="none" xmlns="http://www.w3.org/2000/svg">
<g clip-path="url(#clip0_59_6312)">
<path d="M20.2278 21.8986C21.4919 20.9988 22.5208 19.808 23.2275 18.4267C23.9342 17.0454 24.298 15.5142 24.2881 13.9626C24.2921 12.6441 24.0296 11.3384 23.5162 10.1239C23.0028 8.90937 22.2493 7.81119 21.3007 6.89529C20.4292 6.05415 19.3948 5.40028 18.2611 4.97391C17.1275 4.54754 15.9185 4.3577 14.7087 4.41607C10.0821 4.64248 6.26559 8.60764 6.01996 13.4433C5.91818 15.0842 6.23824 16.7239 6.94964 18.2061C7.66105 19.6883 8.7401 20.9637 10.084 21.9108C10.1669 21.9744 10.2336 22.0568 10.2785 22.1511C10.3235 22.2455 10.3455 22.3491 10.3428 22.4536V23.3676C10.2336 23.4546 10.1453 23.5649 10.0845 23.6905C10.0236 23.8161 9.99177 23.9537 9.99121 24.0933V25.0308C9.99146 25.2793 10.0903 25.5176 10.2661 25.6934C10.4418 25.8692 10.6801 25.968 10.9287 25.9683V26.437C10.9296 26.7269 11.0202 27.0094 11.188 27.2458C11.3559 27.4821 11.5928 27.6607 11.8662 27.757V27.9994C11.8507 28.4383 12.0097 28.8656 12.3084 29.1877C12.607 29.5098 13.0211 29.7006 13.46 29.7183H16.835C17.2739 29.7006 17.6879 29.5098 17.9866 29.1877C18.2852 28.8656 18.4442 28.4383 18.4287 27.9994V27.757C18.7021 27.6607 18.939 27.4821 19.1069 27.2458C19.2748 27.0094 19.3653 26.7269 19.3662 26.437V25.9683C19.6148 25.968 19.8531 25.8692 20.0288 25.6934C20.2046 25.5176 20.3035 25.2793 20.3037 25.0308V24.0933C20.3032 23.9536 20.2714 23.8159 20.2105 23.6902C20.1497 23.5645 20.0614 23.4541 19.9521 23.3672V22.484C19.9487 22.3716 19.9719 22.26 20.0198 22.1583C20.0677 22.0565 20.139 21.9676 20.2278 21.8986ZM6.95605 13.4911C7.17777 9.13029 10.6029 5.55561 14.7546 5.35311C15.8377 5.29946 16.9202 5.46891 17.9351 5.85095C18.95 6.233 19.8755 6.81949 20.6543 7.57404C21.5111 8.40227 22.1916 9.39513 22.6549 10.493C23.1182 11.5908 23.3549 12.771 23.3506 13.9626C23.3606 15.3636 23.0332 16.7463 22.396 17.994C21.7588 19.2417 20.8305 20.3176 19.6896 21.1308C19.4769 21.2857 19.3045 21.4895 19.187 21.725C19.0696 21.9606 19.0104 22.2209 19.0146 22.484V23.1558H11.2803V22.4536C11.2839 22.1979 11.2258 21.9451 11.1109 21.7167C10.996 21.4883 10.8277 21.291 10.6203 21.1415C9.40729 20.2851 8.43374 19.1324 7.79233 17.7933C7.15093 16.4541 6.86303 14.973 6.95605 13.4911ZM16.835 28.7808H13.46C13.27 28.7625 13.0947 28.6704 12.972 28.5243C12.8493 28.3781 12.7888 28.1896 12.8037 27.9994V27.8433H17.4912V27.9994C17.5061 28.1896 17.4457 28.3781 17.3229 28.5243C17.2002 28.6704 17.0249 28.7625 16.835 28.7808ZM18.4287 26.437C18.4286 26.5613 18.3792 26.6805 18.2913 26.7683C18.2034 26.8562 18.0842 26.9056 17.96 26.9058H12.335C12.2107 26.9056 12.0915 26.8562 12.0036 26.7683C11.9158 26.6805 11.8663 26.5613 11.8662 26.437V25.9683H18.4287V26.437ZM10.9287 25.0308V24.0933H19.3662L19.3667 25.0308H10.9287ZM14.6787 0.655762H15.6162V2.99951H14.6787V0.655762ZM25.46 12.8433H27.8037V13.7808H25.46V12.8433ZM2.49121 12.8433H4.83496V13.7808H2.49121V12.8433ZM5.86621 4.69498L6.52855 4.03217L8.18559 5.68967L7.52277 6.35201L5.86621 4.69498ZM22.1042 5.68873L23.7612 4.0317L24.424 4.69451L22.767 6.35154L22.1042 5.68873Z" fill="#160603"/>
<path d="M14.5639 18.8982C14.638 18.8131 14.6788 18.704 14.6787 18.5912V8.97054C14.6788 8.85768 14.638 8.74863 14.5639 8.6635C14.2839 8.35067 13.94 8.10161 13.5555 7.93315C13.171 7.7647 12.7547 7.68079 12.335 7.6871C10.7839 7.6871 9.52246 8.7985 9.52246 10.1649C9.52259 10.2518 9.52869 10.3386 9.54074 10.4246C9.12438 10.612 8.76961 10.9135 8.51751 11.2942C8.2654 11.6749 8.12627 12.1192 8.11621 12.5757C8.11789 13.0872 8.29306 13.5829 8.61309 13.9819C8.29306 14.3809 8.11789 14.8767 8.11621 15.3882C8.12741 15.8423 8.26549 16.2843 8.51485 16.664C8.7642 17.0438 9.11486 17.3462 9.52715 17.5369C9.60918 18.8382 10.8373 19.8746 12.335 19.8746C12.7547 19.8809 13.171 19.797 13.5555 19.6285C13.94 19.4601 14.2839 19.211 14.5639 18.8982ZM10.4782 17.4919L11.0665 17.1137H11.8662V16.1762H10.9287C10.8387 16.1764 10.7507 16.2024 10.6751 16.2512L9.9673 16.7058C9.70685 16.594 9.48309 16.4112 9.32154 16.1783C9.16 15.9454 9.06719 15.6718 9.05371 15.3887C9.05806 15.1865 9.1061 14.9877 9.19454 14.8059C9.28298 14.6241 9.40972 14.4636 9.56605 14.3354C9.57684 14.326 9.58105 14.3119 9.5909 14.3016H10.9287V13.3641H9.32559C9.15274 13.1375 9.05742 12.8612 9.05371 12.5762C9.06767 12.2841 9.166 12.0024 9.33681 11.7651C9.50761 11.5279 9.74355 11.3452 10.0161 11.2393L10.5973 11.8205C10.6852 11.9084 10.8044 11.9579 10.9287 11.9579H11.8662V11.0204H11.1228L10.4876 10.3852C10.4708 10.3131 10.4615 10.2394 10.46 10.1654C10.46 9.316 11.3009 8.6246 12.335 8.6246C12.8547 8.61586 13.358 8.80678 13.7412 9.15804V18.4037C13.358 18.7549 12.8547 18.9458 12.335 18.9371C11.9014 18.9697 11.4712 18.8398 11.128 18.5728C10.7848 18.3058 10.5532 17.9202 10.4782 17.4919ZM16.0357 19.8451C16.2221 19.8647 16.4094 19.8746 16.5968 19.8746L16.6704 19.8741C17.1677 19.8651 17.6615 19.7885 18.1381 19.6463C18.2354 19.6178 18.3208 19.5586 18.3816 19.4775C18.4423 19.3963 18.4751 19.2977 18.4751 19.1963V18.518C18.4721 18.4702 18.4817 18.4225 18.5028 18.3795C18.5239 18.3365 18.5559 18.2997 18.5956 18.2729C18.8412 18.1512 19.0754 18.0078 19.2954 17.8444C19.3265 17.8244 19.3629 17.8141 19.3999 17.8149C19.4369 17.8156 19.4728 17.8274 19.5031 17.8487L20.0553 18.1876C20.1466 18.2434 20.2543 18.2665 20.3605 18.2528C20.4667 18.2392 20.5651 18.1897 20.6393 18.1126C21.3861 17.3255 21.9125 16.3556 22.1656 15.3005C22.189 15.2041 22.1813 15.1028 22.1435 15.011C22.1057 14.9193 22.0397 14.8419 21.9551 14.7901L21.2604 14.3635C21.3062 13.9764 21.3062 13.5853 21.2604 13.1982L21.9551 12.7712C22.0396 12.7193 22.1054 12.642 22.1432 12.5504C22.1809 12.4587 22.1886 12.3575 22.1651 12.2612C21.9131 11.2061 21.3879 10.236 20.6421 9.44819C20.5682 9.37059 20.4698 9.32076 20.3635 9.30702C20.2572 9.29328 20.1494 9.31648 20.0581 9.37272L19.5031 9.71304C19.4729 9.73415 19.4371 9.74587 19.4002 9.7467C19.3633 9.74753 19.327 9.73745 19.2959 9.71772C19.0759 9.55416 18.8417 9.41062 18.5961 9.28882C18.5562 9.26199 18.5241 9.22521 18.5029 9.18211C18.4817 9.13902 18.4721 9.09113 18.4751 9.04319V8.3621C18.4751 8.26088 18.4423 8.16238 18.3816 8.08136C18.3209 8.00033 18.2357 7.94111 18.1386 7.91257C17.6143 7.75682 17.0696 7.68096 16.5228 7.68757C16.3587 7.68944 16.1956 7.69975 16.0353 7.7171C15.9202 7.72937 15.8137 7.78381 15.7363 7.86992C15.6589 7.95604 15.6161 8.06774 15.6162 8.1835V11.7474C15.6162 11.8206 15.6333 11.8928 15.6663 11.9581C15.6992 12.0235 15.7469 12.0803 15.8057 12.1239C15.8645 12.1675 15.9326 12.1967 16.0047 12.2092C16.0768 12.2218 16.1509 12.2172 16.2209 12.196C16.3425 12.159 16.4688 12.1402 16.5959 12.1402C17.0049 12.1676 17.3866 12.3553 17.658 12.6625C17.9294 12.9697 18.0685 13.3716 18.0453 13.7808C18.0685 14.19 17.9294 14.5919 17.6581 14.8991C17.3868 15.2062 17.0053 15.394 16.5964 15.4215C16.4693 15.4213 16.3429 15.4024 16.2214 15.3652C16.1513 15.3439 16.0771 15.3393 16.0049 15.3518C15.9327 15.3643 15.8645 15.3936 15.8056 15.4373C15.7468 15.4809 15.699 15.5378 15.6661 15.6033C15.6332 15.6687 15.6161 15.741 15.6162 15.8143V19.3787C15.6161 19.4945 15.659 19.6063 15.7365 19.6924C15.8139 19.7785 15.9205 19.8329 16.0357 19.8451ZM16.5537 16.3585L16.5959 16.359C17.2537 16.3319 17.874 16.0455 18.3213 15.5624C18.7686 15.0793 19.0064 14.4388 18.9828 13.7808C19.0064 13.123 18.7686 12.4825 18.3215 11.9995C17.8743 11.5164 17.2541 11.2299 16.5964 11.2027L16.5537 11.2032V8.6246C16.8843 8.62383 17.2141 8.65792 17.5376 8.72632V9.04319C17.534 9.26567 17.5921 9.48481 17.7053 9.67633C17.8186 9.86786 17.9827 10.0243 18.1793 10.1283C18.3751 10.2255 18.5618 10.34 18.7371 10.4705C18.9182 10.6027 19.1349 10.6773 19.3589 10.6846C19.583 10.692 19.804 10.6318 19.9934 10.5118L20.2137 10.3768C20.6426 10.9031 20.9655 11.5075 21.1643 12.1566L20.5071 12.5607C20.4272 12.6097 20.3638 12.6817 20.3252 12.7672C20.2865 12.8527 20.2745 12.9478 20.2906 13.0402C20.3797 13.53 20.3797 14.0317 20.2906 14.5215C20.2746 14.614 20.2867 14.7091 20.3253 14.7947C20.3639 14.8802 20.4272 14.9523 20.5071 15.0015L21.1643 15.4046C20.9647 16.0536 20.6409 16.6576 20.2109 17.183L19.9934 17.0494C19.8039 16.9297 19.5828 16.8697 19.3588 16.8773C19.1348 16.8848 18.9182 16.9595 18.7371 17.0916C18.5617 17.2219 18.3751 17.3363 18.1793 17.4333C17.9826 17.5373 17.8185 17.6936 17.7052 17.8851C17.5918 18.0765 17.5337 18.2956 17.5371 18.518V18.833C17.2481 18.897 16.9533 18.9317 16.6573 18.9366L16.5537 18.9371V16.3585Z" fill="#E54322"/>
<path d="M12.335 11.0198H13.2725V11.9573H12.335V11.0198ZM12.335 16.176H13.2725V17.1135H12.335V16.176ZM11.3975 13.3635H12.335V14.301H11.3975V13.3635Z" fill="#E54322"/>
</g>
<defs>
<clipPath id="clip0_59_6312">
<rect width="30" height="30" fill="white" transform="translate(0.147461 0.187012)"/>
</clipPath>
</defs>
</svg>
