<svg width="35" height="35" viewBox="0 0 35 35" fill="none" xmlns="http://www.w3.org/2000/svg">
<rect width="35" height="35" rx="8" fill="#EC7B64"/>
<path d="M15.8804 17.4239L14.8258 12.1505C14.8018 12.0309 14.7373 11.9234 14.643 11.8461C14.5487 11.7688 14.4306 11.7266 14.3087 11.7266H13.254C13.1321 11.7266 13.0139 11.7688 12.9197 11.8461C12.8254 11.9234 12.7608 12.0309 12.7369 12.1505L11.6822 17.4239C11.6251 17.7095 11.8103 17.9873 12.0959 18.0444C12.3815 18.1016 12.6593 17.9163 12.7164 17.6307L13.0535 15.9453H14.5092L14.8462 17.6308C14.9034 17.9165 15.1813 18.1016 15.4668 18.0445C15.7523 17.9873 15.9376 17.7095 15.8804 17.4239ZM13.2644 14.8906L13.6863 12.7812H13.8764L14.2982 14.8906H13.2644ZM24.3282 15.9453H22.7462V15.418C22.7462 15.1267 22.5101 14.8906 22.2188 14.8906C21.9276 14.8906 21.6915 15.1267 21.6915 15.418V15.9453H20.1095C19.8182 15.9453 19.5821 16.1814 19.5821 16.4727C19.5821 16.7639 19.8182 17 20.1095 17H20.2371C20.5376 17.9707 20.9899 18.7158 21.4878 19.3129C21.0826 19.6835 20.6726 19.9875 20.3074 20.2796C20.08 20.4616 20.0431 20.7934 20.225 21.0208C20.4071 21.2484 20.739 21.285 20.9662 21.1032C21.3335 20.8094 21.7737 20.4829 22.2188 20.0743C22.6643 20.4831 23.1053 20.8102 23.4714 21.1032C23.6988 21.2851 24.0307 21.2482 24.2126 21.0208C24.3945 20.7934 24.3577 20.4615 24.1303 20.2796C23.766 19.9881 23.3555 19.6839 22.9499 19.3129C23.4477 18.7158 23.9001 17.9707 24.2006 17H24.3282C24.6194 17 24.8555 16.7639 24.8555 16.4727C24.8555 16.1814 24.6194 15.9453 24.3282 15.9453ZM22.2188 18.5379C21.8822 18.1153 21.5794 17.6109 21.3511 16.9965H23.0866C22.8583 17.6109 22.5555 18.1153 22.2188 18.5379Z" fill="white"/>
<path d="M25.418 11.1992H17.8101L17.5841 9.38579C17.4853 8.59576 16.8105 8 16.0143 8H10.582C9.7097 8 9 8.7097 9 9.58203V21.2188C9 22.0911 9.7097 22.8008 10.582 22.8008H15.0287L15.2519 24.6142C15.3504 25.4027 16.0253 26 16.8217 26H25.418C26.2903 26 27 25.2903 27 24.418V12.7812C27 11.9089 26.2903 11.1992 25.418 11.1992ZM10.582 21.7461C10.2913 21.7461 10.0547 21.5095 10.0547 21.2188V9.58203C10.0547 9.29125 10.2913 9.05469 10.582 9.05469H16.0143C16.2797 9.05469 16.5046 9.25325 16.5375 9.51643L18.062 21.7461H10.582ZM16.2676 24.2334L16.0913 22.8008H17.5062L16.2676 24.2334ZM25.9453 24.418C25.9453 24.7087 25.7087 24.9453 25.418 24.9453H17.0464L19.0539 22.6231C19.1045 22.5661 19.1421 22.4988 19.1642 22.4258C19.1862 22.3528 19.1921 22.2759 19.1815 22.2004L17.9416 12.2539H25.418C25.7087 12.2539 25.9453 12.4905 25.9453 12.7812V24.418Z" fill="white"/>
</svg>
