<svg width="24" height="24" viewBox="0 0 24 24" fill="none" xmlns="http://www.w3.org/2000/svg">
<path d="M10.1159 12.3768L9.17845 7.68931C9.1572 7.58306 9.09979 7.48744 9.01599 7.41874C8.93219 7.35004 8.82718 7.3125 8.71882 7.3125H7.78132C7.67296 7.3125 7.56795 7.35004 7.48415 7.41874C7.40035 7.48744 7.34294 7.58306 7.3217 7.68931L6.3842 12.3768C6.33341 12.6307 6.49807 12.8776 6.75191 12.9284C7.00576 12.9792 7.25273 12.8145 7.30348 12.5607L7.6031 11.0625H8.89704L9.19666 12.5607C9.24745 12.8147 9.49451 12.9792 9.74823 12.9284C10.0021 12.8776 10.1667 12.6307 10.1159 12.3768ZM7.7906 10.125L8.1656 8.25H8.33454L8.70954 10.125H7.7906ZM17.6251 11.0625H16.2188V10.5938C16.2188 10.3349 16.0089 10.125 15.7501 10.125C15.4912 10.125 15.2813 10.3349 15.2813 10.5938V11.0625H13.8751C13.6162 11.0625 13.4063 11.2724 13.4063 11.5312C13.4063 11.7901 13.6162 12 13.8751 12H13.9885C14.2556 12.8629 14.6577 13.5252 15.1002 14.0559C14.7401 14.3854 14.3756 14.6555 14.051 14.9152C13.8489 15.0769 13.8161 15.3719 13.9778 15.5741C14.1396 15.7763 14.4346 15.8089 14.6367 15.6473C14.9631 15.3861 15.3544 15.0959 15.7501 14.7327C16.146 15.0961 16.538 15.3869 16.8635 15.6473C17.0656 15.809 17.3606 15.7762 17.5223 15.5741C17.684 15.3719 17.6513 15.0769 17.4491 14.9152C17.1254 14.6561 16.7604 14.3857 16.3999 14.0559C16.8424 13.5252 17.2445 12.8629 17.5116 12H17.6251C17.8839 12 18.0938 11.7901 18.0938 11.5312C18.0938 11.2724 17.8839 11.0625 17.6251 11.0625ZM15.7501 13.367C15.4509 12.9914 15.1817 12.5431 14.9787 11.9969H16.5214C16.3185 12.5431 16.0493 12.9914 15.7501 13.367Z" fill="#160603"/>
<path d="M18.5938 6.84375H11.8312L11.6303 5.23181C11.5425 4.52956 10.9426 4 10.2349 4H5.40625C4.63084 4 4 4.63084 4 5.40625V15.75C4 16.5254 4.63084 17.1562 5.40625 17.1562H9.35884L9.55722 18.7682C9.64484 19.469 10.2447 20 10.9526 20H18.5938C19.3692 20 20 19.3692 20 18.5938V8.25C20 7.47459 19.3692 6.84375 18.5938 6.84375ZM5.40625 16.2188C5.14778 16.2188 4.9375 16.0085 4.9375 15.75V5.40625C4.9375 5.14778 5.14778 4.9375 5.40625 4.9375H10.2349C10.4708 4.9375 10.6708 5.114 10.7 5.34794L12.0551 16.2188H5.40625ZM10.4601 18.4297L10.3034 17.1562H11.561L10.4601 18.4297ZM19.0625 18.5938C19.0625 18.8522 18.8522 19.0625 18.5938 19.0625H11.1523L12.9368 16.9983C12.9818 16.9477 13.0152 16.8878 13.0348 16.8229C13.0544 16.7581 13.0596 16.6897 13.0502 16.6226L11.9481 7.78125H18.5938C18.8522 7.78125 19.0625 7.99153 19.0625 8.25V18.5938Z" fill="#160603"/>
</svg>
