<svg width="7" height="8" viewBox="0 0 7 8" fill="none" xmlns="http://www.w3.org/2000/svg">
<path d="M3.49997 1.78451C3.36313 1.78451 3.2522 1.67359 3.2522 1.53673V0.538303C3.2522 0.401447 3.36313 0.290527 3.49997 0.290527C3.63681 0.290527 3.74775 0.401447 3.74775 0.538303V1.53675C3.74775 1.67359 3.63681 1.78451 3.49997 1.78451Z" fill="black"/>
<path opacity="0.52" d="M3.49997 7.29063C3.36313 7.29063 3.2522 7.17971 3.2522 7.04285V6.04441C3.2522 5.90755 3.36313 5.79663 3.49997 5.79663C3.63681 5.79663 3.74775 5.90755 3.74775 6.04441V7.04285C3.74775 7.17971 3.63681 7.29063 3.49997 7.29063Z" fill="black"/>
<path opacity="0.58" d="M4.72911 7.04946C4.63141 7.04946 4.53882 6.99129 4.49963 6.89528L4.12232 5.97089C4.0706 5.84419 4.1314 5.69956 4.25808 5.64786C4.38469 5.59609 4.52939 5.65691 4.58111 5.7836L4.95841 6.70799C5.01013 6.83469 4.94934 6.97933 4.82265 7.03102C4.79297 7.04319 4.76119 7.04946 4.72911 7.04946Z" fill="black"/>
<path opacity="0.94" d="M4.35163 1.95163C4.32044 1.95163 4.28874 1.94573 4.25809 1.93319C4.13139 1.88151 4.0706 1.73686 4.12233 1.61016L4.49963 0.685767C4.55133 0.55907 4.69596 0.498107 4.82265 0.550019C4.94935 0.601699 5.01014 0.746347 4.95841 0.873045L4.58111 1.79744C4.54191 1.89347 4.44933 1.95163 4.35163 1.95163Z" fill="black"/>
<path opacity="0.46" d="M2.27082 7.04947C2.23963 7.04947 2.20793 7.04356 2.17728 7.03103C2.05058 6.97935 1.98979 6.8347 2.04151 6.708L2.41882 5.7836C2.47054 5.65691 2.61515 5.59608 2.74184 5.64787C2.86854 5.69955 2.92932 5.8442 2.8776 5.9709L2.5003 6.89529C2.4611 6.99131 2.36852 7.04947 2.27082 7.04947Z" fill="black"/>
<path opacity="0.36" d="M0.489015 5.26732C0.391315 5.26732 0.29873 5.2092 0.259532 5.11314C0.207812 4.98645 0.268597 4.84181 0.39528 4.79012L1.31966 4.4128C1.44635 4.36093 1.59098 4.4218 1.6427 4.54854C1.69442 4.67523 1.63364 4.81987 1.50695 4.87156L0.582571 5.24888C0.552882 5.26105 0.521103 5.26732 0.489015 5.26732Z" fill="black"/>
<path opacity="0.82" d="M5.58667 3.18674C5.48897 3.18674 5.39639 3.12862 5.35719 3.03256C5.30547 2.90586 5.36625 2.76123 5.49294 2.70954L6.41732 2.33222C6.54396 2.28039 6.68865 2.34121 6.74036 2.46797C6.79208 2.59466 6.73129 2.7393 6.60461 2.79099L5.68023 3.16831C5.65054 3.18047 5.61876 3.18673 5.58667 3.18674Z" fill="black"/>
<path opacity="0.24" d="M1.41322 3.1867C1.38204 3.1867 1.35033 3.18079 1.31966 3.16826L0.395282 2.79094C0.268585 2.73926 0.207813 2.59461 0.259534 2.46791C0.311241 2.34122 0.455835 2.28045 0.582573 2.33217L1.50696 2.70948C1.63365 2.76116 1.69442 2.90581 1.6427 3.03251C1.60351 3.12853 1.51091 3.1867 1.41322 3.1867Z" fill="black"/>
<path opacity="0.7" d="M6.51088 5.26747C6.47969 5.26747 6.44799 5.26157 6.41732 5.24903L5.49294 4.87171C5.36624 4.82003 5.30547 4.67539 5.35719 4.54869C5.40891 4.42209 5.5535 4.36126 5.68023 4.41295L6.60461 4.79027C6.73131 4.84195 6.79208 4.9866 6.74036 5.1133C6.70116 5.2093 6.60856 5.26747 6.51088 5.26747Z" fill="black"/>
<path opacity="0.88" d="M5.09359 2.44471C5.03018 2.44471 4.96678 2.42051 4.9184 2.37212C4.82164 2.27538 4.82163 2.1185 4.91839 2.02175L5.62437 1.31575C5.72113 1.21897 5.87801 1.21897 5.97477 1.31575C6.07153 1.41249 6.07154 1.56938 5.97478 1.66612L5.2688 2.37212C5.24581 2.39517 5.21851 2.41344 5.18844 2.4259C5.15837 2.43836 5.12614 2.44475 5.09359 2.44471Z" fill="black"/>
<path opacity="0.4" d="M1.20034 6.33802C1.13693 6.33802 1.07353 6.31382 1.02515 6.26543C0.928394 6.16869 0.92838 6.01181 1.02514 5.91506L1.73112 5.20906C1.82788 5.11228 1.98476 5.11228 2.08152 5.20906C2.17828 5.3058 2.17829 5.46269 2.08153 5.55943L1.37555 6.26543C1.35256 6.28848 1.32525 6.30675 1.29519 6.31921C1.26512 6.33166 1.23289 6.33806 1.20034 6.33802Z" fill="black"/>
<path opacity="0.18" d="M1.90633 2.44468C1.84291 2.44468 1.77953 2.42048 1.73113 2.37209L1.02514 1.66609C0.928385 1.56935 0.928385 1.41246 1.02515 1.31572C1.1219 1.21898 1.27878 1.21898 1.37555 1.31572L2.08154 2.02172C2.1783 2.11846 2.1783 2.27535 2.08153 2.37209C2.05855 2.39514 2.03124 2.41341 2.00117 2.42587C1.97111 2.43832 1.93888 2.44472 1.90633 2.44468Z" fill="black"/>
<path opacity="0.64" d="M5.79958 6.33799C5.73615 6.33799 5.67277 6.31379 5.62437 6.2654L4.91839 5.5594C4.82163 5.46266 4.82164 5.30577 4.9184 5.20903C5.01515 5.11229 5.17204 5.11229 5.2688 5.20903L5.97478 5.91503C6.07154 6.01178 6.07154 6.16866 5.97477 6.2654C5.95179 6.28845 5.92449 6.30673 5.89442 6.31918C5.86435 6.33164 5.83212 6.33803 5.79958 6.33799Z" fill="black"/>
<path opacity="0.3" d="M1.24618 4.03828H0.247775C0.110934 4.03828 0 3.92736 0 3.7905C0 3.65364 0.110934 3.54272 0.247775 3.54272H1.24618C1.38302 3.54272 1.49395 3.65364 1.49395 3.7905C1.49395 3.92736 1.38302 4.03828 1.24618 4.03828Z" fill="black"/>
<path opacity="0.76" d="M6.75219 4.03828H5.75376C5.61691 4.03828 5.50598 3.92736 5.50598 3.7905C5.50598 3.65364 5.61691 3.54272 5.75376 3.54272H6.75219C6.88903 3.54272 6.99996 3.65364 6.99996 3.7905C6.99996 3.92736 6.88904 4.03828 6.75219 4.03828Z" fill="black"/>
</svg>
