<svg width="12" height="16" viewBox="0 0 12 16" fill="none" xmlns="http://www.w3.org/2000/svg">
<path d="M5.64706 0.290527C3.29412 0.290527 1.41176 2.17288 1.41176 4.52582V6.40817C0.611765 6.40817 0 7.01994 0 7.81994V13.9376C0 14.7376 0.611765 15.3494 1.41176 15.3494H9.88235C10.6824 15.3494 11.2941 14.7376 11.2941 13.9376V7.81994C11.2941 7.01994 10.6824 6.40817 9.88235 6.40817V4.52582C9.88235 2.17288 8 0.290527 5.64706 0.290527ZM10.3529 7.81994V13.9376C10.3529 14.2199 10.1647 14.4082 9.88235 14.4082H1.41176C1.12941 14.4082 0.941176 14.2199 0.941176 13.9376V7.81994C0.941176 7.53759 1.12941 7.34935 1.41176 7.34935H9.88235C10.1647 7.34935 10.3529 7.53759 10.3529 7.81994ZM2.35294 6.40817V4.52582C2.35294 2.69053 3.81176 1.2317 5.64706 1.2317C7.48235 1.2317 8.94118 2.69053 8.94118 4.52582V6.40817H2.35294Z" fill="#736968"/>
<path d="M5.64706 8.76123C4.84706 8.76123 4.23529 9.373 4.23529 10.173C4.23529 10.7848 4.61176 11.3024 5.17647 11.4906V12.5259C5.17647 12.8083 5.3647 12.9965 5.64706 12.9965C5.92941 12.9965 6.11764 12.8083 6.11764 12.5259V11.4906C6.68235 11.3024 7.05882 10.7848 7.05882 10.173C7.05882 9.373 6.44706 8.76123 5.64706 8.76123ZM5.64706 10.6436C5.3647 10.6436 5.17647 10.4553 5.17647 10.173C5.17647 9.89064 5.3647 9.70241 5.64706 9.70241C5.92941 9.70241 6.11764 9.89064 6.11764 10.173C6.11764 10.4553 5.92941 10.6436 5.64706 10.6436Z" fill="#736968"/>
</svg>
