<svg width="12" height="16" viewBox="0 0 12 16" fill="none" xmlns="http://www.w3.org/2000/svg">
<path d="M5.64706 0.290527C3.29412 0.290527 1.41176 2.17288 1.41176 4.52582V6.40817C0.611765 6.40817 0 7.01994 0 7.81994V13.9376C0 14.7376 0.611765 15.3494 1.41176 15.3494H9.88235C10.6824 15.3494 11.2941 14.7376 11.2941 13.9376V7.81994C11.2941 7.01994 10.6824 6.40817 9.88235 6.40817V4.52582C9.88235 2.17288 8 0.290527 5.64706 0.290527ZM10.3529 7.81994V13.9376C10.3529 14.2199 10.1647 14.4082 9.88235 14.4082H1.41176C1.12941 14.4082 0.941176 14.2199 0.941176 13.9376V7.81994C0.941176 7.53759 1.12941 7.34935 1.41176 7.34935H9.88235C10.1647 7.34935 10.3529 7.53759 10.3529 7.81994ZM2.35294 6.40817V4.52582C2.35294 2.69053 3.81176 1.2317 5.64706 1.2317C7.48235 1.2317 8.94118 2.69053 8.94118 4.52582V6.40817H2.35294Z" fill="#736968"/>
</svg>
