<svg width="16" height="12" viewBox="0 0 16 12" fill="none" xmlns="http://www.w3.org/2000/svg">
<path d="M14.5938 0.665527H1.40625C0.629281 0.665527 0 1.29871 0 2.07178V10.5093C0 11.2869 0.633906 11.9155 1.40625 11.9155H14.5938C15.3642 11.9155 16 11.2896 16 10.5093V2.07178C16 1.30009 15.3732 0.665527 14.5938 0.665527ZM14.3968 1.60303L8.99438 6.977C8.72875 7.24262 8.37562 7.38887 8 7.38887C7.62437 7.38887 7.27125 7.24259 7.00475 6.97612L1.60319 1.60303H14.3968ZM0.9375 10.3185V2.26318L4.98869 6.29303L0.9375 10.3185ZM1.60378 10.978L5.65338 6.95418L6.34272 7.6399C6.78541 8.08259 7.37397 8.32637 8 8.32637C8.62603 8.32637 9.21459 8.08259 9.65641 7.64078L10.3466 6.95418L14.3962 10.978H1.60378ZM15.0625 10.3185L11.0113 6.29303L15.0625 2.26318V10.3185Z" fill="#736968"/>
</svg>
