<svg width="39" height="39" viewBox="0 0 39 39" fill="none" xmlns="http://www.w3.org/2000/svg">
<path d="M12.461 4.62325C7.7535 7.14514 4.54408 12.1134 4.54408 17.8167H2.25488" stroke="#160603" stroke-width="1.08398" stroke-miterlimit="10"/>
<path d="M36.7455 17.8168H34.4563C34.4563 9.57024 27.7467 2.86049 19.5001 2.86049C16.9224 2.86049 14.4949 3.51602 12.3755 4.66919" stroke="#160603" stroke-width="1.08398" stroke-miterlimit="10"/>
<path d="M2.25488 27.1215V17.8168C2.25488 13.0552 4.18546 8.74377 7.30569 5.62286C10.4266 2.50187 14.738 0.571289 19.5003 0.571289C29.025 0.571289 36.7458 8.29283 36.7458 17.8168V27.1215M16.8988 24.2433V30.8759M19.5003 21.7515V33.3677M24.7033 25.666V29.4531M14.2974 25.666V29.4531M22.1018 24.2433V30.8759" stroke="#E54322" stroke-width="1.08398" stroke-miterlimit="10"/>
<path d="M4.65073 25.6202L6.58717 37.0629C4.40287 37.4325 2.33244 35.9614 1.96278 33.7771L1.36498 30.2447C0.99532 28.0602 2.46635 25.9898 4.65073 25.6202Z" stroke="#160603" stroke-width="1.08398" stroke-miterlimit="10"/>
<path d="M10.747 26.1587L10.4187 24.2202C10.3132 23.5969 9.72245 23.1772 9.09921 23.2826L5.51875 23.8886C4.89544 23.9941 4.47573 24.5849 4.58116 25.2081L6.65707 37.4749C6.76257 38.0982 7.35335 38.5179 7.97659 38.4125L11.5571 37.8065C12.1804 37.701 12.6001 37.1103 12.4947 36.487L10.9384 27.2896M8.43599 34.2668L8.24502 33.1382M8.81882 36.5287L8.62779 35.4001M34.3499 25.6202L32.4134 37.0629C34.5977 37.4325 36.6682 35.9614 37.0378 33.7771L37.6356 30.2447C38.0053 28.0602 36.5343 25.9898 34.3499 25.6202Z" stroke="#160603" stroke-width="1.08398" stroke-miterlimit="10"/>
<path d="M27.5163 30.5178L28.5818 24.2202C28.6873 23.5969 29.2781 23.1772 29.9013 23.2826L33.4818 23.8886C34.1051 23.9941 34.5248 24.5849 34.4194 25.2081L32.3435 37.4749C32.238 38.0982 31.6473 38.5179 31.024 38.4125L27.4436 37.8065C26.8202 37.701 26.4005 37.1103 26.506 36.487L27.3249 31.6487M30.5646 34.2668L30.7556 33.1382M30.1818 36.5287L30.3728 35.4001" stroke="#160603" stroke-width="1.08398" stroke-miterlimit="10"/>
</svg>
