<svg width="18" height="18" viewBox="0 0 18 18" fill="none" xmlns="http://www.w3.org/2000/svg">
<path d="M9.84 18H8.16C7.88533 17.9997 7.62026 17.8989 7.41491 17.7165C7.20955 17.534 7.07814 17.2827 7.0455 17.01L6.86625 15.603C6.51207 15.488 6.16751 15.3454 5.83575 15.1763L4.71525 16.047C4.4989 16.2171 4.22747 16.3014 3.95283 16.284C3.67819 16.2666 3.41961 16.1486 3.2265 15.9525L2.04525 14.7712C1.85026 14.5783 1.73315 14.3204 1.71627 14.0466C1.69939 13.7728 1.78393 13.5024 1.95375 13.287L2.8245 12.1658C2.65477 11.8343 2.51206 11.4897 2.39775 11.1353L0.98775 10.956C0.715368 10.9224 0.464659 10.7904 0.282761 10.5849C0.100863 10.3793 0.00030711 10.1145 0 9.84L0 8.16C0 7.59225 0.42525 7.113 0.99 7.0455L2.397 6.86625C2.51196 6.51207 2.65465 6.16751 2.82375 5.83575L1.95375 4.71525C1.78325 4.49889 1.69867 4.22717 1.71625 3.95227C1.73383 3.67736 1.85233 3.41863 2.049 3.22575L3.23025 2.0445C3.42325 1.84966 3.6812 1.73265 3.95493 1.71578C4.22866 1.6989 4.49903 1.78334 4.7145 1.953L5.835 2.8245C6.16695 2.65527 6.51178 2.51257 6.86625 2.39775L7.0455 0.98775C7.113 0.42525 7.59225 0 8.16 0H9.84C10.4078 0 10.887 0.42525 10.9545 0.99L11.1337 2.397C11.4923 2.51325 11.8372 2.6565 12.165 2.82375L13.2855 1.953C13.5018 1.78271 13.7734 1.69826 14.0481 1.71584C14.3228 1.73342 14.5814 1.85179 14.7743 2.04825L15.9555 3.2295C16.3582 3.62025 16.3988 4.26 16.047 4.71375L15.1763 5.835C15.3443 6.16275 15.4875 6.50775 15.603 6.8655L17.013 7.04475C17.2852 7.07839 17.5357 7.2103 17.7175 7.41568C17.8992 7.62105 17.9997 7.88575 18 8.16V9.84C18 10.4078 17.5748 10.887 17.01 10.9545L15.603 11.1337C15.488 11.4879 15.3454 11.8325 15.1763 12.1642L16.047 13.2847C16.2173 13.5011 16.3017 13.7726 16.2842 14.0473C16.2666 14.3221 16.1482 14.5807 15.9517 14.7735L14.7705 15.9548C14.5777 16.1499 14.3197 16.2671 14.0459 16.284C13.772 16.3009 13.5016 16.2162 13.2863 16.0462L12.165 15.1755C11.8335 15.3452 11.4889 15.4879 11.1345 15.6022L10.9552 17.0123C10.9218 17.2846 10.7899 17.5353 10.5846 17.7172C10.3792 17.8991 10.1144 17.9997 9.84 18ZM5.7975 14.355C5.85975 14.355 5.9235 14.3707 5.9805 14.4022C6.40142 14.6366 6.84784 14.8218 7.311 14.9542C7.38141 14.9745 7.44436 15.0148 7.49207 15.0704C7.53979 15.126 7.57018 15.1943 7.5795 15.267L7.7895 16.917C7.812 17.1052 7.97475 17.25 8.16 17.25H9.84C9.93093 17.2488 10.0184 17.2148 10.0863 17.1543C10.1542 17.0939 10.198 17.0109 10.2098 16.9207L10.4205 15.2677C10.4298 15.1951 10.4602 15.1268 10.5079 15.0712C10.5556 15.0156 10.6186 14.9752 10.689 14.955C11.1522 14.8225 11.5986 14.6373 12.0195 14.403C12.0837 14.3671 12.1571 14.351 12.2305 14.3566C12.3039 14.3622 12.374 14.3893 12.432 14.4345L13.7445 15.4545C13.8152 15.5114 13.9044 15.5403 13.995 15.5355C14.0856 15.5308 14.1713 15.4929 14.2358 15.429L15.4245 14.2402C15.4895 14.1759 15.5285 14.0897 15.5339 13.9983C15.5393 13.907 15.5107 13.8169 15.4537 13.7452L14.4338 12.4327C14.3886 12.3747 14.3616 12.3046 14.356 12.2312C14.3504 12.1579 14.3665 12.0845 14.4022 12.0203C14.6366 11.5993 14.8218 11.1529 14.9542 10.6898C14.9745 10.6193 15.0148 10.5564 15.0704 10.5087C15.126 10.461 15.1943 10.4306 15.267 10.4213L16.917 10.2113C17.0079 10.1999 17.0917 10.1561 17.1529 10.0878C17.214 10.0196 17.2485 9.93162 17.25 9.84V8.16C17.2488 8.06907 17.2148 7.98163 17.1543 7.91372C17.0939 7.84581 17.0109 7.80197 16.9207 7.79025L15.2677 7.5795C15.1951 7.57018 15.1268 7.53979 15.0712 7.49207C15.0156 7.44436 14.9752 7.38141 14.955 7.311C14.8225 6.84784 14.6373 6.40142 14.403 5.9805C14.3669 5.91632 14.3507 5.84289 14.3563 5.76948C14.3619 5.69607 14.3891 5.62596 14.4345 5.568L15.4545 4.2555C15.5116 4.18509 15.5407 4.09605 15.5361 4.00551C15.5315 3.91497 15.4936 3.82931 15.4298 3.765L14.241 2.57625C14.1769 2.51076 14.0906 2.47149 13.9991 2.46609C13.9076 2.46068 13.8174 2.48952 13.746 2.547L12.4335 3.567C12.3753 3.61228 12.3051 3.63942 12.2316 3.64503C12.1581 3.65063 12.0846 3.63445 12.0203 3.5985C11.5994 3.36399 11.153 3.17877 10.6898 3.0465C10.6193 3.02629 10.5564 2.9859 10.5087 2.93032C10.461 2.87474 10.4306 2.80641 10.4213 2.73375L10.2113 1.08375C10.2 0.992692 10.1563 0.908757 10.0881 0.847421C10.0198 0.786085 9.93173 0.751484 9.84 0.75H8.16C8.06907 0.751226 7.98163 0.785191 7.91372 0.845666C7.84581 0.906141 7.80197 0.989072 7.79025 1.07925L7.5795 2.73225C7.57013 2.80497 7.53974 2.87338 7.49204 2.92907C7.44434 2.98477 7.38142 3.02532 7.311 3.04575C6.84779 3.17776 6.40134 3.36273 5.9805 3.597C5.91622 3.63305 5.84274 3.64936 5.76924 3.64389C5.69574 3.63842 5.62549 3.61142 5.56725 3.56625L4.25475 2.54625C4.18434 2.48915 4.0953 2.46009 4.00476 2.46466C3.91422 2.46923 3.82856 2.5071 3.76425 2.571L2.5755 3.7605C2.51047 3.82489 2.47152 3.91104 2.46612 4.0024C2.46072 4.09376 2.48926 4.18389 2.54625 4.2555L3.56625 5.568C3.61138 5.62609 3.63843 5.69617 3.64403 5.76951C3.64963 5.84286 3.63354 5.91623 3.59775 5.9805C3.36313 6.40127 3.17791 6.84772 3.04575 7.311C3.02554 7.38141 2.98515 7.44436 2.92957 7.49207C2.87399 7.53979 2.80566 7.57018 2.733 7.5795L1.083 7.7895C0.992079 7.80055 0.908243 7.84418 0.847018 7.9123C0.785792 7.98042 0.751326 8.06842 0.75 8.16V9.84C0.75 10.0252 0.89475 10.188 1.07925 10.2098L2.73225 10.4205C2.80491 10.4298 2.87324 10.4602 2.92882 10.5079C2.9844 10.5556 3.02479 10.6186 3.045 10.689C3.18 11.1585 3.366 11.6062 3.597 12.0195C3.63307 12.0837 3.64933 12.1571 3.64373 12.2305C3.63812 12.3039 3.6109 12.374 3.5655 12.432L2.5455 13.7445C2.4884 13.8149 2.45934 13.904 2.46391 13.9945C2.46848 14.085 2.50635 14.1707 2.57025 14.235L3.759 15.4237C3.82331 15.4889 3.90948 15.528 4.00089 15.5334C4.09229 15.5388 4.18246 15.5102 4.254 15.453L5.5665 14.433C5.63306 14.3827 5.7141 14.3554 5.7975 14.355Z" fill="#160603"/>
<path d="M9 12.75C6.93225 12.75 5.25 11.0678 5.25 9C5.25 6.93225 6.93225 5.25 9 5.25C11.0678 5.25 12.75 6.93225 12.75 9C12.75 11.0678 11.0678 12.75 9 12.75ZM9 6C7.3455 6 6 7.3455 6 9C6 10.6545 7.3455 12 9 12C10.6545 12 12 10.6545 12 9C12 7.3455 10.6545 6 9 6Z" fill="#160603"/>
</svg>
