<svg width="14" height="18" viewBox="0 0 14 18" fill="none" xmlns="http://www.w3.org/2000/svg">
<path d="M7.52345 9.31569H6.86132C5.14427 9.31777 3.49814 10.0008 2.28401 11.2149C1.06987 12.4291 0.386852 14.0752 0.384766 15.7922V16.1971C0.385334 16.6525 0.566485 17.0891 0.888488 17.4111C1.21049 17.7331 1.64706 17.9142 2.10243 17.9148H12.2823C12.7377 17.9142 13.1743 17.7331 13.4963 17.4111C13.8183 17.0891 13.9994 16.6525 14 16.1971V15.7922C13.9979 14.0752 13.3149 12.4291 12.1008 11.2149C10.8866 10.0008 9.2405 9.31777 7.52345 9.31569ZM13.2834 16.1971C13.2828 16.4624 13.1772 16.7167 12.9896 16.9044C12.802 17.092 12.5477 17.1976 12.2823 17.1982H2.10243C1.83711 17.1976 1.58281 17.092 1.39519 16.9044C1.20758 16.7167 1.10192 16.4624 1.10136 16.1971V15.7922C1.10306 14.2651 1.71046 12.8011 2.7903 11.7212C3.87013 10.6414 5.33421 10.034 6.86132 10.0323H7.52345C9.05056 10.034 10.5146 10.6414 11.5945 11.7212C12.6743 12.8011 13.2817 14.2651 13.2834 15.7922V16.1971ZM7.19238 7.88251C7.97189 7.88251 8.73389 7.65136 9.38203 7.21829C10.0302 6.78522 10.5353 6.16968 10.8336 5.44951C11.1319 4.72934 11.21 3.93688 11.0579 3.17235C10.9058 2.40783 10.5305 1.70556 9.97927 1.15437C9.42808 0.603174 8.72581 0.227806 7.96128 0.0757318C7.19676 -0.0763423 6.4043 0.0017077 5.68413 0.300012C4.96396 0.598316 4.34842 1.10348 3.91535 1.75161C3.48228 2.39975 3.25113 3.16175 3.25113 3.94125C3.25246 4.98613 3.66812 5.98783 4.40696 6.72667C5.1458 7.46551 6.14751 7.88118 7.19238 7.88251ZM7.19238 0.716593C7.83016 0.716593 8.45362 0.905716 8.98391 1.26005C9.5142 1.61438 9.92751 2.118 10.1716 2.70723C10.4156 3.29646 10.4795 3.94483 10.3551 4.57035C10.2307 5.19588 9.92354 5.77046 9.47256 6.22143C9.02159 6.67241 8.44701 6.97953 7.82148 7.10395C7.19596 7.22838 6.54759 7.16452 5.95836 6.92045C5.36913 6.67639 4.86551 6.26307 4.51118 5.73278C4.15685 5.20249 3.96772 4.57903 3.96772 3.94125C3.96867 3.08631 4.30871 2.26666 4.91325 1.66212C5.51779 1.05759 6.33744 0.717541 7.19238 0.716593Z" fill="#160603"/>
</svg>
