<svg width="28" height="28" viewBox="0 0 28 28" fill="none" xmlns="http://www.w3.org/2000/svg">
<path d="M27.125 24.9375C27.125 25.1696 27.0328 25.3921 26.8687 25.5562C26.7046 25.7203 26.4821 25.8125 26.25 25.8125C26.0179 25.8125 25.7954 25.7203 25.6313 25.5562C25.4672 25.3921 25.375 25.1696 25.375 24.9375V3.0625C25.375 2.83044 25.4672 2.60788 25.6313 2.44378C25.7954 2.27969 26.0179 2.1875 26.25 2.1875C26.4821 2.1875 26.7046 2.27969 26.8687 2.44378C27.0328 2.60788 27.125 2.83044 27.125 3.0625V24.9375Z" fill="#8A8281"/>
<path fill-rule="evenodd" clip-rule="evenodd" d="M4.74687 2.81181C2.99863 1.86725 0.875 3.13381 0.875 5.12181V22.8786C0.875 24.8666 2.99819 26.1328 4.74687 25.1886L21.1899 16.31C23.0265 15.3177 23.0265 12.6822 21.1899 11.69L4.74687 2.81181ZM2.625 5.12181C2.625 4.459 3.33287 4.03681 3.91562 4.35181L20.3577 13.23C20.9702 13.5607 20.9702 14.4392 20.3577 14.77L3.91562 23.6486C3.33287 23.9636 2.625 23.5414 2.625 22.8786V5.12181Z" fill="#8A8281"/>
</svg>
