<svg width="304" height="304" viewBox="0 0 304 304" fill="none" xmlns="http://www.w3.org/2000/svg">
<path d="M239.512 111.763L242.507 61.5745C242.625 59.5913 243.537 57.8001 244.911 56.5026C246.286 55.2051 248.125 54.4001 250.108 54.4001C254.07 54.4001 257.09 57.6128 256.854 61.5745L253.859 111.763H239.512Z" fill="#C5CDE3"/>
<path d="M254.067 111.983H239.28L242.288 61.5613C242.406 59.5889 243.284 57.7358 244.761 56.3422C246.239 54.9475 248.138 54.1802 250.109 54.1802C252.084 54.1802 253.896 54.9499 255.212 56.3459C256.531 57.7455 257.193 59.6072 257.075 61.5868L254.067 111.983ZM239.745 111.544H253.653L256.636 61.5625C256.746 59.7045 256.127 57.9595 254.892 56.6487C253.66 55.3402 251.961 54.6204 250.108 54.6204C248.249 54.6204 246.456 55.3451 245.062 56.662C243.666 57.979 242.836 59.7288 242.726 61.588L239.745 111.544Z" fill="black"/>
<path d="M149.103 187.146H242.778C246.455 187.146 249.6 184.166 249.802 180.489L257.7 71.4486C257.901 67.7714 255.085 64.791 251.408 64.791H157.733C154.056 64.791 150.912 67.7714 150.71 71.4486L142.812 180.489C142.61 184.165 145.428 187.146 149.103 187.146Z" fill="#161C1C"/>
<path d="M242.778 187.365H149.103C147.266 187.365 145.577 186.649 144.346 185.35C143.113 184.048 142.491 182.316 142.592 180.475L150.491 71.4315C150.699 67.6497 153.948 64.5696 157.733 64.5696H251.408C253.245 64.5696 254.934 65.2858 256.165 66.5845C257.398 67.8868 258.021 69.6184 257.92 71.4594L250.021 180.503C249.814 184.286 246.565 187.365 242.778 187.365ZM157.735 65.0098C154.178 65.0098 151.126 67.9038 150.93 71.4594L143.031 180.503C142.937 182.219 143.517 183.834 144.666 185.047C145.813 186.258 147.389 186.925 149.103 186.925H242.778C246.335 186.925 249.387 184.031 249.583 180.475L257.482 71.4315C257.576 69.7157 256.995 68.1008 255.846 66.8873C254.7 65.6761 253.124 65.0098 251.409 65.0098H157.735Z" fill="black"/>
<path d="M146.742 187.146H240.417C244.094 187.146 247.238 184.166 247.44 180.489L255.338 71.4486C255.54 67.7714 252.724 64.791 249.047 64.791H155.372C151.695 64.791 148.55 67.7714 148.348 71.4486L140.45 180.489C140.247 184.165 143.065 187.146 146.742 187.146Z" fill="white"/>
<path d="M240.415 187.365H146.741C144.903 187.365 143.214 186.649 141.984 185.35C140.751 184.048 140.128 182.316 140.229 180.475L148.128 71.4315C148.336 67.6497 151.585 64.5696 155.371 64.5696H249.045C250.883 64.5696 252.572 65.2858 253.802 66.5845C255.035 67.8868 255.658 69.6184 255.557 71.4594L247.658 180.503C247.451 184.286 244.202 187.365 240.415 187.365ZM155.372 65.0098C151.815 65.0098 148.763 67.9038 148.567 71.4594L140.668 180.503C140.574 182.219 141.154 183.834 142.304 185.047C143.45 186.258 145.026 186.925 146.741 186.925H240.415C243.972 186.925 247.024 184.031 247.22 180.475L255.119 71.4315C255.213 69.7157 254.633 68.1008 253.484 66.8873C252.337 65.6761 250.761 65.0098 249.047 65.0098H155.372Z" fill="black"/>
<path d="M153.823 63.9044L146.321 166.171C146.008 171.421 150.009 175.675 155.259 175.675H224.793C230.043 175.675 234.552 171.421 234.864 166.171L242.504 61.5733C242.622 59.59 243.534 57.7989 244.908 56.5014C246.284 55.2039 248.122 54.3989 250.106 54.3989H163.892C158.645 54.4001 154.136 58.6561 153.823 63.9044Z" fill="white"/>
<path d="M224.795 175.897H155.26C152.663 175.897 150.281 174.886 148.551 173.05C146.817 171.209 145.948 168.763 146.104 166.16L153.605 63.8899C153.925 58.5371 158.541 54.1814 163.896 54.1814H250.109V54.6204C248.25 54.6204 246.458 55.3451 245.063 56.662C243.667 57.979 242.838 59.7288 242.727 61.5881L235.087 166.19C234.766 171.54 230.15 175.897 224.795 175.897ZM163.895 54.6204C158.768 54.6204 154.349 58.7913 154.043 63.9179V63.9203L146.541 166.187C146.393 168.665 147.221 170.996 148.87 172.747C150.515 174.494 152.784 175.456 155.259 175.456H224.793C229.92 175.456 234.34 171.285 234.645 166.158L242.286 61.5564C242.404 59.5877 243.281 57.7345 244.759 56.341C245.582 55.564 246.537 54.9815 247.561 54.6179H163.895V54.6204Z" fill="black"/>
<path d="M172.121 63.6409C172.815 62.8011 172.73 61.5857 171.932 60.9261C171.133 60.2666 169.924 60.4128 169.23 61.2526C168.536 62.0924 168.621 63.3078 169.42 63.9674C170.218 64.6269 171.428 64.4808 172.121 63.6409Z" fill="#FF4148"/>
<path d="M167.142 63.6414C167.836 62.8016 167.751 61.5862 166.952 60.9266C166.154 60.2671 164.944 60.4132 164.251 61.2531C163.557 62.0929 163.642 63.3083 164.44 63.9679C165.239 64.6274 166.448 64.4812 167.142 63.6414Z" fill="#007AFD"/>
<path d="M162.163 63.6412C162.857 62.8014 162.772 61.5859 161.974 60.9264C161.175 60.2668 159.966 60.413 159.272 61.2528C158.578 62.0926 158.663 63.3081 159.462 63.9676C160.26 64.6271 161.47 64.481 162.163 63.6412Z" fill="#FFD24F"/>
<path d="M222.902 71.4583L221.56 82.4376C221.387 83.8457 220.197 84.9012 218.78 84.9012H172.08C170.4 84.9012 169.099 83.4274 169.3 81.7603L170.642 70.7773C170.815 69.3729 172.006 68.3174 173.422 68.3174H220.123C221.802 68.3174 223.108 69.7875 222.902 71.4583Z" fill="#FF4148"/>
<path d="M218.78 85.1212H172.08C171.218 85.1212 170.396 84.7503 169.823 84.1046C169.249 83.4565 168.979 82.5919 169.082 81.7346L170.425 70.7505C170.611 69.2378 171.9 68.0984 173.422 68.0984H220.124C220.989 68.0984 221.813 68.4705 222.387 69.1174C222.96 69.7643 223.227 70.6277 223.123 71.4849L221.78 82.4642C221.593 83.9793 220.304 85.1212 218.78 85.1212ZM173.421 68.5374C172.12 68.5374 171.018 69.5114 170.859 70.804L169.517 81.7869C169.428 82.5202 169.659 83.2595 170.15 83.8128C170.64 84.3648 171.343 84.6822 172.079 84.6822H218.779C220.081 84.6822 221.182 83.7057 221.341 82.4119L222.684 71.4327C222.774 70.6994 222.545 69.9625 222.056 69.4092C221.566 68.856 220.862 68.5386 220.123 68.5386H173.421V68.5374Z" fill="black"/>
<path d="M188.033 73.1753C188.029 73.2032 188.019 73.2482 188.005 73.309C187.99 73.371 187.97 73.4391 187.946 73.5145C187.922 73.5899 187.893 73.6678 187.86 73.7492C187.826 73.8307 187.789 73.9049 187.75 73.9718C187.71 74.0399 187.666 74.0958 187.619 74.1383C187.57 74.1821 187.523 74.204 187.474 74.204H185.523L183.404 80.408C183.387 80.447 183.359 80.4834 183.323 80.515C183.286 80.5467 183.234 80.5722 183.165 80.5929C183.096 80.6123 183.009 80.6281 182.906 80.6403C182.802 80.6525 182.672 80.6573 182.516 80.6573C182.364 80.6573 182.238 80.6512 182.14 80.6403C182.041 80.6293 181.966 80.6123 181.915 80.5929C181.864 80.5722 181.831 80.5479 181.818 80.515C181.804 80.4834 181.804 80.447 181.818 80.408L183.936 74.204H182.002C181.943 74.204 181.905 74.1821 181.889 74.1383C181.873 74.0946 181.871 74.035 181.881 73.9596C181.886 73.928 181.894 73.8806 181.909 73.8198C181.923 73.7577 181.943 73.6884 181.968 73.6118C181.993 73.534 182.022 73.455 182.055 73.3735C182.089 73.292 182.126 73.2178 182.167 73.1497C182.208 73.0829 182.252 73.0281 182.298 72.9868C182.344 72.9454 182.39 72.9236 182.439 72.9236H187.917C187.966 72.9236 187.998 72.9454 188.019 72.9892C188.039 73.0342 188.043 73.095 188.033 73.1753ZM193.531 73.151C193.528 73.1741 193.519 73.2166 193.505 73.2762C193.49 73.3358 193.472 73.4014 193.45 73.4756C193.428 73.5486 193.401 73.6252 193.37 73.7042C193.338 73.7833 193.303 73.8562 193.264 73.9219C193.225 73.9876 193.181 74.0423 193.132 74.0848C193.084 74.1286 193.036 74.1505 192.988 74.1505H190.213L189.566 76.0304H191.92C191.976 76.0304 192.014 76.0499 192.032 76.09C192.05 76.1302 192.055 76.1849 192.044 76.2566C192.04 76.2846 192.031 76.3271 192.017 76.3855C192.003 76.4427 191.985 76.5083 191.963 76.5813C191.941 76.6543 191.914 76.7296 191.884 76.805C191.853 76.8804 191.818 76.9497 191.779 77.013C191.74 77.0762 191.698 77.1285 191.653 77.1674C191.608 77.2063 191.56 77.227 191.513 77.227H189.165L188.417 79.3988H191.228C191.276 79.3988 191.308 79.4194 191.327 79.462C191.345 79.5033 191.349 79.5641 191.338 79.6432C191.334 79.6711 191.325 79.7137 191.313 79.7733C191.301 79.8329 191.283 79.8998 191.259 79.9727C191.234 80.0457 191.206 80.1211 191.176 80.1965C191.145 80.2719 191.11 80.3424 191.071 80.408C191.032 80.4737 190.99 80.526 190.944 80.5661C190.897 80.605 190.849 80.6257 190.796 80.6257H186.892C186.827 80.6257 186.77 80.6172 186.722 80.599C186.672 80.5807 186.633 80.5515 186.605 80.5102C186.577 80.4688 186.561 80.4166 186.557 80.3558C186.554 80.295 186.566 80.2196 186.595 80.132L188.892 73.4233C188.953 73.2482 189.043 73.123 189.161 73.0452C189.28 72.9673 189.405 72.9296 189.538 72.9296H193.406C193.511 72.9248 193.553 73.0002 193.531 73.151ZM198.778 73.5145C198.773 73.5462 198.765 73.5924 198.75 73.6519C198.736 73.7115 198.718 73.7772 198.696 73.8477C198.674 73.9195 198.648 73.9912 198.62 74.0642C198.592 74.1383 198.561 74.2052 198.525 74.2672C198.49 74.328 198.455 74.3791 198.417 74.4192C198.379 74.4594 198.343 74.4788 198.306 74.4788C198.251 74.4788 198.184 74.4545 198.107 74.4046C198.029 74.3548 197.934 74.3013 197.82 74.2441C197.706 74.187 197.57 74.1335 197.413 74.0836C197.255 74.0338 197.072 74.0094 196.864 74.0094C196.648 74.0094 196.461 74.0386 196.303 74.0982C196.144 74.1578 196.009 74.2368 195.9 74.3329C195.791 74.4302 195.704 74.5396 195.641 74.66C195.578 74.7816 195.538 74.9032 195.521 75.026C195.501 75.1695 195.519 75.2948 195.577 75.4042C195.634 75.5124 195.715 75.6146 195.822 75.707C195.929 75.8006 196.054 75.8906 196.196 75.9769C196.337 76.0645 196.48 76.1557 196.626 76.2505C196.771 76.3454 196.912 76.45 197.05 76.563C197.189 76.6761 197.308 76.8075 197.407 76.9558C197.505 77.1042 197.578 77.2744 197.623 77.4678C197.668 77.6599 197.673 77.8812 197.639 78.1305C197.587 78.5038 197.463 78.8491 197.266 79.1689C197.069 79.4887 196.814 79.766 196.503 80.0019C196.192 80.2378 195.83 80.4238 195.416 80.5588C195.003 80.6938 194.556 80.7607 194.076 80.7607C193.816 80.7607 193.579 80.74 193.363 80.6987C193.149 80.6561 192.961 80.6063 192.799 80.5467C192.638 80.4871 192.503 80.4251 192.396 80.3594C192.289 80.2937 192.212 80.2317 192.163 80.1721C192.115 80.1126 192.1 80.0238 192.117 79.9046C192.122 79.873 192.132 79.8256 192.149 79.7611C192.166 79.6979 192.186 79.6298 192.211 79.5556C192.235 79.4827 192.263 79.4073 192.293 79.3294C192.325 79.2516 192.358 79.1811 192.396 79.1179C192.432 79.0546 192.471 79.0023 192.51 78.9634C192.549 78.9245 192.589 78.9038 192.629 78.9038C192.697 78.9038 192.774 78.9343 192.86 78.9963C192.945 79.0583 193.053 79.1252 193.183 79.1993C193.314 79.2723 193.469 79.3404 193.653 79.4048C193.836 79.4681 194.063 79.4997 194.33 79.4997C194.566 79.4997 194.778 79.4693 194.965 79.4109C195.151 79.3513 195.311 79.2699 195.446 79.1665C195.581 79.0631 195.688 78.9428 195.77 78.8066C195.851 78.6692 195.904 78.5196 195.926 78.3579C195.946 78.2107 195.928 78.0818 195.872 77.9712C195.815 77.8605 195.735 77.7584 195.629 77.6647C195.524 77.5711 195.403 77.4836 195.264 77.3997C195.125 77.317 194.984 77.227 194.842 77.1321C194.7 77.0373 194.561 76.9339 194.426 76.8233C194.291 76.7126 194.176 76.5825 194.078 76.4329C193.981 76.2846 193.911 76.1131 193.866 75.9186C193.821 75.724 193.816 75.4991 193.852 75.2413C193.902 74.8838 194.02 74.5554 194.207 74.2539C194.393 73.9523 194.631 73.6933 194.916 73.4781C195.203 73.2616 195.533 73.0926 195.906 72.9722C196.279 72.8506 196.679 72.791 197.109 72.791C197.308 72.791 197.497 72.8056 197.673 72.836C197.849 72.8664 198.007 72.9041 198.15 72.9491C198.292 72.9941 198.41 73.0452 198.507 73.1011C198.603 73.157 198.669 73.2032 198.704 73.2409C198.739 73.2786 198.762 73.3188 198.775 73.3601C198.786 73.3978 198.787 73.4513 198.778 73.5145ZM205.595 73.1753C205.592 73.2032 205.582 73.2482 205.567 73.309C205.553 73.371 205.533 73.4391 205.509 73.5145C205.485 73.5899 205.455 73.6678 205.423 73.7492C205.388 73.8307 205.352 73.9049 205.313 73.9718C205.273 74.0399 205.229 74.0958 205.182 74.1383C205.133 74.1821 205.086 74.204 205.037 74.204H203.085L200.967 80.408C200.95 80.447 200.922 80.4834 200.886 80.515C200.849 80.5467 200.797 80.5722 200.728 80.5929C200.658 80.6123 200.572 80.6281 200.469 80.6403C200.365 80.6525 200.235 80.6573 200.078 80.6573C199.926 80.6573 199.801 80.6512 199.702 80.6403C199.604 80.6293 199.529 80.6123 199.477 80.5929C199.426 80.5722 199.394 80.5479 199.38 80.515C199.367 80.4834 199.367 80.447 199.38 80.408L201.498 74.204H199.565C199.505 74.204 199.468 74.1821 199.452 74.1383C199.436 74.0946 199.434 74.035 199.443 73.9596C199.448 73.928 199.457 73.8806 199.471 73.8198C199.486 73.7577 199.505 73.6884 199.531 73.6118C199.555 73.534 199.585 73.455 199.617 73.3735C199.651 73.292 199.689 73.2178 199.729 73.1497C199.771 73.0829 199.814 73.0281 199.861 72.9868C199.907 72.9454 199.953 72.9236 200.002 72.9236H205.48C205.528 72.9236 205.561 72.9454 205.582 72.9892C205.601 73.0342 205.606 73.095 205.595 73.1753Z" fill="white"/>
<path d="M172.225 108.417C175.417 105.378 175.774 100.571 173.021 97.679C170.268 94.787 165.449 94.9057 162.257 97.944C159.065 100.982 158.709 105.79 161.461 108.682C164.214 111.574 169.033 111.455 172.225 108.417Z" fill="white"/>
<path d="M166.493 110.987C164.409 110.987 162.527 110.176 161.192 108.703C159.848 107.22 159.223 105.248 159.43 103.151C159.854 98.8534 163.695 95.3574 167.993 95.3574C170.077 95.3574 171.959 96.1685 173.295 97.6411C174.638 99.1234 175.263 101.096 175.057 103.193C174.632 107.491 170.791 110.987 166.493 110.987ZM167.993 95.7964C163.914 95.7964 160.269 99.1149 159.866 103.192C159.672 105.166 160.258 107.016 161.516 108.406C162.766 109.786 164.533 110.546 166.492 110.546C170.571 110.546 174.216 107.228 174.619 103.15C174.813 101.177 174.227 99.3252 172.969 97.9353C171.719 96.5564 169.952 95.7964 167.993 95.7964Z" fill="black"/>
<path d="M166.929 105.744L164.19 102.859L165.147 101.952L167.015 103.92L176.549 95.6042L177.414 96.5965L166.929 105.744Z" fill="black"/>
<path d="M192.89 100.847H180.941L181.499 95.197H193.449L192.89 100.847Z" fill="#C5CDE3"/>
<path d="M229.784 102.978H180.73L180.451 105.803H229.505L229.784 102.978Z" fill="#C5CDE3"/>
<path d="M204.025 108.321H180.203L179.923 111.147H203.746L204.025 108.321Z" fill="#C5CDE3"/>
<path d="M169.789 133.071C172.982 130.033 173.338 125.225 170.585 122.334C167.833 119.442 163.013 119.56 159.821 122.599C156.629 125.637 156.273 130.444 159.026 133.336C161.778 136.228 166.597 136.11 169.789 133.071Z" fill="white"/>
<path d="M164.058 135.641C161.974 135.641 160.091 134.83 158.756 133.358C157.412 131.874 156.787 129.903 156.994 127.805C157.418 123.508 161.26 120.012 165.557 120.012C167.641 120.012 169.524 120.823 170.859 122.296C172.203 123.778 172.828 125.75 172.621 127.848C172.198 132.145 168.356 135.641 164.058 135.641ZM165.558 120.451C161.48 120.451 157.834 123.769 157.432 127.847C157.237 129.819 157.823 131.671 159.082 133.061C160.332 134.441 162.099 135.201 164.058 135.201C168.136 135.201 171.782 131.883 172.184 127.804C172.379 125.832 171.793 123.98 170.534 122.59C169.284 121.211 167.517 120.451 165.558 120.451Z" fill="black"/>
<path d="M164.494 130.399L161.756 127.513L162.712 126.606L164.58 128.575L174.113 120.259L174.98 121.252L164.494 130.399Z" fill="black"/>
<path d="M190.455 125.502H178.506L179.063 119.851H191.013L190.455 125.502Z" fill="#C5CDE3"/>
<path d="M227.349 127.633H178.296L178.016 130.457H227.071L227.349 127.633Z" fill="#C5CDE3"/>
<path d="M201.591 132.976H177.768L177.489 135.802H201.311L201.591 132.976Z" fill="#C5CDE3"/>
<path d="M167.354 157.726C170.546 154.687 170.902 149.88 168.15 146.988C165.397 144.096 160.578 144.215 157.386 147.253C154.194 150.291 153.837 155.099 156.59 157.991C159.343 160.883 164.162 160.764 167.354 157.726Z" fill="white"/>
<path d="M161.623 160.296C159.539 160.296 157.656 159.484 156.322 158.012C154.978 156.53 154.353 154.557 154.56 152.46C154.984 148.162 158.825 144.666 163.123 144.666C165.207 144.666 167.089 145.477 168.425 146.95C169.768 148.432 170.393 150.405 170.187 152.502C169.763 156.8 165.921 160.296 161.623 160.296ZM163.124 145.105C159.046 145.105 155.4 148.424 154.997 152.501C154.803 154.475 155.389 156.325 156.648 157.715C157.898 159.095 159.664 159.855 161.623 159.855C165.702 159.855 169.346 156.537 169.75 152.458C169.945 150.486 169.358 148.634 168.1 147.244C166.85 145.865 165.082 145.105 163.124 145.105Z" fill="black"/>
<path d="M162.059 155.055L159.32 152.168L160.277 151.261L162.145 153.229L171.679 144.913L172.546 145.907L162.059 155.055Z" fill="black"/>
<path d="M188.02 150.157H176.071L176.629 144.506H188.578L188.02 150.157Z" fill="#C5CDE3"/>
<path d="M224.915 152.287H175.86L175.582 155.112H224.635L224.915 152.287Z" fill="#C5CDE3"/>
<path d="M199.155 157.631H175.333L175.054 160.456H198.877L199.155 157.631Z" fill="#C5CDE3"/>
<path d="M87.7684 115.588C87.7684 115.588 90.7221 120.057 94.4759 124.906C98.389 129.956 103.168 135.415 106.376 136.651C106.669 136.766 106.997 136.86 107.353 136.93C114.118 138.357 131.468 133.24 131.468 133.24C135.141 133.258 134.333 120.265 131.095 121.643L111.653 123.326C105.12 117.281 101.081 109.254 92.9182 104.363L87.7684 115.588Z" fill="#E54322"/>
<path d="M94.4759 124.907C98.389 129.957 103.168 135.416 106.376 136.652C106.669 136.767 106.997 136.861 107.353 136.931C100.033 132.863 99.0919 117.517 99.0919 117.517L94.4759 124.907ZM109.327 261.21L98.147 255.168L96.0142 252.838L83.6377 254.59L82.958 263.887C82.8558 264.385 83.2328 264.842 83.7313 264.842H109.805C110.243 264.842 110.599 264.487 110.599 264.048V263.102C110.598 262.269 110.099 261.526 109.327 261.21Z" fill="black"/>
<path d="M96.0141 252.838L95.4305 244.732L83.9587 243.427L83.6377 254.59C88.5795 256.673 93.2429 256.037 96.0141 252.838Z" fill="#FFCFC5"/>
<path d="M98.6881 259.337L98.3002 259.13C99.2037 257.443 100.854 257.275 100.923 257.268L100.963 257.706C100.905 257.712 99.4773 257.865 98.6881 259.337ZM101.138 260.702L100.75 260.494C101.654 258.807 103.304 258.639 103.373 258.633L103.414 259.071C103.354 259.077 101.926 259.23 101.138 260.702Z" fill="white"/>
<path d="M77.6915 261.21L66.5116 255.168L64.3787 252.838L52.0023 254.59L51.3225 263.886C51.2204 264.385 51.5973 264.842 52.0959 264.842H78.1694C78.6071 264.842 78.9634 264.487 78.9634 264.048V263.102C78.9634 262.269 78.4649 261.526 77.6915 261.21Z" fill="black"/>
<path d="M64.3787 252.838L64.5161 243.515L52.3233 243.427L52.0023 254.59C56.9453 256.673 61.6087 256.037 64.3787 252.838Z" fill="#FFCFC5"/>
<path d="M67.0539 259.337L66.666 259.13C67.5695 257.443 69.2196 257.275 69.2889 257.268L69.3291 257.706C69.2695 257.712 67.8419 257.865 67.0539 259.337ZM69.5029 260.702L69.115 260.494C70.0185 258.807 71.6686 258.639 71.738 258.633L71.7781 259.071C71.7185 259.077 70.2921 259.23 69.5029 260.702Z" fill="white"/>
<path d="M80.9504 203.247L80.2329 249.554H100.284L100.315 247.917L100.372 244.578L101.081 204.407L97.5597 149.945L82.5579 144.278L76.0851 155.731L80.9504 203.247Z" fill="#242B2B"/>
<path d="M86.3664 246.569L99.8263 248.543L100.315 247.917L100.372 244.578L86.3664 246.569Z" fill="black"/>
<path d="M49.3404 247.055L68.704 247.608L69.0518 245.952L70.0331 241.262L77.5589 205.339L83.6377 145.389C83.6377 145.389 62.061 141.107 60.896 144.682C59.0027 150.498 58.7206 189.05 57.8998 202.35C57.1872 213.849 49.3404 247.055 49.3404 247.055Z" fill="#242B2B"/>
<path d="M82.1207 158.199L79.5146 183.74L79.9514 183.785L82.5574 158.244L82.1207 158.199Z" fill="white"/>
<path d="M58.9991 244.059L61.9759 244.994L69.0518 245.952L70.0331 241.262C66.6368 242.731 59.1912 244.071 59.1912 244.071L58.9991 244.059Z" fill="black"/>
<path d="M59.1596 148.319C61.4724 153.914 98.0132 154.608 99.6731 149.133C100.307 147.034 98.2759 144.278 98.2759 144.278C98.2759 144.278 98.344 143.168 98.4401 141.344C98.8669 133.399 99.8482 111.879 98.1653 109.085C93.4715 101.277 81.9535 101.918 81.9535 101.918C81.9535 101.918 68.7611 101.254 63.6126 105.734C61.487 107.588 60.6431 114.134 60.3464 121.251C60.3464 121.255 60.3464 121.255 60.3464 121.255C60.1981 124.838 60.1823 128.563 60.2163 131.909C60.2504 135.534 60.3343 138.718 60.3537 140.786C60.3647 142.19 60.3464 143.079 60.2589 143.259C59.6788 144.419 58.599 146.961 59.1596 148.319Z" fill="#E54322"/>
<path d="M60.2175 131.909C62.4197 129.963 64.6559 125.899 65.9607 123.315C68.9837 117.338 68.434 110.813 68.434 110.813C68.434 110.813 62.8015 118.11 60.3476 121.25C60.3476 121.254 60.3476 121.254 60.3476 121.254C60.1981 124.838 60.1823 128.563 60.2175 131.909Z" fill="black"/>
<path d="M78.663 248.252C78.6302 248.836 78.8211 249.372 79.1494 249.775C79.4777 250.177 79.9422 250.446 80.4761 250.477L99.8822 251.579C100.95 251.64 101.869 250.743 101.936 249.575C101.969 248.992 101.778 248.456 101.45 248.053C101.121 247.651 100.657 247.382 100.123 247.351L80.7168 246.248C79.6492 246.188 78.7299 247.084 78.663 248.252ZM48.5074 245.585C48.4746 246.168 48.6655 246.704 48.9938 247.107C49.3222 247.509 49.7867 247.778 50.3205 247.809L69.7266 248.911C70.7943 248.972 71.7136 248.075 71.7805 246.908C71.8133 246.324 71.6224 245.788 71.2941 245.385C70.9657 244.983 70.5012 244.714 69.9674 244.683L50.5613 243.581C49.4924 243.52 48.5731 244.416 48.5074 245.585Z" fill="#374141"/>
<path d="M88.8555 145.698C94.6048 146.259 98.2759 144.278 98.2759 144.278C98.2759 144.278 98.344 143.168 98.44 141.344C94.2084 146.361 88.8555 145.698 88.8555 145.698ZM60.2589 143.259C60.2589 143.259 64.7702 147.644 76.9059 146.304C76.9059 146.304 64.1744 145.664 60.3549 140.786C60.3659 142.191 60.3464 143.08 60.2589 143.259Z" fill="black"/>
<path d="M66.7086 103.919C66.7086 103.919 62.3893 105.043 57.2372 111.5C54.6288 114.769 46.1083 129.566 46.9328 135.393C48.336 145.316 61.4956 161.577 61.4956 161.577C63.5932 163.912 70.68 156.836 68.5824 154.501L57.9011 136.641C57.9011 136.641 67.0831 120.045 68.0669 114.888C69.3947 107.929 66.7086 103.919 66.7086 103.919Z" fill="#E54322"/>
<path d="M143.933 143.631L130.829 156.393L125.832 141.005L143.933 143.631Z" fill="#FFCFC5"/>
<path d="M137.336 142.675L143.933 143.632L139.158 148.283L137.336 142.675Z" fill="#161C1C"/>
<path d="M68.0547 155.749C68.0547 155.749 74.2514 157.861 74.5433 159.86C74.8351 161.859 70.6873 159.847 70.6873 159.847" fill="#FFCFC5"/>
<path d="M125.834 141.004L50.5789 165.444L55.5767 180.833L130.831 156.393L125.834 141.004Z" fill="#FFD24F"/>
<path d="M47.5249 166.439L52.5214 181.826L55.576 180.833L50.5758 165.447L47.5249 166.439Z" fill="#242B2B"/>
<path d="M38.8633 173.189L41.5458 181.45C42.183 183.418 44.2952 184.496 46.2639 183.859L52.5214 181.825L47.5261 166.438L41.2686 168.467C39.2999 169.109 38.2213 171.222 38.8633 173.189Z" fill="#E5E8FF"/>
<path d="M127.378 145.758L52.1229 170.198L54.0328 176.079L129.288 151.639L127.378 145.758Z" fill="#FFB902"/>
<path d="M70.6873 159.847C70.6873 159.847 75.5294 164.747 74.6089 165.985C73.9097 166.926 73.0074 165.5 72.1975 164.674C73.0281 165.789 73.8124 168.223 73.3296 168.579C72.0443 169.53 70.5231 166.509 70.0087 165.684C70.4866 166.5 71.2831 169.291 70.7712 169.507C69.8227 169.906 68.4036 167.476 67.6983 166.445C68.2905 167.365 68.0717 169.465 67.595 169.385C65.9668 169.112 62.3346 160.715 62.3346 160.715C61.2329 159.294 66.9529 154.326 68.0558 155.748" fill="#FFCFC5"/>
<path d="M67.6206 169.553C67.6011 169.553 67.5829 169.552 67.567 169.548L67.6218 169.223C67.6339 169.219 67.6911 169.169 67.7507 169.006C67.9549 168.448 67.9647 167.165 67.5598 166.535L67.837 166.356C68.3684 167.181 68.2954 168.822 67.9513 169.344C67.837 169.517 67.7093 169.553 67.6206 169.553ZM70.8344 169.66L70.7068 169.356C70.9937 169.182 70.4125 166.7 69.8665 165.768L70.151 165.601C70.5852 166.342 71.2904 168.681 71.0521 169.4C71.0083 169.53 70.9354 169.617 70.8344 169.66ZM73.4282 168.712L73.2324 168.446C73.2628 168.423 73.2895 168.358 73.3029 168.27C73.4087 167.554 72.7509 165.691 72.0662 164.773L72.3301 164.576C73.067 165.565 73.7455 167.522 73.6288 168.318C73.6008 168.501 73.534 168.634 73.4282 168.712Z" fill="#F58DA3"/>
<path d="M77.5759 71.1919C77.7194 71.5056 77.8228 71.868 77.8921 72.2705C77.7741 71.9191 77.6684 71.5591 77.5759 71.1919ZM76.1423 98.6139L78.2472 103.337L84.6664 104.192L88.1892 105.102L87.3246 99.4748L87.4523 98.0874L87.7976 94.4175L77.126 87.113C77.1528 87.597 77.1686 88.0761 77.1759 88.5466C77.2744 94.1512 76.1423 98.6139 76.1423 98.6139Z" fill="#FFCFC5"/>
<path d="M77.126 87.113C77.1528 87.597 77.1686 88.0761 77.1759 88.5467C77.2452 88.5601 77.3109 88.5698 77.3765 88.5759C77.4884 88.8689 77.5638 89.2046 77.6064 89.5754C78.9221 94.5744 83.6608 97.916 87.4535 98.0874L87.7989 94.4175L77.126 87.113Z" fill="#FC9B88"/>
<path d="M76.141 98.614C77.1758 101.269 81.3115 102.877 84.6652 104.191C84.6652 104.191 83.482 110.16 82.4606 110.111C81.5206 110.066 73.05 106.975 73.2944 102.311C74.6721 101.384 75.0636 99.9528 76.141 98.614ZM84.6676 104.192C84.6676 104.192 86.4734 108.804 87.7988 109.219C89.3079 109.691 90.6199 105.459 90.4619 103.197L87.3258 99.4762C87.5641 101.04 88.0712 102.435 84.6676 104.192Z" fill="#B03319"/>
<path d="M87.7283 94.9843C83.9429 95.6957 78.3991 93.1895 76.1812 88.3072C76.079 87.9497 75.9489 87.6299 75.7884 87.3612C74.8825 87.4171 73.8404 86.9976 73.0135 86.1695C71.7039 84.855 71.4278 82.9885 72.4152 82.0181C72.9758 81.4587 73.8063 81.3055 74.6758 81.5341C74.5298 76.1144 76.9193 71.6164 80.7144 70.809C83.2473 70.2703 85.8702 71.4827 87.9557 73.8308C88.2074 74.1129 88.453 74.412 88.6865 74.7282C90.029 76.5254 91.0784 78.8297 91.6231 81.4308C93.0811 88.2562 91.7071 94.234 87.7283 94.9843Z" fill="#FFCFC5"/>
<path d="M68.7222 89.2081C69.5394 90.598 71.063 91.4723 72.6426 91.7884C74.3329 92.1241 75.8881 92.8889 77.4178 92.0936L77.2075 91.8395C77.047 90.5311 76.4852 89.3297 76.18 88.3058C76.0802 87.9507 75.9489 87.6285 75.7908 87.3622C74.8825 87.4157 73.8392 86.9974 73.0135 86.1705C71.7051 84.8524 71.4303 82.987 72.414 82.0179C72.977 81.4573 73.8063 81.3041 74.6733 81.5327C74.6733 81.5327 76.6566 82.2477 76.7722 83.9464L78.1061 84.2529L78.3931 81.118C78.3931 81.118 80.3423 79.3573 79.1677 77.757C80.5405 78.0878 82.0022 78.1486 83.4066 78.0257C84.0207 77.971 84.6628 77.8543 85.1249 77.4506C85.5249 77.0955 85.7098 76.4522 85.4666 75.9987C85.1261 75.8163 84.788 75.6302 84.45 75.4405C84.7418 75.5646 85.0349 75.6898 85.3304 75.8126C85.3863 75.8686 85.4313 75.9306 85.4666 75.9987C86.3652 76.4766 87.2845 76.9009 88.2719 77.1271C89.635 77.4445 91.1574 77.3436 92.298 76.5337C92.748 76.2176 93.1371 75.7749 93.2708 75.2448C93.4046 74.7109 93.2344 74.0774 92.7735 73.777C92.6726 73.7089 92.5571 73.6664 92.4379 73.6445C92.0938 73.8305 91.7387 73.9923 91.3824 74.1491C91.5429 73.7503 92.0184 73.5642 92.4379 73.6445C92.7747 73.4633 93.0957 73.2542 93.3766 72.9964C93.9494 72.4735 94.3579 71.7147 94.2594 70.9486C94.1439 70.0622 93.2964 69.3399 92.4026 69.3447C91.5101 69.3532 90.6783 70.0646 90.5154 70.9438C90.1421 69.4821 89.3809 68.1214 88.329 67.0428C87.7843 66.481 87.1434 65.991 86.3992 65.7612C85.6514 65.5326 84.7819 65.6067 84.1715 66.0907C83.5574 66.5747 83.2948 67.5098 83.6875 68.1822C82.2831 67.2994 80.6816 66.627 79.023 66.6622C77.3643 66.6975 75.6534 67.5621 74.9579 69.0663C74.615 69.8056 74.542 70.6045 74.6101 71.4131C72.9187 73.3235 73.2324 75.2095 73.2324 75.2095C72.1465 74.4227 70.297 74.931 69.4251 75.9512C68.5544 76.9751 68.6213 78.6629 69.5686 79.6126C68.9776 78.9815 67.8808 79.0448 67.2205 79.6017C66.5638 80.1586 66.2987 81.0755 66.3255 81.9376C66.3766 83.5123 67.3542 85.0263 68.766 85.7182C67.6862 86.9196 67.9087 87.8218 68.7222 89.2081Z" fill="black"/>
<path d="M91.3788 74.1541C91.7351 73.996 92.0914 73.8355 92.4343 73.6494C92.0147 73.5692 91.5393 73.7552 91.3788 74.1541ZM84.4476 75.443C84.7856 75.6327 85.1237 75.82 85.4642 76.0012C85.4289 75.9331 85.3839 75.8711 85.328 75.8151C85.0325 75.6911 84.7406 75.5671 84.4476 75.443Z" fill="black"/>
<path d="M88.7461 82.801L90.44 86.9354L88.3509 87.4887L88.7461 82.801Z" fill="#FC9B88"/>
<path d="M130.288 123.402C130.288 123.402 138.01 118.16 139.575 118.859C140.78 119.398 138.403 122.517 138.403 122.517C138.403 122.517 150.907 120.952 151.088 122.476C151.269 124 144.306 124.354 144.306 124.354C144.306 124.354 145.773 124.687 145.515 125.685C145.265 126.654 144.277 126.577 144.277 126.577C144.277 126.577 145.283 126.774 145.348 127.625C145.415 128.487 144.157 128.727 144.157 128.727C144.157 128.727 144.958 129.384 144.214 130.203C143.185 131.335 134.936 131.762 133.838 131.662C132.74 131.563 131.593 131.45 131.593 131.45C129.913 131.724 128.608 123.674 130.288 123.402Z" fill="#FFCFC5"/>
<path d="M140.643 127.158C139.863 127.158 139.189 127.076 138.896 126.831C138.766 126.723 138.697 126.583 138.693 126.429C138.688 126.108 138.808 125.822 139.046 125.577C139.942 124.662 142.328 124.64 142.429 124.64L142.431 125.079C142.408 125.079 140.127 125.101 139.36 125.884C139.204 126.043 139.129 126.219 139.132 126.421C139.132 126.433 139.134 126.458 139.176 126.493C139.707 126.936 142.603 126.648 144.302 126.361L144.374 126.793C144.066 126.848 142.154 127.158 140.643 127.158Z" fill="#FFB29F"/>
<path d="M140.617 129.29C139.902 129.29 139.269 129.19 138.928 128.905C138.72 128.73 138.619 128.492 138.636 128.218C138.704 127.148 140.413 126.791 140.486 126.777L140.573 127.207C140.17 127.289 139.114 127.636 139.075 128.246C139.067 128.382 139.108 128.481 139.211 128.568C139.959 129.195 143.026 128.63 144.145 128.359L144.248 128.785C143.954 128.857 142.108 129.29 140.617 129.29Z" fill="#FFB29F"/>
<path d="M141.968 131.214C141.665 131.213 138.992 131.179 138.282 130.41C138.141 130.257 138.074 130.076 138.089 129.886C138.113 129.571 138.241 129.311 138.471 129.115C139.001 128.664 139.889 128.731 139.926 128.734L139.891 129.172C139.884 129.172 139.144 129.119 138.755 129.451C138.617 129.57 138.543 129.723 138.527 129.92C138.523 129.963 138.528 130.028 138.605 130.112C139.097 130.646 141.201 130.771 141.969 130.775L141.968 131.214ZM135.09 125.237C134.938 125.237 134.781 125.224 134.622 125.197L134.696 124.764C136.788 125.126 138.195 122.444 138.208 122.416L138.598 122.618C138.539 122.732 137.22 125.237 135.09 125.237Z" fill="#FFB29F"/>
<path d="M195.453 251.318C195.453 251.318 189.785 235.75 193.809 230.681C197.832 225.613 202.228 230.37 202.228 230.37C202.228 230.37 202.907 219.49 208.401 213.789C213.896 208.087 220.615 210.773 222.124 215.26C223.633 219.747 217.287 223.644 214.91 224.852C212.532 226.059 208.971 229.344 210.329 230.523C211.687 231.703 215.778 229.572 215.376 234.881C214.972 240.189 195.453 251.318 195.453 251.318Z" fill="#04B5A4"/>
<path d="M193.905 256.623L193.478 256.52C196.462 244.221 211.662 219.411 211.815 219.162L212.19 219.392C212.038 219.64 196.873 244.392 193.905 256.623Z" fill="black"/>
<path d="M198.994 243.508L198.63 243.261C198.846 242.941 203.988 235.437 208.785 234.997L208.825 235.435C204.235 235.857 199.046 243.432 198.994 243.508ZM197.742 246.167L197.331 246.013C197.347 245.97 198.868 241.709 194.972 235.73L195.341 235.489C199.367 241.669 197.81 245.987 197.742 246.167Z" fill="black"/>
<path d="M192.23 248.604C192.23 248.604 203.552 236.508 201.84 230.267C200.128 224.025 194.218 226.677 194.218 226.677C194.218 226.677 197.864 216.404 195.046 209.002C192.23 201.602 184.994 201.435 181.846 204.97C178.697 208.505 183.006 214.58 184.718 216.624C186.43 218.668 188.418 223.086 186.706 223.638C184.994 224.19 182.067 220.626 180.355 225.666C178.644 230.708 192.23 248.604 192.23 248.604Z" fill="#04B5A4"/>
<path d="M192.005 254.162L191.572 254.091C193.641 241.676 189.405 212.959 189.363 212.671L189.797 212.605C189.839 212.895 194.086 241.68 192.005 254.162Z" fill="black"/>
<path d="M192.037 240.031C192.019 239.941 190.219 230.937 186.161 228.748L186.369 228.361C190.609 230.648 192.393 239.569 192.467 239.947L192.037 240.031Z" fill="black"/>
<path d="M185.815 254.173L187.612 263.501C187.707 263.998 188.143 264.358 188.649 264.358H199.509C200.016 264.358 200.453 263.998 200.546 263.501L202.344 254.173C202.469 253.52 201.968 252.916 201.306 252.916H186.852C186.189 252.916 185.689 253.52 185.815 254.173Z" fill="white"/>
<path d="M185.815 254.173L187.612 263.501C187.707 263.998 188.143 264.358 188.649 264.358H199.509C200.016 264.358 200.453 263.998 200.546 263.501L200.577 263.337C200.54 263.339 200.506 263.343 200.47 263.343H189.61C189.103 263.343 188.666 262.983 188.572 262.486L186.775 253.158C186.759 253.079 186.753 252.998 186.759 252.923C186.144 252.974 185.695 253.551 185.815 254.173Z" fill="#E5E8FF"/>
<path d="M199.509 264.579H188.649C188.037 264.579 187.51 264.142 187.395 263.543L185.598 254.216C185.526 253.84 185.625 253.456 185.868 253.16C186.111 252.866 186.47 252.697 186.852 252.697H201.306C201.688 252.697 202.047 252.866 202.29 253.16C202.533 253.455 202.632 253.84 202.56 254.216L200.763 263.544C200.649 264.142 200.122 264.579 199.509 264.579ZM186.03 254.132L187.827 263.459C187.902 263.853 188.248 264.138 188.649 264.138H199.509C199.91 264.138 200.256 263.853 200.331 263.459L202.13 254.131C202.177 253.884 202.113 253.632 201.952 253.438C201.793 253.244 201.557 253.134 201.308 253.134H186.853C186.603 253.134 186.368 253.244 186.209 253.438C186.047 253.633 185.982 253.885 186.03 254.132ZM192.584 242.987L192.145 242.968C192.154 242.776 192.416 238.194 198.545 234.09L198.789 234.455C192.844 238.436 192.586 242.942 192.584 242.987Z" fill="black"/>
<path d="M252.854 42.6536H249.594V47.4665H252.854V42.6536Z" fill="#161C1C"/>
<path d="M253.074 47.6855H249.374V42.4336H253.074V47.6855ZM249.814 47.2465H252.635V42.8738H249.814V47.2465Z" fill="black"/>
<path d="M251.224 74.2904C258.889 74.2904 265.103 68.0769 265.103 60.4121C265.103 52.7474 258.889 46.5339 251.224 46.5339C243.56 46.5339 237.346 52.7474 237.346 60.4121C237.346 68.0769 243.56 74.2904 251.224 74.2904Z" fill="#C5CDE3"/>
<path d="M251.224 74.5091C243.451 74.5091 237.126 68.1847 237.126 60.4108C237.126 52.6369 243.451 46.3125 251.224 46.3125C258.998 46.3125 265.323 52.6369 265.323 60.4108C265.323 68.1847 258.998 74.5091 251.224 74.5091ZM251.224 46.7527C243.694 46.7527 237.566 52.8801 237.566 60.4108C237.566 67.9415 243.694 74.0689 251.224 74.0689C258.755 74.0689 264.883 67.9415 264.883 60.4108C264.883 52.8801 258.755 46.7527 251.224 46.7527Z" fill="black"/>
<path d="M251.224 71.1823C257.173 71.1823 261.995 66.3604 261.995 60.4122C261.995 54.464 257.173 49.6421 251.224 49.6421C245.276 49.6421 240.454 54.464 240.454 60.4122C240.454 66.3604 245.276 71.1823 251.224 71.1823Z" fill="white"/>
<path d="M255.001 43.4501H247.447C247.098 43.4501 246.815 43.1667 246.815 42.8178V40.01C246.815 39.661 247.098 39.3777 247.447 39.3777H255.001C255.35 39.3777 255.634 39.661 255.634 40.01V42.8178C255.634 43.1667 255.35 43.4501 255.001 43.4501Z" fill="#C5CDE3"/>
<path d="M255.001 43.6703H247.448C246.977 43.6703 246.595 43.2885 246.595 42.8179V40.0101C246.595 39.5408 246.977 39.1577 247.448 39.1577H255.001C255.472 39.1577 255.854 39.5395 255.854 40.0101V42.8179C255.854 43.2873 255.472 43.6703 255.001 43.6703ZM247.448 39.5967C247.22 39.5967 247.034 39.7815 247.034 40.0089V42.8167C247.034 43.0441 247.219 43.2301 247.448 43.2301H255.001C255.229 43.2301 255.415 43.0453 255.415 42.8167V40.0089C255.415 39.7815 255.23 39.5967 255.001 39.5967H247.448Z" fill="black"/>
<path d="M252.399 61.841L249.901 59.3421L256.676 55.0654L252.399 61.841Z" fill="black"/>
<path d="M115.163 43.6265L115.923 46.0561C116.012 46.3455 115.854 46.6495 115.569 46.7382C115.279 46.8282 114.975 46.6702 114.885 46.3807L114.125 43.9512C114.035 43.6618 114.193 43.3578 114.483 43.2678C114.769 43.1778 115.071 43.3371 115.163 43.6265Z" fill="#FFD24F"/>
<path d="M103.929 51.9268L106.185 53.1063C106.453 53.2473 106.556 53.5744 106.417 53.8383C106.276 54.107 105.949 54.2092 105.681 54.0681L103.426 52.8886C103.157 52.7476 103.055 52.4205 103.196 52.1529C103.333 51.8878 103.66 51.7857 103.929 51.9268Z" fill="#FFD24F"/>
<path d="M128.975 45.6997L127.795 47.9554C127.654 48.2241 127.327 48.3263 127.063 48.1876C126.795 48.0466 126.693 47.7195 126.834 47.4519L128.013 45.1963C128.154 44.9275 128.481 44.8254 128.749 44.9664C129.013 45.1039 129.116 45.431 128.975 45.6997Z" fill="#FFD24F"/>
<path d="M132.194 56.5866C133.591 60.4122 133.154 64.4201 131.366 67.6936C130.088 70.0319 129.776 72.7765 130.573 75.3191L130.699 75.7228L118.621 79.5034L118.494 79.0997C117.715 76.6117 115.988 74.4983 113.643 73.3589C110.415 71.7927 107.818 68.9497 106.661 65.2555C104.385 57.9814 108.582 50.2306 116.004 48.2108C122.71 46.3868 129.81 50.0579 132.194 56.5866Z" fill="#FFD24F"/>
<path d="M120.662 83.6547C121.369 84.7613 122.422 85.5797 123.626 86.0053C124.773 86.4114 126.058 86.4637 127.308 86.0722C129.871 85.2696 131.485 82.8595 131.389 80.2986L120.662 83.6547Z" fill="#242B2B"/>
<path d="M129.973 80.74C129.587 81.8234 128.964 82.7962 128.143 83.6146C127.613 84.1411 127.012 84.5971 126.363 84.9668C125.507 85.4508 124.584 85.7913 123.626 86.0041C124.773 86.4102 126.058 86.4625 127.308 86.0709C129.871 85.2684 131.485 82.8583 131.389 80.2974L129.973 80.74Z" fill="#161C1C"/>
<path d="M131.595 77.7243L119.026 81.6581C118.409 81.8514 117.754 81.5073 117.56 80.892L117.357 80.2451C117.164 79.6286 117.508 78.9732 118.123 78.7798L130.693 74.8461C131.31 74.6527 131.965 74.9968 132.159 75.6121L132.362 76.2591C132.555 76.8768 132.212 77.5322 131.595 77.7243Z" fill="#242B2B"/>
<path d="M132.261 75.9367C132.385 76.3344 132.337 76.7441 132.157 77.0858C131.98 77.4275 131.668 77.7024 131.272 77.8264L119.349 81.5583C118.763 81.7419 118.15 81.5498 117.768 81.1181C118.105 81.2896 118.509 81.3333 118.898 81.2105L130.821 77.4786C131.217 77.3546 131.529 77.081 131.706 76.7381C131.885 76.3952 131.934 75.9866 131.81 75.5889C131.744 75.3786 131.637 75.195 131.501 75.0405C131.853 75.2181 132.134 75.5306 132.261 75.9367Z" fill="#161C1C"/>
<path d="M133.162 78.8137C133.286 79.2114 133.238 79.6211 133.058 79.9628C132.881 80.3045 132.57 80.5794 132.173 80.7034L120.25 84.4353C119.455 84.6846 118.61 84.2419 118.361 83.4467C118.237 83.0503 118.284 82.6393 118.464 82.2988C118.641 81.9571 118.953 81.6823 119.349 81.5582L131.272 77.8263C132.067 77.577 132.914 78.0197 133.162 78.8137Z" fill="#242B2B"/>
<path d="M133.162 78.8139C133.286 79.2116 133.238 79.6214 133.058 79.9631C132.881 80.3047 132.57 80.5796 132.173 80.7036L120.25 84.4355C119.664 84.6191 119.051 84.427 118.669 83.9953C119.006 84.1668 119.41 84.2105 119.799 84.0877L131.722 80.3558C132.118 80.2318 132.43 79.9582 132.607 79.6153C132.786 79.2724 132.835 78.8638 132.711 78.4662C132.646 78.2582 132.539 78.0746 132.403 77.9202C132.753 78.0965 133.035 78.4102 133.162 78.8139Z" fill="#161C1C"/>
<path d="M121.536 67.6218L121.455 67.6182C121.397 67.6158 121.332 67.6097 121.272 67.6024C120.746 67.5428 119.972 66.8886 119.726 66.103C119.495 65.3674 119.637 64.5077 120.474 64.245C121.37 63.9641 121.793 64.4347 121.967 64.7411C122.415 65.534 122.212 67.0369 121.736 67.4589C121.691 67.499 121.646 67.5391 121.6 67.5744L121.536 67.6218ZM120.986 64.5976C120.872 64.5976 120.745 64.6195 120.605 64.6633C119.853 64.8992 120.091 65.7942 120.146 65.9705C120.345 66.6089 120.988 67.1269 121.324 67.1646C121.347 67.1671 121.37 67.1707 121.393 67.1719C121.41 67.1573 121.426 67.1427 121.442 67.1281L121.443 67.1269C121.722 66.8801 121.959 65.6215 121.583 64.9551C121.448 64.7168 121.251 64.5976 120.986 64.5976Z" fill="white"/>
<path d="M121.655 77.6757L118.888 68.8366C117.248 68.9764 115.998 67.9221 115.514 66.846C115.193 66.131 115.242 65.4755 115.642 65.1326C116.154 64.6912 116.757 64.6231 117.387 64.9369C117.942 65.208 118.378 65.7345 118.579 66.379L119.196 68.3489C119.899 68.2079 120.614 67.8321 121.323 67.2302L121.393 67.1706L121.486 67.1792C122.416 67.2728 123.215 67.1731 123.867 66.8873L123.25 64.9174C123.048 64.2741 123.104 63.5944 123.403 63.0533C123.741 62.438 124.276 62.1498 124.953 62.2191C125.477 62.2726 125.891 62.7845 126.035 63.5567C126.25 64.718 125.823 66.2963 124.398 67.1123L127.164 75.9514L126.745 76.0827L123.999 67.3105C123.309 67.6023 122.482 67.7069 121.536 67.6254C120.807 68.2286 120.065 68.6128 119.327 68.7709L122.073 77.5443L121.655 77.6757ZM116.627 65.1825C116.379 65.1825 116.149 65.2773 115.929 65.4658C115.685 65.6737 115.681 66.1443 115.915 66.666C116.327 67.5816 117.377 68.4815 118.753 68.4061L118.16 66.5116C117.993 65.9814 117.641 65.5509 117.192 65.3321C116.994 65.2323 116.805 65.1825 116.627 65.1825ZM124.759 62.6483C124.335 62.6483 124.016 62.8514 123.789 63.2649C123.547 63.7026 123.504 64.2571 123.67 64.7861L124.263 66.6818C125.435 65.9583 125.786 64.6243 125.603 63.6369C125.499 63.0727 125.226 62.6873 124.909 62.6556C124.858 62.6508 124.808 62.6483 124.759 62.6483Z" fill="white"/>
<path d="M101.855 65.7394L104.284 64.9794C104.574 64.8894 104.878 65.0475 104.966 65.3332C105.056 65.6226 104.898 65.9266 104.609 66.0166L102.179 66.7766C101.89 66.8666 101.586 66.7085 101.496 66.4191C101.407 66.1333 101.566 65.8293 101.855 65.7394Z" fill="#FFD24F"/>
<path d="M137.275 56.9331L134.846 57.6931C134.556 57.7831 134.252 57.625 134.164 57.3392C134.074 57.0498 134.232 56.7458 134.521 56.6558L136.951 55.8958C137.24 55.8058 137.544 55.9639 137.634 56.2533C137.724 56.5391 137.565 56.8431 137.275 56.9331Z" fill="#FFD24F"/>
</svg>
