<svg width="14" height="17" viewBox="0 0 14 17" fill="none" xmlns="http://www.w3.org/2000/svg">
<path d="M7.00001 8.84867C4.64094 8.84867 2.72094 6.92867 2.72094 4.5696C2.72094 2.21053 4.64094 0.290527 7.00001 0.290527C9.35908 0.290527 11.2791 2.21053 11.2791 4.5696C11.2791 6.92867 9.35908 8.84867 7.00001 8.84867ZM7.00001 1.40681C5.25862 1.40681 3.83722 2.8282 3.83722 4.5696C3.83722 6.31099 5.25862 7.73239 7.00001 7.73239C8.74141 7.73239 10.1628 6.31099 10.1628 4.5696C10.1628 2.8282 8.74141 1.40681 7.00001 1.40681ZM13.3926 16.2905C13.0875 16.2905 12.8344 16.0375 12.8344 15.7324C12.8344 13.1649 10.2149 11.0812 7.00001 11.0812C3.78513 11.0812 1.1656 13.1649 1.1656 15.7324C1.1656 16.0375 0.912572 16.2905 0.607456 16.2905C0.30234 16.2905 0.0493164 16.0375 0.0493164 15.7324C0.0493164 12.5547 3.16746 9.96495 7.00001 9.96495C10.8326 9.96495 13.9507 12.5547 13.9507 15.7324C13.9507 16.0375 13.6977 16.2905 13.3926 16.2905Z" fill="#736968"/>
</svg>
