<svg xmlns="http://www.w3.org/2000/svg" width="18" height="18" viewBox="0 0 18 18" fill="none">
  <path fill-rule="evenodd" clip-rule="evenodd" d="M1.50012 4.95C1.50012 11.319 6.68112 16.5 13.0501 16.5C14.9521 16.5 16.5001 14.9528 16.5001 13.05C16.5001 12.8565 16.4836 12.6645 16.4521 12.4793C16.4214 12.291 16.3749 12.108 16.3134 11.931C16.2294 11.6873 16.0246 11.5043 15.7734 11.4465L11.2996 10.4198C11.0551 10.3658 10.7956 10.434 10.6126 10.6095C10.5061 10.7115 10.5031 10.7145 10.0156 11.6453C8.41812 10.9178 7.10937 9.6135 6.35637 7.983C7.28637 7.49625 7.28862 7.494 7.39062 7.3875C7.56612 7.2045 7.63737 6.9465 7.58037 6.7005L6.55362 2.2275C6.49587 1.9755 6.31212 1.77075 6.06837 1.686C5.88987 1.6245 5.70687 1.578 5.52462 1.54875C5.33787 1.5165 5.14512 1.5 4.95012 1.5C3.04737 1.5 1.50012 3.04725 1.50012 4.95ZM3.00012 4.95C3.00012 3.8745 3.87462 3 4.95012 3C5.03187 3 5.11287 3.00525 5.19612 3.01575L5.99112 6.4815C5.86137 6.549 5.71962 6.62325 5.58837 6.69225C4.94187 7.02975 4.43187 7.29675 4.69962 7.8855C5.58087 10.395 7.60512 12.42 10.0846 13.29C10.7153 13.5439 10.963 13.0714 11.3044 12.4202L11.3056 12.4178C11.3511 12.3298 11.3995 12.2375 11.447 12.1471C11.4715 12.1003 11.4958 12.054 11.5194 12.009L14.9844 12.804C14.9949 12.885 15.0001 12.9668 15.0001 13.05C15.0001 14.1255 14.1249 15 13.0501 15C7.50837 15 3.00012 10.491 3.00012 4.95Z" fill="#ABA8B0"/>
  <mask id="mask0_31_138" style="mask-type:luminance" maskUnits="userSpaceOnUse" x="1" y="1" width="16" height="16">
    <path fill-rule="evenodd" clip-rule="evenodd" d="M1.50012 4.95C1.50012 11.319 6.68112 16.5 13.0501 16.5C14.9521 16.5 16.5001 14.9528 16.5001 13.05C16.5001 12.8565 16.4836 12.6645 16.4521 12.4793C16.4214 12.291 16.3749 12.108 16.3134 11.931C16.2294 11.6873 16.0246 11.5043 15.7734 11.4465L11.2996 10.4198C11.0551 10.3658 10.7956 10.434 10.6126 10.6095C10.5061 10.7115 10.5031 10.7145 10.0156 11.6453C8.41812 10.9178 7.10937 9.6135 6.35637 7.983C7.28637 7.49625 7.28862 7.494 7.39062 7.3875C7.56612 7.2045 7.63737 6.9465 7.58037 6.7005L6.55362 2.2275C6.49587 1.9755 6.31212 1.77075 6.06837 1.686C5.88987 1.6245 5.70687 1.578 5.52462 1.54875C5.33787 1.5165 5.14512 1.5 4.95012 1.5C3.04737 1.5 1.50012 3.04725 1.50012 4.95ZM3.00012 4.95C3.00012 3.8745 3.87462 3 4.95012 3C5.03187 3 5.11287 3.00525 5.19612 3.01575L5.99112 6.4815C5.86137 6.549 5.71962 6.62325 5.58837 6.69225C4.94187 7.02975 4.43187 7.29675 4.69962 7.8855C5.58087 10.395 7.60512 12.42 10.0846 13.29C10.7153 13.5439 10.963 13.0714 11.3044 12.4202L11.3056 12.4178C11.3511 12.3298 11.3995 12.2375 11.447 12.1471C11.4715 12.1003 11.4958 12.054 11.5194 12.009L14.9844 12.804C14.9949 12.885 15.0001 12.9668 15.0001 13.05C15.0001 14.1255 14.1249 15 13.0501 15C7.50837 15 3.00012 10.491 3.00012 4.95Z" fill="white"/>
  </mask>
  <g mask="url(#mask0_31_138)">
  </g>
</svg>