<svg width="56" height="56" viewBox="0 0 56 56" fill="none" xmlns="http://www.w3.org/2000/svg">
<g clip-path="url(#clip0_446_7097)">
<path d="M27.9061 2.1189C13.0943 2.1189 1.08691 14.1262 1.08691 28.9381C1.08691 35.221 3.24734 40.9993 6.86596 45.5706L48.6263 45.9671C52.4372 41.3356 54.7253 35.4041 54.7253 28.9381C54.7253 14.1262 42.718 2.1189 27.9061 2.1189Z" fill="#68E7FD"/>
<path d="M27.9059 50.8314C39.9972 50.8314 49.7992 41.0295 49.7992 28.9382C49.7992 16.8469 39.9972 7.04492 27.9059 7.04492C15.8146 7.04492 6.0127 16.8469 6.0127 28.9382C6.0127 41.0295 15.8146 50.8314 27.9059 50.8314Z" fill="#B7EFFF"/>
<path d="M43.0041 39.5327C42.9462 39.5182 27.6842 36.1392 27.6842 36.1392C27.6842 36.1392 13.6069 42.205 13.5303 42.2244L18.369 54.0115C20.7745 54.9272 23.3458 55.5066 26.0255 55.6923L29.1683 55.7281C37.0016 55.3654 43.9569 51.6419 48.6264 45.9668C48.2418 42.9041 46.052 40.3001 43.0041 39.5327Z" fill="#574D56"/>
<path d="M6.86719 45.57C9.84456 49.3313 13.8092 52.2743 18.3696 54.01V46.9287C18.3696 43.4616 20.686 40.3786 24.0476 39.5299C24.0638 39.5258 24.7541 39.3721 25.8324 39.1324V36.5505C21.781 37.4501 12.484 39.5148 12.424 39.5299C9.50959 40.2656 7.38201 42.6811 6.86719 45.57Z" fill="#433D41"/>
<path d="M27.4761 50.8313L20.0166 37.7817L27.7097 36.1392L34.9354 37.7817L27.4761 50.8313Z" fill="#FFDFF3"/>
<path d="M40.8017 17.8952V12.1275C40.8017 5.75921 35.6392 0.59668 29.2709 0.59668H26.2202C19.628 0.59668 14.2842 5.94049 14.2842 12.5325V17.8952H40.8017Z" fill="#433D41"/>
<path d="M27.5997 42.2244C25.3441 42.2244 23.5156 40.3959 23.5156 38.1403V28.9927H31.6838V38.1403C31.6838 40.3959 29.8552 42.2244 27.5997 42.2244Z" fill="#FF9774"/>
<path d="M31.6838 34.6127V30.0107H23.5156V34.6127C23.5156 36.8683 25.3441 38.6968 27.5997 38.6968C29.8552 38.6968 31.6838 36.8683 31.6838 34.6127Z" fill="#F88065"/>
<path d="M39.1946 22.6934H38.4736V15.8015H39.1946C40.696 15.8015 41.9132 17.0187 41.9132 18.5201V19.9748C41.9132 21.4762 40.696 22.6934 39.1946 22.6934Z" fill="#FF9774"/>
<path d="M39.1953 20.4505V18.0444C39.447 18.0444 39.6884 18.1444 39.8664 18.3224C40.0444 18.5004 40.1444 18.7418 40.1444 18.9935V19.5013C40.1444 19.626 40.1199 19.7494 40.0722 19.8645C40.0245 19.9797 39.9546 20.0843 39.8664 20.1725C39.7783 20.2606 39.6737 20.3305 39.5585 20.3782C39.4434 20.4259 39.32 20.4505 39.1953 20.4505Z" fill="#F88065"/>
<path d="M13.1719 19.9748C13.1719 21.4762 14.389 22.6934 15.8905 22.6934H16.5199L16.712 15.8015H15.8905C14.389 15.8015 13.1719 17.0187 13.1719 18.5201V19.9748Z" fill="#FF9774"/>
<path d="M14.9375 19.5023C14.9375 19.6274 14.9621 19.7512 15.01 19.8668C15.0578 19.9824 15.128 20.0874 15.2164 20.1758C15.3049 20.2643 15.4099 20.3344 15.5255 20.3823C15.641 20.4301 15.7649 20.4548 15.89 20.4548V18.04C15.7649 18.04 15.641 18.0647 15.5255 18.1125C15.4099 18.1604 15.3049 18.2305 15.2164 18.319C15.128 18.4074 15.0578 18.5124 15.01 18.628C14.9621 18.7436 14.9375 18.8674 14.9375 18.9925V19.5023Z" fill="#F88065"/>
<path d="M18.7725 8.58057L18.8114 27.3254C18.9515 31.9967 22.8453 35.6835 27.5184 35.7263L29.1248 35.741C34.8075 34.9942 39.1943 30.1326 39.1943 24.2459L39.2438 21.2384L36.4842 8.58057H18.7725Z" fill="#FFAE91"/>
<path d="M22.5898 19.9131V20.7307C22.5898 20.9868 22.6916 21.2324 22.8727 21.4135C23.0538 21.5947 23.2994 21.6964 23.5556 21.6964C23.8117 21.6964 24.0573 21.5947 24.2384 21.4135C24.4195 21.2324 24.5213 20.9868 24.5213 20.7307V19.9131H22.5898ZM30.4584 19.9131V20.7307C30.4584 20.9868 30.5601 21.2324 30.7412 21.4135C30.9223 21.5947 31.168 21.6964 31.4241 21.6964C31.6802 21.6964 31.9258 21.5947 32.107 21.4135C32.2881 21.2324 32.3898 20.9868 32.3898 20.7307V19.9131H30.4584Z" fill="#FF9774"/>
<path d="M23.5556 20.923C23.2995 20.923 23.0539 20.8213 22.8728 20.6402C22.6917 20.459 22.5899 20.2134 22.5899 19.9573V18.7151L22.9459 18.176L22.5899 17.6368V17.316C22.5899 17.0599 22.6917 16.8142 22.8728 16.6331C23.0539 16.452 23.2995 16.3503 23.5556 16.3503C23.8118 16.3503 24.0574 16.452 24.2385 16.6331C24.4196 16.8142 24.5213 17.0599 24.5213 17.316V19.9572C24.5213 20.2133 24.4196 20.459 24.2385 20.6401C24.0574 20.8212 23.8118 20.923 23.5556 20.923ZM31.4242 20.923C31.168 20.923 30.9224 20.8213 30.7413 20.6402C30.5602 20.459 30.4585 20.2134 30.4585 19.9573V18.7151L30.8144 18.176L30.4585 17.6368V17.316C30.4585 17.0599 30.5602 16.8142 30.7413 16.6331C30.9224 16.452 31.168 16.3503 31.4242 16.3503C31.6803 16.3503 31.9259 16.452 32.107 16.6331C32.2881 16.8142 32.3899 17.0599 32.3899 17.316V19.9572C32.3899 20.2133 32.2881 20.459 32.107 20.6401C31.9259 20.8212 31.6803 20.923 31.4242 20.923ZM24.8278 15.302H22.0116C21.7555 15.302 21.5099 15.2003 21.3287 15.0192C21.1476 14.8381 21.0459 14.5924 21.0459 14.3363C21.0459 14.0802 21.1476 13.8346 21.3287 13.6535C21.5099 13.4723 21.7555 13.3706 22.0116 13.3706H24.8278C25.084 13.3706 25.3296 13.4723 25.5107 13.6535C25.6918 13.8346 25.7936 14.0802 25.7936 14.3363C25.7936 14.5924 25.6918 14.8381 25.5107 15.0192C25.3296 15.2003 25.084 15.302 24.8278 15.302ZM32.8755 15.302H30.0592C29.8031 15.302 29.5575 15.2003 29.3764 15.0192C29.1953 14.8381 29.0935 14.5924 29.0935 14.3363C29.0935 14.0802 29.1953 13.8346 29.3764 13.6535C29.5575 13.4723 29.8031 13.3706 30.0592 13.3706H32.8755C33.1316 13.3706 33.3772 13.4723 33.5583 13.6535C33.7394 13.8346 33.8412 14.0802 33.8412 14.3363C33.8412 14.5924 33.7394 14.8381 33.5583 15.0192C33.3772 15.2003 33.1316 15.302 32.8755 15.302Z" fill="#433D41"/>
<path d="M26.0353 22.294C25.7952 23.2527 26.2315 24.2969 27.0659 24.6117C27.4101 24.7421 27.7901 24.7421 28.1343 24.6117C28.9686 24.297 29.405 23.2527 29.1649 22.294L28.3691 19.1159C28.1688 18.3158 27.0317 18.3158 26.8313 19.1159L26.0353 22.294Z" fill="#FF9774"/>
<path d="M22.9458 19.0709C22.8991 19.0709 22.8528 19.0617 22.8096 19.0438C22.7664 19.0259 22.7272 18.9997 22.6941 18.9666C22.6611 18.9335 22.6348 18.8943 22.6169 18.8511C22.5991 18.8079 22.5898 18.7616 22.5898 18.7149V17.6367C22.5898 17.5423 22.6273 17.4518 22.6941 17.385C22.7609 17.3183 22.8514 17.2808 22.9458 17.2808C23.0402 17.2808 23.1308 17.3183 23.1975 17.385C23.2643 17.4518 23.3018 17.5423 23.3018 17.6367V18.7149C23.3018 18.8093 23.2643 18.8998 23.1975 18.9666C23.1308 19.0334 23.0402 19.0709 22.9458 19.0709ZM30.8144 19.0709C30.72 19.0709 30.6294 19.0334 30.5626 18.9666C30.4959 18.8998 30.4584 18.8093 30.4584 18.7149V17.6367C30.4584 17.5423 30.4959 17.4518 30.5626 17.385C30.6294 17.3183 30.72 17.2808 30.8144 17.2808C30.9088 17.2808 30.9993 17.3183 31.0661 17.385C31.1328 17.4518 31.1703 17.5423 31.1703 17.6367V18.7149C31.1704 18.7616 31.1612 18.8079 31.1433 18.8511C31.1254 18.8943 31.0992 18.9336 31.0661 18.9667C31.0331 18.9997 30.9938 19.0259 30.9506 19.0438C30.9074 19.0617 30.8611 19.0709 30.8144 19.0709Z" fill="white"/>
<path d="M38.3145 8.32666H17.1913L15.8906 20.4546V24.1309C15.8906 30.5692 21.0805 35.7706 27.4675 35.8388C27.4817 35.839 27.4956 35.8401 27.5097 35.8402C27.7464 35.842 27.9832 35.8366 28.2196 35.824L28.2287 35.8237L28.2281 35.8235C28.5305 35.8073 28.8297 35.7791 29.1255 35.7403C23.3953 34.9936 19.666 30.0929 19.666 24.1309V11.5429C19.666 10.6607 20.2409 9.86565 21.0917 9.63226L21.1078 9.62788C21.7538 10.4762 22.7741 11.0241 23.9226 11.0241H32.2739C33.3912 11.0251 34.5001 10.8315 35.551 10.4518C36.3283 11.1434 36.8185 12.1508 36.8185 13.2731V18.812C36.8185 20.152 37.9047 21.2382 39.2447 21.2382V20.4504L38.3145 8.32666Z" fill="#FF9774"/>
<path d="M20.8665 5.91602C18.1184 5.91602 15.8906 8.14376 15.8906 10.8919V20.4505C17.2306 20.4505 18.3168 19.3643 18.3168 18.0243V12.4854C18.3168 10.4001 20.0073 8.7097 22.0925 8.7097H33.0427C35.128 8.7097 36.8184 10.4002 36.8184 12.4854V18.0243C36.8184 19.3643 37.9046 20.4505 39.2446 20.4505V10.8919C39.2446 8.14376 37.0168 5.91602 34.2687 5.91602H20.8665Z" fill="#433D41"/>
<path d="M26.4889 0.59668C23.1182 0.59668 20.3857 3.32917 20.3857 6.69986C20.3857 8.65306 21.9691 10.2364 23.9223 10.2364H32.2736C36.8548 10.2364 40.6896 7.04063 41.6703 2.75678C41.9239 1.64953 41.0686 0.59668 39.9327 0.59668H26.4889Z" fill="#574D56"/>
<path d="M21.6414 46.2623C22.0009 46.8748 22.8421 46.9826 23.3443 46.4803L26.3958 43.4286L22.6265 37.2622L20.6647 37.6979L18.5762 38.7936C18.0277 39.0814 17.8311 39.7693 18.1446 40.3035L21.6414 46.2623ZM33.6747 46.2623L37.1713 40.3035C37.4848 39.7693 37.2881 39.0814 36.7397 38.7936L34.5987 37.6703C33.9649 37.5299 33.3311 37.3895 32.6973 37.2493L28.9201 43.4286L31.9716 46.4803C32.4739 46.9826 33.3153 46.8748 33.6747 46.2623Z" fill="#433D41"/>
<path d="M28.8166 29.4305H26.0947C25.4901 29.4305 25 28.9403 25 28.3359C25 27.7314 25.4901 27.2412 26.0947 27.2412H28.8166C29.4211 27.2412 29.9113 27.7314 29.9113 28.3359C29.9113 28.9403 29.4212 29.4305 28.8166 29.4305Z" fill="#FF9774"/>
<path d="M27.5998 42.2246L24.5483 45.2763C24.0461 45.7785 23.2048 45.6708 22.8453 45.0582L19.3487 39.0994C19.0351 38.5652 19.2319 37.8773 19.7803 37.5895L23.5558 35.6086L27.5998 42.2246ZM27.7157 42.2246L30.7672 45.2763C31.2694 45.7785 32.1107 45.6708 32.4702 45.0582L35.9668 39.0994C36.2803 38.5652 36.0836 37.8773 35.5352 37.5895L31.7597 35.6086L27.7157 42.2246Z" fill="white"/>
<path d="M27.5697 48.0291L25.6814 46.1408C25.1297 45.5891 25.1297 44.6947 25.6814 44.143L27.5697 42.2547C27.5777 42.2467 27.5885 42.2422 27.5998 42.2422C27.6111 42.2422 27.622 42.2467 27.63 42.2547L29.5183 44.143C30.07 44.6947 30.07 45.5891 29.5183 46.1408L27.63 48.0291C27.622 48.0371 27.6111 48.0416 27.5998 48.0416C27.5885 48.0416 27.5777 48.0371 27.5697 48.0291Z" fill="#433D41"/>
<path d="M27.6004 45.9534L25.342 48.2117C25.1392 48.4145 24.9894 48.6641 24.9058 48.9385C24.8223 49.2129 24.8076 49.5037 24.863 49.7851L26.0255 55.6906C26.6471 55.7336 27.2741 55.7573 27.9066 55.7573C28.3296 55.7573 28.7499 55.7462 29.1682 55.7268L30.3378 49.7851C30.3932 49.5037 30.3785 49.2129 30.295 48.9385C30.2114 48.6641 30.0616 48.4145 29.8588 48.2117L27.6004 45.9534ZM42.4011 49.7355H36.1962C35.9931 49.7355 35.7982 49.8162 35.6546 49.9599C35.5109 50.1036 35.4302 50.2984 35.4302 50.5016V51.5003C35.4302 51.7035 35.5109 51.8984 35.6546 52.042C35.7982 52.1857 35.9931 52.2664 36.1962 52.2664H41.1446C41.8374 51.8721 42.5122 51.4472 43.1672 50.9928V50.5016C43.1672 50.2984 43.0865 50.1036 42.9428 49.9599C42.7991 49.8162 42.6043 49.7355 42.4011 49.7355Z" fill="#433D41"/>
<path d="M22.8518 24.6382H21.121C19.0915 24.6382 17.4404 22.9871 17.4404 20.9576V19.1844C17.4404 18.1825 18.2555 17.3674 19.2573 17.3674H24.7154C25.7173 17.3674 26.5323 18.1824 26.5323 19.1844V20.9576C26.5323 22.9871 24.8812 24.6382 22.8518 24.6382ZM19.2573 18.681C19.1239 18.6812 18.996 18.7342 18.9016 18.8286C18.8072 18.923 18.7542 19.0509 18.754 19.1844V20.9576C18.754 22.2628 19.8158 23.3246 21.121 23.3246H22.8518C24.1569 23.3246 25.2188 22.2628 25.2188 20.9576V19.1844C25.2186 19.0509 25.1656 18.923 25.0712 18.8286C24.9769 18.7343 24.849 18.6812 24.7156 18.681H19.2573ZM34.0949 24.6382H32.3642C30.3348 24.6382 28.6837 22.9871 28.6837 20.9576V19.1844C28.6837 18.1825 29.4987 17.3674 30.5005 17.3674H35.9586C36.9604 17.3674 37.7755 18.1824 37.7755 19.1844V20.9576C37.7755 22.9871 36.1244 24.6382 34.0949 24.6382ZM30.5005 18.681C30.3671 18.6812 30.2392 18.7343 30.1448 18.8286C30.0505 18.923 29.9974 19.0509 29.9973 19.1844V20.9576C29.9973 22.2628 31.059 23.3246 32.3642 23.3246H34.0949C35.4001 23.3246 36.4619 22.2628 36.4619 20.9576V19.1844C36.4618 19.0509 36.4087 18.923 36.3143 18.8286C36.22 18.7342 36.092 18.6812 35.9586 18.681H30.5005Z" fill="#FF9774"/>
<path d="M34.0954 22.8866H32.3646C30.6947 22.8866 29.3408 21.5328 29.3408 19.8628V18.0895C29.3408 17.4488 29.8602 16.9294 30.5008 16.9294H35.9589C36.5996 16.9294 37.1189 17.4489 37.1189 18.0895V19.8628C37.1192 21.5328 35.7654 22.8866 34.0954 22.8866Z" fill="#574D56"/>
<path d="M35.9588 16.9297L30.0156 21.7674C30.5701 22.4503 31.4162 22.8867 32.3644 22.8867H34.0952C35.7651 22.8867 37.119 21.533 37.119 19.8629V18.0896C37.1189 17.449 36.5995 16.9297 35.9588 16.9297Z" fill="#806D7A"/>
<path d="M34.0948 23.5434H32.3641C30.3347 23.5434 28.6836 21.8924 28.6836 19.8629V18.0896C28.6836 17.0878 29.4986 16.2727 30.5004 16.2727H35.9585C36.9603 16.2727 37.7754 17.0877 37.7754 18.0896V19.8629C37.7754 21.8924 36.1243 23.5434 34.0948 23.5434ZM30.5004 17.5863C30.367 17.5865 30.2391 17.6396 30.1447 17.7339C30.0504 17.8283 29.9973 17.9562 29.9972 18.0896V19.8629C29.9972 21.168 31.0589 22.2299 32.3641 22.2299H34.0948C35.4 22.2299 36.4618 21.168 36.4618 19.8629V18.0896C36.4617 17.9562 36.4086 17.8282 36.3142 17.7339C36.2199 17.6395 36.0919 17.5864 35.9585 17.5863H30.5004Z" fill="#433D41"/>
<path d="M26.1298 20.2495L25.457 19.1212C27.4769 17.9167 28.9094 18.4865 29.7554 19.1763L28.9252 20.1944C28.4353 19.7946 27.6122 19.3654 26.1298 20.2495Z" fill="#433D41"/>
<path d="M22.8522 22.8866H21.1214C19.4514 22.8866 18.0977 21.5328 18.0977 19.8628V18.0895C18.0977 17.4488 18.6171 16.9294 19.2577 16.9294H24.7158C25.3565 16.9294 25.8758 17.4489 25.8758 18.0895V19.8628C25.8759 21.5328 24.5221 22.8866 22.8522 22.8866Z" fill="#574D56"/>
<path d="M24.7156 16.9297L18.7725 21.7674C19.3269 22.4503 20.1731 22.8867 21.1213 22.8867H22.852C24.522 22.8867 25.8758 21.533 25.8758 19.8629V18.0896C25.8756 17.449 25.3563 16.9297 24.7156 16.9297Z" fill="#806D7A"/>
<path d="M22.8518 23.5434H21.121C19.0915 23.5434 17.4404 21.8924 17.4404 19.8629V18.0896C17.4404 17.0878 18.2555 16.2727 19.2574 16.2727H24.7154C25.7173 16.2727 26.5323 17.0877 26.5323 18.0896V19.8629C26.5323 21.8924 24.8812 23.5434 22.8518 23.5434ZM19.2574 17.5863C19.1239 17.5864 18.996 17.6395 18.9016 17.7339C18.8072 17.8282 18.7542 17.9562 18.754 18.0896V19.8629C18.754 21.168 19.8158 22.2299 21.121 22.2299H22.8518C24.1569 22.2299 25.2188 21.168 25.2188 19.8629V18.0896C25.2186 17.9562 25.1656 17.8283 25.0712 17.7339C24.9769 17.6396 24.849 17.5865 24.7156 17.5863H19.2574Z" fill="#433D41"/>
</g>
<defs>
<clipPath id="clip0_446_7097">
<rect width="55.1607" height="55.1607" fill="white" transform="translate(0.326172 0.59668)"/>
</clipPath>
</defs>
</svg>
