<svg width="56" height="56" viewBox="0 0 56 56" fill="none" xmlns="http://www.w3.org/2000/svg">
<g clip-path="url(#clip0_446_7062)">
<path d="M28.0985 1.20898C17.6182 1.20898 11.1621 7.12057 11.1444 7.1305C11.1444 7.1305 10.876 7.46546 10.8259 7.68826C10.4181 9.4983 10.0371 11.9243 10.0371 13.6945C10.0371 28.7354 22.721 40.9254 37.7619 40.9254C43.5537 40.9254 49.9977 38.1495 54.3104 34.8119C54.4069 34.7372 54.7129 34.2355 54.7129 34.2355C54.7319 34.1195 55.3324 31.7283 55.3324 28.4429C55.3324 13.402 43.1394 1.20898 28.0985 1.20898Z" fill="#AFE6FF"/>
<path d="M37.7592 40.1565C22.7182 40.1565 10.5253 27.9634 10.5253 12.9226C10.5253 10.9345 10.7396 8.99741 11.1441 7.13037C4.88084 12.1201 0.864258 19.8125 0.864258 28.4428C0.864258 34.9947 3.17798 41.0063 7.03286 45.7051L49.1635 45.7055C51.8412 42.443 53.7804 38.5384 54.7126 34.2354C50.0606 37.9409 44.1689 40.1565 37.7592 40.1565Z" fill="#73C8F0"/>
<path d="M39.2628 22.9066H39.1548L38.417 19.279L39.1548 16.2861H39.2628C40.705 16.2861 41.8743 17.4554 41.8743 18.8977V20.2952C41.8743 21.7373 40.7051 22.9066 39.2628 22.9066Z" fill="#FF965A"/>
<path d="M28.3302 48.7143C35.8104 48.7143 41.8742 43.8096 41.8742 37.7594C41.8742 31.7091 35.8104 26.8044 28.3302 26.8044C20.85 26.8044 14.7861 31.7091 14.7861 37.7594C14.7861 43.8096 20.85 48.7143 28.3302 48.7143Z" fill="#FF3C3C"/>
<path d="M42.8839 36.7275L42.6312 36.6716L33.9615 36.2608C25.6316 35.8662 18.6621 42.5133 18.6621 50.8526V53.9948C21.6025 55.0811 24.7806 55.6768 28.0985 55.6768C36.5362 55.6768 44.1464 51.8183 49.1638 45.7054V44.5492C49.1638 40.7919 46.5525 37.5394 42.8839 36.7275Z" fill="#FF3C3C"/>
<path d="M28.3513 46.9838C36.5094 46.9838 43.1229 45.8732 43.1229 39.2746C43.1229 38.3921 43.0035 37.5323 42.779 36.7043L28.0668 33.4487L13.3085 36.7244C9.61291 37.5447 7.0332 40.8214 7.0332 44.5451V45.7051C10.1049 49.4492 14.1554 52.3597 18.7935 54.0458C19.9808 49.9576 23.7623 46.9779 28.2365 46.9837L28.3513 46.9838Z" fill="#DC1428"/>
<path d="M41.8742 37.7594C41.8742 43.8096 35.8103 44.8279 28.3302 44.8279C20.85 44.8279 14.7861 43.8096 14.7861 37.7594C14.7861 31.7092 20.85 26.8044 28.3302 26.8044C35.8103 26.8044 41.8742 31.7091 41.8742 37.7594Z" fill="#FF3C3C"/>
<path d="M37.6417 36.2777C37.6417 40.4372 33.4728 43.8092 28.3301 43.8092C23.1874 43.8092 19.0186 40.4373 19.0186 36.2777C19.0186 32.118 23.1874 33.125 28.3301 33.125C33.4728 33.125 37.6417 32.1182 37.6417 36.2777Z" fill="#DC1428"/>
<path d="M28.1245 41.6686C30.2913 41.6686 32.0477 39.9121 32.0477 37.7454V28.9578H24.2012V37.7453C24.2012 39.9121 25.9577 41.6686 28.1245 41.6686Z" fill="#FF965A"/>
<path d="M26.8344 37.037L26.835 37.0368C25.9415 36.9889 25.0572 36.8332 24.2012 36.573V28.9578H31.3967L32.0477 34.8325C31.0815 36.3878 28.3809 37.1198 26.8344 37.037Z" fill="#EF6A30"/>
<path d="M38.7671 15.1929C38.7671 11.6125 36.4703 8.33862 32.89 8.33862H23.3585C22.3369 8.33862 21.4013 8.60601 20.585 9.07018V27.9942C20.585 32.1246 23.9071 35.5048 28.0374 35.5361C28.0663 35.5363 28.0953 35.5364 28.1243 35.5364C34.2758 35.5364 39.2625 30.5496 39.2625 24.3981V20.8818L38.7671 15.1929Z" fill="#FFBE82"/>
<path d="M39.2627 20.8517V18.3413C39.5253 18.3413 39.7772 18.4456 39.9629 18.6314C40.1487 18.8171 40.253 19.069 40.253 19.3316V19.8615C40.253 19.9916 40.2274 20.1203 40.1776 20.2405C40.1278 20.3606 40.0549 20.4698 39.9629 20.5617C39.871 20.6537 39.7618 20.7266 39.6417 20.7764C39.5215 20.8261 39.3927 20.8517 39.2627 20.8517Z" fill="#EF6A30"/>
<path d="M14.2638 20.2951C14.2638 21.7373 15.4331 22.9066 16.8753 22.9066H17.043L18.3799 20.0901L17.0653 16.2861H16.8752C15.4329 16.2861 14.2637 17.4554 14.2637 18.8977L14.2638 20.2951Z" fill="#FF965A"/>
<path d="M15.8135 19.8806C15.8135 20.4673 16.2891 20.9429 16.8758 20.9429V18.2498C16.2891 18.2498 15.8135 18.7254 15.8135 19.3121V19.8806Z" fill="#EF6A30"/>
<path d="M15.1006 21.0788C15.1006 22.0592 15.8955 22.8542 16.876 22.8542V19.325C15.8955 19.325 15.1006 20.1199 15.1006 21.1003V21.0788Z" fill="white"/>
<path d="M23.3115 20.2358V21.0213C23.3115 21.2673 23.4093 21.5033 23.5832 21.6772C23.7572 21.8512 23.9932 21.949 24.2392 21.949C24.4853 21.949 24.7212 21.8512 24.8952 21.6772C25.0692 21.5033 25.1669 21.2673 25.1669 21.0213V20.2358H23.3115ZM30.8703 20.2358V21.0213C30.8703 21.2673 30.968 21.5033 31.142 21.6772C31.316 21.8512 31.5519 21.949 31.798 21.949C32.044 21.949 32.28 21.8512 32.4539 21.6772C32.6279 21.5033 32.7256 21.2673 32.7256 21.0213V20.2358H30.8703Z" fill="#FF965A"/>
<path d="M24.239 21.2059C23.993 21.2059 23.757 21.1082 23.583 20.9342C23.409 20.7602 23.3113 20.5243 23.3113 20.2782V19.0849L23.6533 18.5671L23.3113 18.0492V17.7411C23.3113 17.495 23.409 17.2591 23.583 17.0851C23.757 16.9111 23.993 16.8134 24.239 16.8134C24.485 16.8134 24.721 16.9111 24.895 17.0851C25.069 17.2591 25.1667 17.495 25.1667 17.7411V20.2782C25.1667 20.5243 25.069 20.7602 24.895 20.9342C24.721 21.1082 24.485 21.2059 24.239 21.2059ZM31.7977 21.2059C31.5517 21.2059 31.3157 21.1082 31.1418 20.9342C30.9678 20.7602 30.87 20.5243 30.87 20.2782V19.0849L31.212 18.5671L30.87 18.0492V17.7411C30.87 17.495 30.9678 17.2591 31.1418 17.0851C31.3157 16.9111 31.5517 16.8134 31.7977 16.8134C32.0438 16.8134 32.2797 16.9111 32.4537 17.0851C32.6277 17.2591 32.7254 17.495 32.7254 17.7411V20.2782C32.7254 20.5243 32.6277 20.7602 32.4537 20.9342C32.2797 21.1082 32.0438 21.2059 31.7977 21.2059ZM25.4612 16.3495H22.7558C22.5098 16.3495 22.2738 16.2518 22.0998 16.0778C21.9259 15.9038 21.8281 15.6679 21.8281 15.4218C21.8281 15.1758 21.9259 14.9398 22.0998 14.7659C22.2738 14.5919 22.5098 14.4941 22.7558 14.4941H25.4612C25.7072 14.4941 25.9432 14.5919 26.1171 14.7659C26.2911 14.9398 26.3889 15.1758 26.3889 15.4218C26.3889 15.6679 26.2911 15.9038 26.1171 16.0778C25.9432 16.2518 25.7072 16.3495 25.4612 16.3495ZM33.1919 16.3495H30.4865C30.2405 16.3495 30.0045 16.2518 29.8305 16.0778C29.6566 15.9038 29.5588 15.6679 29.5588 15.4218C29.5588 15.1758 29.6566 14.9398 29.8305 14.7659C30.0045 14.5919 30.2405 14.4941 30.4865 14.4941H33.1919C33.4379 14.4941 33.6739 14.5919 33.8478 14.7659C34.0218 14.9398 34.1196 15.1758 34.1196 15.4218C34.1196 15.6679 34.0218 15.9038 33.8478 16.0778C33.6739 16.2518 33.4379 16.3495 33.1919 16.3495Z" fill="#373C41"/>
<path d="M31.5403 26.3381H30.5851L28.0694 26.8604L25.5537 26.3381H24.7087C24.4252 26.3381 24.1988 26.5855 24.2366 26.8665C24.3072 27.3921 24.4844 27.8978 24.7572 28.3525L29.8511 29.862C31.0015 29.2974 31.8349 28.1859 32.0125 26.8665C32.0503 26.5855 31.8238 26.3381 31.5403 26.3381Z" fill="#BE1423"/>
<path d="M37.4531 11.3178C37.5595 11.3179 37.6646 11.3127 37.7691 11.305C36.7691 9.55051 35.0677 8.33838 32.8902 8.33838H23.3587C22.3371 8.33838 21.4014 8.60576 20.5851 9.06993V9.30698C18.4896 10.2848 17.1214 12.3782 17.1214 14.9472L16.876 20.8814V24.2876C16.876 30.7164 22.2625 35.8624 28.7282 35.5198C24.0454 34.1599 20.6224 29.8384 20.6224 24.7169C20.6502 24.084 20.6224 17.9514 20.6224 15.622L20.6226 15.5722C20.6404 13.203 22.5925 11.303 24.9617 11.3054L37.4531 11.3178Z" fill="#FF965A"/>
<path d="M26.6206 22.5227C26.39 23.4436 26.8091 24.4467 27.6106 24.7491C27.9412 24.8743 28.3063 24.8743 28.6369 24.7491C29.4384 24.4467 29.8576 23.4436 29.6269 22.5227L28.8624 19.4697C28.6699 18.7012 27.5776 18.7012 27.3852 19.4697L26.6206 22.5227Z" fill="#FF965A"/>
<path d="M39.2622 9.01318V20.8817C38.4382 20.8817 37.7702 20.2137 37.7702 19.3898V12.8022C37.7702 11.3472 36.9514 10.0061 35.6429 9.36962C35.6111 9.35407 35.5791 9.33885 35.5469 9.32396V9.01329H39.2622V9.01318Z" fill="#262A2D"/>
<path d="M23.6535 19.4269C23.5628 19.4269 23.4758 19.3908 23.4117 19.3267C23.3476 19.2626 23.3115 19.1756 23.3115 19.0849V18.0492C23.3115 17.9586 23.3476 17.8716 23.4117 17.8074C23.4758 17.7433 23.5628 17.7073 23.6535 17.7073C23.7442 17.7073 23.8312 17.7433 23.8953 17.8074C23.9594 17.8716 23.9955 17.9586 23.9955 18.0492V19.0849C23.9955 19.1756 23.9594 19.2626 23.8953 19.3267C23.8312 19.3908 23.7442 19.4269 23.6535 19.4269ZM31.2122 19.4269C31.1215 19.4269 31.0346 19.3908 30.9704 19.3267C30.9063 19.2626 30.8703 19.1756 30.8703 19.0849V18.0492C30.8703 17.9586 30.9063 17.8716 30.9704 17.8074C31.0346 17.7433 31.1215 17.7073 31.2122 17.7073C31.3029 17.7073 31.3899 17.7433 31.4541 17.8074C31.5182 17.8716 31.5542 17.9586 31.5542 18.0492V19.0849C31.5542 19.1756 31.5182 19.2626 31.4541 19.3267C31.3899 19.3908 31.3029 19.4269 31.2122 19.4269Z" fill="white"/>
<path d="M24.7568 28.3523C25.4424 29.4958 26.6935 30.2614 28.1237 30.2614C28.7433 30.2614 29.329 30.1173 29.85 29.8616C29.626 28.4567 28.4092 27.3828 26.9412 27.3828C26.0749 27.3827 25.2959 27.7568 24.7568 28.3523Z" fill="#FF3C3C"/>
<path d="M30.0318 27.3825H26.1072C25.9604 27.3825 25.8196 27.3242 25.7158 27.2204C25.612 27.1166 25.5537 26.9758 25.5537 26.829V26.3379H30.5852V26.829C30.5852 26.9758 30.5269 27.1166 30.4231 27.2204C30.3193 27.3241 30.1785 27.3825 30.0318 27.3825Z" fill="white"/>
<path d="M29.7503 0.527124C26.5626 0.530038 23.9999 3.14699 24.0566 6.33432C24.0808 7.6924 24.1175 9.05026 24.1734 10.4076L24.1748 10.4413L37.4531 10.4543C39.7636 10.4566 41.6377 8.58425 41.6377 6.27376V0.516113L29.7503 0.527124Z" fill="#373C41"/>
<path d="M24.2168 6.88658C24.2168 3.37993 27.0577 0.536407 30.5643 0.533169L41.6377 0.522914V0.516113L23.2236 0.533169C19.7169 0.536407 16.876 3.38004 16.876 6.88658V20.8817C17.6999 20.8817 18.3679 20.2138 18.3679 19.3898V12.8023L18.368 12.7761C18.3769 11.4757 19.4586 10.4367 20.7591 10.438L24.2169 10.4414V6.88658H24.2168Z" fill="#262A2D"/>
<path d="M22.9865 53.5613C22.8148 53.5613 22.65 53.4931 22.5286 53.3716C22.4071 53.2502 22.3389 53.0854 22.3389 52.9137V45.4284C22.3389 45.2567 22.4071 45.0919 22.5286 44.9705C22.65 44.849 22.8148 44.7808 22.9865 44.7808C23.1583 44.7808 23.3231 44.849 23.4445 44.9705C23.566 45.0919 23.6342 45.2567 23.6342 45.4284V52.9137C23.6342 53.0854 23.566 53.2502 23.4445 53.3716C23.3231 53.4931 23.1583 53.5613 22.9865 53.5613Z" fill="#DC1428"/>
<path d="M22.9865 51.9422C22.8148 51.9422 22.65 51.874 22.5286 51.7525C22.4071 51.631 22.3389 51.4663 22.3389 51.2945V43.8093C22.3389 43.6375 22.4071 43.4728 22.5286 43.3513C22.65 43.2299 22.8148 43.1616 22.9865 43.1616C23.1583 43.1616 23.3231 43.2299 23.4445 43.3513C23.566 43.4728 23.6342 43.6375 23.6342 43.8093V51.2945C23.6342 51.4663 23.566 51.631 23.4445 51.7525C23.3231 51.874 23.1583 51.9422 22.9865 51.9422Z" fill="white"/>
<path d="M33.5666 53.5613C33.3948 53.5613 33.2301 53.4931 33.1086 53.3716C32.9872 53.2502 32.9189 53.0854 32.9189 52.9137V45.4284C32.9189 45.2567 32.9872 45.0919 33.1086 44.9705C33.2301 44.849 33.3948 44.7808 33.5666 44.7808C33.7384 44.7808 33.9031 44.849 34.0246 44.9705C34.1461 45.0919 34.2143 45.2567 34.2143 45.4284V52.9137C34.2143 53.0854 34.1461 53.2502 34.0246 53.3716C33.9031 53.4931 33.7384 53.5613 33.5666 53.5613Z" fill="#DC1428"/>
<path d="M33.5667 51.9421C33.3949 51.9421 33.2302 51.8739 33.1087 51.7524C32.9872 51.6309 32.919 51.4662 32.919 51.2944V43.8092C32.919 43.6374 32.9872 43.4727 33.1087 43.3512C33.2302 43.2298 33.3949 43.1615 33.5667 43.1615C33.7385 43.1615 33.9032 43.2298 34.0247 43.3512C34.1461 43.4727 34.2144 43.6374 34.2144 43.8092V51.2944C34.2144 51.4662 34.1461 51.6309 34.0247 51.7524C33.9032 51.8739 33.7385 51.9421 33.5667 51.9421ZM16.3842 25.3287C16.2554 25.3287 16.1318 25.2775 16.0407 25.1864C15.9496 25.0953 15.8984 24.9717 15.8984 24.8429V21.2057C15.8984 21.0769 15.9496 20.9534 16.0407 20.8623C16.1318 20.7712 16.2554 20.72 16.3842 20.72C16.513 20.72 16.6366 20.7712 16.7277 20.8623C16.8188 20.9534 16.87 21.0769 16.87 21.2057V24.8429C16.87 24.9717 16.8188 25.0953 16.7277 25.1864C16.6366 25.2775 16.513 25.3287 16.3842 25.3287ZM41.0383 21.3488C41.0383 22.3293 40.2434 23.1242 39.2629 23.1242V19.595C40.2434 19.595 41.0383 20.3899 41.0383 21.3704V21.3488Z" fill="white"/>
<path d="M39.7543 25.5987C39.6255 25.5987 39.5019 25.5475 39.4108 25.4564C39.3197 25.3653 39.2686 25.2417 39.2686 25.1129V21.4757C39.2686 21.3469 39.3197 21.2234 39.4108 21.1323C39.5019 21.0412 39.6255 20.99 39.7543 20.99C39.8831 20.99 40.0067 21.0412 40.0978 21.1323C40.1889 21.2234 40.2401 21.3469 40.2401 21.4757V25.1129C40.2401 25.2417 40.1889 25.3653 40.0978 25.4564C40.0067 25.5475 39.8831 25.5987 39.7543 25.5987Z" fill="white"/>
</g>
<defs>
<clipPath id="clip0_446_7062">
<rect width="55.1607" height="55.1607" fill="white" transform="translate(0.517578 0.516113)"/>
</clipPath>
</defs>
</svg>
