<svg width="32" height="32" viewBox="0 0 32 32" fill="none" xmlns="http://www.w3.org/2000/svg">
<rect x="0.25" y="0.25" width="31.5" height="31.5" rx="15.75" stroke="black" stroke-opacity="0.08" stroke-width="0.5"/>
<path d="M14.3329 21.8333C14.1446 21.8333 13.9554 21.77 13.7996 21.64C13.4462 21.3458 13.3987 20.82 13.6929 20.4667L17.4229 15.9908L13.8271 11.5225C13.5387 11.1642 13.5954 10.6392 13.9537 10.3508C14.3129 10.0625 14.8371 10.1192 15.1262 10.4775L19.1496 15.4775C19.3979 15.7867 19.3946 16.2283 19.1404 16.5333L14.9737 21.5333C14.8087 21.7308 14.5721 21.8333 14.3329 21.8333Z" fill="#8A8281"/>
<mask id="mask0_237_712" style="mask-type:luminance" maskUnits="userSpaceOnUse" x="13" y="10" width="7" height="11">
<path d="M14.3329 20.1668C14.1446 20.1668 13.9554 20.1125 13.7996 20.0011C13.4462 19.7489 13.3987 19.2982 13.6929 18.9954L17.4229 15.1589L13.8271 11.3288C13.5387 11.0217 13.5954 10.5717 13.9537 10.3245C14.3129 10.0774 14.8371 10.126 15.1262 10.4331L19.1496 14.7189C19.3979 14.9839 19.3946 15.3625 19.1404 15.6239L14.9737 19.9097C14.8087 20.079 14.5721 20.1668 14.3329 20.1668Z" fill="white"/>
</mask>
<g mask="url(#mask0_237_712)">
</g>
</svg>
