<svg width="11" height="15" viewBox="0 0 11 15" fill="none" xmlns="http://www.w3.org/2000/svg">
<path d="M8.03126 5.06926V3.99204C8.03102 3.77152 7.94333 3.5601 7.78743 3.40415C7.63152 3.2482 7.42012 3.16046 7.1996 3.16016H6.70892L8.00579 0.27774C8.01925 0.247724 8.02499 0.214815 8.02248 0.182013C8.01996 0.149212 8.00927 0.117561 7.99139 0.0899485C7.97351 0.0623356 7.949 0.0396387 7.92009 0.0239274C7.89119 0.00821605 7.85881 -9.77008e-06 7.82592 8.70852e-09H5.8071C5.76915 1.24242e-05 5.73201 0.0109835 5.70014 0.031595C5.66827 0.0522065 5.64303 0.0815815 5.62746 0.116191L4.25775 3.15994H3.76729L4.83959 0.778477L4.54241 0.117084C4.5273 0.0823219 4.50229 0.0527725 4.47051 0.0321133C4.43872 0.0114541 4.40157 0.000597233 4.36366 0.000893798H2.34373C2.20073 0.000893798 2.10688 0.148367 2.16498 0.277964L3.46095 3.16038H3.25717C3.03669 3.16068 2.82533 3.2484 2.66942 3.4043C2.51352 3.5602 2.42581 3.77156 2.42551 3.99204V5.06993C1.07591 5.97399 0.1875 7.51262 0.1875 9.26039C0.1875 12.0445 2.44428 14.3013 5.22839 14.3013C8.01473 14.3013 10.2693 12.0445 10.2693 9.26039C10.2693 7.51195 9.38131 5.97332 8.03126 5.06926ZM2.8724 3.99204C2.8724 3.77977 3.0449 3.60705 3.25717 3.60705H7.1996C7.41188 3.60705 7.58437 3.77977 7.58437 3.99204V4.77521C6.85314 4.40859 6.04638 4.21784 5.22839 4.21817C4.40701 4.21817 3.59993 4.40988 2.8724 4.77521V3.99204ZM7.64604 9.03471L6.79919 9.85922L7.00029 11.0234C7.06956 11.4323 6.64055 11.7451 6.2741 11.5507L5.22839 11.001L4.18267 11.5507C3.81622 11.7451 3.38721 11.4323 3.45871 11.0234L3.65758 9.85922L2.81296 9.03471C2.51578 8.74647 2.67889 8.24372 3.09003 8.1834L4.25864 8.01358L4.7815 6.95446C4.96472 6.58354 5.49428 6.58354 5.67751 6.95446L6.20036 8.01358L7.36897 8.1834C7.77788 8.24372 7.94322 8.74647 7.64604 9.03471Z" fill="#8A8281"/>
</svg>
