<svg width="22" height="21" viewBox="0 0 22 21" fill="none" xmlns="http://www.w3.org/2000/svg">
<path d="M21.3125 1.58823H17.875V0.87647C17.875 0.55294 17.5312 0.294117 17.1875 0.294117H4.8125C4.46875 0.294117 4.125 0.55294 4.125 0.87647C4.125 1.13529 4.05625 1.32941 4.05625 1.58823H0.6875C0.275 1.58823 0 1.91176 0 2.23529V3.01176C0 6.50588 2.68125 9.41765 6.325 9.93529C6.7375 10.5824 7.21875 11.1647 7.7 11.7471H14.3C14.85 11.1647 15.3312 10.5824 15.675 9.93529C19.3188 9.35294 22 6.44118 22 3.01176V2.23529C22 1.91176 21.6562 1.58823 21.3125 1.58823ZM1.375 3.01176V2.88235H4.05625C4.125 4.82353 4.5375 6.63529 5.43125 8.38235C3.025 7.60588 1.375 5.47059 1.375 3.01176ZM13.75 5.98823L12.7875 6.89412L12.9937 8.18823C13.0625 8.38235 12.925 8.57647 12.7875 8.70588C12.7188 8.77059 12.5813 8.83529 12.4438 8.83529C12.375 8.83529 12.2375 8.83529 12.1688 8.77059L11 8.18823L9.83125 8.77059C9.625 8.9 9.41875 8.83529 9.2125 8.70588C9.00625 8.57647 8.9375 8.38235 9.00625 8.18823L9.2125 6.89412L8.25 5.98823C8.1125 5.85882 8.04375 5.6 8.1125 5.40588C8.18125 5.21176 8.3875 5.08235 8.59375 5.01765L9.9 4.82353L10.5187 3.65882C10.5875 3.46471 10.7937 3.33529 11.0688 3.33529C11.275 3.33529 11.4812 3.46471 11.6187 3.65882L12.2375 4.82353L13.5438 5.01765C13.75 5.08235 13.9563 5.21176 14.025 5.40588C13.9563 5.6 13.8875 5.85882 13.75 5.98823ZM20.625 3.01176C20.625 5.47059 18.975 7.60588 16.5688 8.38235C17.3938 6.7 17.8062 4.88823 17.875 2.88235H20.625V3.01176ZM13.6812 12.9765H8.31875C8.31875 14.0118 7.76875 15.0471 6.7375 16.0824C6.53125 16.2765 6.66875 16.6647 7.0125 16.6647H15.125C15.4688 16.6647 15.6062 16.2765 15.4 16.0824C14.2312 14.9824 13.6812 13.9471 13.6812 12.9765ZM15.8813 18.0235H6.11875C5.775 18.0235 5.5 18.2824 5.5 18.6059V20.3529C5.5 20.7412 5.775 21 6.1875 21H15.8125C16.225 21 16.5 20.7412 16.5 20.3529V18.5412C16.5 18.2824 16.225 18.0235 15.8813 18.0235Z" fill="#ABA8B0"/>
</svg>
