<svg width="24" height="24" viewBox="0 0 24 24" fill="none" xmlns="http://www.w3.org/2000/svg">
<path d="M8.23861 13.4564H8.23823C3.69567 13.4564 0 9.75977 0 5.21594V2.20947C0 1.82116 0.314812 1.50635 0.703125 1.50635H5.22061C5.60892 1.50635 5.92373 1.82116 5.92373 2.20947C5.92373 2.59779 5.60892 2.9126 5.22061 2.9126H1.40625V5.21594C1.40625 8.98432 4.47108 12.0501 8.23828 12.0501C8.62659 12.0501 8.94159 12.3649 8.94159 12.7532C8.94159 13.1415 8.62697 13.4564 8.23861 13.4564ZM15.7621 13.4564C15.3738 13.4564 15.0586 13.1416 15.0586 12.7533C15.0586 12.3649 15.3731 12.0501 15.7614 12.0501H15.7621C19.5291 12.0501 22.5938 8.98436 22.5938 5.21599V2.9126H18.7794C18.3911 2.9126 18.0763 2.59779 18.0763 2.20947C18.0763 1.82116 18.3911 1.50635 18.7794 1.50635H23.2969C23.6852 1.50635 24 1.82116 24 2.20947V5.21594C24 9.75977 20.3045 13.4564 15.7621 13.4564Z" fill="#FFAA3F"/>
<path d="M18.773 0H5.2207C4.83239 0 4.51758 0.314812 4.51758 0.703125V7.48125C4.51758 8.97164 4.9028 10.222 5.69517 11.3037C7.26825 13.4511 9.81051 14.091 9.78801 15.7561C9.78801 17.4342 6.02339 17.5644 6.02339 20.2844C6.02339 20.6727 6.3382 20.9875 6.72652 20.9875H17.2671C17.6554 20.9875 17.9702 20.6727 17.9702 20.2844C17.9702 17.5644 14.2056 17.4342 14.2056 15.7561C14.1832 14.091 16.7254 13.4511 18.2985 11.3037C19.0908 10.222 19.476 8.97164 19.476 7.48125V0.703125C19.4761 0.314812 19.1613 0 18.773 0Z" fill="#FFD316"/>
<path d="M17.9709 20.2844C17.9709 17.5644 14.2063 17.4342 14.2063 15.7561C14.1838 14.091 16.726 13.4511 18.2991 11.3037C19.0915 10.222 19.4767 8.97164 19.4767 7.48125V0.703125C19.4767 0.314812 19.1619 0 18.7736 0H11.9976V20.9875H17.2678C17.6561 20.9875 17.9709 20.6727 17.9709 20.2844Z" fill="#FFAA3F"/>
<path d="M16.2475 6.1003C16.0501 5.49284 15.5105 5.07626 14.8729 5.03909L13.8164 4.97759L13.4315 3.99195C13.1991 3.39697 12.6363 3.01245 11.9975 3.01245C11.3587 3.01245 10.7959 3.39692 10.5634 3.9919L10.1786 4.97759L9.12213 5.03909C8.48445 5.07626 7.94487 5.4928 7.74748 6.1003C7.55009 6.70784 7.74181 7.36203 8.23592 7.76684L9.05435 8.43753L8.78641 9.46119C8.6247 10.0791 8.85406 10.721 9.3709 11.0966C9.8877 11.4719 10.5691 11.4918 11.1068 11.147L11.9975 10.5758L12.8883 11.147C13.426 11.4918 14.1074 11.472 14.6242 11.0966C15.141 10.721 15.3704 10.0791 15.2087 9.46119L14.9407 8.43753L15.7592 7.76684C16.2531 7.36203 16.4449 6.70789 16.2475 6.1003Z" fill="#FFAA3F"/>
<path d="M14.6242 11.0966C15.141 10.721 15.3704 10.0791 15.2086 9.46118L14.9407 8.43753L15.7591 7.76684C16.2532 7.36203 16.445 6.70789 16.2476 6.1003C16.0502 5.49284 15.5106 5.07626 14.8729 5.03909L13.8165 4.97759L13.4316 3.99195C13.1992 3.39697 12.6363 3.01245 11.9976 3.01245V10.5758L12.8883 11.147C13.426 11.4917 14.1074 11.4719 14.6242 11.0966Z" fill="#FF8A53"/>
<path d="M19.5331 23.2969H4.46143C4.07311 23.2969 3.7583 22.9821 3.7583 22.5938V20.2844C3.7583 19.8961 4.07311 19.5813 4.46143 19.5813H19.5331C19.9214 19.5813 20.2362 19.8961 20.2362 20.2844V22.5938C20.2362 22.9821 19.9214 23.2969 19.5331 23.2969Z" fill="#FFAA3F"/>
<path d="M20.2364 22.5938V20.2844C20.2364 19.8961 19.9216 19.5813 19.5333 19.5813H11.9976V23.2969H19.5333C19.9216 23.2969 20.2364 22.9821 20.2364 22.5938Z" fill="#FF8A53"/>
<path d="M21.0322 24H2.9624C2.57409 24 2.25928 23.6852 2.25928 23.2969C2.25928 22.9086 2.57409 22.5938 2.9624 22.5938H21.0323C21.4206 22.5938 21.7354 22.9086 21.7354 23.2969C21.7354 23.6852 21.4206 24 21.0322 24Z" fill="#FF8A53"/>
<path d="M21.7356 23.2969C21.7356 22.9086 21.4208 22.5938 21.0325 22.5938H11.9976V24H21.0325C21.4208 24 21.7356 23.6852 21.7356 23.2969Z" fill="#FFAA3F"/>
</svg>
