<svg width="42" height="42" viewBox="0 0 42 42" fill="none" xmlns="http://www.w3.org/2000/svg">
<circle cx="21" cy="21" r="21" fill="#FCECE8"/>
<path d="M28.75 16.0007H12.75C12.286 16.0013 11.8412 16.1858 11.5131 16.5139C11.1851 16.842 11.0005 17.2868 11 17.7507V19.7507C11.0005 20.2147 11.1851 20.6595 11.5131 20.9876C11.8412 21.3157 12.286 21.5002 12.75 21.5007H13V29.7257C13.0005 30.1963 13.1877 30.6475 13.5205 30.9803C13.8532 31.313 14.3044 31.5002 14.775 31.5007H26.725C27.1956 31.5002 27.6468 31.313 27.9795 30.9803C28.3123 30.6475 28.4995 30.1963 28.5 29.7257V21.5007H28.75C29.214 21.5002 29.6588 21.3157 29.9869 20.9876C30.3149 20.6595 30.4995 20.2147 30.5 19.7507V17.7507C30.4995 17.2868 30.3149 16.842 29.9869 16.5139C29.6588 16.1858 29.214 16.0013 28.75 16.0007ZM27 29.7257C26.9997 29.7986 26.9707 29.8684 26.9192 29.9199C26.8676 29.9714 26.7979 30.0005 26.725 30.0007H14.775C14.7021 30.0005 14.6324 29.9714 14.5808 29.9199C14.5293 29.8684 14.5003 29.7986 14.5 29.7257V21.5007H27V29.7257ZM29 19.7507C29 19.7836 28.9935 19.8162 28.9809 19.8466C28.9682 19.877 28.9497 19.9046 28.9264 19.9279C28.9031 19.9511 28.8754 19.9695 28.845 19.982C28.8145 19.9945 28.7819 20.0009 28.749 20.0007H12.75C12.6837 20.0007 12.6201 19.9744 12.5732 19.9275C12.5263 19.8806 12.5 19.817 12.5 19.7507V17.7507C12.5 17.6844 12.5263 17.6208 12.5732 17.574C12.6201 17.5271 12.6837 17.5007 12.75 17.5007H28.75C28.8163 17.5007 28.8799 17.5271 28.9268 17.574C28.9737 17.6208 29 17.6844 29 17.7507V19.7507Z" fill="#160603"/>
<path d="M25.7817 11.7238C25.5426 11.4734 25.251 11.2792 24.9277 11.1552C24.6045 11.0312 24.2578 10.9805 23.9127 11.0068C22.6822 11.2458 21.5738 11.9068 20.7787 12.8758C19.9849 11.9082 18.8789 11.2473 17.6507 11.0068C17.3052 10.9804 16.9582 11.0311 16.6346 11.1551C16.3111 11.2791 16.0191 11.4733 15.7797 11.7238C15.4223 12.0647 15.1816 12.5097 15.0918 12.9953C15.0021 13.481 15.0678 13.9826 15.2797 14.4288C15.9097 15.9528 17.9797 17.5008 19.0047 17.5008H20.0047L20.0007 30.7508C20.0007 30.9497 20.0797 31.1405 20.2203 31.2811C20.361 31.4218 20.5518 31.5008 20.7507 31.5008C20.9496 31.5008 21.1403 31.4218 21.281 31.2811C21.4216 31.1405 21.5007 30.9497 21.5007 30.7508L21.5067 17.5008H22.5557C23.5817 17.5008 25.6497 15.9528 26.2797 14.4288C26.4918 13.9828 26.5578 13.4813 26.4684 12.9957C26.379 12.51 26.1387 12.0649 25.7817 11.7238ZM16.6207 13.7418C16.5507 13.5803 16.5336 13.4009 16.5718 13.2292C16.6101 13.0574 16.7017 12.9022 16.8337 12.7858C16.913 12.6967 17.0102 12.6253 17.1189 12.5762C17.2276 12.5271 17.3454 12.5014 17.4647 12.5008H17.5357C18.5295 12.8017 19.3974 13.4199 20.0067 14.2608V16.0008H19.0257C17.9712 15.5727 17.1138 14.7674 16.6207 13.7418ZM24.9367 13.7418C24.446 14.7606 23.5989 15.5643 22.5557 16.0008H21.5557V14.2608C22.1648 13.4206 23.0323 12.8031 24.0257 12.5028C24.1562 12.4931 24.2873 12.5135 24.4087 12.5626C24.5301 12.6117 24.6385 12.688 24.7257 12.7858C24.8571 12.9025 24.9483 13.0579 24.9862 13.2296C25.0241 13.4012 25.0068 13.5805 24.9367 13.7418Z" fill="#E54322"/>
</svg>
