<svg width="35" height="35" viewBox="0 0 35 35" fill="none" xmlns="http://www.w3.org/2000/svg">
<rect width="35" height="35" rx="5" fill="#EC7B64"/>
<path d="M24.418 9H9.58203C8.7097 9 8 9.70973 8 10.582V11.3855C8 12.687 8.44768 13.9635 9.26081 14.9797C9.93704 15.825 10.8989 16.4871 11.9692 16.8438L12.5282 17.03C13.1773 18.0877 14.1955 18.9025 15.418 19.2895V20.1094C15.418 20.4001 15.1814 20.6367 14.8906 20.6367C14.0183 20.6367 13.3086 21.3465 13.3086 22.2188V22.7461H12.7812C12.49 22.7461 12.2539 22.9822 12.2539 23.2734V25.9453H11.7266C11.4353 25.9453 11.1992 26.1814 11.1992 26.4727C11.1992 26.7639 11.4353 27 11.7266 27H22.2734C22.5647 27 22.8008 26.7639 22.8008 26.4727C22.8008 26.1814 22.5647 25.9453 22.2734 25.9453H21.7461V23.2734C21.7461 22.9822 21.51 22.7461 21.2188 22.7461H20.6914V22.2188C20.6914 21.3464 19.9817 20.6367 19.1094 20.6367C18.8186 20.6367 18.582 20.4001 18.582 20.1094V19.2895C19.8031 18.903 20.8204 18.0896 21.4697 17.0336L22.0591 16.846L22.0658 16.8438C23.1204 16.4923 24.0449 15.8476 24.7392 14.9797C25.5523 13.9635 26 12.687 26 11.3855V10.582C26 9.7097 25.2903 9 24.418 9ZM10.0844 14.3208C9.42035 13.4908 9.05469 12.4485 9.05469 11.3855V10.582C9.05469 10.2913 9.29129 10.0547 9.58203 10.0547H11.2546L11.7912 14.8848C11.8226 15.1641 11.8765 15.4404 11.9525 15.711C11.215 15.401 10.561 14.9164 10.0844 14.3208ZM13.3086 25.9453V23.8008H20.6914V25.9453H13.3086ZM17.9365 18.3733C17.8202 18.4 17.7164 18.4654 17.6421 18.5587C17.5678 18.652 17.5273 18.7678 17.5273 18.8871V20.1094C17.5273 20.9817 18.2371 21.6914 19.1094 21.6914C19.4001 21.6914 19.6367 21.928 19.6367 22.2188V22.7461H14.3633V22.2188C14.3633 21.928 14.5999 21.6914 14.8906 21.6914C15.763 21.6914 16.4727 20.9817 16.4727 20.1094V18.8871C16.4727 18.6415 16.3031 18.4283 16.0635 18.3733C14.3303 17.9744 13.0348 16.5258 12.8395 14.7684L12.3157 10.0547H21.6843L21.1605 14.7684C20.9652 16.5258 19.6697 17.9744 17.9365 18.3733V18.3733ZM24.9453 11.3855C24.9453 12.4485 24.5796 13.4908 23.9156 14.3208C23.4204 14.9406 22.7761 15.4245 22.0428 15.7273C22.1213 15.4516 22.1768 15.1698 22.2088 14.8848L22.7454 10.0547H24.418C24.7087 10.0547 24.9453 10.2913 24.9453 10.582V11.3855Z" fill="white"/>
</svg>
