<svg width="24" height="24" viewBox="0 0 24 24" fill="none" xmlns="http://www.w3.org/2000/svg">
<path d="M18.0466 8.27575L18.401 9.17817C18.9054 10.4644 18.4193 12.0527 17.1132 12.515C17.0967 12.522 15.2877 13.1403 14.7383 11.0451L14.2088 9.01985L15.7156 7.10047L11.9973 0L8.27889 7.10047L9.78575 9.01985L9.25622 11.0451C8.65023 13.3568 6.15624 12.8125 5.5681 11.1824C5.33597 10.5405 5.34558 9.8104 5.59351 9.17817L5.94722 8.27659L0 5.5737L2.85454 19.5228L4.26111 21.3137H19.7334L21.14 19.5228L24 5.57459L18.0466 8.27575Z" fill="#FED843"/>
<path d="M21.1395 19.5228L23.9996 5.57459L18.0462 8.27575L18.4006 9.17817C18.905 10.4644 18.4189 12.0527 17.1128 12.515C17.0963 12.522 15.2873 13.1403 14.7379 11.0451L14.2083 9.01985L15.7152 7.10047L11.9968 0V21.3137H19.733L21.1395 19.5228Z" fill="#FABE2C"/>
<path d="M11.9982 19.5229H2.85547V24.0001H21.1409V19.5229H11.9982Z" fill="#FABE2C"/>
<path d="M11.9971 19.5229H21.1398V24.0001H11.9971V19.5229Z" fill="#FF9100"/>
<path d="M8.47754 19.5222L11.9934 15.0457L15.5094 19.5222L11.9934 23.9986L8.47754 19.5222Z" fill="#FABE2C"/>
<path d="M11.9971 15.0457V24L15.5135 19.5228L11.9971 15.0457Z" fill="#FF9100"/>
</svg>
