<svg width="35" height="35" viewBox="0 0 35 35" fill="none" xmlns="http://www.w3.org/2000/svg">
<rect width="35" height="35" rx="5" fill="#EC7B64"/>
<g clip-path="url(#clip0_59_6390)">
<path d="M19.2499 10.4833C19.1394 10.4833 19.0334 10.4394 18.9553 10.3613C18.8772 10.2832 18.8333 10.1772 18.8333 10.0667V8.66667C18.8333 8.2075 18.4591 7.83333 17.9999 7.83333C17.5408 7.83333 17.1666 8.2075 17.1666 8.66667V10.0667C17.1666 10.1772 17.1227 10.2832 17.0445 10.3613C16.9664 10.4394 16.8604 10.4833 16.7499 10.4833C16.6394 10.4833 16.5334 10.4394 16.4553 10.3613C16.3772 10.2832 16.3333 10.1772 16.3333 10.0667V8.66667C16.3333 7.7475 17.0808 7 17.9999 7C18.9191 7 19.6666 7.7475 19.6666 8.66667V10.0667C19.6666 10.1772 19.6227 10.2832 19.5445 10.3613C19.4664 10.4394 19.3604 10.4833 19.2499 10.4833ZM17.9999 27C16.3916 27 15.0833 25.6917 15.0833 24.0833C15.0833 23.9728 15.1272 23.8668 15.2053 23.7887C15.2834 23.7106 15.3894 23.6667 15.4999 23.6667C15.6104 23.6667 15.7164 23.7106 15.7945 23.7887C15.8727 23.8668 15.9166 23.9728 15.9166 24.0833C15.9166 25.2317 16.8516 26.1667 17.9999 26.1667C19.1483 26.1667 20.0833 25.2317 20.0833 24.0833C20.0833 23.9728 20.1272 23.8668 20.2053 23.7887C20.2834 23.7106 20.3894 23.6667 20.4999 23.6667C20.6104 23.6667 20.7164 23.7106 20.7945 23.7887C20.8727 23.8668 20.9166 23.9728 20.9166 24.0833C20.9166 25.6917 19.6083 27 17.9999 27Z" fill="white"/>
<path d="M25.0834 24.5H10.9167C10.6616 24.4991 10.4129 24.4203 10.2038 24.2741C9.99473 24.1279 9.83533 23.9213 9.74695 23.682C9.65857 23.4427 9.64542 23.1821 9.70927 22.9351C9.77312 22.6881 9.91092 22.4665 10.1042 22.3C10.7506 21.7559 11.2702 21.077 11.6264 20.3108C11.9827 19.5447 12.1671 18.7099 12.1667 17.865V15.3333C12.1667 12.1167 14.7834 9.5 18 9.5C21.2167 9.5 23.8334 12.1167 23.8334 15.3333V17.865C23.8334 19.5758 24.5825 21.19 25.8892 22.2942C26.0847 22.4596 26.2248 22.681 26.2904 22.9285C26.3561 23.1761 26.3442 23.4378 26.2563 23.6784C26.1684 23.9189 26.0088 24.1267 25.799 24.2737C25.5893 24.4206 25.3395 24.4996 25.0834 24.5ZM18 10.3333C15.2425 10.3333 13 12.5758 13 15.3333V17.865C13.001 18.8297 12.791 19.7829 12.385 20.6579C11.9789 21.533 11.3865 22.3087 10.6492 22.9308C10.5837 22.9858 10.5367 23.0595 10.5146 23.1421C10.4925 23.2247 10.4963 23.312 10.5255 23.3924C10.5547 23.4727 10.6079 23.5421 10.6779 23.5912C10.7478 23.6402 10.8312 23.6666 10.9167 23.6667H25.0834C25.1686 23.6667 25.2517 23.6406 25.3216 23.5919C25.3915 23.5432 25.4448 23.4743 25.4743 23.3944C25.5038 23.3144 25.5081 23.2274 25.4866 23.145C25.4652 23.0626 25.4189 22.9887 25.3542 22.9333C24.6163 22.311 24.0232 21.535 23.6166 20.6595C23.2099 19.7841 22.9995 18.8303 23 17.865V15.3333C23 12.5758 20.7575 10.3333 18 10.3333Z" fill="white"/>
</g>
<defs>
<clipPath id="clip0_59_6390">
<rect width="20" height="20" fill="white" transform="translate(8 7)"/>
</clipPath>
</defs>
</svg>
