<svg width="23" height="23" viewBox="0 0 23 23" fill="none" xmlns="http://www.w3.org/2000/svg">
<path d="M11.4998 13.8958C12.823 13.8958 13.8957 12.8232 13.8957 11.5C13.8957 10.1768 12.823 9.10417 11.4998 9.10417C10.1767 9.10417 9.104 10.1768 9.104 11.5C9.104 12.8232 10.1767 13.8958 11.4998 13.8958Z" fill="#ABA8B0"/>
<path d="M22.013 10.7525C21.996 10.2661 21.811 9.80051 21.4895 9.43502C21.1681 9.06953 20.7299 8.82665 20.2497 8.74767L19.8769 8.68634C19.5675 8.63559 19.2735 8.51586 19.0167 8.33603C18.7599 8.1562 18.5468 7.92087 18.3934 7.6475C18.2694 7.42708 18.1346 7.21242 17.9889 7.0035C17.8086 6.74526 17.689 6.44958 17.639 6.13858C17.5891 5.82758 17.6101 5.50931 17.7005 5.20758L17.8088 4.84342C17.9492 4.37677 17.9234 3.87588 17.7359 3.42609C17.5484 2.97629 17.2108 2.60543 16.7805 2.37667L16.1097 2.02017C15.6798 1.79167 15.184 1.71913 14.7067 1.81487C14.2294 1.91061 13.8 2.16873 13.4915 2.54533L13.25 2.8405C13.0503 3.08425 12.798 3.27966 12.512 3.4121C12.2261 3.54454 11.9139 3.61057 11.5988 3.60525C11.3445 3.60142 11.0912 3.6094 10.8388 3.62921C10.5265 3.65493 10.2124 3.61006 9.91975 3.49792C9.62712 3.38577 9.36347 3.20924 9.14832 2.98138L8.88957 2.70633C8.55546 2.35185 8.10882 2.12411 7.62568 2.06191C7.14254 1.9997 6.65278 2.10687 6.23978 2.36517L5.59578 2.76767C5.18302 3.02576 4.87241 3.41884 4.71674 3.88008C4.56107 4.34132 4.56996 4.84224 4.7419 5.29767L4.87511 5.65033C4.98685 5.94603 5.0299 6.26326 5.00101 6.57804C4.97212 6.89282 4.87205 7.19692 4.70836 7.46733C4.64447 7.57275 4.58314 7.6804 4.52436 7.79029C4.46686 7.9005 4.41128 8.01071 4.35953 8.12283C4.22672 8.40968 4.03046 8.66259 3.78559 8.86248C3.54071 9.06236 3.25362 9.20399 2.94598 9.27667L2.5799 9.36292C2.10592 9.47519 1.6855 9.74825 1.3902 10.1356C1.09491 10.523 0.942993 11.0008 0.960318 11.4875L0.986193 12.2456C1.00304 12.7323 1.18804 13.1982 1.50972 13.5639C1.83139 13.9296 2.26986 14.1726 2.75048 14.2514L3.12328 14.3127C3.43265 14.3635 3.72664 14.4832 3.98345 14.663C4.24025 14.8429 4.45329 15.0782 4.60678 15.3515C4.73072 15.572 4.86553 15.7866 5.01119 15.9955C5.19186 16.2538 5.31174 16.5496 5.36186 16.8608C5.41198 17.172 5.39104 17.4905 5.30061 17.7924L5.19136 18.1566C5.05146 18.623 5.07746 19.1234 5.26494 19.5728C5.45241 20.0222 5.78978 20.3927 6.21965 20.6214L6.89048 20.9779C7.32035 21.2064 7.8161 21.279 8.29342 21.1832C8.77074 21.0875 9.20016 20.8294 9.50865 20.4528L9.75015 20.1576C9.94988 19.9138 10.2022 19.7184 10.4881 19.586C10.7741 19.4536 11.0863 19.3875 11.4014 19.3928C11.6556 19.3967 11.909 19.3887 12.1613 19.3689C12.4736 19.3432 12.7878 19.388 13.0804 19.5002C13.373 19.6123 13.6367 19.7889 13.8518 20.0167L14.1106 20.2918C14.4447 20.6462 14.8913 20.874 15.3745 20.9362C15.8576 20.9984 16.3474 20.8912 16.7604 20.6329L17.4044 20.2304C17.8171 19.9723 18.1277 19.5792 18.2834 19.118C18.4391 18.6568 18.4302 18.1558 18.2582 17.7004L18.125 17.3478C18.0133 17.0521 17.9702 16.7348 17.9991 16.42C18.028 16.1053 18.1281 15.8012 18.2918 15.5308C18.3557 15.4253 18.417 15.3177 18.4758 15.2078C18.5339 15.0979 18.5889 14.9871 18.6406 14.8753C18.7734 14.5884 18.9697 14.3355 19.2146 14.1356C19.4594 13.9357 19.7465 13.7941 20.0542 13.7214L20.4202 13.6352C20.8942 13.5229 21.3146 13.2498 21.6099 12.8625C21.9052 12.4751 22.0571 11.9973 22.0398 11.5105L22.013 10.7525ZM11.5001 15.8125C10.6471 15.8125 9.81336 15.5596 9.10417 15.0857C8.39498 14.6119 7.84224 13.9383 7.51584 13.1503C7.18943 12.3623 7.10403 11.4952 7.27043 10.6587C7.43683 9.82213 7.84756 9.05372 8.45067 8.4506C9.05378 7.84749 9.8222 7.43676 10.6587 7.27037C11.4953 7.10397 12.3624 7.18937 13.1504 7.51577C13.9384 7.84217 14.6119 8.39492 15.0858 9.10411C15.5596 9.81329 15.8126 10.6471 15.8126 11.5C15.8113 12.6434 15.3565 13.7395 14.5481 14.548C13.7396 15.3565 12.6434 15.8112 11.5001 15.8125Z" fill="#ABA8B0"/>
</svg>
