
<svg xmlns="http://www.w3.org/2000/svg" data-name="Layer 1" viewBox="0 0 512 512"><path fill="#070606" d="M175.49 202.27a7.5 7.5 0 0 0 7.5-7.5c0-92.32 62.14-167.43 138.52-167.43a7.5 7.5 0 0 0 0-15c-41.26 0-80 19.16-109 53.93-28.71 34.39-44.51 80-44.51 128.5a7.49 7.49 0 0 0 7.49 7.5ZM186.71 228a7.5 7.5 0 0 0 15 0c0-70.11 47.06-127.15 104.9-127.15a7.5 7.5 0 0 0 0-15c-66.11-.02-119.9 63.75-119.9 142.15Zm311 65.15a15.81 15.81 0 0 0 .41-13.91l-12.95-29a18.22 18.22 0 0 0-16.81-10.44h-.48l-9.46-109.9a16.71 16.71 0 0 0 16.46-16.69v-11.6a16.57 16.57 0 0 0-3-9.47 41.56 41.56 0 0 0 8.76-27.73 42.75 42.75 0 0 0-17.76-32.08l-30.37-28a16.89 16.89 0 0 0-22.48-.15l-30.22 27a42.93 42.93 0 0 0-18.41 31.59 41.62 41.62 0 0 0 8.88 29.1 16.62 16.62 0 0 0-3.16 9.74v11.6a16.71 16.71 0 0 0 16.46 16.69l-9.41 109.84h-.48a18.22 18.22 0 0 0-16.81 10.44l-12.95 29a15.81 15.81 0 0 0 .41 13.91 20.67 20.67 0 0 0-6.84 15.35v16.75a7.5 7.5 0 0 0 7.5 7.5h152a7.5 7.5 0 0 0 7.5-7.5v-16.71a20.67 20.67 0 0 0-6.84-15.35Zm-96.1-260.7 8.82 9.33-7.69 7.22-9.05-9.58ZM376.35 64a27.1 27.1 0 0 1 6-14.75L397 64.74a7.5 7.5 0 0 0 5.24 2.34h.22a7.5 7.5 0 0 0 5.15-2l18.55-17.53a7.52 7.52 0 0 0 .3-10.61L412.5 22.16l7.57-6.77a2 2 0 0 1 2.32 0l30.69 28.25a5.45 5.45 0 0 0 .7.57 27.88 27.88 0 0 1 11.92 21 26.56 26.56 0 0 1-7.26 19.7h-74.38A26.6 26.6 0 0 1 376.35 64Zm5.77 49.22v-11.6a1.69 1.69 0 0 1 1.18-1.62h75.4a1.69 1.69 0 0 1 1.18 1.61v11.6a1.7 1.7 0 0 1-1.7 1.7h-74.36a1.7 1.7 0 0 1-1.7-1.7Zm70.65 126.53h-63.54l9.4-109.83h44.74Zm-95.14 45.59 12.95-29a3.4 3.4 0 0 1 3.11-1.55h5.8a7.38 7.38 0 0 0 1.56.17H461a7.38 7.38 0 0 0 1.56-.17h5.8a3.4 3.4 0 0 1 3.11 1.55l12.95 29a1 1 0 0 1-.11 1.06 3.43 3.43 0 0 1-2.82 1.34H360.56a3.43 3.43 0 0 1-2.82-1.34 1 1 0 0 1-.11-1.07Zm131.87 32.4h-137v-9.25a5.76 5.76 0 0 1 5.75-5.75h125.5a5.76 5.76 0 0 1 5.75 5.75Zm-130.79 58.52-12.2-10.75a21.06 21.06 0 0 0-15.38-5.27c-.56 0-1.11.11-1.65.19a17.14 17.14 0 0 0-10.79-10.33l-33.26-10.76a19 19 0 0 0-20 5.83l-.68.77-96-71 .47-.54a17 17 0 0 0-1.52-24.05l-8.18-7.22a15.73 15.73 0 0 0-1.67-1.28 15.17 15.17 0 0 0-2.34-20.16L103.71 176a7.51 7.51 0 0 0-10.59.66L77.9 193.91a7.51 7.51 0 0 0 .66 10.59l21.81 19.23-6 6.84-21.84-19.23a7.5 7.5 0 0 0-10.59.67l-21.38 24.25a7.5 7.5 0 0 0 .66 10.58L63 266.07l-6 6.85-21.81-19.23a7.51 7.51 0 0 0-10.59.66L9.37 271.62a7.51 7.51 0 0 0 .63 10.59l51.81 45.68a15.18 15.18 0 0 0 20.29-.2 17.57 17.57 0 0 0 1.49 1.5l8.18 7.21a16.91 16.91 0 0 0 11.25 4.26h1.09a17 17 0 0 0 11.72-5.74l.47-.53 82.49 86.36-.68.78a19 19 0 0 0-3.28 20.55l14.87 31.62a17.16 17.16 0 0 0 11.61 9.41 21.2 21.2 0 0 0 7.16 16.26l12.2 10.76a7.51 7.51 0 0 0 10.59-.67l108.11-122.61a7.51 7.51 0 0 0-.66-10.59Zm-276.6-71.13c-.13.15-.24.31-.37.46l-9.72 11a.18.18 0 0 1-.25 0l-46.18-40.67 5.3-6 21.81 19.21a7.51 7.51 0 0 0 10.59-.66l16-18.1a7.5 7.5 0 0 0-.67-10.59l-21.85-19.23 11.46-13L90 246.78a7.5 7.5 0 0 0 10.59-.66l16-18.1a7.49 7.49 0 0 0-.67-10.58l-21.81-19.23 5.31-6 46.18 40.72a.2.2 0 0 1 0 .25l-9.73 11c-.13.15-.28.28-.41.42Zm28.37 13.17-.1.14-5.76 6.56a2 2 0 0 1-1.41.69 2.09 2.09 0 0 1-1.48-.51l-8.18-7.21a2 2 0 0 1-.33-2.68l53.69-60.9a2.11 2.11 0 0 1 1.22-.52h.13a2 2 0 0 1 1.35.51l8.18 7.22a2 2 0 0 1 .19 2.88l-5.76 6.52a1.59 1.59 0 0 0-.13.13Zm15.81 4.76 32.51-36.86 96 71-46 52.2ZM225 468.57a2.06 2.06 0 0 1-1.71-1.24l-14.84-31.65a4.15 4.15 0 0 1 1-4.26l67.3-76.33a4.16 4.16 0 0 1 4.12-1.48l33.25 10.76a2.05 2.05 0 0 1 1.44 1.55 4.22 4.22 0 0 1-1.09 3.85L228.69 467a4.27 4.27 0 0 1-3.69 1.57Zm20 25.34-6.58-5.79a6.27 6.27 0 0 1-.55-8.81l89.94-102a6.2 6.2 0 0 1 4.29-2.1h.4a6.17 6.17 0 0 1 4.12 1.56l6.57 5.79Z"/></svg>