<svg width="30" height="30" viewBox="0 0 30 30" fill="none" xmlns="http://www.w3.org/2000/svg">
<path d="M22.1358 5.26133H7.86464C7.66302 5.26133 7.46965 5.18124 7.32707 5.03866C7.1845 4.89609 7.10441 4.70272 7.10441 4.5011C7.10441 4.29947 7.1845 4.1061 7.32707 3.96353C7.46965 3.82095 7.66302 3.74086 7.86464 3.74086H22.1358C22.3375 3.74086 22.5308 3.82095 22.6734 3.96353C22.816 4.1061 22.8961 4.29947 22.8961 4.5011C22.8961 4.70272 22.816 4.89609 22.6734 5.03866C22.5308 5.18124 22.3375 5.26133 22.1358 5.26133ZM3.55562 9.00221C2.95106 9.00114 2.37158 8.76051 1.94409 8.33302C1.51661 7.90554 1.27597 7.32605 1.2749 6.7215V2.28373C1.2749 1.67885 1.51519 1.09874 1.94291 0.671027C2.37062 0.24331 2.95073 0.00302124 3.55562 0.00302124C4.1605 0.00302124 4.74061 0.24331 5.16832 0.671027C5.59604 1.09874 5.83633 1.67885 5.83633 2.28373V6.72251C5.83499 7.32689 5.59424 7.90611 5.16678 8.33338C4.73933 8.76065 4.15999 9.00114 3.55562 9.00221ZM3.55562 1.52046C3.35399 1.52046 3.16062 1.60055 3.01805 1.74312C2.87547 1.8857 2.79538 2.07907 2.79538 2.28069V6.71947C2.79538 6.81931 2.81504 6.91816 2.85325 7.0104C2.89145 7.10264 2.94745 7.18644 3.01805 7.25704C3.08864 7.32763 3.17245 7.38363 3.26469 7.42184C3.35692 7.46004 3.45578 7.47971 3.55562 7.47971C3.65545 7.47971 3.75431 7.46004 3.84655 7.42184C3.93878 7.38363 4.02259 7.32763 4.09318 7.25704C4.16378 7.18644 4.21978 7.10264 4.25798 7.0104C4.29619 6.91816 4.31585 6.81931 4.31585 6.71947V2.28373C4.31625 2.18364 4.29689 2.08446 4.25886 1.99187C4.22083 1.89928 4.1649 1.81512 4.09426 1.7442C4.02363 1.67328 3.93969 1.61701 3.84725 1.57862C3.75482 1.54022 3.65571 1.52046 3.55562 1.52046Z" fill="#E54322"/>
<path d="M2.03396 5.43371H0.758285C0.556657 5.43371 0.363288 5.35362 0.220715 5.21105C0.0781431 5.06847 -0.00195312 4.8751 -0.00195312 4.67348C-0.00195312 4.47185 0.0781431 4.27848 0.220715 4.13591C0.363288 3.99334 0.556657 3.91324 0.758285 3.91324H2.03194C2.23356 3.91324 2.42693 3.99334 2.56951 4.13591C2.71208 4.27848 2.79217 4.47185 2.79217 4.67348C2.79217 4.8751 2.71208 5.06847 2.56951 5.21105C2.42693 5.35362 2.23356 5.43371 2.03194 5.43371H2.03396ZM26.4447 9.00227C25.8401 9.0012 25.2607 8.76057 24.8332 8.33308C24.4057 7.9056 24.1651 7.32611 24.164 6.72156V2.2838C24.164 1.67891 24.4043 1.0988 24.832 0.671088C25.2597 0.243371 25.8398 0.00308228 26.4447 0.00308228C27.0496 0.00308228 27.6297 0.243371 28.0574 0.671088C28.4851 1.0988 28.7254 1.67891 28.7254 2.2838V6.72257C28.7242 7.32699 28.4835 7.90629 28.056 8.33359C27.6285 8.76088 27.0491 9.00133 26.4447 9.00227ZM26.4447 1.52052C26.2431 1.52052 26.0497 1.60061 25.9071 1.74319C25.7646 1.88576 25.6845 2.07913 25.6845 2.28076V6.71953C25.6845 6.92116 25.7646 7.11453 25.9071 7.2571C26.0497 7.39967 26.2431 7.47977 26.4447 7.47977C26.6463 7.47977 26.8397 7.39967 26.9823 7.2571C27.1248 7.11453 27.2049 6.92116 27.2049 6.71953V2.2838C27.2053 2.1837 27.186 2.08452 27.1479 1.99193C27.1099 1.89934 27.054 1.81518 26.9833 1.74426C26.9127 1.67334 26.8288 1.61707 26.7363 1.57868C26.6439 1.54028 26.5448 1.52052 26.4447 1.52052Z" fill="#E54322"/>
<path d="M29.2421 5.43365H27.9664C27.7648 5.43365 27.5714 5.35356 27.4288 5.21099C27.2862 5.06841 27.2062 4.87504 27.2062 4.67342C27.2062 4.47179 27.2862 4.27842 27.4288 4.13585C27.5714 3.99327 27.7648 3.91318 27.9664 3.91318H29.2421C29.4437 3.91318 29.6371 3.99327 29.7796 4.13585C29.9222 4.27842 30.0023 4.47179 30.0023 4.67342C30.0023 4.87504 29.9222 5.06841 29.7796 5.21099C29.6371 5.35356 29.4437 5.43365 29.2421 5.43365ZM15.0601 12.7968C14.4397 12.7968 13.8332 12.6128 13.3174 12.2682C12.8016 11.9235 12.3995 11.4336 12.1621 10.8604C11.9247 10.2873 11.8626 9.65659 11.9836 9.04812C12.1046 8.43965 12.4034 7.88074 12.8421 7.44206C13.2808 7.00338 13.8397 6.70463 14.4481 6.5836C15.0566 6.46257 15.6873 6.52469 16.2605 6.7621C16.8336 6.99951 17.3235 7.40155 17.6682 7.91739C18.0129 8.43322 18.1968 9.03968 18.1968 9.66007C18.1954 10.4915 17.8644 11.2885 17.2765 11.8765C16.6885 12.4644 15.8915 12.7953 15.0601 12.7968ZM15.0601 8.04431C14.7404 8.04431 14.4279 8.13912 14.1621 8.31674C13.8963 8.49436 13.6891 8.74681 13.5668 9.04218C13.4445 9.33754 13.4125 9.66254 13.4749 9.97608C13.5373 10.2896 13.6913 10.5776 13.9174 10.8036C14.1435 11.0296 14.4315 11.1835 14.7451 11.2458C15.0586 11.3082 15.3836 11.2761 15.679 11.1537C15.9743 11.0313 16.2267 10.824 16.4042 10.5582C16.5817 10.2923 16.6764 9.97976 16.6763 9.66007C16.6759 9.23158 16.5055 8.82076 16.2025 8.51782C15.8994 8.21488 15.4886 8.04458 15.0601 8.04431Z" fill="#E54322"/>
<path d="M18.9532 30C18.3401 29.9993 17.7523 29.7554 17.3188 29.3218C16.8854 28.8883 16.6416 28.3004 16.6411 27.6873C16.6411 27.6706 16.6015 25.4644 15.2123 22.1842C15.2002 22.1543 15.1794 22.1287 15.1526 22.1107C15.1259 22.0927 15.0943 22.083 15.0621 22.083C15.0298 22.083 14.9982 22.0927 14.9715 22.1107C14.9447 22.1287 14.9239 22.1543 14.9118 22.1842C13.5205 25.4644 13.4795 27.6706 13.4795 27.6924C13.4699 28.2998 13.2217 28.879 12.7885 29.3048C12.3554 29.7307 11.772 29.969 11.1646 29.9684C10.5572 29.9677 9.97438 29.7281 9.54216 29.3013C9.10995 28.8744 8.86301 28.2947 8.85471 27.6873C8.85471 27.3569 8.90996 24.3296 10.8237 19.9836C11.0302 19.5185 11.1331 19.014 11.1253 18.5052L11.0711 15.4434C11.0703 15.4035 11.061 15.3642 11.044 15.328C11.027 15.2918 11.0025 15.2597 10.9722 15.2336C10.9215 15.1961 10.8709 15.1576 10.8202 15.1186C9.21 13.8763 8.12995 12.7071 7.72196 10.7214L7.05396 7.43358C7.03397 7.33573 7.03345 7.23491 7.05244 7.13686C7.07142 7.03881 7.10953 6.94546 7.16459 6.86215C7.21965 6.77883 7.29059 6.70717 7.37335 6.65127C7.45611 6.59537 7.54906 6.55632 7.64692 6.53635C7.74477 6.51638 7.8456 6.51588 7.94364 6.53489C8.04168 6.55389 8.13502 6.59202 8.21833 6.6471C8.30164 6.70218 8.37328 6.77313 8.42916 6.85589C8.48505 6.93866 8.52408 7.03163 8.54403 7.12949L9.21152 10.4157C9.52727 11.954 10.3473 12.8318 11.7492 13.9128C11.7908 13.9448 11.8328 13.9767 11.8754 14.0076C12.09 14.1701 12.2656 14.3783 12.3895 14.6173C12.5134 14.8562 12.5824 15.1197 12.5915 15.3887V15.4044L12.6463 18.4778C12.6578 19.2062 12.5108 19.9284 12.2155 20.5943C10.3965 24.7234 10.3757 27.5647 10.3757 27.6833C10.373 27.789 10.3915 27.8941 10.4301 27.9925C10.4687 28.0909 10.5266 28.1806 10.6004 28.2563C10.6742 28.332 10.7624 28.3922 10.8598 28.4333C10.9572 28.4743 11.0619 28.4955 11.1676 28.4955C11.2733 28.4955 11.378 28.4743 11.4754 28.4333C11.5728 28.3922 11.661 28.332 11.7348 28.2563C11.8086 28.1806 11.8665 28.0909 11.9051 27.9925C11.9437 27.8941 11.9622 27.789 11.9595 27.6833C11.9595 27.659 11.9773 25.2034 13.5084 21.5872C13.6369 21.2822 13.8526 21.022 14.1284 20.8391C14.4042 20.6562 14.7278 20.5587 15.0588 20.5588H15.0643C15.3952 20.5603 15.7183 20.6592 15.9933 20.8433C16.2682 21.0273 16.4828 21.2884 16.6102 21.5938C18.1418 25.21 18.1595 27.6655 18.1595 27.6899C18.1568 27.7956 18.1753 27.9007 18.2139 27.9991C18.2525 28.0975 18.3104 28.1872 18.3842 28.2629C18.458 28.3386 18.5462 28.3988 18.6437 28.4398C18.7411 28.4809 18.8457 28.5021 18.9514 28.5021C19.0571 28.5021 19.1618 28.4809 19.2592 28.4398C19.3566 28.3988 19.4448 28.3386 19.5186 28.2629C19.5924 28.1872 19.6503 28.0975 19.6889 27.9991C19.7275 27.9007 19.746 27.7956 19.7433 27.6899C19.7433 27.5708 19.7221 24.7265 17.9 20.5943C17.6051 19.9302 17.4578 19.21 17.4682 18.4834L17.5189 15.413V15.3963C17.5281 15.1274 17.5971 14.864 17.721 14.6251C17.8449 14.3863 18.0205 14.1781 18.235 14.0157C18.2776 13.9843 18.3197 13.9524 18.3612 13.9204C19.7631 12.8389 20.5832 11.9611 20.8994 10.4233L21.5745 7.13658C21.6175 6.94174 21.7354 6.77162 21.9027 6.66294C22.0701 6.55425 22.2734 6.5157 22.4689 6.55561C22.6644 6.59552 22.8364 6.71069 22.9477 6.87627C23.0591 7.04185 23.1009 7.24457 23.0641 7.44068L22.389 10.7269C21.9835 12.7127 20.9004 13.8819 19.2902 15.1241C19.2396 15.1632 19.1889 15.2012 19.1382 15.2392C19.1075 15.2651 19.0827 15.2972 19.0652 15.3333C19.0477 15.3695 19.0381 15.4089 19.0368 15.449L18.9861 18.5072C18.9796 19.0146 19.0834 19.5173 19.2902 19.9805C21.2076 24.3291 21.2628 27.3599 21.2628 27.6909C21.2612 28.3029 21.0173 28.8894 20.5845 29.3221C20.1517 29.7548 19.5652 29.9985 18.9532 30Z" fill="#160603"/>
</svg>
