<svg width="13" height="13" viewBox="0 0 13 13" fill="none" xmlns="http://www.w3.org/2000/svg">
<path d="M6.50026 9.92773C7.1303 9.92773 7.64284 9.4152 7.64284 8.78516C7.64284 8.15511 7.1303 7.64258 6.50026 7.64258C5.87022 7.64258 5.35768 8.15511 5.35768 8.78516C5.35768 9.4152 5.87022 9.92773 6.50026 9.92773ZM6.50026 8.2466L7.03882 8.78516L6.50026 9.32372L5.9617 8.78516L6.50026 8.2466ZM9.02716 0.467137C8.77351 0.259238 8.45737 0 8.0237 0C7.59002 0 7.27424 0.259238 7.02023 0.467137C6.82792 0.625219 6.66167 0.761719 6.50026 0.761719C6.33885 0.761719 6.17259 0.625219 5.98028 0.467137C5.72628 0.259238 5.41049 0 4.97682 0C4.54315 0 4.22701 0.259238 3.97336 0.467137C3.82086 0.59249 3.67692 0.710379 3.54415 0.748693L3.09375 0.877373L3.31208 1.29208C3.47611 1.60413 3.70224 1.87936 3.92057 2.14604C4.16846 2.44806 4.40134 2.76425 4.51733 3.07227H8.48324C8.59923 2.76425 8.83211 2.44806 9.08 2.14604C9.29833 1.87936 9.52446 1.60413 9.68848 1.29208L9.90682 0.877373L9.45641 0.748693C9.32359 0.710404 9.17965 0.59249 9.02716 0.467137Z" fill="#8A8281"/>
<path d="M4.21484 13H8.78516C10.255 13 11.4512 11.7785 11.4512 10.3086C11.4512 7.41569 10.0668 5.73346 9.1504 4.62026C8.90744 4.32471 8.6953 4.05953 8.55758 3.83398H6.9241C7.05334 4.46245 7.48358 4.99213 7.97436 5.58802L7.38596 6.07227C7.06558 5.68275 6.74111 5.28564 6.5 4.8456C6.25889 5.28564 5.93442 5.68278 5.61404 6.07227L5.02564 5.58802C5.51642 4.99213 5.94664 4.46245 6.0759 3.83398H4.44242C4.3047 4.0595 4.09256 4.32471 3.8496 4.62026C2.93315 5.73346 1.54883 7.41569 1.54883 10.3086C1.54883 11.7785 2.74496 13 4.21484 13ZM6.5 6.88086C7.54998 6.88086 8.4043 7.73518 8.4043 8.78516C8.4043 9.83513 7.54998 10.6895 6.5 10.6895C5.45002 10.6895 4.5957 9.83513 4.5957 8.78516C4.5957 7.73518 5.45002 6.88086 6.5 6.88086Z" fill="#8A8281"/>
</svg>
