<svg width="36" height="44" viewBox="0 0 36 44" fill="none" xmlns="http://www.w3.org/2000/svg">
<g clip-path="url(#clip0_381_3258)">
<path d="M17.9707 0V3.90385L32.2756 12.7188L35.443 10.7669L17.9707 0Z" fill="url(#paint0_linear_381_3258)"/>
<path d="M0.498047 10.7669L3.66541 12.7188L17.9703 3.90385V0L0.498047 10.7669Z" fill="url(#paint1_linear_381_3258)"/>
<path d="M35.4428 10.7668L32.2754 12.7188V30.3481L35.4428 32.3001V10.7668Z" fill="url(#paint2_linear_381_3258)"/>
<path d="M0.498047 32.3001L3.66541 30.3481V12.7188L0.498047 10.7668V32.3001Z" fill="url(#paint3_linear_381_3258)"/>
<path d="M35.4416 32.3001L32.2743 30.3481L17.9688 39.1631V43.067L35.4416 32.3001Z" fill="url(#paint4_linear_381_3258)"/>
<path d="M17.9703 43.067V39.1631L3.66541 30.3481L0.498047 32.3001L17.9703 43.067Z" fill="url(#paint5_linear_381_3258)"/>
<path d="M3.66406 30.3481L5.32025 29.3279V13.7389L3.66406 12.7188V30.3481Z" fill="url(#paint6_linear_381_3258)"/>
<path d="M17.969 39.1633V37.1223L5.32025 29.3281L3.66406 30.3489L17.969 39.1633Z" fill="url(#paint7_linear_381_3258)"/>
<path d="M32.2743 30.3483L30.6175 29.3281L17.9688 37.1223V39.1633L32.2743 30.3483Z" fill="url(#paint8_linear_381_3258)"/>
<path d="M32.2759 12.7183L30.6191 13.7391V29.3281L32.2759 30.3482V12.7183Z" fill="url(#paint9_linear_381_3258)"/>
<path d="M17.9707 3.90381V5.94479L30.6194 13.739L32.2756 12.7182L17.9707 3.90381Z" fill="url(#paint10_linear_381_3258)"/>
<path d="M5.32031 29.3281L5.32089 13.7397L17.9696 5.94556L30.6178 13.7397V29.3275L17.9691 37.1223L5.32031 29.3281Z" fill="#302D76"/>
<path opacity="0.5" d="M17.9701 27.9712L10.9914 31.2068L11.7177 23.1228L6.67773 17.0379L14.1058 15.2776L17.9701 8.28125L21.8344 15.2776L29.2625 17.0379L24.2231 23.1228L24.9494 31.2068L17.9701 27.9712Z" fill="#0C0F38"/>
<path d="M3.66406 12.7188L5.32025 13.739L17.9696 5.94479L17.969 3.90381L3.66406 12.7188Z" fill="url(#paint11_linear_381_3258)"/>
<path d="M28.1418 17.3561L17.9688 20.8841L21.4503 15.7703L28.1418 17.3561Z" fill="url(#paint12_linear_381_3258)"/>
<path d="M23.6014 22.8371L17.9688 20.8839L28.1418 17.356L23.6014 22.8371Z" fill="url(#paint13_linear_381_3258)"/>
<path d="M17.9693 9.46777V20.8839L14.4883 15.7701L17.9693 9.46777Z" fill="url(#paint14_linear_381_3258)"/>
<path d="M21.4503 15.7701L17.9688 20.8839V9.46777L21.4503 15.7701Z" fill="url(#paint15_linear_381_3258)"/>
<path d="M7.79688 17.356L17.9694 20.8839L12.3367 22.8371L7.79688 17.356Z" fill="url(#paint16_linear_381_3258)"/>
<path d="M14.4884 15.7703L17.9694 20.8841L7.79688 17.3561L14.4884 15.7703Z" fill="url(#paint17_linear_381_3258)"/>
<path d="M11.6816 30.1197L17.9686 20.884V27.2054L11.6816 30.1197Z" fill="url(#paint18_linear_381_3258)"/>
<path d="M12.3359 22.8372L17.9686 20.884L11.6816 30.1197L12.3359 22.8372Z" fill="url(#paint19_linear_381_3258)"/>
<path d="M24.2563 30.1197L17.9688 20.884L23.6014 22.8372L24.2563 30.1197Z" fill="url(#paint20_linear_381_3258)"/>
<path opacity="0.5" d="M17.971 5.94482L5.32227 13.739V29.3274L17.971 37.1216L30.6197 29.3274V13.739L17.971 5.94482ZM29.9936 28.9423L17.9704 36.3508L5.9478 28.9423V14.1247L17.971 6.71626L29.9942 14.1247L29.9936 28.9423Z" fill="#0C0F38"/>
<path d="M28.1427 17.3561L27.6771 17.5177L21.4512 15.7703L28.1427 17.3561Z" fill="#DBA0FC"/>
<path d="M23.6016 22.8371L28.142 17.356L27.6764 17.5175L23.6016 22.8371Z" fill="#DBA0FC"/>
<path d="M17.9693 9.46777V9.99046L14.4883 15.7701L17.9693 9.46777Z" fill="#FAC2FC"/>
<path d="M21.4503 15.7701L17.9688 9.46777V9.99046L21.4503 15.7701Z" fill="#FAC2FC"/>
<path d="M7.79688 17.356L8.26243 17.5175L12.3367 22.8371L7.79688 17.356Z" fill="#DBA0FC"/>
<path d="M14.4884 15.7703L7.79688 17.3561L8.26243 17.5177L14.4884 15.7703Z" fill="#F7B9F9"/>
<path d="M11.6816 30.1197L11.9694 29.6971L17.9686 27.2053L11.6816 30.1197Z" fill="#DBA0FC"/>
<path d="M12.3359 22.8372L11.6816 30.1197L11.9694 29.6971L12.3359 22.8372Z" fill="#DBA0FC"/>
<path d="M24.2563 30.1197L17.9688 27.2054V20.884L24.2563 30.1197Z" fill="url(#paint21_linear_381_3258)"/>
<path d="M24.2564 30.1197L23.9687 29.6971L23.6016 22.8372L24.2564 30.1197Z" fill="#DBA0FC"/>
<path d="M17.9688 27.2053L24.2563 30.1197L23.9686 29.6971L17.9688 27.2053Z" fill="#DBA0FC"/>
<path d="M17.9688 38.952V39.1633L32.2743 30.3483L32.1022 30.2427L17.9688 38.952Z" fill="#FAC2FC"/>
<path d="M32.1035 30.2425L32.275 30.3481V12.7188L32.1035 12.8244V30.2425Z" fill="#FAC2FC"/>
<path d="M32.1041 12.8244L32.2756 12.7188L17.9707 3.90381V4.11509L32.1041 12.8244Z" fill="#DFADF9"/>
<path d="M17.9696 4.11509V3.90381L3.66406 12.7188L3.83613 12.8244L17.9696 4.11509Z" fill="#DBA0FC"/>
<path d="M3.83555 12.8244L3.66406 12.7188V30.3481L3.83555 30.2425V12.8244Z" fill="#DBA0FC"/>
<path d="M3.83555 30.2427L3.66406 30.3483L17.969 39.1633V38.952L3.83555 30.2427Z" fill="#DFADF9"/>
<path d="M17.9703 32.7761V44L12.9355 39.9641L17.9703 32.7761Z" fill="url(#paint22_linear_381_3258)"/>
<path d="M17.9688 32.7761V44L23.0041 39.9641L17.9688 32.7761Z" fill="url(#paint23_linear_381_3258)"/>
<path d="M9.10675 15.8508L0 10.2388L5.76041 7.52344L9.10675 15.8508Z" fill="url(#paint24_linear_381_3258)"/>
<path d="M9.10675 15.8507L0 10.2388L0.497203 16.944L9.10675 15.8507Z" fill="url(#paint25_linear_381_3258)"/>
<path d="M26.8926 15.8507L35.9993 10.2387L30.2268 7.55347L26.8926 15.8507Z" fill="url(#paint26_linear_381_3258)"/>
<path d="M26.8926 15.8507L35.9993 10.2388L35.4417 16.936L26.8926 15.8507Z" fill="url(#paint27_linear_381_3258)"/>
<path opacity="0.5" d="M9.10759 15.8506L0.498047 17.4745V16.9439L9.10759 15.8506Z" fill="#0C0F38"/>
<path opacity="0.5" d="M26.8926 15.8506L35.5021 17.4745V16.9439L26.8926 15.8506Z" fill="#0C0F38"/>
</g>
<defs>
<linearGradient id="paint0_linear_381_3258" x1="17.3332" y1="1.47899" x2="35.0079" y2="11.1726" gradientUnits="userSpaceOnUse">
<stop stop-color="#D0ABFC"/>
<stop offset="1" stop-color="#CD96FB"/>
</linearGradient>
<linearGradient id="paint1_linear_381_3258" x1="1.1837" y1="12.2755" x2="19.1515" y2="2.58976" gradientUnits="userSpaceOnUse">
<stop stop-color="#DBA0FC"/>
<stop offset="1" stop-color="#CD96FB"/>
</linearGradient>
<linearGradient id="paint2_linear_381_3258" x1="33.859" y1="10.9722" x2="33.859" y2="31.9238" gradientUnits="userSpaceOnUse">
<stop stop-color="#B182EA"/>
<stop offset="1" stop-color="#AD7AEB"/>
</linearGradient>
<linearGradient id="paint3_linear_381_3258" x1="2.08178" y1="11.2906" x2="2.08178" y2="32.3074" gradientUnits="userSpaceOnUse">
<stop stop-color="#B182EA"/>
<stop offset="1" stop-color="#AD7AEB"/>
</linearGradient>
<linearGradient id="paint4_linear_381_3258" x1="34.7559" y1="30.7915" x2="16.788" y2="40.4772" gradientUnits="userSpaceOnUse">
<stop stop-color="#732CEB"/>
<stop offset="1" stop-color="#8B63CC"/>
</linearGradient>
<linearGradient id="paint5_linear_381_3258" x1="18.6077" y1="41.5881" x2="0.933102" y2="31.8944" gradientUnits="userSpaceOnUse">
<stop stop-color="#7B54C7"/>
<stop offset="1" stop-color="#A272E0"/>
</linearGradient>
<linearGradient id="paint6_linear_381_3258" x1="4.49224" y1="13.0099" x2="4.49224" y2="29.7748" gradientUnits="userSpaceOnUse">
<stop stop-color="#D0ABFC"/>
<stop offset="1" stop-color="#CD96FB"/>
</linearGradient>
<linearGradient id="paint7_linear_381_3258" x1="4.01299" y1="29.5621" x2="18.7808" y2="37.5181" gradientUnits="userSpaceOnUse">
<stop stop-color="#DBA0FC"/>
<stop offset="1" stop-color="#CD96FB"/>
</linearGradient>
<linearGradient id="paint8_linear_381_3258" x1="17.7354" y1="38.3083" x2="31.9551" y2="30.5798" gradientUnits="userSpaceOnUse">
<stop stop-color="#B182EA"/>
<stop offset="1" stop-color="#AD7AEB"/>
</linearGradient>
<linearGradient id="paint9_linear_381_3258" x1="31.4475" y1="29.5032" x2="31.4475" y2="13.3264" gradientUnits="userSpaceOnUse">
<stop stop-color="#7B54C7"/>
<stop offset="1" stop-color="#A272E0"/>
</linearGradient>
<linearGradient id="paint10_linear_381_3258" x1="17.5832" y1="4.66019" x2="32.1113" y2="12.562" gradientUnits="userSpaceOnUse">
<stop stop-color="#8E63D7"/>
<stop offset="1" stop-color="#8B63CC"/>
</linearGradient>
<linearGradient id="paint11_linear_381_3258" x1="4.02552" y1="13.6994" x2="18.4565" y2="5.55213" gradientUnits="userSpaceOnUse">
<stop stop-color="#B182EA"/>
<stop offset="1" stop-color="#AD7AEB"/>
</linearGradient>
<linearGradient id="paint12_linear_381_3258" x1="22.9865" y1="18.8999" x2="22.0146" y2="16.1678" gradientUnits="userSpaceOnUse">
<stop stop-color="#DBA0FC"/>
<stop offset="1" stop-color="#CD96FB"/>
</linearGradient>
<linearGradient id="paint13_linear_381_3258" x1="24.2157" y1="22.7117" x2="23.2111" y2="19.982" gradientUnits="userSpaceOnUse">
<stop stop-color="#8E63D7"/>
<stop offset="1" stop-color="#8B63CC"/>
</linearGradient>
<linearGradient id="paint14_linear_381_3258" x1="16.2782" y1="10.3255" x2="16.2103" y2="20.0048" gradientUnits="userSpaceOnUse">
<stop stop-color="#DBA0FC"/>
<stop offset="1" stop-color="#BF8CEB"/>
</linearGradient>
<linearGradient id="paint15_linear_381_3258" x1="19.6095" y1="20.7709" x2="19.7624" y2="9.83413" gradientUnits="userSpaceOnUse">
<stop stop-color="#7B54C7"/>
<stop offset="1" stop-color="#A272E0"/>
</linearGradient>
<linearGradient id="paint16_linear_381_3258" x1="15.1291" y1="21.8469" x2="7.92448" y2="18.2563" gradientUnits="userSpaceOnUse">
<stop stop-color="#7B54C7"/>
<stop offset="1" stop-color="#A272E0"/>
</linearGradient>
<linearGradient id="paint17_linear_381_3258" x1="18.1924" y1="19.0318" x2="8.62204" y2="16.09" gradientUnits="userSpaceOnUse">
<stop stop-color="#DBA0FC"/>
<stop offset="1" stop-color="#CD96FB"/>
</linearGradient>
<linearGradient id="paint18_linear_381_3258" x1="15.2651" y1="25.8648" x2="17.3283" y2="27.3585" gradientUnits="userSpaceOnUse">
<stop stop-color="#8E63D7"/>
<stop offset="1" stop-color="#8B63CC"/>
</linearGradient>
<linearGradient id="paint19_linear_381_3258" x1="11.8853" y1="23.3662" x2="14.6549" y2="25.1325" gradientUnits="userSpaceOnUse">
<stop stop-color="#B182EA"/>
<stop offset="1" stop-color="#AD7AEB"/>
</linearGradient>
<linearGradient id="paint20_linear_381_3258" x1="19.5759" y1="20.0297" x2="25.5527" y2="27.9731" gradientUnits="userSpaceOnUse">
<stop stop-color="#B182EA"/>
<stop offset="1" stop-color="#AD7AEB"/>
</linearGradient>
<linearGradient id="paint21_linear_381_3258" x1="17.6009" y1="23.1335" x2="22.5333" y2="29.9511" gradientUnits="userSpaceOnUse">
<stop stop-color="#7B54C7"/>
<stop offset="1" stop-color="#A272E0"/>
</linearGradient>
<linearGradient id="paint22_linear_381_3258" x1="15.4529" y1="43.9031" x2="15.4529" y2="33.9397" gradientUnits="userSpaceOnUse">
<stop stop-color="#7B54C7"/>
<stop offset="1" stop-color="#A272E0"/>
</linearGradient>
<linearGradient id="paint23_linear_381_3258" x1="20.4866" y1="43.4255" x2="20.4866" y2="31.3593" gradientUnits="userSpaceOnUse">
<stop stop-color="#D0ABFC"/>
<stop offset="1" stop-color="#CD96FB"/>
</linearGradient>
<linearGradient id="paint24_linear_381_3258" x1="1.34953" y1="7.93809" x2="9.68856" y2="12.4491" gradientUnits="userSpaceOnUse">
<stop stop-color="#D0ABFC"/>
<stop offset="1" stop-color="#CD96FB"/>
</linearGradient>
<linearGradient id="paint25_linear_381_3258" x1="7.0731" y1="15.9327" x2="0.313382" y2="13.897" gradientUnits="userSpaceOnUse">
<stop stop-color="#7B54C7"/>
<stop offset="1" stop-color="#A272E0"/>
</linearGradient>
<linearGradient id="paint26_linear_381_3258" x1="34.6545" y1="7.94644" x2="26.3154" y2="12.4575" gradientUnits="userSpaceOnUse">
<stop stop-color="#D0ABFC"/>
<stop offset="1" stop-color="#CD96FB"/>
</linearGradient>
<linearGradient id="paint27_linear_381_3258" x1="28.2087" y1="16.536" x2="37.5933" y2="13.3026" gradientUnits="userSpaceOnUse">
<stop stop-color="#7B54C7"/>
<stop offset="1" stop-color="#A272E0"/>
</linearGradient>
<clipPath id="clip0_381_3258">
<rect width="36" height="44" fill="white"/>
</clipPath>
</defs>
</svg>
