<svg width="15" height="16" viewBox="0 0 15 16" fill="none" xmlns="http://www.w3.org/2000/svg">
<path d="M11.0812 5.33334H10.4655V4.00001C10.4655 2.16001 9.08655 0.666672 7.38742 0.666672C5.68829 0.666672 4.30928 2.16001 4.30928 4.00001H5.54054C5.54054 2.89334 6.36548 2.00001 7.38742 2.00001C8.40936 2.00001 9.2343 2.89334 9.2343 4.00001V5.33334H3.69366C3.01647 5.33334 2.4624 5.93334 2.4624 6.66667V13.3333C2.4624 14.0667 3.01647 14.6667 3.69366 14.6667H11.0812C11.7584 14.6667 12.3124 14.0667 12.3124 13.3333V6.66667C12.3124 5.93334 11.7584 5.33334 11.0812 5.33334ZM11.0812 13.3333H3.69366V6.66667H11.0812V13.3333ZM7.38742 11.3333C8.06461 11.3333 8.61867 10.7333 8.61867 10C8.61867 9.26667 8.06461 8.66667 7.38742 8.66667C6.71023 8.66667 6.15616 9.26667 6.15616 10C6.15616 10.7333 6.71023 11.3333 7.38742 11.3333Z" fill="#160603"/>
</svg>
