<svg width="303" height="171" viewBox="0 0 303 171" fill="none" xmlns="http://www.w3.org/2000/svg">
<g clip-path="url(#clip0_499_3832)">
<path d="M173.661 55.9215C173.661 55.9215 165.611 49.2887 157.932 60.2708L158.465 69.2331C158.465 69.2331 164.09 54.4606 173.661 55.9215Z" fill="#FF6CE0"/>
<path d="M211.644 105.442C209.23 107.489 205.093 105.794 202.439 104.706C199.279 103.41 196.936 101.69 195.18 99.8749L199.817 95.5444C201.584 97.4009 203.96 99.1675 207.185 100.488C209.839 101.577 213.978 103.274 216.39 101.225L211.644 105.442Z" fill="url(#paint0_linear_499_3832)"/>
<path d="M220.28 66.8931C220.473 67.7303 221.431 68.6659 223.032 69.9886C223.501 70.3759 223.866 70.7421 224.144 71.0896L223.459 75.3363C223.175 74.9679 222.795 74.5786 222.292 74.1621C220.788 72.9189 219.851 72.0189 219.582 71.2193L220.28 66.8931Z" fill="url(#paint1_linear_499_3832)"/>
<path d="M188.193 87.5784C190.895 90.3705 193.65 93.2128 194.974 92.6959L199.871 90.7849C198.548 91.3019 195.793 88.4575 193.091 85.6675L188.193 87.5784Z" fill="url(#paint2_linear_499_3832)"/>
<path d="M265.93 165.684L262.054 171C259.11 166.052 258.816 163.007 260.186 161.127L262.944 157.345C263.165 159.572 264.111 162.316 265.93 165.684Z" fill="#FF6CE0"/>
<path d="M180.317 30.7695L182.998 34.0681C179.407 35.0707 177.449 34.7442 176.502 33.5784L174.594 31.2321C176.027 31.4686 177.903 31.3367 180.317 30.7695Z" fill="url(#paint3_linear_499_3832)"/>
<path d="M246.768 66.4116L250.563 71.0791C245.483 72.4981 242.713 72.0356 241.373 70.3863L238.673 67.0667C240.698 67.3974 243.352 67.2132 246.768 66.4116Z" fill="url(#paint4_linear_499_3832)"/>
<path d="M258.602 57.2065L258.486 60.5637L264.1 60.7563L264.216 57.3991L258.602 57.2065Z" fill="url(#paint5_linear_499_3832)"/>
<path d="M242.52 41.4063L240.784 40.0354L239.41 41.7642L241.146 43.1331L242.52 41.4063Z" fill="url(#paint6_linear_499_3832)"/>
<path d="M244.308 122.867L242.572 121.498L241.198 123.227L242.932 124.595L244.308 122.867Z" fill="url(#paint7_linear_499_3832)"/>
<path d="M193.718 19.8042C196.109 18.1465 196.777 16.673 195.716 15.4067L197.92 18.0398C198.973 19.2956 198.321 20.7544 195.981 22.3953L193.718 19.8042Z" fill="url(#paint8_linear_499_3832)"/>
<path d="M283.498 104.668C285.889 103.01 286.557 101.537 285.496 100.271L287.7 102.904C288.753 104.159 288.102 105.618 285.761 107.259L283.498 104.668Z" fill="url(#paint9_linear_499_3832)"/>
<path d="M210.012 29.7565L214.103 30.9997L215.701 25.7818L211.611 24.5386L210.012 29.7565Z" fill="url(#paint10_linear_499_3832)"/>
<path d="M206.799 51.725L207.633 49.0062L203.084 47.6248L202.252 50.3436L206.799 51.725Z" fill="url(#paint11_linear_499_3832)"/>
<path d="M146.033 8.15015L146.709 12.7736L141.406 13.5439L140.729 8.92038L146.033 8.15015Z" fill="url(#paint12_linear_499_3832)"/>
<path d="M176.261 2.81093L173.795 3.16884L173.383 0.357907L175.852 0L176.261 2.81093Z" fill="url(#paint13_linear_499_3832)"/>
<path d="M233.614 30.3699L237.837 27.9545C237.398 28.2057 236.891 28.279 236.32 28.1764C233.717 27.7034 230.626 23.6178 230.594 23.5759L226.371 25.9913C226.403 26.0331 229.493 30.1187 232.097 30.5917C232.668 30.6943 233.174 30.621 233.614 30.3699Z" fill="url(#paint14_linear_499_3832)"/>
<path d="M254.817 106.223L259.732 98.8389C263.984 105.331 264.556 109.417 262.82 112.027L259.324 117.278C258.898 114.292 257.463 110.652 254.817 106.223Z" fill="url(#paint15_linear_499_3832)"/>
<path d="M297.676 69.7917C300.391 73.9213 302.971 76.7824 303 76.8159L298.468 83.8045C298.437 83.771 295.899 80.9538 293.207 76.8745L297.676 69.7917Z" fill="url(#paint16_linear_499_3832)"/>
<path d="M170.312 86.3791L173.066 86.4732L173.196 82.7016L170.442 82.6074L170.312 86.3791Z" fill="url(#paint17_linear_499_3832)"/>
<path d="M207.526 114.074L210.443 114.959L211.926 110.118L209.008 109.231L207.526 114.074Z" fill="url(#paint18_linear_499_3832)"/>
<path d="M144.648 68.467C143.526 66.9747 142.562 66.5812 141.77 67.2886L143.417 65.8193C144.203 65.1181 145.159 65.5012 146.268 66.9621L144.648 68.467Z" fill="url(#paint19_linear_499_3832)"/>
<path d="M176.369 45.9293L178.031 45.9879L178.111 43.7107L176.449 43.6521L176.369 45.9293Z" fill="url(#paint20_linear_499_3832)"/>
<path d="M190.689 66.9369L192.564 67.5062L193.518 64.396L191.643 63.8267L190.689 66.9369Z" fill="url(#paint21_linear_499_3832)"/>
<path d="M79.485 111.116L75.4005 107.127C73.6671 105.434 71.2424 104.237 68.1601 103.559C61.4282 102.077 53.7949 103.607 53.7402 103.575L57.8248 107.565C57.8794 107.596 65.5127 106.066 72.2446 107.548C75.327 108.226 77.7516 109.423 79.485 111.116Z" fill="url(#paint22_linear_499_3832)"/>
<path d="M118.526 62.7217C118.872 61.9787 118.7 60.7166 118.271 58.789C118.145 58.2238 118.086 57.7362 118.08 57.3134L121.087 54.5171C121.083 54.9587 121.141 55.4757 121.276 56.0806C121.677 57.8931 121.856 59.1176 121.587 59.8752L118.526 62.7217Z" fill="url(#paint23_linear_499_3832)"/>
<path d="M111.591 120.682L110.242 116.952L106.496 118.296L107.845 122.027L111.591 120.682Z" fill="url(#paint24_linear_499_3832)"/>
<path d="M84.8298 72.9564L81.4113 73.4524L80.8398 69.5594L84.2604 69.0613L84.8298 72.9564Z" fill="url(#paint25_linear_499_3832)"/>
<path d="M108.556 26.4641C108.556 26.4641 108.039 20.8652 108.293 17.1543C108.293 17.1543 102.36 19.2327 101.921 29.9992C101.921 29.9992 101.467 36.1296 103.425 39.2817C103.427 39.2817 104.631 27.8894 108.556 26.4641Z" fill="url(#paint26_linear_499_3832)"/>
<path d="M104.328 71.2424C102.609 70.7296 101.183 70.0033 100.685 68.5403C100.586 68.2515 99.1279 63.967 99.1279 63.967C100.483 68.2326 109.787 66.2652 111.344 70.8426L112.901 75.4159C111.882 72.4208 107.583 72.2136 104.328 71.2424Z" fill="url(#paint27_linear_499_3832)"/>
<path d="M99.1276 63.967C98.3964 61.6689 100.47 59.1133 101.8 57.4766C103.382 55.5259 105.042 54.2826 106.62 53.4915L108.276 58.0145C106.668 58.8035 104.973 60.0594 103.357 62.0498C102.027 63.6866 99.9554 66.2422 100.684 68.5403L99.1276 63.967Z" fill="url(#paint28_linear_499_3832)"/>
<path d="M101.243 80.7676C102.5 81.2532 103.876 81.5463 105.242 81.3683C109.94 80.7509 112.627 74.3211 111.345 70.8425L112.724 74.5095C114.007 77.986 111.032 84.0076 106.336 84.6251C105.015 84.7988 103.683 84.5288 102.458 84.0704L101.243 80.7676Z" fill="url(#paint29_linear_499_3832)"/>
<path d="M55.6815 90.7913L57.9717 90.2722L57.2531 87.1348L54.9629 87.6538L55.6815 90.7913Z" fill="url(#paint30_linear_499_3832)"/>
<path d="M27.1211 83.1726C27.9573 83.3212 29.1739 82.8168 30.9934 81.8833C31.5271 81.6092 31.9999 81.4208 32.4222 81.3057L36.0172 83.5557C35.5738 83.6687 35.0717 83.8633 34.5023 84.1564C32.7941 85.0333 31.6154 85.5336 30.7854 85.4666L27.1211 83.1726Z" fill="url(#paint31_linear_499_3832)"/>
<path d="M13.7936 67.2279L12.2031 64.936L9.90234 66.5205L11.4929 68.8123L13.7936 67.2279Z" fill="url(#paint32_linear_499_3832)"/>
<path d="M54.5531 46.8147L53.2547 46.2517L52.6895 47.5431L53.9879 48.1082L54.5531 46.8147Z" fill="url(#paint33_linear_499_3832)"/>
<path d="M85.3027 55.6953L89.0553 54.8414L87.8766 49.7009L84.124 50.5549L85.3027 55.6953Z" fill="url(#paint34_linear_499_3832)"/>
<path d="M65.6592 13.2551L69.3277 15.5532L72.4983 10.5258L68.8297 8.22974L65.6592 13.2551Z" fill="url(#paint35_linear_499_3832)"/>
<path d="M66.7839 119.411L66.8868 116.688L62.3295 116.517L62.2266 119.24L66.7839 119.411Z" fill="url(#paint36_linear_499_3832)"/>
<path d="M7.77198 16.3506L2.36164 13.998L0 19.3897L5.41244 21.7422L7.77198 16.3506Z" fill="url(#paint37_linear_499_3832)"/>
<path d="M79.6066 46.5426L78.4531 44.6924L76.5957 45.8394L77.7471 47.6917L79.6066 46.5426Z" fill="url(#paint38_linear_499_3832)"/>
<path d="M42.072 31.1587L39.8385 32.1069L38.748 29.566L40.9815 28.6157L42.072 31.1587Z" fill="url(#paint39_linear_499_3832)"/>
<path d="M56.1201 62.9477L55.2881 62.1084C55.3742 62.1963 55.4225 62.3093 55.4351 62.4496C55.4856 63.0879 54.7145 64.0654 54.7061 64.0758L55.5381 64.9151C55.5465 64.9047 56.3176 63.9272 56.2672 63.2889C56.2546 63.1486 56.2062 63.0356 56.1201 62.9477Z" fill="url(#paint40_linear_499_3832)"/>
<path d="M73.604 80.1106C74.873 81.8583 75.724 83.5599 75.2113 85.1527C75.1105 85.4666 73.6019 90.1383 73.6019 90.1383C75.1945 85.5629 65.1365 80.0269 66.7502 75.0371L68.3596 70.0515C67.3007 73.3166 71.2003 76.7994 73.604 80.1106Z" fill="url(#paint41_linear_499_3832)"/>
<path d="M40.335 61.2564C40.5724 60.6139 40.8728 59.9211 41.2384 59.176C42.0936 57.4283 42.2953 56.1557 41.8499 55.2892C41.8267 55.2432 41.8015 55.1971 41.7742 55.1553L44.5708 59.6511C44.5981 59.695 44.6233 59.739 44.6464 59.785C45.0919 60.6537 44.8923 61.9241 44.035 63.6718C43.6694 64.4169 43.3711 65.1076 43.1315 65.7502L40.335 61.2564Z" fill="url(#paint42_linear_499_3832)"/>
<path d="M44.5682 59.6489L41.7716 55.1531C41.1371 54.1338 39.5865 53.8617 38.0821 53.5959C36.605 53.3364 35.0754 53.0664 34.4619 52.0806L37.2585 56.5764C37.872 57.5622 39.3995 57.8322 40.8787 58.0917C42.3831 58.3575 43.9358 58.6317 44.5682 59.6489Z" fill="url(#paint43_linear_499_3832)"/>
<path d="M37.5506 50.0588L34.754 45.563C35.2499 46.3625 35.17 47.5639 34.4956 49.4497C34.0942 50.5695 34.0753 51.4172 34.4388 52.0409C34.4472 52.0555 34.4556 52.0681 34.464 52.0828L37.2606 56.5786C37.2522 56.5639 37.2438 56.5514 37.2354 56.5367C36.8719 55.9151 36.8908 55.0674 37.2921 53.9455C37.9687 52.0597 38.0485 50.8583 37.5506 50.0588Z" fill="url(#paint44_linear_499_3832)"/>
</g>
<defs>
<linearGradient id="paint0_linear_499_3832" x1="197.224" y1="96.2571" x2="213.908" y2="105.651" gradientUnits="userSpaceOnUse">
<stop stop-color="#FEB81E"/>
<stop offset="1" stop-color="#FFF52A"/>
</linearGradient>
<linearGradient id="paint1_linear_499_3832" x1="222.651" y1="75.4775" x2="221.055" y2="66.7441" gradientUnits="userSpaceOnUse">
<stop stop-color="#FEB81E"/>
<stop offset="1" stop-color="#FFF52A"/>
</linearGradient>
<linearGradient id="paint2_linear_499_3832" x1="198.548" y1="92.676" x2="189.155" y2="86.1702" gradientUnits="userSpaceOnUse">
<stop stop-color="#21C4EA"/>
<stop offset="1" stop-color="#28F4F9"/>
</linearGradient>
<linearGradient id="paint3_linear_499_3832" x1="182.353" y1="34.9768" x2="175.346" y2="30.1238" gradientUnits="userSpaceOnUse">
<stop offset="5.9e-07" stop-color="#A28CFF"/>
<stop offset="1" stop-color="#825CC6"/>
</linearGradient>
<linearGradient id="paint4_linear_499_3832" x1="249.662" y1="72.3547" x2="239.748" y2="65.4884" gradientUnits="userSpaceOnUse">
<stop stop-color="#219AEA"/>
<stop offset="1" stop-color="#28F4F9"/>
</linearGradient>
<linearGradient id="paint5_linear_499_3832" x1="259.173" y1="56.6844" x2="263.493" y2="61.3299" gradientUnits="userSpaceOnUse">
<stop stop-color="#FEB81E"/>
<stop offset="0.9989" stop-color="#FF632A"/>
</linearGradient>
<linearGradient id="paint6_linear_499_3832" x1="240.094" y1="40.6856" x2="241.806" y2="42.5262" gradientUnits="userSpaceOnUse">
<stop stop-color="#FEB81E"/>
<stop offset="1" stop-color="#FF0DD8"/>
</linearGradient>
<linearGradient id="paint7_linear_499_3832" x1="241.884" y1="122.15" x2="243.596" y2="123.99" gradientUnits="userSpaceOnUse">
<stop stop-color="#FEB81E"/>
<stop offset="1" stop-color="#FF0DD8"/>
</linearGradient>
<linearGradient id="paint8_linear_499_3832" x1="194.025" y1="16.9847" x2="197.71" y2="20.9477" gradientUnits="userSpaceOnUse">
<stop stop-color="#21C4EA"/>
<stop offset="0.9995" stop-color="#2860F9"/>
</linearGradient>
<linearGradient id="paint9_linear_499_3832" x1="283.808" y1="101.85" x2="287.494" y2="105.813" gradientUnits="userSpaceOnUse">
<stop stop-color="#21C4EA"/>
<stop offset="0.9995" stop-color="#2860F9"/>
</linearGradient>
<linearGradient id="paint10_linear_499_3832" x1="210.647" y1="25.4413" x2="215.026" y2="30.1497" gradientUnits="userSpaceOnUse">
<stop stop-color="#FEB81E"/>
<stop offset="1" stop-color="#FFF52A"/>
</linearGradient>
<linearGradient id="paint11_linear_499_3832" x1="203.039" y1="47.6746" x2="206.807" y2="51.7267" gradientUnits="userSpaceOnUse">
<stop stop-color="#FEB81E"/>
<stop offset="1" stop-color="#FF0DD8"/>
</linearGradient>
<linearGradient id="paint12_linear_499_3832" x1="141.348" y1="8.3509" x2="146.043" y2="13.3991" gradientUnits="userSpaceOnUse">
<stop stop-color="#FEB81E"/>
<stop offset="1" stop-color="#FF0DD8"/>
</linearGradient>
<linearGradient id="paint13_linear_499_3832" x1="173.524" y1="0.232286" x2="176.083" y2="2.98316" gradientUnits="userSpaceOnUse">
<stop stop-color="#21C4EA"/>
<stop offset="1" stop-color="#28F4F9"/>
</linearGradient>
<linearGradient id="paint14_linear_499_3832" x1="228.897" y1="23.6477" x2="235.193" y2="30.4188" gradientUnits="userSpaceOnUse">
<stop stop-color="#21C4EA"/>
<stop offset="1" stop-color="#28F4F9"/>
</linearGradient>
<linearGradient id="paint15_linear_499_3832" x1="255.337" y1="105.43" x2="263.682" y2="110.695" gradientUnits="userSpaceOnUse">
<stop stop-color="#FEB81E"/>
<stop offset="1" stop-color="#FF0DD8"/>
</linearGradient>
<linearGradient id="paint16_linear_499_3832" x1="294.634" y1="74.6415" x2="301.613" y2="79.045" gradientUnits="userSpaceOnUse">
<stop stop-color="#21C4EA"/>
<stop offset="1" stop-color="#28F4F9"/>
</linearGradient>
<linearGradient id="paint17_linear_499_3832" x1="170.164" y1="82.8764" x2="173.309" y2="86.2583" gradientUnits="userSpaceOnUse">
<stop stop-color="#21C4EA"/>
<stop offset="0.9995" stop-color="#2860F9"/>
</linearGradient>
<linearGradient id="paint18_linear_499_3832" x1="211.878" y1="110.111" x2="207.562" y2="114.156" gradientUnits="userSpaceOnUse">
<stop stop-color="#FEB81E"/>
<stop offset="1" stop-color="#FFF52A"/>
</linearGradient>
<linearGradient id="paint19_linear_499_3832" x1="143.056" y1="66.1018" x2="144.979" y2="68.1698" gradientUnits="userSpaceOnUse">
<stop stop-color="#FEB81E"/>
<stop offset="1" stop-color="#FF0DD8"/>
</linearGradient>
<linearGradient id="paint20_linear_499_3832" x1="176.274" y1="43.8221" x2="178.173" y2="45.8639" gradientUnits="userSpaceOnUse">
<stop stop-color="#FEB81E"/>
<stop offset="0.9989" stop-color="#FF632A"/>
</linearGradient>
<linearGradient id="paint21_linear_499_3832" x1="190.956" y1="64.474" x2="193.218" y2="66.9069" gradientUnits="userSpaceOnUse">
<stop stop-color="#21C4EA"/>
<stop offset="1" stop-color="#28F4F9"/>
</linearGradient>
<linearGradient id="paint22_linear_499_3832" x1="74.9491" y1="102.888" x2="58.2573" y2="111.975" gradientUnits="userSpaceOnUse">
<stop stop-color="#FEB81E"/>
<stop offset="0.9989" stop-color="#FF632A"/>
</linearGradient>
<linearGradient id="paint23_linear_499_3832" x1="118.336" y1="57.0834" x2="121.24" y2="60.2062" gradientUnits="userSpaceOnUse">
<stop stop-color="#21C4EA"/>
<stop offset="0.9995" stop-color="#2860F9"/>
</linearGradient>
<linearGradient id="paint24_linear_499_3832" x1="107.248" y1="117.608" x2="110.801" y2="121.429" gradientUnits="userSpaceOnUse">
<stop stop-color="#FEB81E"/>
<stop offset="1" stop-color="#FF0DD8"/>
</linearGradient>
<linearGradient id="paint25_linear_499_3832" x1="81.0416" y1="69.3806" x2="84.586" y2="73.1921" gradientUnits="userSpaceOnUse">
<stop stop-color="#FEB81E"/>
<stop offset="1" stop-color="#FF0DD8"/>
</linearGradient>
<linearGradient id="paint26_linear_499_3832" x1="103.112" y1="38.1738" x2="125.298" y2="19.6078" gradientUnits="userSpaceOnUse">
<stop stop-color="#8C00D4"/>
<stop offset="0.00275824" stop-color="#8D01D4"/>
<stop offset="0.1094" stop-color="#AE18DF"/>
<stop offset="0.2187" stop-color="#C92AE7"/>
<stop offset="0.3306" stop-color="#DB37ED"/>
<stop offset="0.4464" stop-color="#E63EF1"/>
<stop offset="0.5726" stop-color="#EA41F2"/>
<stop offset="0.9022" stop-color="#9400E3"/>
</linearGradient>
<linearGradient id="paint27_linear_499_3832" x1="108.759" y1="67.4171" x2="103.374" y2="72.0168" gradientUnits="userSpaceOnUse">
<stop offset="0.148" stop-color="#F7931E"/>
<stop offset="0.8101" stop-color="#F0601D"/>
</linearGradient>
<linearGradient id="paint28_linear_499_3832" x1="109.01" y1="56.2805" x2="98.1468" y2="65.5593" gradientUnits="userSpaceOnUse">
<stop stop-color="#FEB81E"/>
<stop offset="1" stop-color="#FFF52A"/>
</linearGradient>
<linearGradient id="paint29_linear_499_3832" x1="114.068" y1="74.0229" x2="102.398" y2="83.9908" gradientUnits="userSpaceOnUse">
<stop stop-color="#FEB81E"/>
<stop offset="1" stop-color="#FFF52A"/>
</linearGradient>
<linearGradient id="paint30_linear_499_3832" x1="54.8171" y1="87.9281" x2="58.1495" y2="90.0307" gradientUnits="userSpaceOnUse">
<stop stop-color="#FEB81E"/>
<stop offset="0.9989" stop-color="#FF632A"/>
</linearGradient>
<linearGradient id="paint31_linear_499_3832" x1="28.3144" y1="81.3252" x2="34.8476" y2="85.4472" gradientUnits="userSpaceOnUse">
<stop stop-color="#FEB81E"/>
<stop offset="1" stop-color="#FF0DD8"/>
</linearGradient>
<linearGradient id="paint32_linear_499_3832" x1="10.3132" y1="65.9124" x2="13.4158" y2="67.8699" gradientUnits="userSpaceOnUse">
<stop stop-color="#FEB81E"/>
<stop offset="1" stop-color="#FFF52A"/>
</linearGradient>
<linearGradient id="paint33_linear_499_3832" x1="52.9582" y1="46.7633" x2="54.3193" y2="47.6222" gradientUnits="userSpaceOnUse">
<stop stop-color="#FEB81E"/>
<stop offset="1" stop-color="#FF0DD8"/>
</linearGradient>
<linearGradient id="paint34_linear_499_3832" x1="83.8721" y1="50.9953" x2="89.3327" y2="54.4406" gradientUnits="userSpaceOnUse">
<stop stop-color="#21C4EA"/>
<stop offset="0.9995" stop-color="#2860F9"/>
</linearGradient>
<linearGradient id="paint35_linear_499_3832" x1="68.2907" y1="8.34569" x2="69.8976" y2="15.4165" gradientUnits="userSpaceOnUse">
<stop stop-color="#FEB81E"/>
<stop offset="0.9989" stop-color="#FF632A"/>
</linearGradient>
<linearGradient id="paint36_linear_499_3832" x1="62.3261" y1="116.564" x2="66.8185" y2="119.399" gradientUnits="userSpaceOnUse">
<stop stop-color="#FEB81E"/>
<stop offset="1" stop-color="#FF0DD8"/>
</linearGradient>
<linearGradient id="paint37_linear_499_3832" x1="1.06124" y1="16.1021" x2="6.73721" y2="19.6833" gradientUnits="userSpaceOnUse">
<stop stop-color="#FEB81E"/>
<stop offset="1" stop-color="#FFF52A"/>
</linearGradient>
<linearGradient id="paint38_linear_499_3832" x1="76.8812" y1="45.427" x2="79.3516" y2="46.9857" gradientUnits="userSpaceOnUse">
<stop stop-color="#FEB81E"/>
<stop offset="1" stop-color="#FF0DD8"/>
</linearGradient>
<linearGradient id="paint39_linear_499_3832" x1="38.8783" y1="29.4024" x2="41.9734" y2="31.3553" gradientUnits="userSpaceOnUse">
<stop stop-color="#21C4EA"/>
<stop offset="0.9995" stop-color="#2860F9"/>
</linearGradient>
<linearGradient id="paint40_linear_499_3832" x1="54.7072" y1="63.0703" x2="56.1712" y2="63.9941" gradientUnits="userSpaceOnUse">
<stop stop-color="#FEB81E"/>
<stop offset="1" stop-color="#FFF52A"/>
</linearGradient>
<linearGradient id="paint41_linear_499_3832" x1="64.7099" y1="69.2738" x2="77.5912" y2="91.5836" gradientUnits="userSpaceOnUse">
<stop stop-color="#8C00D4"/>
<stop offset="0.00275824" stop-color="#8D01D4"/>
<stop offset="0.1094" stop-color="#AE18DF"/>
<stop offset="0.2187" stop-color="#C92AE7"/>
<stop offset="0.3306" stop-color="#DB37ED"/>
<stop offset="0.4464" stop-color="#E63EF1"/>
<stop offset="0.5726" stop-color="#EA41F2"/>
<stop offset="0.9022" stop-color="#9400E3"/>
</linearGradient>
<linearGradient id="paint42_linear_499_3832" x1="43.857" y1="57.0935" x2="39.2014" y2="62.137" gradientUnits="userSpaceOnUse">
<stop stop-color="#21C4EA"/>
<stop offset="1" stop-color="#28F4F9"/>
</linearGradient>
<linearGradient id="paint43_linear_499_3832" x1="35.7153" y1="49.0986" x2="41.2339" y2="61.1126" gradientUnits="userSpaceOnUse">
<stop stop-color="#21C4EA"/>
<stop offset="0.9995" stop-color="#2860F9"/>
</linearGradient>
<linearGradient id="paint44_linear_499_3832" x1="37.2922" y1="47.9227" x2="32.9564" y2="52.6198" gradientUnits="userSpaceOnUse">
<stop stop-color="#21C4EA"/>
<stop offset="1" stop-color="#28F4F9"/>
</linearGradient>
<clipPath id="clip0_499_3832">
<rect width="303" height="171" fill="white"/>
</clipPath>
</defs>
</svg>
