<svg width="18" height="17" viewBox="0 0 18 17" fill="none" xmlns="http://www.w3.org/2000/svg">
<path d="M2.64819 2.93945H15.1762C15.3511 2.93945 15.5188 3.02115 15.6425 3.16663C15.7661 3.3121 15.8356 3.50937 15.8356 3.71511L15.8356 6.62123" stroke="#160603" stroke-width="0.845079" stroke-linecap="round" stroke-linejoin="round"/>
<path d="M15.8358 12.4392L15.8358 14.9632C15.8358 15.8201 15.2454 16.5146 14.5171 16.5146H2.31874C1.59042 16.5146 1 15.8201 1 14.9632V2.55149C1 1.69461 1.59042 1 2.31874 1H16.1655C16.8938 1 17.4842 1.69461 17.4842 2.55149V14.2175C17.4842 14.6745 17.2648 15.0923 16.9173 15.2967" stroke="#160603" stroke-width="0.845079" stroke-linecap="round" stroke-linejoin="round"/>
<path d="M17.484 7.20581L15.8356 7.98155H12.5387C12.3655 7.98155 12.194 8.02169 12.034 8.09966C11.8741 8.17763 11.7287 8.29184 11.6062 8.4359C11.4838 8.57997 11.3866 8.75105 11.3204 8.93929C11.2541 9.12752 11.22 9.3293 11.22 9.53304C11.22 9.94451 11.3589 10.339 11.6062 10.63C11.8535 10.9209 12.189 11.0844 12.5387 11.0844H15.8356L17.484 10.3087" stroke="#160603" stroke-width="0.845079" stroke-linejoin="round"/>
</svg>
