<svg width="20" height="21" viewBox="0 0 20 21" fill="none" xmlns="http://www.w3.org/2000/svg">
<path d="M18.75 15.5V17.0625C18.75 17.9244 18.0487 18.625 17.1875 18.625H3.75C2.37125 18.625 1.25 17.5037 1.25 16.125V5.5C1.25 4.12125 2.37125 3 3.75 3H15.3125C15.4356 3 15.5575 3.02425 15.6713 3.07136C15.785 3.11848 15.8884 3.18753 15.9754 3.27459C16.0625 3.36164 16.1315 3.46499 16.1786 3.57873C16.2257 3.69248 16.25 3.81439 16.25 3.9375C16.25 4.06061 16.2257 4.18252 16.1786 4.29627C16.1315 4.41001 16.0625 4.51336 15.9754 4.60041C15.8884 4.68747 15.785 4.75652 15.6713 4.80364C15.5575 4.85075 15.4356 4.875 15.3125 4.875H3.75C3.58908 4.8822 3.43713 4.95119 3.3258 5.06761C3.21447 5.18404 3.15233 5.33891 3.15233 5.5C3.15233 5.66109 3.21447 5.81596 3.3258 5.93239C3.43713 6.04881 3.58908 6.1178 3.75 6.125H17.1875C18.0487 6.125 18.75 6.82562 18.75 7.6875V9.25H15.625C13.9019 9.25 12.5 10.6519 12.5 12.375C12.5 14.0981 13.9019 15.5 15.625 15.5H18.75Z" fill="#ABA8B0"/>
<path d="M18.75 10.5V14.25H15.625C15.1277 14.25 14.6508 14.0525 14.2992 13.7008C13.9475 13.3492 13.75 12.8723 13.75 12.375C13.75 11.8777 13.9475 11.4008 14.2992 11.0492C14.6508 10.6975 15.1277 10.5 15.625 10.5H18.75Z" fill="#ABA8B0"/>
</svg>
