<svg width="13" height="13" viewBox="0 0 13 13" fill="none" xmlns="http://www.w3.org/2000/svg">
<g clip-path="url(#clip0_477_2021)">
<path d="M6.5 0C2.91576 0 0 2.91576 0 6.5C0 10.0842 2.91576 13 6.5 13C10.0842 13 13 10.0842 13 6.5C13 2.91576 10.0842 0 6.5 0Z" fill="#FF2147"/>
<path d="M8.89341 8.12767C9.10517 8.33953 9.10517 8.68182 8.89341 8.89365C8.84316 8.94403 8.78345 8.98398 8.71772 9.01121C8.65199 9.03845 8.58152 9.05242 8.51037 9.05235C8.37173 9.05235 8.23308 8.99928 8.12743 8.89365L6.49976 7.26589L4.87209 8.89368C4.82186 8.94405 4.76216 8.984 4.69644 9.01123C4.63072 9.03846 4.56027 9.05244 4.48913 9.05237C4.41798 9.05245 4.34752 9.03847 4.28179 9.01123C4.21606 8.984 4.15636 8.94405 4.10611 8.89368C3.89435 8.68182 3.89435 8.33953 4.10611 8.12767L5.73388 6.5L4.10608 4.87234C3.89433 4.66048 3.89433 4.31819 4.10608 4.10635C4.31794 3.8946 4.66023 3.8946 4.87209 4.10635L6.49976 5.73412L8.12743 4.10633C8.33929 3.89457 8.68158 3.89457 8.89341 4.10633C9.10517 4.31819 9.10517 4.66048 8.89341 4.87234L7.26564 6.5L8.89341 8.12767Z" fill="#FAFAFA"/>
</g>
<defs>
<clipPath id="clip0_477_2021">
<rect width="13" height="13" fill="white"/>
</clipPath>
</defs>
</svg>
